%TF.GenerationSoftware,KiCad,Pcbnew,8.0.7*%
%TF.CreationDate,2025-01-13T15:19:17-08:00*%
%TF.ProjectId,psu_linear_reg,7073755f-6c69-46e6-9561-725f7265672e,rev?*%
%TF.SameCoordinates,Original*%
%TF.FileFunction,Drillmap*%
%TF.FilePolarity,Positive*%
%FSLAX45Y45*%
G04 Gerber Fmt 4.5, Leading zero omitted, Abs format (unit mm)*
G04 Created by KiCad (PCBNEW 8.0.7) date 2025-01-13 15:19:17*
%MOMM*%
%LPD*%
G01*
G04 APERTURE LIST*
%ADD10C,0.100000*%
%ADD11C,0.200000*%
%ADD12C,0.110000*%
%ADD13C,0.175000*%
%ADD14C,0.201000*%
G04 APERTURE END LIST*
D10*
X8750000Y-15600000D02*
G75*
G02*
X8500000Y-15350000I0J250000D01*
G01*
X18500000Y-11850000D02*
X18500000Y-15350000D01*
X8750000Y-11600000D02*
X18250000Y-11600000D01*
X18250000Y-11600000D02*
G75*
G02*
X18500000Y-11850000I0J-250000D01*
G01*
X8750000Y-15600000D02*
X18250000Y-15600000D01*
X18500000Y-15350000D02*
G75*
G02*
X18250000Y-15600000I-250000J0D01*
G01*
X8500000Y-11850000D02*
G75*
G02*
X8750000Y-11600000I250000J0D01*
G01*
X8500000Y-11850000D02*
X8500000Y-15350000D01*
D11*
D10*
X11630000Y-12640000D02*
X11670000Y-12680000D01*
X11670000Y-12640000D02*
X11630000Y-12680000D01*
X12080000Y-12440000D02*
X12120000Y-12480000D01*
X12120000Y-12440000D02*
X12080000Y-12480000D01*
X12380000Y-12540000D02*
X12420000Y-12580000D01*
X12420000Y-12540000D02*
X12380000Y-12580000D01*
X12880000Y-12340000D02*
X12920000Y-12380000D01*
X12920000Y-12340000D02*
X12880000Y-12380000D01*
X14450000Y-12440000D02*
X14490000Y-12480000D01*
X14490000Y-12440000D02*
X14450000Y-12480000D01*
X14600000Y-12540000D02*
X14640000Y-12580000D01*
X14640000Y-12540000D02*
X14600000Y-12580000D01*
X14900000Y-12640000D02*
X14940000Y-12680000D01*
X14940000Y-12640000D02*
X14900000Y-12680000D01*
X15505000Y-12805000D02*
X15545000Y-12845000D01*
X15545000Y-12805000D02*
X15505000Y-12845000D01*
X16070000Y-12640000D02*
X16110000Y-12680000D01*
X16110000Y-12640000D02*
X16070000Y-12680000D01*
X16520000Y-12440000D02*
X16560000Y-12480000D01*
X16560000Y-12440000D02*
X16520000Y-12480000D01*
X16820000Y-12540000D02*
X16860000Y-12580000D01*
X16860000Y-12540000D02*
X16820000Y-12580000D01*
X9316500Y-11960000D02*
G75*
G02*
X9243500Y-11960000I-36500J0D01*
G01*
X9243500Y-11960000D02*
G75*
G02*
X9316500Y-11960000I36500J0D01*
G01*
X9466500Y-11960000D02*
G75*
G02*
X9393500Y-11960000I-36500J0D01*
G01*
X9393500Y-11960000D02*
G75*
G02*
X9466500Y-11960000I36500J0D01*
G01*
X9616500Y-11960000D02*
G75*
G02*
X9543500Y-11960000I-36500J0D01*
G01*
X9543500Y-11960000D02*
G75*
G02*
X9616500Y-11960000I36500J0D01*
G01*
X9766500Y-11960000D02*
G75*
G02*
X9693500Y-11960000I-36500J0D01*
G01*
X9693500Y-11960000D02*
G75*
G02*
X9766500Y-11960000I36500J0D01*
G01*
X9916500Y-11960000D02*
G75*
G02*
X9843500Y-11960000I-36500J0D01*
G01*
X9843500Y-11960000D02*
G75*
G02*
X9916500Y-11960000I36500J0D01*
G01*
X10066500Y-11960000D02*
G75*
G02*
X9993500Y-11960000I-36500J0D01*
G01*
X9993500Y-11960000D02*
G75*
G02*
X10066500Y-11960000I36500J0D01*
G01*
X10216500Y-11960000D02*
G75*
G02*
X10143500Y-11960000I-36500J0D01*
G01*
X10143500Y-11960000D02*
G75*
G02*
X10216500Y-11960000I36500J0D01*
G01*
X10366500Y-11960000D02*
G75*
G02*
X10293500Y-11960000I-36500J0D01*
G01*
X10293500Y-11960000D02*
G75*
G02*
X10366500Y-11960000I36500J0D01*
G01*
X10516500Y-11960000D02*
G75*
G02*
X10443500Y-11960000I-36500J0D01*
G01*
X10443500Y-11960000D02*
G75*
G02*
X10516500Y-11960000I36500J0D01*
G01*
X10666500Y-11960000D02*
G75*
G02*
X10593500Y-11960000I-36500J0D01*
G01*
X10593500Y-11960000D02*
G75*
G02*
X10666500Y-11960000I36500J0D01*
G01*
X11536500Y-11960000D02*
G75*
G02*
X11463500Y-11960000I-36500J0D01*
G01*
X11463500Y-11960000D02*
G75*
G02*
X11536500Y-11960000I36500J0D01*
G01*
X11686500Y-11960000D02*
G75*
G02*
X11613500Y-11960000I-36500J0D01*
G01*
X11613500Y-11960000D02*
G75*
G02*
X11686500Y-11960000I36500J0D01*
G01*
X11836500Y-11960000D02*
G75*
G02*
X11763500Y-11960000I-36500J0D01*
G01*
X11763500Y-11960000D02*
G75*
G02*
X11836500Y-11960000I36500J0D01*
G01*
X11986500Y-11960000D02*
G75*
G02*
X11913500Y-11960000I-36500J0D01*
G01*
X11913500Y-11960000D02*
G75*
G02*
X11986500Y-11960000I36500J0D01*
G01*
X12136500Y-11960000D02*
G75*
G02*
X12063500Y-11960000I-36500J0D01*
G01*
X12063500Y-11960000D02*
G75*
G02*
X12136500Y-11960000I36500J0D01*
G01*
X12286500Y-11960000D02*
G75*
G02*
X12213500Y-11960000I-36500J0D01*
G01*
X12213500Y-11960000D02*
G75*
G02*
X12286500Y-11960000I36500J0D01*
G01*
X12436500Y-11960000D02*
G75*
G02*
X12363500Y-11960000I-36500J0D01*
G01*
X12363500Y-11960000D02*
G75*
G02*
X12436500Y-11960000I36500J0D01*
G01*
X12586500Y-11960000D02*
G75*
G02*
X12513500Y-11960000I-36500J0D01*
G01*
X12513500Y-11960000D02*
G75*
G02*
X12586500Y-11960000I36500J0D01*
G01*
X12736500Y-11960000D02*
G75*
G02*
X12663500Y-11960000I-36500J0D01*
G01*
X12663500Y-11960000D02*
G75*
G02*
X12736500Y-11960000I36500J0D01*
G01*
X12886500Y-11960000D02*
G75*
G02*
X12813500Y-11960000I-36500J0D01*
G01*
X12813500Y-11960000D02*
G75*
G02*
X12886500Y-11960000I36500J0D01*
G01*
X13756500Y-11960000D02*
G75*
G02*
X13683500Y-11960000I-36500J0D01*
G01*
X13683500Y-11960000D02*
G75*
G02*
X13756500Y-11960000I36500J0D01*
G01*
X13906500Y-11960000D02*
G75*
G02*
X13833500Y-11960000I-36500J0D01*
G01*
X13833500Y-11960000D02*
G75*
G02*
X13906500Y-11960000I36500J0D01*
G01*
X14056500Y-11960000D02*
G75*
G02*
X13983500Y-11960000I-36500J0D01*
G01*
X13983500Y-11960000D02*
G75*
G02*
X14056500Y-11960000I36500J0D01*
G01*
X14206500Y-11960000D02*
G75*
G02*
X14133500Y-11960000I-36500J0D01*
G01*
X14133500Y-11960000D02*
G75*
G02*
X14206500Y-11960000I36500J0D01*
G01*
X14356500Y-11960000D02*
G75*
G02*
X14283500Y-11960000I-36500J0D01*
G01*
X14283500Y-11960000D02*
G75*
G02*
X14356500Y-11960000I36500J0D01*
G01*
X14506500Y-11960000D02*
G75*
G02*
X14433500Y-11960000I-36500J0D01*
G01*
X14433500Y-11960000D02*
G75*
G02*
X14506500Y-11960000I36500J0D01*
G01*
X14656500Y-11960000D02*
G75*
G02*
X14583500Y-11960000I-36500J0D01*
G01*
X14583500Y-11960000D02*
G75*
G02*
X14656500Y-11960000I36500J0D01*
G01*
X14806500Y-11960000D02*
G75*
G02*
X14733500Y-11960000I-36500J0D01*
G01*
X14733500Y-11960000D02*
G75*
G02*
X14806500Y-11960000I36500J0D01*
G01*
X14956500Y-11960000D02*
G75*
G02*
X14883500Y-11960000I-36500J0D01*
G01*
X14883500Y-11960000D02*
G75*
G02*
X14956500Y-11960000I36500J0D01*
G01*
X15106500Y-11960000D02*
G75*
G02*
X15033500Y-11960000I-36500J0D01*
G01*
X15033500Y-11960000D02*
G75*
G02*
X15106500Y-11960000I36500J0D01*
G01*
X15976500Y-11960000D02*
G75*
G02*
X15903500Y-11960000I-36500J0D01*
G01*
X15903500Y-11960000D02*
G75*
G02*
X15976500Y-11960000I36500J0D01*
G01*
X16126500Y-11960000D02*
G75*
G02*
X16053500Y-11960000I-36500J0D01*
G01*
X16053500Y-11960000D02*
G75*
G02*
X16126500Y-11960000I36500J0D01*
G01*
X16276500Y-11960000D02*
G75*
G02*
X16203500Y-11960000I-36500J0D01*
G01*
X16203500Y-11960000D02*
G75*
G02*
X16276500Y-11960000I36500J0D01*
G01*
X16426500Y-11960000D02*
G75*
G02*
X16353500Y-11960000I-36500J0D01*
G01*
X16353500Y-11960000D02*
G75*
G02*
X16426500Y-11960000I36500J0D01*
G01*
X16576500Y-11960000D02*
G75*
G02*
X16503500Y-11960000I-36500J0D01*
G01*
X16503500Y-11960000D02*
G75*
G02*
X16576500Y-11960000I36500J0D01*
G01*
X16726500Y-11960000D02*
G75*
G02*
X16653500Y-11960000I-36500J0D01*
G01*
X16653500Y-11960000D02*
G75*
G02*
X16726500Y-11960000I36500J0D01*
G01*
X16876500Y-11960000D02*
G75*
G02*
X16803500Y-11960000I-36500J0D01*
G01*
X16803500Y-11960000D02*
G75*
G02*
X16876500Y-11960000I36500J0D01*
G01*
X17026500Y-11960000D02*
G75*
G02*
X16953500Y-11960000I-36500J0D01*
G01*
X16953500Y-11960000D02*
G75*
G02*
X17026500Y-11960000I36500J0D01*
G01*
X17176500Y-11960000D02*
G75*
G02*
X17103500Y-11960000I-36500J0D01*
G01*
X17103500Y-11960000D02*
G75*
G02*
X17176500Y-11960000I36500J0D01*
G01*
X17326500Y-11960000D02*
G75*
G02*
X17253500Y-11960000I-36500J0D01*
G01*
X17253500Y-11960000D02*
G75*
G02*
X17326500Y-11960000I36500J0D01*
G01*
X11150000Y-12941762D02*
X11150000Y-13021762D01*
X11110000Y-12981762D02*
X11190000Y-12981762D01*
X11150000Y-13191762D02*
X11150000Y-13271762D01*
X11110000Y-13231762D02*
X11190000Y-13231762D01*
X11975000Y-13091762D02*
X11975000Y-13171762D01*
X11935000Y-13131762D02*
X12015000Y-13131762D01*
X11975000Y-13341762D02*
X11975000Y-13421762D01*
X11935000Y-13381762D02*
X12015000Y-13381762D01*
X15350000Y-14010000D02*
X15350000Y-14090000D01*
X15310000Y-14050000D02*
X15390000Y-14050000D01*
X15350000Y-14260000D02*
X15350000Y-14340000D01*
X15310000Y-14300000D02*
X15390000Y-14300000D01*
X16550000Y-14091762D02*
X16550000Y-14171762D01*
X16510000Y-14131762D02*
X16590000Y-14131762D01*
X16550000Y-14341762D02*
X16550000Y-14421762D01*
X16510000Y-14381762D02*
X16590000Y-14381762D01*
X9731467Y-14331467D02*
X9731467Y-14268533D01*
X9668533Y-14268533D01*
X9668533Y-14331467D01*
X9731467Y-14331467D01*
X9985467Y-14331467D02*
X9985467Y-14268533D01*
X9922533Y-14268533D01*
X9922533Y-14331467D01*
X9985467Y-14331467D01*
X11731467Y-14331467D02*
X11731467Y-14268533D01*
X11668533Y-14268533D01*
X11668533Y-14331467D01*
X11731467Y-14331467D01*
X11985467Y-14331467D02*
X11985467Y-14268533D01*
X11922533Y-14268533D01*
X11922533Y-14331467D01*
X11985467Y-14331467D01*
D12*
X12700000Y-13080000D02*
X12755000Y-13025000D01*
X12700000Y-12970000D01*
X12645000Y-13025000D01*
X12700000Y-13080000D01*
X12700000Y-13334000D02*
X12755000Y-13279000D01*
X12700000Y-13224000D01*
X12645000Y-13279000D01*
X12700000Y-13334000D01*
X12700000Y-13588000D02*
X12755000Y-13533000D01*
X12700000Y-13478000D01*
X12645000Y-13533000D01*
X12700000Y-13588000D01*
X14200000Y-13080000D02*
X14255000Y-13025000D01*
X14200000Y-12970000D01*
X14145000Y-13025000D01*
X14200000Y-13080000D01*
X14200000Y-13334000D02*
X14255000Y-13279000D01*
X14200000Y-13224000D01*
X14145000Y-13279000D01*
X14200000Y-13334000D01*
X14200000Y-13588000D02*
X14255000Y-13533000D01*
X14200000Y-13478000D01*
X14145000Y-13533000D01*
X14200000Y-13588000D01*
X15700000Y-13080000D02*
X15755000Y-13025000D01*
X15700000Y-12970000D01*
X15645000Y-13025000D01*
X15700000Y-13080000D01*
X15700000Y-13334000D02*
X15755000Y-13279000D01*
X15700000Y-13224000D01*
X15645000Y-13279000D01*
X15700000Y-13334000D01*
X15700000Y-13588000D02*
X15755000Y-13533000D01*
X15700000Y-13478000D01*
X15645000Y-13533000D01*
X15700000Y-13588000D01*
X17200000Y-13080000D02*
X17255000Y-13025000D01*
X17200000Y-12970000D01*
X17145000Y-13025000D01*
X17200000Y-13080000D01*
X17200000Y-13334000D02*
X17255000Y-13279000D01*
X17200000Y-13224000D01*
X17145000Y-13279000D01*
X17200000Y-13334000D01*
X17200000Y-13588000D02*
X17255000Y-13533000D01*
X17200000Y-13478000D01*
X17145000Y-13533000D01*
X17200000Y-13588000D01*
D13*
X13042500Y-14812500D02*
X13217500Y-14987500D01*
X13217500Y-14812500D02*
X13042500Y-14987500D01*
X13217500Y-14900000D02*
G75*
G02*
X13042500Y-14900000I-87500J0D01*
G01*
X13042500Y-14900000D02*
G75*
G02*
X13217500Y-14900000I87500J0D01*
G01*
X13822500Y-14812500D02*
X13997500Y-14987500D01*
X13997500Y-14812500D02*
X13822500Y-14987500D01*
X13997500Y-14900000D02*
G75*
G02*
X13822500Y-14900000I-87500J0D01*
G01*
X13822500Y-14900000D02*
G75*
G02*
X13997500Y-14900000I87500J0D01*
G01*
X14602500Y-14812500D02*
X14777500Y-14987500D01*
X14777500Y-14812500D02*
X14602500Y-14987500D01*
X14777500Y-14900000D02*
G75*
G02*
X14602500Y-14900000I-87500J0D01*
G01*
X14602500Y-14900000D02*
G75*
G02*
X14777500Y-14900000I87500J0D01*
G01*
X15382500Y-14812500D02*
X15557500Y-14987500D01*
X15557500Y-14812500D02*
X15382500Y-14987500D01*
X15557500Y-14900000D02*
G75*
G02*
X15382500Y-14900000I-87500J0D01*
G01*
X15382500Y-14900000D02*
G75*
G02*
X15557500Y-14900000I87500J0D01*
G01*
X16162500Y-14812500D02*
X16337500Y-14987500D01*
X16337500Y-14812500D02*
X16162500Y-14987500D01*
X16337500Y-14900000D02*
G75*
G02*
X16162500Y-14900000I-87500J0D01*
G01*
X16162500Y-14900000D02*
G75*
G02*
X16337500Y-14900000I87500J0D01*
G01*
X16942500Y-14812500D02*
X17117500Y-14987500D01*
X17117500Y-14812500D02*
X16942500Y-14987500D01*
X17117500Y-14900000D02*
G75*
G02*
X16942500Y-14900000I-87500J0D01*
G01*
X16942500Y-14900000D02*
G75*
G02*
X17117500Y-14900000I87500J0D01*
G01*
X17722500Y-14812500D02*
X17897500Y-14987500D01*
X17897500Y-14812500D02*
X17722500Y-14987500D01*
X17897500Y-14900000D02*
G75*
G02*
X17722500Y-14900000I-87500J0D01*
G01*
X17722500Y-14900000D02*
G75*
G02*
X17897500Y-14900000I87500J0D01*
G01*
D14*
X9091500Y-14707500D02*
X9292500Y-14908500D01*
X9292500Y-14707500D02*
X9091500Y-14908500D01*
X9192000Y-14707500D02*
X9192000Y-14908500D01*
X9091500Y-14808000D02*
X9292500Y-14808000D01*
X10107500Y-14707500D02*
X10308500Y-14908500D01*
X10308500Y-14707500D02*
X10107500Y-14908500D01*
X10208000Y-14707500D02*
X10208000Y-14908500D01*
X10107500Y-14808000D02*
X10308500Y-14808000D01*
X11091500Y-14707500D02*
X11292500Y-14908500D01*
X11292500Y-14707500D02*
X11091500Y-14908500D01*
X11192000Y-14707500D02*
X11192000Y-14908500D01*
X11091500Y-14808000D02*
X11292500Y-14808000D01*
X12107500Y-14707500D02*
X12308500Y-14908500D01*
X12308500Y-14707500D02*
X12107500Y-14908500D01*
X12208000Y-14707500D02*
X12208000Y-14908500D01*
X12107500Y-14808000D02*
X12308500Y-14808000D01*
D11*
X8755777Y-15916484D02*
X8755777Y-15716484D01*
X8755777Y-15716484D02*
X8803396Y-15716484D01*
X8803396Y-15716484D02*
X8831967Y-15726008D01*
X8831967Y-15726008D02*
X8851015Y-15745055D01*
X8851015Y-15745055D02*
X8860539Y-15764103D01*
X8860539Y-15764103D02*
X8870063Y-15802198D01*
X8870063Y-15802198D02*
X8870063Y-15830769D01*
X8870063Y-15830769D02*
X8860539Y-15868865D01*
X8860539Y-15868865D02*
X8851015Y-15887912D01*
X8851015Y-15887912D02*
X8831967Y-15906960D01*
X8831967Y-15906960D02*
X8803396Y-15916484D01*
X8803396Y-15916484D02*
X8755777Y-15916484D01*
X8955777Y-15916484D02*
X8955777Y-15783150D01*
X8955777Y-15821246D02*
X8965301Y-15802198D01*
X8965301Y-15802198D02*
X8974824Y-15792674D01*
X8974824Y-15792674D02*
X8993872Y-15783150D01*
X8993872Y-15783150D02*
X9012920Y-15783150D01*
X9079586Y-15916484D02*
X9079586Y-15783150D01*
X9079586Y-15716484D02*
X9070063Y-15726008D01*
X9070063Y-15726008D02*
X9079586Y-15735531D01*
X9079586Y-15735531D02*
X9089110Y-15726008D01*
X9089110Y-15726008D02*
X9079586Y-15716484D01*
X9079586Y-15716484D02*
X9079586Y-15735531D01*
X9203396Y-15916484D02*
X9184348Y-15906960D01*
X9184348Y-15906960D02*
X9174824Y-15887912D01*
X9174824Y-15887912D02*
X9174824Y-15716484D01*
X9308158Y-15916484D02*
X9289110Y-15906960D01*
X9289110Y-15906960D02*
X9279586Y-15887912D01*
X9279586Y-15887912D02*
X9279586Y-15716484D01*
X9536729Y-15916484D02*
X9536729Y-15716484D01*
X9536729Y-15716484D02*
X9603396Y-15859341D01*
X9603396Y-15859341D02*
X9670063Y-15716484D01*
X9670063Y-15716484D02*
X9670063Y-15916484D01*
X9851015Y-15916484D02*
X9851015Y-15811722D01*
X9851015Y-15811722D02*
X9841491Y-15792674D01*
X9841491Y-15792674D02*
X9822444Y-15783150D01*
X9822444Y-15783150D02*
X9784348Y-15783150D01*
X9784348Y-15783150D02*
X9765301Y-15792674D01*
X9851015Y-15906960D02*
X9831967Y-15916484D01*
X9831967Y-15916484D02*
X9784348Y-15916484D01*
X9784348Y-15916484D02*
X9765301Y-15906960D01*
X9765301Y-15906960D02*
X9755777Y-15887912D01*
X9755777Y-15887912D02*
X9755777Y-15868865D01*
X9755777Y-15868865D02*
X9765301Y-15849817D01*
X9765301Y-15849817D02*
X9784348Y-15840293D01*
X9784348Y-15840293D02*
X9831967Y-15840293D01*
X9831967Y-15840293D02*
X9851015Y-15830769D01*
X9946253Y-15783150D02*
X9946253Y-15983150D01*
X9946253Y-15792674D02*
X9965301Y-15783150D01*
X9965301Y-15783150D02*
X10003396Y-15783150D01*
X10003396Y-15783150D02*
X10022444Y-15792674D01*
X10022444Y-15792674D02*
X10031967Y-15802198D01*
X10031967Y-15802198D02*
X10041491Y-15821246D01*
X10041491Y-15821246D02*
X10041491Y-15878388D01*
X10041491Y-15878388D02*
X10031967Y-15897436D01*
X10031967Y-15897436D02*
X10022444Y-15906960D01*
X10022444Y-15906960D02*
X10003396Y-15916484D01*
X10003396Y-15916484D02*
X9965301Y-15916484D01*
X9965301Y-15916484D02*
X9946253Y-15906960D01*
X10127205Y-15897436D02*
X10136729Y-15906960D01*
X10136729Y-15906960D02*
X10127205Y-15916484D01*
X10127205Y-15916484D02*
X10117682Y-15906960D01*
X10117682Y-15906960D02*
X10127205Y-15897436D01*
X10127205Y-15897436D02*
X10127205Y-15916484D01*
X10127205Y-15792674D02*
X10136729Y-15802198D01*
X10136729Y-15802198D02*
X10127205Y-15811722D01*
X10127205Y-15811722D02*
X10117682Y-15802198D01*
X10117682Y-15802198D02*
X10127205Y-15792674D01*
X10127205Y-15792674D02*
X10127205Y-15811722D01*
D10*
X8455000Y-16225000D02*
X8495000Y-16265000D01*
X8495000Y-16225000D02*
X8455000Y-16265000D01*
D11*
X8793872Y-16136484D02*
X8812920Y-16136484D01*
X8812920Y-16136484D02*
X8831967Y-16146008D01*
X8831967Y-16146008D02*
X8841491Y-16155531D01*
X8841491Y-16155531D02*
X8851015Y-16174579D01*
X8851015Y-16174579D02*
X8860539Y-16212674D01*
X8860539Y-16212674D02*
X8860539Y-16260293D01*
X8860539Y-16260293D02*
X8851015Y-16298388D01*
X8851015Y-16298388D02*
X8841491Y-16317436D01*
X8841491Y-16317436D02*
X8831967Y-16326960D01*
X8831967Y-16326960D02*
X8812920Y-16336484D01*
X8812920Y-16336484D02*
X8793872Y-16336484D01*
X8793872Y-16336484D02*
X8774824Y-16326960D01*
X8774824Y-16326960D02*
X8765301Y-16317436D01*
X8765301Y-16317436D02*
X8755777Y-16298388D01*
X8755777Y-16298388D02*
X8746253Y-16260293D01*
X8746253Y-16260293D02*
X8746253Y-16212674D01*
X8746253Y-16212674D02*
X8755777Y-16174579D01*
X8755777Y-16174579D02*
X8765301Y-16155531D01*
X8765301Y-16155531D02*
X8774824Y-16146008D01*
X8774824Y-16146008D02*
X8793872Y-16136484D01*
X8946253Y-16317436D02*
X8955777Y-16326960D01*
X8955777Y-16326960D02*
X8946253Y-16336484D01*
X8946253Y-16336484D02*
X8936729Y-16326960D01*
X8936729Y-16326960D02*
X8946253Y-16317436D01*
X8946253Y-16317436D02*
X8946253Y-16336484D01*
X9127205Y-16203150D02*
X9127205Y-16336484D01*
X9079586Y-16126960D02*
X9031967Y-16269817D01*
X9031967Y-16269817D02*
X9155777Y-16269817D01*
X9270063Y-16136484D02*
X9289110Y-16136484D01*
X9289110Y-16136484D02*
X9308158Y-16146008D01*
X9308158Y-16146008D02*
X9317682Y-16155531D01*
X9317682Y-16155531D02*
X9327205Y-16174579D01*
X9327205Y-16174579D02*
X9336729Y-16212674D01*
X9336729Y-16212674D02*
X9336729Y-16260293D01*
X9336729Y-16260293D02*
X9327205Y-16298388D01*
X9327205Y-16298388D02*
X9317682Y-16317436D01*
X9317682Y-16317436D02*
X9308158Y-16326960D01*
X9308158Y-16326960D02*
X9289110Y-16336484D01*
X9289110Y-16336484D02*
X9270063Y-16336484D01*
X9270063Y-16336484D02*
X9251015Y-16326960D01*
X9251015Y-16326960D02*
X9241491Y-16317436D01*
X9241491Y-16317436D02*
X9231967Y-16298388D01*
X9231967Y-16298388D02*
X9222444Y-16260293D01*
X9222444Y-16260293D02*
X9222444Y-16212674D01*
X9222444Y-16212674D02*
X9231967Y-16174579D01*
X9231967Y-16174579D02*
X9241491Y-16155531D01*
X9241491Y-16155531D02*
X9251015Y-16146008D01*
X9251015Y-16146008D02*
X9270063Y-16136484D01*
X9460539Y-16136484D02*
X9479586Y-16136484D01*
X9479586Y-16136484D02*
X9498634Y-16146008D01*
X9498634Y-16146008D02*
X9508158Y-16155531D01*
X9508158Y-16155531D02*
X9517682Y-16174579D01*
X9517682Y-16174579D02*
X9527205Y-16212674D01*
X9527205Y-16212674D02*
X9527205Y-16260293D01*
X9527205Y-16260293D02*
X9517682Y-16298388D01*
X9517682Y-16298388D02*
X9508158Y-16317436D01*
X9508158Y-16317436D02*
X9498634Y-16326960D01*
X9498634Y-16326960D02*
X9479586Y-16336484D01*
X9479586Y-16336484D02*
X9460539Y-16336484D01*
X9460539Y-16336484D02*
X9441491Y-16326960D01*
X9441491Y-16326960D02*
X9431967Y-16317436D01*
X9431967Y-16317436D02*
X9422444Y-16298388D01*
X9422444Y-16298388D02*
X9412920Y-16260293D01*
X9412920Y-16260293D02*
X9412920Y-16212674D01*
X9412920Y-16212674D02*
X9422444Y-16174579D01*
X9422444Y-16174579D02*
X9431967Y-16155531D01*
X9431967Y-16155531D02*
X9441491Y-16146008D01*
X9441491Y-16146008D02*
X9460539Y-16136484D01*
X9612920Y-16336484D02*
X9612920Y-16203150D01*
X9612920Y-16222198D02*
X9622444Y-16212674D01*
X9622444Y-16212674D02*
X9641491Y-16203150D01*
X9641491Y-16203150D02*
X9670063Y-16203150D01*
X9670063Y-16203150D02*
X9689110Y-16212674D01*
X9689110Y-16212674D02*
X9698634Y-16231722D01*
X9698634Y-16231722D02*
X9698634Y-16336484D01*
X9698634Y-16231722D02*
X9708158Y-16212674D01*
X9708158Y-16212674D02*
X9727205Y-16203150D01*
X9727205Y-16203150D02*
X9755777Y-16203150D01*
X9755777Y-16203150D02*
X9774825Y-16212674D01*
X9774825Y-16212674D02*
X9784348Y-16231722D01*
X9784348Y-16231722D02*
X9784348Y-16336484D01*
X9879586Y-16336484D02*
X9879586Y-16203150D01*
X9879586Y-16222198D02*
X9889110Y-16212674D01*
X9889110Y-16212674D02*
X9908158Y-16203150D01*
X9908158Y-16203150D02*
X9936729Y-16203150D01*
X9936729Y-16203150D02*
X9955777Y-16212674D01*
X9955777Y-16212674D02*
X9965301Y-16231722D01*
X9965301Y-16231722D02*
X9965301Y-16336484D01*
X9965301Y-16231722D02*
X9974825Y-16212674D01*
X9974825Y-16212674D02*
X9993872Y-16203150D01*
X9993872Y-16203150D02*
X10022444Y-16203150D01*
X10022444Y-16203150D02*
X10041491Y-16212674D01*
X10041491Y-16212674D02*
X10051015Y-16231722D01*
X10051015Y-16231722D02*
X10051015Y-16336484D01*
X10441491Y-16126960D02*
X10270063Y-16384103D01*
X10698634Y-16136484D02*
X10717682Y-16136484D01*
X10717682Y-16136484D02*
X10736729Y-16146008D01*
X10736729Y-16146008D02*
X10746253Y-16155531D01*
X10746253Y-16155531D02*
X10755777Y-16174579D01*
X10755777Y-16174579D02*
X10765301Y-16212674D01*
X10765301Y-16212674D02*
X10765301Y-16260293D01*
X10765301Y-16260293D02*
X10755777Y-16298388D01*
X10755777Y-16298388D02*
X10746253Y-16317436D01*
X10746253Y-16317436D02*
X10736729Y-16326960D01*
X10736729Y-16326960D02*
X10717682Y-16336484D01*
X10717682Y-16336484D02*
X10698634Y-16336484D01*
X10698634Y-16336484D02*
X10679587Y-16326960D01*
X10679587Y-16326960D02*
X10670063Y-16317436D01*
X10670063Y-16317436D02*
X10660539Y-16298388D01*
X10660539Y-16298388D02*
X10651015Y-16260293D01*
X10651015Y-16260293D02*
X10651015Y-16212674D01*
X10651015Y-16212674D02*
X10660539Y-16174579D01*
X10660539Y-16174579D02*
X10670063Y-16155531D01*
X10670063Y-16155531D02*
X10679587Y-16146008D01*
X10679587Y-16146008D02*
X10698634Y-16136484D01*
X10851015Y-16317436D02*
X10860539Y-16326960D01*
X10860539Y-16326960D02*
X10851015Y-16336484D01*
X10851015Y-16336484D02*
X10841491Y-16326960D01*
X10841491Y-16326960D02*
X10851015Y-16317436D01*
X10851015Y-16317436D02*
X10851015Y-16336484D01*
X10984348Y-16136484D02*
X11003396Y-16136484D01*
X11003396Y-16136484D02*
X11022444Y-16146008D01*
X11022444Y-16146008D02*
X11031968Y-16155531D01*
X11031968Y-16155531D02*
X11041491Y-16174579D01*
X11041491Y-16174579D02*
X11051015Y-16212674D01*
X11051015Y-16212674D02*
X11051015Y-16260293D01*
X11051015Y-16260293D02*
X11041491Y-16298388D01*
X11041491Y-16298388D02*
X11031968Y-16317436D01*
X11031968Y-16317436D02*
X11022444Y-16326960D01*
X11022444Y-16326960D02*
X11003396Y-16336484D01*
X11003396Y-16336484D02*
X10984348Y-16336484D01*
X10984348Y-16336484D02*
X10965301Y-16326960D01*
X10965301Y-16326960D02*
X10955777Y-16317436D01*
X10955777Y-16317436D02*
X10946253Y-16298388D01*
X10946253Y-16298388D02*
X10936729Y-16260293D01*
X10936729Y-16260293D02*
X10936729Y-16212674D01*
X10936729Y-16212674D02*
X10946253Y-16174579D01*
X10946253Y-16174579D02*
X10955777Y-16155531D01*
X10955777Y-16155531D02*
X10965301Y-16146008D01*
X10965301Y-16146008D02*
X10984348Y-16136484D01*
X11241491Y-16336484D02*
X11127206Y-16336484D01*
X11184348Y-16336484D02*
X11184348Y-16136484D01*
X11184348Y-16136484D02*
X11165301Y-16165055D01*
X11165301Y-16165055D02*
X11146253Y-16184103D01*
X11146253Y-16184103D02*
X11127206Y-16193627D01*
X11422444Y-16136484D02*
X11327206Y-16136484D01*
X11327206Y-16136484D02*
X11317682Y-16231722D01*
X11317682Y-16231722D02*
X11327206Y-16222198D01*
X11327206Y-16222198D02*
X11346253Y-16212674D01*
X11346253Y-16212674D02*
X11393872Y-16212674D01*
X11393872Y-16212674D02*
X11412920Y-16222198D01*
X11412920Y-16222198D02*
X11422444Y-16231722D01*
X11422444Y-16231722D02*
X11431967Y-16250769D01*
X11431967Y-16250769D02*
X11431967Y-16298388D01*
X11431967Y-16298388D02*
X11422444Y-16317436D01*
X11422444Y-16317436D02*
X11412920Y-16326960D01*
X11412920Y-16326960D02*
X11393872Y-16336484D01*
X11393872Y-16336484D02*
X11346253Y-16336484D01*
X11346253Y-16336484D02*
X11327206Y-16326960D01*
X11327206Y-16326960D02*
X11317682Y-16317436D01*
X11498634Y-16136484D02*
X11631967Y-16136484D01*
X11631967Y-16136484D02*
X11546253Y-16336484D01*
X11698634Y-16136484D02*
X11698634Y-16174579D01*
X11774825Y-16136484D02*
X11774825Y-16174579D01*
X12070063Y-16412674D02*
X12060539Y-16403150D01*
X12060539Y-16403150D02*
X12041491Y-16374579D01*
X12041491Y-16374579D02*
X12031968Y-16355531D01*
X12031968Y-16355531D02*
X12022444Y-16326960D01*
X12022444Y-16326960D02*
X12012920Y-16279341D01*
X12012920Y-16279341D02*
X12012920Y-16241246D01*
X12012920Y-16241246D02*
X12022444Y-16193627D01*
X12022444Y-16193627D02*
X12031968Y-16165055D01*
X12031968Y-16165055D02*
X12041491Y-16146008D01*
X12041491Y-16146008D02*
X12060539Y-16117436D01*
X12060539Y-16117436D02*
X12070063Y-16107912D01*
X12251015Y-16336484D02*
X12136729Y-16336484D01*
X12193872Y-16336484D02*
X12193872Y-16136484D01*
X12193872Y-16136484D02*
X12174825Y-16165055D01*
X12174825Y-16165055D02*
X12155777Y-16184103D01*
X12155777Y-16184103D02*
X12136729Y-16193627D01*
X12441491Y-16336484D02*
X12327206Y-16336484D01*
X12384348Y-16336484D02*
X12384348Y-16136484D01*
X12384348Y-16136484D02*
X12365301Y-16165055D01*
X12365301Y-16165055D02*
X12346253Y-16184103D01*
X12346253Y-16184103D02*
X12327206Y-16193627D01*
X12679587Y-16336484D02*
X12679587Y-16136484D01*
X12765301Y-16336484D02*
X12765301Y-16231722D01*
X12765301Y-16231722D02*
X12755777Y-16212674D01*
X12755777Y-16212674D02*
X12736730Y-16203150D01*
X12736730Y-16203150D02*
X12708158Y-16203150D01*
X12708158Y-16203150D02*
X12689110Y-16212674D01*
X12689110Y-16212674D02*
X12679587Y-16222198D01*
X12889110Y-16336484D02*
X12870063Y-16326960D01*
X12870063Y-16326960D02*
X12860539Y-16317436D01*
X12860539Y-16317436D02*
X12851015Y-16298388D01*
X12851015Y-16298388D02*
X12851015Y-16241246D01*
X12851015Y-16241246D02*
X12860539Y-16222198D01*
X12860539Y-16222198D02*
X12870063Y-16212674D01*
X12870063Y-16212674D02*
X12889110Y-16203150D01*
X12889110Y-16203150D02*
X12917682Y-16203150D01*
X12917682Y-16203150D02*
X12936730Y-16212674D01*
X12936730Y-16212674D02*
X12946253Y-16222198D01*
X12946253Y-16222198D02*
X12955777Y-16241246D01*
X12955777Y-16241246D02*
X12955777Y-16298388D01*
X12955777Y-16298388D02*
X12946253Y-16317436D01*
X12946253Y-16317436D02*
X12936730Y-16326960D01*
X12936730Y-16326960D02*
X12917682Y-16336484D01*
X12917682Y-16336484D02*
X12889110Y-16336484D01*
X13070063Y-16336484D02*
X13051015Y-16326960D01*
X13051015Y-16326960D02*
X13041491Y-16307912D01*
X13041491Y-16307912D02*
X13041491Y-16136484D01*
X13222444Y-16326960D02*
X13203396Y-16336484D01*
X13203396Y-16336484D02*
X13165301Y-16336484D01*
X13165301Y-16336484D02*
X13146253Y-16326960D01*
X13146253Y-16326960D02*
X13136730Y-16307912D01*
X13136730Y-16307912D02*
X13136730Y-16231722D01*
X13136730Y-16231722D02*
X13146253Y-16212674D01*
X13146253Y-16212674D02*
X13165301Y-16203150D01*
X13165301Y-16203150D02*
X13203396Y-16203150D01*
X13203396Y-16203150D02*
X13222444Y-16212674D01*
X13222444Y-16212674D02*
X13231968Y-16231722D01*
X13231968Y-16231722D02*
X13231968Y-16250769D01*
X13231968Y-16250769D02*
X13136730Y-16269817D01*
X13308158Y-16326960D02*
X13327206Y-16336484D01*
X13327206Y-16336484D02*
X13365301Y-16336484D01*
X13365301Y-16336484D02*
X13384349Y-16326960D01*
X13384349Y-16326960D02*
X13393872Y-16307912D01*
X13393872Y-16307912D02*
X13393872Y-16298388D01*
X13393872Y-16298388D02*
X13384349Y-16279341D01*
X13384349Y-16279341D02*
X13365301Y-16269817D01*
X13365301Y-16269817D02*
X13336730Y-16269817D01*
X13336730Y-16269817D02*
X13317682Y-16260293D01*
X13317682Y-16260293D02*
X13308158Y-16241246D01*
X13308158Y-16241246D02*
X13308158Y-16231722D01*
X13308158Y-16231722D02*
X13317682Y-16212674D01*
X13317682Y-16212674D02*
X13336730Y-16203150D01*
X13336730Y-16203150D02*
X13365301Y-16203150D01*
X13365301Y-16203150D02*
X13384349Y-16212674D01*
X13460539Y-16412674D02*
X13470063Y-16403150D01*
X13470063Y-16403150D02*
X13489111Y-16374579D01*
X13489111Y-16374579D02*
X13498634Y-16355531D01*
X13498634Y-16355531D02*
X13508158Y-16326960D01*
X13508158Y-16326960D02*
X13517682Y-16279341D01*
X13517682Y-16279341D02*
X13517682Y-16241246D01*
X13517682Y-16241246D02*
X13508158Y-16193627D01*
X13508158Y-16193627D02*
X13498634Y-16165055D01*
X13498634Y-16165055D02*
X13489111Y-16146008D01*
X13489111Y-16146008D02*
X13470063Y-16117436D01*
X13470063Y-16117436D02*
X13460539Y-16107912D01*
D10*
X8495000Y-16509000D02*
G75*
G02*
X8422000Y-16509000I-36500J0D01*
G01*
X8422000Y-16509000D02*
G75*
G02*
X8495000Y-16509000I36500J0D01*
G01*
D11*
X8793872Y-16400484D02*
X8812920Y-16400484D01*
X8812920Y-16400484D02*
X8831967Y-16410008D01*
X8831967Y-16410008D02*
X8841491Y-16419531D01*
X8841491Y-16419531D02*
X8851015Y-16438579D01*
X8851015Y-16438579D02*
X8860539Y-16476674D01*
X8860539Y-16476674D02*
X8860539Y-16524293D01*
X8860539Y-16524293D02*
X8851015Y-16562388D01*
X8851015Y-16562388D02*
X8841491Y-16581436D01*
X8841491Y-16581436D02*
X8831967Y-16590960D01*
X8831967Y-16590960D02*
X8812920Y-16600484D01*
X8812920Y-16600484D02*
X8793872Y-16600484D01*
X8793872Y-16600484D02*
X8774824Y-16590960D01*
X8774824Y-16590960D02*
X8765301Y-16581436D01*
X8765301Y-16581436D02*
X8755777Y-16562388D01*
X8755777Y-16562388D02*
X8746253Y-16524293D01*
X8746253Y-16524293D02*
X8746253Y-16476674D01*
X8746253Y-16476674D02*
X8755777Y-16438579D01*
X8755777Y-16438579D02*
X8765301Y-16419531D01*
X8765301Y-16419531D02*
X8774824Y-16410008D01*
X8774824Y-16410008D02*
X8793872Y-16400484D01*
X8946253Y-16581436D02*
X8955777Y-16590960D01*
X8955777Y-16590960D02*
X8946253Y-16600484D01*
X8946253Y-16600484D02*
X8936729Y-16590960D01*
X8936729Y-16590960D02*
X8946253Y-16581436D01*
X8946253Y-16581436D02*
X8946253Y-16600484D01*
X9022444Y-16400484D02*
X9155777Y-16400484D01*
X9155777Y-16400484D02*
X9070063Y-16600484D01*
X9212920Y-16400484D02*
X9336729Y-16400484D01*
X9336729Y-16400484D02*
X9270063Y-16476674D01*
X9270063Y-16476674D02*
X9298634Y-16476674D01*
X9298634Y-16476674D02*
X9317682Y-16486198D01*
X9317682Y-16486198D02*
X9327205Y-16495722D01*
X9327205Y-16495722D02*
X9336729Y-16514769D01*
X9336729Y-16514769D02*
X9336729Y-16562388D01*
X9336729Y-16562388D02*
X9327205Y-16581436D01*
X9327205Y-16581436D02*
X9317682Y-16590960D01*
X9317682Y-16590960D02*
X9298634Y-16600484D01*
X9298634Y-16600484D02*
X9241491Y-16600484D01*
X9241491Y-16600484D02*
X9222444Y-16590960D01*
X9222444Y-16590960D02*
X9212920Y-16581436D01*
X9460539Y-16400484D02*
X9479586Y-16400484D01*
X9479586Y-16400484D02*
X9498634Y-16410008D01*
X9498634Y-16410008D02*
X9508158Y-16419531D01*
X9508158Y-16419531D02*
X9517682Y-16438579D01*
X9517682Y-16438579D02*
X9527205Y-16476674D01*
X9527205Y-16476674D02*
X9527205Y-16524293D01*
X9527205Y-16524293D02*
X9517682Y-16562388D01*
X9517682Y-16562388D02*
X9508158Y-16581436D01*
X9508158Y-16581436D02*
X9498634Y-16590960D01*
X9498634Y-16590960D02*
X9479586Y-16600484D01*
X9479586Y-16600484D02*
X9460539Y-16600484D01*
X9460539Y-16600484D02*
X9441491Y-16590960D01*
X9441491Y-16590960D02*
X9431967Y-16581436D01*
X9431967Y-16581436D02*
X9422444Y-16562388D01*
X9422444Y-16562388D02*
X9412920Y-16524293D01*
X9412920Y-16524293D02*
X9412920Y-16476674D01*
X9412920Y-16476674D02*
X9422444Y-16438579D01*
X9422444Y-16438579D02*
X9431967Y-16419531D01*
X9431967Y-16419531D02*
X9441491Y-16410008D01*
X9441491Y-16410008D02*
X9460539Y-16400484D01*
X9612920Y-16600484D02*
X9612920Y-16467150D01*
X9612920Y-16486198D02*
X9622444Y-16476674D01*
X9622444Y-16476674D02*
X9641491Y-16467150D01*
X9641491Y-16467150D02*
X9670063Y-16467150D01*
X9670063Y-16467150D02*
X9689110Y-16476674D01*
X9689110Y-16476674D02*
X9698634Y-16495722D01*
X9698634Y-16495722D02*
X9698634Y-16600484D01*
X9698634Y-16495722D02*
X9708158Y-16476674D01*
X9708158Y-16476674D02*
X9727205Y-16467150D01*
X9727205Y-16467150D02*
X9755777Y-16467150D01*
X9755777Y-16467150D02*
X9774825Y-16476674D01*
X9774825Y-16476674D02*
X9784348Y-16495722D01*
X9784348Y-16495722D02*
X9784348Y-16600484D01*
X9879586Y-16600484D02*
X9879586Y-16467150D01*
X9879586Y-16486198D02*
X9889110Y-16476674D01*
X9889110Y-16476674D02*
X9908158Y-16467150D01*
X9908158Y-16467150D02*
X9936729Y-16467150D01*
X9936729Y-16467150D02*
X9955777Y-16476674D01*
X9955777Y-16476674D02*
X9965301Y-16495722D01*
X9965301Y-16495722D02*
X9965301Y-16600484D01*
X9965301Y-16495722D02*
X9974825Y-16476674D01*
X9974825Y-16476674D02*
X9993872Y-16467150D01*
X9993872Y-16467150D02*
X10022444Y-16467150D01*
X10022444Y-16467150D02*
X10041491Y-16476674D01*
X10041491Y-16476674D02*
X10051015Y-16495722D01*
X10051015Y-16495722D02*
X10051015Y-16600484D01*
X10441491Y-16390960D02*
X10270063Y-16648103D01*
X10698634Y-16400484D02*
X10717682Y-16400484D01*
X10717682Y-16400484D02*
X10736729Y-16410008D01*
X10736729Y-16410008D02*
X10746253Y-16419531D01*
X10746253Y-16419531D02*
X10755777Y-16438579D01*
X10755777Y-16438579D02*
X10765301Y-16476674D01*
X10765301Y-16476674D02*
X10765301Y-16524293D01*
X10765301Y-16524293D02*
X10755777Y-16562388D01*
X10755777Y-16562388D02*
X10746253Y-16581436D01*
X10746253Y-16581436D02*
X10736729Y-16590960D01*
X10736729Y-16590960D02*
X10717682Y-16600484D01*
X10717682Y-16600484D02*
X10698634Y-16600484D01*
X10698634Y-16600484D02*
X10679587Y-16590960D01*
X10679587Y-16590960D02*
X10670063Y-16581436D01*
X10670063Y-16581436D02*
X10660539Y-16562388D01*
X10660539Y-16562388D02*
X10651015Y-16524293D01*
X10651015Y-16524293D02*
X10651015Y-16476674D01*
X10651015Y-16476674D02*
X10660539Y-16438579D01*
X10660539Y-16438579D02*
X10670063Y-16419531D01*
X10670063Y-16419531D02*
X10679587Y-16410008D01*
X10679587Y-16410008D02*
X10698634Y-16400484D01*
X10851015Y-16581436D02*
X10860539Y-16590960D01*
X10860539Y-16590960D02*
X10851015Y-16600484D01*
X10851015Y-16600484D02*
X10841491Y-16590960D01*
X10841491Y-16590960D02*
X10851015Y-16581436D01*
X10851015Y-16581436D02*
X10851015Y-16600484D01*
X10984348Y-16400484D02*
X11003396Y-16400484D01*
X11003396Y-16400484D02*
X11022444Y-16410008D01*
X11022444Y-16410008D02*
X11031968Y-16419531D01*
X11031968Y-16419531D02*
X11041491Y-16438579D01*
X11041491Y-16438579D02*
X11051015Y-16476674D01*
X11051015Y-16476674D02*
X11051015Y-16524293D01*
X11051015Y-16524293D02*
X11041491Y-16562388D01*
X11041491Y-16562388D02*
X11031968Y-16581436D01*
X11031968Y-16581436D02*
X11022444Y-16590960D01*
X11022444Y-16590960D02*
X11003396Y-16600484D01*
X11003396Y-16600484D02*
X10984348Y-16600484D01*
X10984348Y-16600484D02*
X10965301Y-16590960D01*
X10965301Y-16590960D02*
X10955777Y-16581436D01*
X10955777Y-16581436D02*
X10946253Y-16562388D01*
X10946253Y-16562388D02*
X10936729Y-16524293D01*
X10936729Y-16524293D02*
X10936729Y-16476674D01*
X10936729Y-16476674D02*
X10946253Y-16438579D01*
X10946253Y-16438579D02*
X10955777Y-16419531D01*
X10955777Y-16419531D02*
X10965301Y-16410008D01*
X10965301Y-16410008D02*
X10984348Y-16400484D01*
X11127206Y-16419531D02*
X11136729Y-16410008D01*
X11136729Y-16410008D02*
X11155777Y-16400484D01*
X11155777Y-16400484D02*
X11203396Y-16400484D01*
X11203396Y-16400484D02*
X11222444Y-16410008D01*
X11222444Y-16410008D02*
X11231967Y-16419531D01*
X11231967Y-16419531D02*
X11241491Y-16438579D01*
X11241491Y-16438579D02*
X11241491Y-16457627D01*
X11241491Y-16457627D02*
X11231967Y-16486198D01*
X11231967Y-16486198D02*
X11117682Y-16600484D01*
X11117682Y-16600484D02*
X11241491Y-16600484D01*
X11355777Y-16486198D02*
X11336729Y-16476674D01*
X11336729Y-16476674D02*
X11327206Y-16467150D01*
X11327206Y-16467150D02*
X11317682Y-16448103D01*
X11317682Y-16448103D02*
X11317682Y-16438579D01*
X11317682Y-16438579D02*
X11327206Y-16419531D01*
X11327206Y-16419531D02*
X11336729Y-16410008D01*
X11336729Y-16410008D02*
X11355777Y-16400484D01*
X11355777Y-16400484D02*
X11393872Y-16400484D01*
X11393872Y-16400484D02*
X11412920Y-16410008D01*
X11412920Y-16410008D02*
X11422444Y-16419531D01*
X11422444Y-16419531D02*
X11431967Y-16438579D01*
X11431967Y-16438579D02*
X11431967Y-16448103D01*
X11431967Y-16448103D02*
X11422444Y-16467150D01*
X11422444Y-16467150D02*
X11412920Y-16476674D01*
X11412920Y-16476674D02*
X11393872Y-16486198D01*
X11393872Y-16486198D02*
X11355777Y-16486198D01*
X11355777Y-16486198D02*
X11336729Y-16495722D01*
X11336729Y-16495722D02*
X11327206Y-16505246D01*
X11327206Y-16505246D02*
X11317682Y-16524293D01*
X11317682Y-16524293D02*
X11317682Y-16562388D01*
X11317682Y-16562388D02*
X11327206Y-16581436D01*
X11327206Y-16581436D02*
X11336729Y-16590960D01*
X11336729Y-16590960D02*
X11355777Y-16600484D01*
X11355777Y-16600484D02*
X11393872Y-16600484D01*
X11393872Y-16600484D02*
X11412920Y-16590960D01*
X11412920Y-16590960D02*
X11422444Y-16581436D01*
X11422444Y-16581436D02*
X11431967Y-16562388D01*
X11431967Y-16562388D02*
X11431967Y-16524293D01*
X11431967Y-16524293D02*
X11422444Y-16505246D01*
X11422444Y-16505246D02*
X11412920Y-16495722D01*
X11412920Y-16495722D02*
X11393872Y-16486198D01*
X11498634Y-16400484D02*
X11631967Y-16400484D01*
X11631967Y-16400484D02*
X11546253Y-16600484D01*
X11698634Y-16400484D02*
X11698634Y-16438579D01*
X11774825Y-16400484D02*
X11774825Y-16438579D01*
X12070063Y-16676674D02*
X12060539Y-16667150D01*
X12060539Y-16667150D02*
X12041491Y-16638579D01*
X12041491Y-16638579D02*
X12031968Y-16619531D01*
X12031968Y-16619531D02*
X12022444Y-16590960D01*
X12022444Y-16590960D02*
X12012920Y-16543341D01*
X12012920Y-16543341D02*
X12012920Y-16505246D01*
X12012920Y-16505246D02*
X12022444Y-16457627D01*
X12022444Y-16457627D02*
X12031968Y-16429055D01*
X12031968Y-16429055D02*
X12041491Y-16410008D01*
X12041491Y-16410008D02*
X12060539Y-16381436D01*
X12060539Y-16381436D02*
X12070063Y-16371912D01*
X12231968Y-16467150D02*
X12231968Y-16600484D01*
X12184348Y-16390960D02*
X12136729Y-16533817D01*
X12136729Y-16533817D02*
X12260539Y-16533817D01*
X12374825Y-16400484D02*
X12393872Y-16400484D01*
X12393872Y-16400484D02*
X12412920Y-16410008D01*
X12412920Y-16410008D02*
X12422444Y-16419531D01*
X12422444Y-16419531D02*
X12431968Y-16438579D01*
X12431968Y-16438579D02*
X12441491Y-16476674D01*
X12441491Y-16476674D02*
X12441491Y-16524293D01*
X12441491Y-16524293D02*
X12431968Y-16562388D01*
X12431968Y-16562388D02*
X12422444Y-16581436D01*
X12422444Y-16581436D02*
X12412920Y-16590960D01*
X12412920Y-16590960D02*
X12393872Y-16600484D01*
X12393872Y-16600484D02*
X12374825Y-16600484D01*
X12374825Y-16600484D02*
X12355777Y-16590960D01*
X12355777Y-16590960D02*
X12346253Y-16581436D01*
X12346253Y-16581436D02*
X12336729Y-16562388D01*
X12336729Y-16562388D02*
X12327206Y-16524293D01*
X12327206Y-16524293D02*
X12327206Y-16476674D01*
X12327206Y-16476674D02*
X12336729Y-16438579D01*
X12336729Y-16438579D02*
X12346253Y-16419531D01*
X12346253Y-16419531D02*
X12355777Y-16410008D01*
X12355777Y-16410008D02*
X12374825Y-16400484D01*
X12679587Y-16600484D02*
X12679587Y-16400484D01*
X12765301Y-16600484D02*
X12765301Y-16495722D01*
X12765301Y-16495722D02*
X12755777Y-16476674D01*
X12755777Y-16476674D02*
X12736730Y-16467150D01*
X12736730Y-16467150D02*
X12708158Y-16467150D01*
X12708158Y-16467150D02*
X12689110Y-16476674D01*
X12689110Y-16476674D02*
X12679587Y-16486198D01*
X12889110Y-16600484D02*
X12870063Y-16590960D01*
X12870063Y-16590960D02*
X12860539Y-16581436D01*
X12860539Y-16581436D02*
X12851015Y-16562388D01*
X12851015Y-16562388D02*
X12851015Y-16505246D01*
X12851015Y-16505246D02*
X12860539Y-16486198D01*
X12860539Y-16486198D02*
X12870063Y-16476674D01*
X12870063Y-16476674D02*
X12889110Y-16467150D01*
X12889110Y-16467150D02*
X12917682Y-16467150D01*
X12917682Y-16467150D02*
X12936730Y-16476674D01*
X12936730Y-16476674D02*
X12946253Y-16486198D01*
X12946253Y-16486198D02*
X12955777Y-16505246D01*
X12955777Y-16505246D02*
X12955777Y-16562388D01*
X12955777Y-16562388D02*
X12946253Y-16581436D01*
X12946253Y-16581436D02*
X12936730Y-16590960D01*
X12936730Y-16590960D02*
X12917682Y-16600484D01*
X12917682Y-16600484D02*
X12889110Y-16600484D01*
X13070063Y-16600484D02*
X13051015Y-16590960D01*
X13051015Y-16590960D02*
X13041491Y-16571912D01*
X13041491Y-16571912D02*
X13041491Y-16400484D01*
X13222444Y-16590960D02*
X13203396Y-16600484D01*
X13203396Y-16600484D02*
X13165301Y-16600484D01*
X13165301Y-16600484D02*
X13146253Y-16590960D01*
X13146253Y-16590960D02*
X13136730Y-16571912D01*
X13136730Y-16571912D02*
X13136730Y-16495722D01*
X13136730Y-16495722D02*
X13146253Y-16476674D01*
X13146253Y-16476674D02*
X13165301Y-16467150D01*
X13165301Y-16467150D02*
X13203396Y-16467150D01*
X13203396Y-16467150D02*
X13222444Y-16476674D01*
X13222444Y-16476674D02*
X13231968Y-16495722D01*
X13231968Y-16495722D02*
X13231968Y-16514769D01*
X13231968Y-16514769D02*
X13136730Y-16533817D01*
X13308158Y-16590960D02*
X13327206Y-16600484D01*
X13327206Y-16600484D02*
X13365301Y-16600484D01*
X13365301Y-16600484D02*
X13384349Y-16590960D01*
X13384349Y-16590960D02*
X13393872Y-16571912D01*
X13393872Y-16571912D02*
X13393872Y-16562388D01*
X13393872Y-16562388D02*
X13384349Y-16543341D01*
X13384349Y-16543341D02*
X13365301Y-16533817D01*
X13365301Y-16533817D02*
X13336730Y-16533817D01*
X13336730Y-16533817D02*
X13317682Y-16524293D01*
X13317682Y-16524293D02*
X13308158Y-16505246D01*
X13308158Y-16505246D02*
X13308158Y-16495722D01*
X13308158Y-16495722D02*
X13317682Y-16476674D01*
X13317682Y-16476674D02*
X13336730Y-16467150D01*
X13336730Y-16467150D02*
X13365301Y-16467150D01*
X13365301Y-16467150D02*
X13384349Y-16476674D01*
X13460539Y-16676674D02*
X13470063Y-16667150D01*
X13470063Y-16667150D02*
X13489111Y-16638579D01*
X13489111Y-16638579D02*
X13498634Y-16619531D01*
X13498634Y-16619531D02*
X13508158Y-16590960D01*
X13508158Y-16590960D02*
X13517682Y-16543341D01*
X13517682Y-16543341D02*
X13517682Y-16505246D01*
X13517682Y-16505246D02*
X13508158Y-16457627D01*
X13508158Y-16457627D02*
X13498634Y-16429055D01*
X13498634Y-16429055D02*
X13489111Y-16410008D01*
X13489111Y-16410008D02*
X13470063Y-16381436D01*
X13470063Y-16381436D02*
X13460539Y-16371912D01*
D10*
X8455000Y-16733000D02*
X8455000Y-16813000D01*
X8415000Y-16773000D02*
X8495000Y-16773000D01*
D11*
X8793872Y-16664484D02*
X8812920Y-16664484D01*
X8812920Y-16664484D02*
X8831967Y-16674008D01*
X8831967Y-16674008D02*
X8841491Y-16683531D01*
X8841491Y-16683531D02*
X8851015Y-16702579D01*
X8851015Y-16702579D02*
X8860539Y-16740674D01*
X8860539Y-16740674D02*
X8860539Y-16788293D01*
X8860539Y-16788293D02*
X8851015Y-16826389D01*
X8851015Y-16826389D02*
X8841491Y-16845436D01*
X8841491Y-16845436D02*
X8831967Y-16854960D01*
X8831967Y-16854960D02*
X8812920Y-16864484D01*
X8812920Y-16864484D02*
X8793872Y-16864484D01*
X8793872Y-16864484D02*
X8774824Y-16854960D01*
X8774824Y-16854960D02*
X8765301Y-16845436D01*
X8765301Y-16845436D02*
X8755777Y-16826389D01*
X8755777Y-16826389D02*
X8746253Y-16788293D01*
X8746253Y-16788293D02*
X8746253Y-16740674D01*
X8746253Y-16740674D02*
X8755777Y-16702579D01*
X8755777Y-16702579D02*
X8765301Y-16683531D01*
X8765301Y-16683531D02*
X8774824Y-16674008D01*
X8774824Y-16674008D02*
X8793872Y-16664484D01*
X8946253Y-16845436D02*
X8955777Y-16854960D01*
X8955777Y-16854960D02*
X8946253Y-16864484D01*
X8946253Y-16864484D02*
X8936729Y-16854960D01*
X8936729Y-16854960D02*
X8946253Y-16845436D01*
X8946253Y-16845436D02*
X8946253Y-16864484D01*
X9070063Y-16750198D02*
X9051015Y-16740674D01*
X9051015Y-16740674D02*
X9041491Y-16731150D01*
X9041491Y-16731150D02*
X9031967Y-16712103D01*
X9031967Y-16712103D02*
X9031967Y-16702579D01*
X9031967Y-16702579D02*
X9041491Y-16683531D01*
X9041491Y-16683531D02*
X9051015Y-16674008D01*
X9051015Y-16674008D02*
X9070063Y-16664484D01*
X9070063Y-16664484D02*
X9108158Y-16664484D01*
X9108158Y-16664484D02*
X9127205Y-16674008D01*
X9127205Y-16674008D02*
X9136729Y-16683531D01*
X9136729Y-16683531D02*
X9146253Y-16702579D01*
X9146253Y-16702579D02*
X9146253Y-16712103D01*
X9146253Y-16712103D02*
X9136729Y-16731150D01*
X9136729Y-16731150D02*
X9127205Y-16740674D01*
X9127205Y-16740674D02*
X9108158Y-16750198D01*
X9108158Y-16750198D02*
X9070063Y-16750198D01*
X9070063Y-16750198D02*
X9051015Y-16759722D01*
X9051015Y-16759722D02*
X9041491Y-16769246D01*
X9041491Y-16769246D02*
X9031967Y-16788293D01*
X9031967Y-16788293D02*
X9031967Y-16826389D01*
X9031967Y-16826389D02*
X9041491Y-16845436D01*
X9041491Y-16845436D02*
X9051015Y-16854960D01*
X9051015Y-16854960D02*
X9070063Y-16864484D01*
X9070063Y-16864484D02*
X9108158Y-16864484D01*
X9108158Y-16864484D02*
X9127205Y-16854960D01*
X9127205Y-16854960D02*
X9136729Y-16845436D01*
X9136729Y-16845436D02*
X9146253Y-16826389D01*
X9146253Y-16826389D02*
X9146253Y-16788293D01*
X9146253Y-16788293D02*
X9136729Y-16769246D01*
X9136729Y-16769246D02*
X9127205Y-16759722D01*
X9127205Y-16759722D02*
X9108158Y-16750198D01*
X9270063Y-16664484D02*
X9289110Y-16664484D01*
X9289110Y-16664484D02*
X9308158Y-16674008D01*
X9308158Y-16674008D02*
X9317682Y-16683531D01*
X9317682Y-16683531D02*
X9327205Y-16702579D01*
X9327205Y-16702579D02*
X9336729Y-16740674D01*
X9336729Y-16740674D02*
X9336729Y-16788293D01*
X9336729Y-16788293D02*
X9327205Y-16826389D01*
X9327205Y-16826389D02*
X9317682Y-16845436D01*
X9317682Y-16845436D02*
X9308158Y-16854960D01*
X9308158Y-16854960D02*
X9289110Y-16864484D01*
X9289110Y-16864484D02*
X9270063Y-16864484D01*
X9270063Y-16864484D02*
X9251015Y-16854960D01*
X9251015Y-16854960D02*
X9241491Y-16845436D01*
X9241491Y-16845436D02*
X9231967Y-16826389D01*
X9231967Y-16826389D02*
X9222444Y-16788293D01*
X9222444Y-16788293D02*
X9222444Y-16740674D01*
X9222444Y-16740674D02*
X9231967Y-16702579D01*
X9231967Y-16702579D02*
X9241491Y-16683531D01*
X9241491Y-16683531D02*
X9251015Y-16674008D01*
X9251015Y-16674008D02*
X9270063Y-16664484D01*
X9460539Y-16664484D02*
X9479586Y-16664484D01*
X9479586Y-16664484D02*
X9498634Y-16674008D01*
X9498634Y-16674008D02*
X9508158Y-16683531D01*
X9508158Y-16683531D02*
X9517682Y-16702579D01*
X9517682Y-16702579D02*
X9527205Y-16740674D01*
X9527205Y-16740674D02*
X9527205Y-16788293D01*
X9527205Y-16788293D02*
X9517682Y-16826389D01*
X9517682Y-16826389D02*
X9508158Y-16845436D01*
X9508158Y-16845436D02*
X9498634Y-16854960D01*
X9498634Y-16854960D02*
X9479586Y-16864484D01*
X9479586Y-16864484D02*
X9460539Y-16864484D01*
X9460539Y-16864484D02*
X9441491Y-16854960D01*
X9441491Y-16854960D02*
X9431967Y-16845436D01*
X9431967Y-16845436D02*
X9422444Y-16826389D01*
X9422444Y-16826389D02*
X9412920Y-16788293D01*
X9412920Y-16788293D02*
X9412920Y-16740674D01*
X9412920Y-16740674D02*
X9422444Y-16702579D01*
X9422444Y-16702579D02*
X9431967Y-16683531D01*
X9431967Y-16683531D02*
X9441491Y-16674008D01*
X9441491Y-16674008D02*
X9460539Y-16664484D01*
X9612920Y-16864484D02*
X9612920Y-16731150D01*
X9612920Y-16750198D02*
X9622444Y-16740674D01*
X9622444Y-16740674D02*
X9641491Y-16731150D01*
X9641491Y-16731150D02*
X9670063Y-16731150D01*
X9670063Y-16731150D02*
X9689110Y-16740674D01*
X9689110Y-16740674D02*
X9698634Y-16759722D01*
X9698634Y-16759722D02*
X9698634Y-16864484D01*
X9698634Y-16759722D02*
X9708158Y-16740674D01*
X9708158Y-16740674D02*
X9727205Y-16731150D01*
X9727205Y-16731150D02*
X9755777Y-16731150D01*
X9755777Y-16731150D02*
X9774825Y-16740674D01*
X9774825Y-16740674D02*
X9784348Y-16759722D01*
X9784348Y-16759722D02*
X9784348Y-16864484D01*
X9879586Y-16864484D02*
X9879586Y-16731150D01*
X9879586Y-16750198D02*
X9889110Y-16740674D01*
X9889110Y-16740674D02*
X9908158Y-16731150D01*
X9908158Y-16731150D02*
X9936729Y-16731150D01*
X9936729Y-16731150D02*
X9955777Y-16740674D01*
X9955777Y-16740674D02*
X9965301Y-16759722D01*
X9965301Y-16759722D02*
X9965301Y-16864484D01*
X9965301Y-16759722D02*
X9974825Y-16740674D01*
X9974825Y-16740674D02*
X9993872Y-16731150D01*
X9993872Y-16731150D02*
X10022444Y-16731150D01*
X10022444Y-16731150D02*
X10041491Y-16740674D01*
X10041491Y-16740674D02*
X10051015Y-16759722D01*
X10051015Y-16759722D02*
X10051015Y-16864484D01*
X10441491Y-16654960D02*
X10270063Y-16912103D01*
X10698634Y-16664484D02*
X10717682Y-16664484D01*
X10717682Y-16664484D02*
X10736729Y-16674008D01*
X10736729Y-16674008D02*
X10746253Y-16683531D01*
X10746253Y-16683531D02*
X10755777Y-16702579D01*
X10755777Y-16702579D02*
X10765301Y-16740674D01*
X10765301Y-16740674D02*
X10765301Y-16788293D01*
X10765301Y-16788293D02*
X10755777Y-16826389D01*
X10755777Y-16826389D02*
X10746253Y-16845436D01*
X10746253Y-16845436D02*
X10736729Y-16854960D01*
X10736729Y-16854960D02*
X10717682Y-16864484D01*
X10717682Y-16864484D02*
X10698634Y-16864484D01*
X10698634Y-16864484D02*
X10679587Y-16854960D01*
X10679587Y-16854960D02*
X10670063Y-16845436D01*
X10670063Y-16845436D02*
X10660539Y-16826389D01*
X10660539Y-16826389D02*
X10651015Y-16788293D01*
X10651015Y-16788293D02*
X10651015Y-16740674D01*
X10651015Y-16740674D02*
X10660539Y-16702579D01*
X10660539Y-16702579D02*
X10670063Y-16683531D01*
X10670063Y-16683531D02*
X10679587Y-16674008D01*
X10679587Y-16674008D02*
X10698634Y-16664484D01*
X10851015Y-16845436D02*
X10860539Y-16854960D01*
X10860539Y-16854960D02*
X10851015Y-16864484D01*
X10851015Y-16864484D02*
X10841491Y-16854960D01*
X10841491Y-16854960D02*
X10851015Y-16845436D01*
X10851015Y-16845436D02*
X10851015Y-16864484D01*
X10984348Y-16664484D02*
X11003396Y-16664484D01*
X11003396Y-16664484D02*
X11022444Y-16674008D01*
X11022444Y-16674008D02*
X11031968Y-16683531D01*
X11031968Y-16683531D02*
X11041491Y-16702579D01*
X11041491Y-16702579D02*
X11051015Y-16740674D01*
X11051015Y-16740674D02*
X11051015Y-16788293D01*
X11051015Y-16788293D02*
X11041491Y-16826389D01*
X11041491Y-16826389D02*
X11031968Y-16845436D01*
X11031968Y-16845436D02*
X11022444Y-16854960D01*
X11022444Y-16854960D02*
X11003396Y-16864484D01*
X11003396Y-16864484D02*
X10984348Y-16864484D01*
X10984348Y-16864484D02*
X10965301Y-16854960D01*
X10965301Y-16854960D02*
X10955777Y-16845436D01*
X10955777Y-16845436D02*
X10946253Y-16826389D01*
X10946253Y-16826389D02*
X10936729Y-16788293D01*
X10936729Y-16788293D02*
X10936729Y-16740674D01*
X10936729Y-16740674D02*
X10946253Y-16702579D01*
X10946253Y-16702579D02*
X10955777Y-16683531D01*
X10955777Y-16683531D02*
X10965301Y-16674008D01*
X10965301Y-16674008D02*
X10984348Y-16664484D01*
X11117682Y-16664484D02*
X11241491Y-16664484D01*
X11241491Y-16664484D02*
X11174825Y-16740674D01*
X11174825Y-16740674D02*
X11203396Y-16740674D01*
X11203396Y-16740674D02*
X11222444Y-16750198D01*
X11222444Y-16750198D02*
X11231967Y-16759722D01*
X11231967Y-16759722D02*
X11241491Y-16778770D01*
X11241491Y-16778770D02*
X11241491Y-16826389D01*
X11241491Y-16826389D02*
X11231967Y-16845436D01*
X11231967Y-16845436D02*
X11222444Y-16854960D01*
X11222444Y-16854960D02*
X11203396Y-16864484D01*
X11203396Y-16864484D02*
X11146253Y-16864484D01*
X11146253Y-16864484D02*
X11127206Y-16854960D01*
X11127206Y-16854960D02*
X11117682Y-16845436D01*
X11431967Y-16864484D02*
X11317682Y-16864484D01*
X11374825Y-16864484D02*
X11374825Y-16664484D01*
X11374825Y-16664484D02*
X11355777Y-16693055D01*
X11355777Y-16693055D02*
X11336729Y-16712103D01*
X11336729Y-16712103D02*
X11317682Y-16721627D01*
X11612920Y-16664484D02*
X11517682Y-16664484D01*
X11517682Y-16664484D02*
X11508158Y-16759722D01*
X11508158Y-16759722D02*
X11517682Y-16750198D01*
X11517682Y-16750198D02*
X11536729Y-16740674D01*
X11536729Y-16740674D02*
X11584348Y-16740674D01*
X11584348Y-16740674D02*
X11603396Y-16750198D01*
X11603396Y-16750198D02*
X11612920Y-16759722D01*
X11612920Y-16759722D02*
X11622444Y-16778770D01*
X11622444Y-16778770D02*
X11622444Y-16826389D01*
X11622444Y-16826389D02*
X11612920Y-16845436D01*
X11612920Y-16845436D02*
X11603396Y-16854960D01*
X11603396Y-16854960D02*
X11584348Y-16864484D01*
X11584348Y-16864484D02*
X11536729Y-16864484D01*
X11536729Y-16864484D02*
X11517682Y-16854960D01*
X11517682Y-16854960D02*
X11508158Y-16845436D01*
X11698634Y-16664484D02*
X11698634Y-16702579D01*
X11774825Y-16664484D02*
X11774825Y-16702579D01*
X12070063Y-16940674D02*
X12060539Y-16931150D01*
X12060539Y-16931150D02*
X12041491Y-16902579D01*
X12041491Y-16902579D02*
X12031968Y-16883531D01*
X12031968Y-16883531D02*
X12022444Y-16854960D01*
X12022444Y-16854960D02*
X12012920Y-16807341D01*
X12012920Y-16807341D02*
X12012920Y-16769246D01*
X12012920Y-16769246D02*
X12022444Y-16721627D01*
X12022444Y-16721627D02*
X12031968Y-16693055D01*
X12031968Y-16693055D02*
X12041491Y-16674008D01*
X12041491Y-16674008D02*
X12060539Y-16645436D01*
X12060539Y-16645436D02*
X12070063Y-16635912D01*
X12174825Y-16750198D02*
X12155777Y-16740674D01*
X12155777Y-16740674D02*
X12146253Y-16731150D01*
X12146253Y-16731150D02*
X12136729Y-16712103D01*
X12136729Y-16712103D02*
X12136729Y-16702579D01*
X12136729Y-16702579D02*
X12146253Y-16683531D01*
X12146253Y-16683531D02*
X12155777Y-16674008D01*
X12155777Y-16674008D02*
X12174825Y-16664484D01*
X12174825Y-16664484D02*
X12212920Y-16664484D01*
X12212920Y-16664484D02*
X12231968Y-16674008D01*
X12231968Y-16674008D02*
X12241491Y-16683531D01*
X12241491Y-16683531D02*
X12251015Y-16702579D01*
X12251015Y-16702579D02*
X12251015Y-16712103D01*
X12251015Y-16712103D02*
X12241491Y-16731150D01*
X12241491Y-16731150D02*
X12231968Y-16740674D01*
X12231968Y-16740674D02*
X12212920Y-16750198D01*
X12212920Y-16750198D02*
X12174825Y-16750198D01*
X12174825Y-16750198D02*
X12155777Y-16759722D01*
X12155777Y-16759722D02*
X12146253Y-16769246D01*
X12146253Y-16769246D02*
X12136729Y-16788293D01*
X12136729Y-16788293D02*
X12136729Y-16826389D01*
X12136729Y-16826389D02*
X12146253Y-16845436D01*
X12146253Y-16845436D02*
X12155777Y-16854960D01*
X12155777Y-16854960D02*
X12174825Y-16864484D01*
X12174825Y-16864484D02*
X12212920Y-16864484D01*
X12212920Y-16864484D02*
X12231968Y-16854960D01*
X12231968Y-16854960D02*
X12241491Y-16845436D01*
X12241491Y-16845436D02*
X12251015Y-16826389D01*
X12251015Y-16826389D02*
X12251015Y-16788293D01*
X12251015Y-16788293D02*
X12241491Y-16769246D01*
X12241491Y-16769246D02*
X12231968Y-16759722D01*
X12231968Y-16759722D02*
X12212920Y-16750198D01*
X12489110Y-16864484D02*
X12489110Y-16664484D01*
X12574825Y-16864484D02*
X12574825Y-16759722D01*
X12574825Y-16759722D02*
X12565301Y-16740674D01*
X12565301Y-16740674D02*
X12546253Y-16731150D01*
X12546253Y-16731150D02*
X12517682Y-16731150D01*
X12517682Y-16731150D02*
X12498634Y-16740674D01*
X12498634Y-16740674D02*
X12489110Y-16750198D01*
X12698634Y-16864484D02*
X12679587Y-16854960D01*
X12679587Y-16854960D02*
X12670063Y-16845436D01*
X12670063Y-16845436D02*
X12660539Y-16826389D01*
X12660539Y-16826389D02*
X12660539Y-16769246D01*
X12660539Y-16769246D02*
X12670063Y-16750198D01*
X12670063Y-16750198D02*
X12679587Y-16740674D01*
X12679587Y-16740674D02*
X12698634Y-16731150D01*
X12698634Y-16731150D02*
X12727206Y-16731150D01*
X12727206Y-16731150D02*
X12746253Y-16740674D01*
X12746253Y-16740674D02*
X12755777Y-16750198D01*
X12755777Y-16750198D02*
X12765301Y-16769246D01*
X12765301Y-16769246D02*
X12765301Y-16826389D01*
X12765301Y-16826389D02*
X12755777Y-16845436D01*
X12755777Y-16845436D02*
X12746253Y-16854960D01*
X12746253Y-16854960D02*
X12727206Y-16864484D01*
X12727206Y-16864484D02*
X12698634Y-16864484D01*
X12879587Y-16864484D02*
X12860539Y-16854960D01*
X12860539Y-16854960D02*
X12851015Y-16835912D01*
X12851015Y-16835912D02*
X12851015Y-16664484D01*
X13031968Y-16854960D02*
X13012920Y-16864484D01*
X13012920Y-16864484D02*
X12974825Y-16864484D01*
X12974825Y-16864484D02*
X12955777Y-16854960D01*
X12955777Y-16854960D02*
X12946253Y-16835912D01*
X12946253Y-16835912D02*
X12946253Y-16759722D01*
X12946253Y-16759722D02*
X12955777Y-16740674D01*
X12955777Y-16740674D02*
X12974825Y-16731150D01*
X12974825Y-16731150D02*
X13012920Y-16731150D01*
X13012920Y-16731150D02*
X13031968Y-16740674D01*
X13031968Y-16740674D02*
X13041491Y-16759722D01*
X13041491Y-16759722D02*
X13041491Y-16778770D01*
X13041491Y-16778770D02*
X12946253Y-16797817D01*
X13117682Y-16854960D02*
X13136730Y-16864484D01*
X13136730Y-16864484D02*
X13174825Y-16864484D01*
X13174825Y-16864484D02*
X13193872Y-16854960D01*
X13193872Y-16854960D02*
X13203396Y-16835912D01*
X13203396Y-16835912D02*
X13203396Y-16826389D01*
X13203396Y-16826389D02*
X13193872Y-16807341D01*
X13193872Y-16807341D02*
X13174825Y-16797817D01*
X13174825Y-16797817D02*
X13146253Y-16797817D01*
X13146253Y-16797817D02*
X13127206Y-16788293D01*
X13127206Y-16788293D02*
X13117682Y-16769246D01*
X13117682Y-16769246D02*
X13117682Y-16759722D01*
X13117682Y-16759722D02*
X13127206Y-16740674D01*
X13127206Y-16740674D02*
X13146253Y-16731150D01*
X13146253Y-16731150D02*
X13174825Y-16731150D01*
X13174825Y-16731150D02*
X13193872Y-16740674D01*
X13270063Y-16940674D02*
X13279587Y-16931150D01*
X13279587Y-16931150D02*
X13298634Y-16902579D01*
X13298634Y-16902579D02*
X13308158Y-16883531D01*
X13308158Y-16883531D02*
X13317682Y-16854960D01*
X13317682Y-16854960D02*
X13327206Y-16807341D01*
X13327206Y-16807341D02*
X13327206Y-16769246D01*
X13327206Y-16769246D02*
X13317682Y-16721627D01*
X13317682Y-16721627D02*
X13308158Y-16693055D01*
X13308158Y-16693055D02*
X13298634Y-16674008D01*
X13298634Y-16674008D02*
X13279587Y-16645436D01*
X13279587Y-16645436D02*
X13270063Y-16635912D01*
D10*
X8481967Y-17068467D02*
X8481967Y-17005533D01*
X8419033Y-17005533D01*
X8419033Y-17068467D01*
X8481967Y-17068467D01*
D11*
X8793872Y-16928484D02*
X8812920Y-16928484D01*
X8812920Y-16928484D02*
X8831967Y-16938008D01*
X8831967Y-16938008D02*
X8841491Y-16947531D01*
X8841491Y-16947531D02*
X8851015Y-16966579D01*
X8851015Y-16966579D02*
X8860539Y-17004674D01*
X8860539Y-17004674D02*
X8860539Y-17052293D01*
X8860539Y-17052293D02*
X8851015Y-17090389D01*
X8851015Y-17090389D02*
X8841491Y-17109436D01*
X8841491Y-17109436D02*
X8831967Y-17118960D01*
X8831967Y-17118960D02*
X8812920Y-17128484D01*
X8812920Y-17128484D02*
X8793872Y-17128484D01*
X8793872Y-17128484D02*
X8774824Y-17118960D01*
X8774824Y-17118960D02*
X8765301Y-17109436D01*
X8765301Y-17109436D02*
X8755777Y-17090389D01*
X8755777Y-17090389D02*
X8746253Y-17052293D01*
X8746253Y-17052293D02*
X8746253Y-17004674D01*
X8746253Y-17004674D02*
X8755777Y-16966579D01*
X8755777Y-16966579D02*
X8765301Y-16947531D01*
X8765301Y-16947531D02*
X8774824Y-16938008D01*
X8774824Y-16938008D02*
X8793872Y-16928484D01*
X8946253Y-17109436D02*
X8955777Y-17118960D01*
X8955777Y-17118960D02*
X8946253Y-17128484D01*
X8946253Y-17128484D02*
X8936729Y-17118960D01*
X8936729Y-17118960D02*
X8946253Y-17109436D01*
X8946253Y-17109436D02*
X8946253Y-17128484D01*
X9070063Y-17014198D02*
X9051015Y-17004674D01*
X9051015Y-17004674D02*
X9041491Y-16995150D01*
X9041491Y-16995150D02*
X9031967Y-16976103D01*
X9031967Y-16976103D02*
X9031967Y-16966579D01*
X9031967Y-16966579D02*
X9041491Y-16947531D01*
X9041491Y-16947531D02*
X9051015Y-16938008D01*
X9051015Y-16938008D02*
X9070063Y-16928484D01*
X9070063Y-16928484D02*
X9108158Y-16928484D01*
X9108158Y-16928484D02*
X9127205Y-16938008D01*
X9127205Y-16938008D02*
X9136729Y-16947531D01*
X9136729Y-16947531D02*
X9146253Y-16966579D01*
X9146253Y-16966579D02*
X9146253Y-16976103D01*
X9146253Y-16976103D02*
X9136729Y-16995150D01*
X9136729Y-16995150D02*
X9127205Y-17004674D01*
X9127205Y-17004674D02*
X9108158Y-17014198D01*
X9108158Y-17014198D02*
X9070063Y-17014198D01*
X9070063Y-17014198D02*
X9051015Y-17023722D01*
X9051015Y-17023722D02*
X9041491Y-17033246D01*
X9041491Y-17033246D02*
X9031967Y-17052293D01*
X9031967Y-17052293D02*
X9031967Y-17090389D01*
X9031967Y-17090389D02*
X9041491Y-17109436D01*
X9041491Y-17109436D02*
X9051015Y-17118960D01*
X9051015Y-17118960D02*
X9070063Y-17128484D01*
X9070063Y-17128484D02*
X9108158Y-17128484D01*
X9108158Y-17128484D02*
X9127205Y-17118960D01*
X9127205Y-17118960D02*
X9136729Y-17109436D01*
X9136729Y-17109436D02*
X9146253Y-17090389D01*
X9146253Y-17090389D02*
X9146253Y-17052293D01*
X9146253Y-17052293D02*
X9136729Y-17033246D01*
X9136729Y-17033246D02*
X9127205Y-17023722D01*
X9127205Y-17023722D02*
X9108158Y-17014198D01*
X9241491Y-17128484D02*
X9279586Y-17128484D01*
X9279586Y-17128484D02*
X9298634Y-17118960D01*
X9298634Y-17118960D02*
X9308158Y-17109436D01*
X9308158Y-17109436D02*
X9327205Y-17080865D01*
X9327205Y-17080865D02*
X9336729Y-17042770D01*
X9336729Y-17042770D02*
X9336729Y-16966579D01*
X9336729Y-16966579D02*
X9327205Y-16947531D01*
X9327205Y-16947531D02*
X9317682Y-16938008D01*
X9317682Y-16938008D02*
X9298634Y-16928484D01*
X9298634Y-16928484D02*
X9260539Y-16928484D01*
X9260539Y-16928484D02*
X9241491Y-16938008D01*
X9241491Y-16938008D02*
X9231967Y-16947531D01*
X9231967Y-16947531D02*
X9222444Y-16966579D01*
X9222444Y-16966579D02*
X9222444Y-17014198D01*
X9222444Y-17014198D02*
X9231967Y-17033246D01*
X9231967Y-17033246D02*
X9241491Y-17042770D01*
X9241491Y-17042770D02*
X9260539Y-17052293D01*
X9260539Y-17052293D02*
X9298634Y-17052293D01*
X9298634Y-17052293D02*
X9317682Y-17042770D01*
X9317682Y-17042770D02*
X9327205Y-17033246D01*
X9327205Y-17033246D02*
X9336729Y-17014198D01*
X9460539Y-16928484D02*
X9479586Y-16928484D01*
X9479586Y-16928484D02*
X9498634Y-16938008D01*
X9498634Y-16938008D02*
X9508158Y-16947531D01*
X9508158Y-16947531D02*
X9517682Y-16966579D01*
X9517682Y-16966579D02*
X9527205Y-17004674D01*
X9527205Y-17004674D02*
X9527205Y-17052293D01*
X9527205Y-17052293D02*
X9517682Y-17090389D01*
X9517682Y-17090389D02*
X9508158Y-17109436D01*
X9508158Y-17109436D02*
X9498634Y-17118960D01*
X9498634Y-17118960D02*
X9479586Y-17128484D01*
X9479586Y-17128484D02*
X9460539Y-17128484D01*
X9460539Y-17128484D02*
X9441491Y-17118960D01*
X9441491Y-17118960D02*
X9431967Y-17109436D01*
X9431967Y-17109436D02*
X9422444Y-17090389D01*
X9422444Y-17090389D02*
X9412920Y-17052293D01*
X9412920Y-17052293D02*
X9412920Y-17004674D01*
X9412920Y-17004674D02*
X9422444Y-16966579D01*
X9422444Y-16966579D02*
X9431967Y-16947531D01*
X9431967Y-16947531D02*
X9441491Y-16938008D01*
X9441491Y-16938008D02*
X9460539Y-16928484D01*
X9612920Y-17128484D02*
X9612920Y-16995150D01*
X9612920Y-17014198D02*
X9622444Y-17004674D01*
X9622444Y-17004674D02*
X9641491Y-16995150D01*
X9641491Y-16995150D02*
X9670063Y-16995150D01*
X9670063Y-16995150D02*
X9689110Y-17004674D01*
X9689110Y-17004674D02*
X9698634Y-17023722D01*
X9698634Y-17023722D02*
X9698634Y-17128484D01*
X9698634Y-17023722D02*
X9708158Y-17004674D01*
X9708158Y-17004674D02*
X9727205Y-16995150D01*
X9727205Y-16995150D02*
X9755777Y-16995150D01*
X9755777Y-16995150D02*
X9774825Y-17004674D01*
X9774825Y-17004674D02*
X9784348Y-17023722D01*
X9784348Y-17023722D02*
X9784348Y-17128484D01*
X9879586Y-17128484D02*
X9879586Y-16995150D01*
X9879586Y-17014198D02*
X9889110Y-17004674D01*
X9889110Y-17004674D02*
X9908158Y-16995150D01*
X9908158Y-16995150D02*
X9936729Y-16995150D01*
X9936729Y-16995150D02*
X9955777Y-17004674D01*
X9955777Y-17004674D02*
X9965301Y-17023722D01*
X9965301Y-17023722D02*
X9965301Y-17128484D01*
X9965301Y-17023722D02*
X9974825Y-17004674D01*
X9974825Y-17004674D02*
X9993872Y-16995150D01*
X9993872Y-16995150D02*
X10022444Y-16995150D01*
X10022444Y-16995150D02*
X10041491Y-17004674D01*
X10041491Y-17004674D02*
X10051015Y-17023722D01*
X10051015Y-17023722D02*
X10051015Y-17128484D01*
X10441491Y-16918960D02*
X10270063Y-17176103D01*
X10698634Y-16928484D02*
X10717682Y-16928484D01*
X10717682Y-16928484D02*
X10736729Y-16938008D01*
X10736729Y-16938008D02*
X10746253Y-16947531D01*
X10746253Y-16947531D02*
X10755777Y-16966579D01*
X10755777Y-16966579D02*
X10765301Y-17004674D01*
X10765301Y-17004674D02*
X10765301Y-17052293D01*
X10765301Y-17052293D02*
X10755777Y-17090389D01*
X10755777Y-17090389D02*
X10746253Y-17109436D01*
X10746253Y-17109436D02*
X10736729Y-17118960D01*
X10736729Y-17118960D02*
X10717682Y-17128484D01*
X10717682Y-17128484D02*
X10698634Y-17128484D01*
X10698634Y-17128484D02*
X10679587Y-17118960D01*
X10679587Y-17118960D02*
X10670063Y-17109436D01*
X10670063Y-17109436D02*
X10660539Y-17090389D01*
X10660539Y-17090389D02*
X10651015Y-17052293D01*
X10651015Y-17052293D02*
X10651015Y-17004674D01*
X10651015Y-17004674D02*
X10660539Y-16966579D01*
X10660539Y-16966579D02*
X10670063Y-16947531D01*
X10670063Y-16947531D02*
X10679587Y-16938008D01*
X10679587Y-16938008D02*
X10698634Y-16928484D01*
X10851015Y-17109436D02*
X10860539Y-17118960D01*
X10860539Y-17118960D02*
X10851015Y-17128484D01*
X10851015Y-17128484D02*
X10841491Y-17118960D01*
X10841491Y-17118960D02*
X10851015Y-17109436D01*
X10851015Y-17109436D02*
X10851015Y-17128484D01*
X10984348Y-16928484D02*
X11003396Y-16928484D01*
X11003396Y-16928484D02*
X11022444Y-16938008D01*
X11022444Y-16938008D02*
X11031968Y-16947531D01*
X11031968Y-16947531D02*
X11041491Y-16966579D01*
X11041491Y-16966579D02*
X11051015Y-17004674D01*
X11051015Y-17004674D02*
X11051015Y-17052293D01*
X11051015Y-17052293D02*
X11041491Y-17090389D01*
X11041491Y-17090389D02*
X11031968Y-17109436D01*
X11031968Y-17109436D02*
X11022444Y-17118960D01*
X11022444Y-17118960D02*
X11003396Y-17128484D01*
X11003396Y-17128484D02*
X10984348Y-17128484D01*
X10984348Y-17128484D02*
X10965301Y-17118960D01*
X10965301Y-17118960D02*
X10955777Y-17109436D01*
X10955777Y-17109436D02*
X10946253Y-17090389D01*
X10946253Y-17090389D02*
X10936729Y-17052293D01*
X10936729Y-17052293D02*
X10936729Y-17004674D01*
X10936729Y-17004674D02*
X10946253Y-16966579D01*
X10946253Y-16966579D02*
X10955777Y-16947531D01*
X10955777Y-16947531D02*
X10965301Y-16938008D01*
X10965301Y-16938008D02*
X10984348Y-16928484D01*
X11117682Y-16928484D02*
X11241491Y-16928484D01*
X11241491Y-16928484D02*
X11174825Y-17004674D01*
X11174825Y-17004674D02*
X11203396Y-17004674D01*
X11203396Y-17004674D02*
X11222444Y-17014198D01*
X11222444Y-17014198D02*
X11231967Y-17023722D01*
X11231967Y-17023722D02*
X11241491Y-17042770D01*
X11241491Y-17042770D02*
X11241491Y-17090389D01*
X11241491Y-17090389D02*
X11231967Y-17109436D01*
X11231967Y-17109436D02*
X11222444Y-17118960D01*
X11222444Y-17118960D02*
X11203396Y-17128484D01*
X11203396Y-17128484D02*
X11146253Y-17128484D01*
X11146253Y-17128484D02*
X11127206Y-17118960D01*
X11127206Y-17118960D02*
X11117682Y-17109436D01*
X11422444Y-16928484D02*
X11327206Y-16928484D01*
X11327206Y-16928484D02*
X11317682Y-17023722D01*
X11317682Y-17023722D02*
X11327206Y-17014198D01*
X11327206Y-17014198D02*
X11346253Y-17004674D01*
X11346253Y-17004674D02*
X11393872Y-17004674D01*
X11393872Y-17004674D02*
X11412920Y-17014198D01*
X11412920Y-17014198D02*
X11422444Y-17023722D01*
X11422444Y-17023722D02*
X11431967Y-17042770D01*
X11431967Y-17042770D02*
X11431967Y-17090389D01*
X11431967Y-17090389D02*
X11422444Y-17109436D01*
X11422444Y-17109436D02*
X11412920Y-17118960D01*
X11412920Y-17118960D02*
X11393872Y-17128484D01*
X11393872Y-17128484D02*
X11346253Y-17128484D01*
X11346253Y-17128484D02*
X11327206Y-17118960D01*
X11327206Y-17118960D02*
X11317682Y-17109436D01*
X11555777Y-16928484D02*
X11574825Y-16928484D01*
X11574825Y-16928484D02*
X11593872Y-16938008D01*
X11593872Y-16938008D02*
X11603396Y-16947531D01*
X11603396Y-16947531D02*
X11612920Y-16966579D01*
X11612920Y-16966579D02*
X11622444Y-17004674D01*
X11622444Y-17004674D02*
X11622444Y-17052293D01*
X11622444Y-17052293D02*
X11612920Y-17090389D01*
X11612920Y-17090389D02*
X11603396Y-17109436D01*
X11603396Y-17109436D02*
X11593872Y-17118960D01*
X11593872Y-17118960D02*
X11574825Y-17128484D01*
X11574825Y-17128484D02*
X11555777Y-17128484D01*
X11555777Y-17128484D02*
X11536729Y-17118960D01*
X11536729Y-17118960D02*
X11527206Y-17109436D01*
X11527206Y-17109436D02*
X11517682Y-17090389D01*
X11517682Y-17090389D02*
X11508158Y-17052293D01*
X11508158Y-17052293D02*
X11508158Y-17004674D01*
X11508158Y-17004674D02*
X11517682Y-16966579D01*
X11517682Y-16966579D02*
X11527206Y-16947531D01*
X11527206Y-16947531D02*
X11536729Y-16938008D01*
X11536729Y-16938008D02*
X11555777Y-16928484D01*
X11698634Y-16928484D02*
X11698634Y-16966579D01*
X11774825Y-16928484D02*
X11774825Y-16966579D01*
X12070063Y-17204674D02*
X12060539Y-17195150D01*
X12060539Y-17195150D02*
X12041491Y-17166579D01*
X12041491Y-17166579D02*
X12031968Y-17147531D01*
X12031968Y-17147531D02*
X12022444Y-17118960D01*
X12022444Y-17118960D02*
X12012920Y-17071341D01*
X12012920Y-17071341D02*
X12012920Y-17033246D01*
X12012920Y-17033246D02*
X12022444Y-16985627D01*
X12022444Y-16985627D02*
X12031968Y-16957055D01*
X12031968Y-16957055D02*
X12041491Y-16938008D01*
X12041491Y-16938008D02*
X12060539Y-16909436D01*
X12060539Y-16909436D02*
X12070063Y-16899912D01*
X12231968Y-16995150D02*
X12231968Y-17128484D01*
X12184348Y-16918960D02*
X12136729Y-17061817D01*
X12136729Y-17061817D02*
X12260539Y-17061817D01*
X12489110Y-17128484D02*
X12489110Y-16928484D01*
X12574825Y-17128484D02*
X12574825Y-17023722D01*
X12574825Y-17023722D02*
X12565301Y-17004674D01*
X12565301Y-17004674D02*
X12546253Y-16995150D01*
X12546253Y-16995150D02*
X12517682Y-16995150D01*
X12517682Y-16995150D02*
X12498634Y-17004674D01*
X12498634Y-17004674D02*
X12489110Y-17014198D01*
X12698634Y-17128484D02*
X12679587Y-17118960D01*
X12679587Y-17118960D02*
X12670063Y-17109436D01*
X12670063Y-17109436D02*
X12660539Y-17090389D01*
X12660539Y-17090389D02*
X12660539Y-17033246D01*
X12660539Y-17033246D02*
X12670063Y-17014198D01*
X12670063Y-17014198D02*
X12679587Y-17004674D01*
X12679587Y-17004674D02*
X12698634Y-16995150D01*
X12698634Y-16995150D02*
X12727206Y-16995150D01*
X12727206Y-16995150D02*
X12746253Y-17004674D01*
X12746253Y-17004674D02*
X12755777Y-17014198D01*
X12755777Y-17014198D02*
X12765301Y-17033246D01*
X12765301Y-17033246D02*
X12765301Y-17090389D01*
X12765301Y-17090389D02*
X12755777Y-17109436D01*
X12755777Y-17109436D02*
X12746253Y-17118960D01*
X12746253Y-17118960D02*
X12727206Y-17128484D01*
X12727206Y-17128484D02*
X12698634Y-17128484D01*
X12879587Y-17128484D02*
X12860539Y-17118960D01*
X12860539Y-17118960D02*
X12851015Y-17099912D01*
X12851015Y-17099912D02*
X12851015Y-16928484D01*
X13031968Y-17118960D02*
X13012920Y-17128484D01*
X13012920Y-17128484D02*
X12974825Y-17128484D01*
X12974825Y-17128484D02*
X12955777Y-17118960D01*
X12955777Y-17118960D02*
X12946253Y-17099912D01*
X12946253Y-17099912D02*
X12946253Y-17023722D01*
X12946253Y-17023722D02*
X12955777Y-17004674D01*
X12955777Y-17004674D02*
X12974825Y-16995150D01*
X12974825Y-16995150D02*
X13012920Y-16995150D01*
X13012920Y-16995150D02*
X13031968Y-17004674D01*
X13031968Y-17004674D02*
X13041491Y-17023722D01*
X13041491Y-17023722D02*
X13041491Y-17042770D01*
X13041491Y-17042770D02*
X12946253Y-17061817D01*
X13117682Y-17118960D02*
X13136730Y-17128484D01*
X13136730Y-17128484D02*
X13174825Y-17128484D01*
X13174825Y-17128484D02*
X13193872Y-17118960D01*
X13193872Y-17118960D02*
X13203396Y-17099912D01*
X13203396Y-17099912D02*
X13203396Y-17090389D01*
X13203396Y-17090389D02*
X13193872Y-17071341D01*
X13193872Y-17071341D02*
X13174825Y-17061817D01*
X13174825Y-17061817D02*
X13146253Y-17061817D01*
X13146253Y-17061817D02*
X13127206Y-17052293D01*
X13127206Y-17052293D02*
X13117682Y-17033246D01*
X13117682Y-17033246D02*
X13117682Y-17023722D01*
X13117682Y-17023722D02*
X13127206Y-17004674D01*
X13127206Y-17004674D02*
X13146253Y-16995150D01*
X13146253Y-16995150D02*
X13174825Y-16995150D01*
X13174825Y-16995150D02*
X13193872Y-17004674D01*
X13270063Y-17204674D02*
X13279587Y-17195150D01*
X13279587Y-17195150D02*
X13298634Y-17166579D01*
X13298634Y-17166579D02*
X13308158Y-17147531D01*
X13308158Y-17147531D02*
X13317682Y-17118960D01*
X13317682Y-17118960D02*
X13327206Y-17071341D01*
X13327206Y-17071341D02*
X13327206Y-17033246D01*
X13327206Y-17033246D02*
X13317682Y-16985627D01*
X13317682Y-16985627D02*
X13308158Y-16957055D01*
X13308158Y-16957055D02*
X13298634Y-16938008D01*
X13298634Y-16938008D02*
X13279587Y-16909436D01*
X13279587Y-16909436D02*
X13270063Y-16899912D01*
D12*
X8440000Y-17356000D02*
X8495000Y-17301000D01*
X8440000Y-17246000D01*
X8385000Y-17301000D01*
X8440000Y-17356000D01*
D11*
X8860539Y-17392484D02*
X8746253Y-17392484D01*
X8803396Y-17392484D02*
X8803396Y-17192484D01*
X8803396Y-17192484D02*
X8784348Y-17221055D01*
X8784348Y-17221055D02*
X8765301Y-17240103D01*
X8765301Y-17240103D02*
X8746253Y-17249627D01*
X8946253Y-17373436D02*
X8955777Y-17382960D01*
X8955777Y-17382960D02*
X8946253Y-17392484D01*
X8946253Y-17392484D02*
X8936729Y-17382960D01*
X8936729Y-17382960D02*
X8946253Y-17373436D01*
X8946253Y-17373436D02*
X8946253Y-17392484D01*
X9146253Y-17392484D02*
X9031967Y-17392484D01*
X9089110Y-17392484D02*
X9089110Y-17192484D01*
X9089110Y-17192484D02*
X9070063Y-17221055D01*
X9070063Y-17221055D02*
X9051015Y-17240103D01*
X9051015Y-17240103D02*
X9031967Y-17249627D01*
X9270063Y-17192484D02*
X9289110Y-17192484D01*
X9289110Y-17192484D02*
X9308158Y-17202008D01*
X9308158Y-17202008D02*
X9317682Y-17211531D01*
X9317682Y-17211531D02*
X9327205Y-17230579D01*
X9327205Y-17230579D02*
X9336729Y-17268674D01*
X9336729Y-17268674D02*
X9336729Y-17316293D01*
X9336729Y-17316293D02*
X9327205Y-17354389D01*
X9327205Y-17354389D02*
X9317682Y-17373436D01*
X9317682Y-17373436D02*
X9308158Y-17382960D01*
X9308158Y-17382960D02*
X9289110Y-17392484D01*
X9289110Y-17392484D02*
X9270063Y-17392484D01*
X9270063Y-17392484D02*
X9251015Y-17382960D01*
X9251015Y-17382960D02*
X9241491Y-17373436D01*
X9241491Y-17373436D02*
X9231967Y-17354389D01*
X9231967Y-17354389D02*
X9222444Y-17316293D01*
X9222444Y-17316293D02*
X9222444Y-17268674D01*
X9222444Y-17268674D02*
X9231967Y-17230579D01*
X9231967Y-17230579D02*
X9241491Y-17211531D01*
X9241491Y-17211531D02*
X9251015Y-17202008D01*
X9251015Y-17202008D02*
X9270063Y-17192484D01*
X9460539Y-17192484D02*
X9479586Y-17192484D01*
X9479586Y-17192484D02*
X9498634Y-17202008D01*
X9498634Y-17202008D02*
X9508158Y-17211531D01*
X9508158Y-17211531D02*
X9517682Y-17230579D01*
X9517682Y-17230579D02*
X9527205Y-17268674D01*
X9527205Y-17268674D02*
X9527205Y-17316293D01*
X9527205Y-17316293D02*
X9517682Y-17354389D01*
X9517682Y-17354389D02*
X9508158Y-17373436D01*
X9508158Y-17373436D02*
X9498634Y-17382960D01*
X9498634Y-17382960D02*
X9479586Y-17392484D01*
X9479586Y-17392484D02*
X9460539Y-17392484D01*
X9460539Y-17392484D02*
X9441491Y-17382960D01*
X9441491Y-17382960D02*
X9431967Y-17373436D01*
X9431967Y-17373436D02*
X9422444Y-17354389D01*
X9422444Y-17354389D02*
X9412920Y-17316293D01*
X9412920Y-17316293D02*
X9412920Y-17268674D01*
X9412920Y-17268674D02*
X9422444Y-17230579D01*
X9422444Y-17230579D02*
X9431967Y-17211531D01*
X9431967Y-17211531D02*
X9441491Y-17202008D01*
X9441491Y-17202008D02*
X9460539Y-17192484D01*
X9612920Y-17392484D02*
X9612920Y-17259150D01*
X9612920Y-17278198D02*
X9622444Y-17268674D01*
X9622444Y-17268674D02*
X9641491Y-17259150D01*
X9641491Y-17259150D02*
X9670063Y-17259150D01*
X9670063Y-17259150D02*
X9689110Y-17268674D01*
X9689110Y-17268674D02*
X9698634Y-17287722D01*
X9698634Y-17287722D02*
X9698634Y-17392484D01*
X9698634Y-17287722D02*
X9708158Y-17268674D01*
X9708158Y-17268674D02*
X9727205Y-17259150D01*
X9727205Y-17259150D02*
X9755777Y-17259150D01*
X9755777Y-17259150D02*
X9774825Y-17268674D01*
X9774825Y-17268674D02*
X9784348Y-17287722D01*
X9784348Y-17287722D02*
X9784348Y-17392484D01*
X9879586Y-17392484D02*
X9879586Y-17259150D01*
X9879586Y-17278198D02*
X9889110Y-17268674D01*
X9889110Y-17268674D02*
X9908158Y-17259150D01*
X9908158Y-17259150D02*
X9936729Y-17259150D01*
X9936729Y-17259150D02*
X9955777Y-17268674D01*
X9955777Y-17268674D02*
X9965301Y-17287722D01*
X9965301Y-17287722D02*
X9965301Y-17392484D01*
X9965301Y-17287722D02*
X9974825Y-17268674D01*
X9974825Y-17268674D02*
X9993872Y-17259150D01*
X9993872Y-17259150D02*
X10022444Y-17259150D01*
X10022444Y-17259150D02*
X10041491Y-17268674D01*
X10041491Y-17268674D02*
X10051015Y-17287722D01*
X10051015Y-17287722D02*
X10051015Y-17392484D01*
X10441491Y-17182960D02*
X10270063Y-17440103D01*
X10698634Y-17192484D02*
X10717682Y-17192484D01*
X10717682Y-17192484D02*
X10736729Y-17202008D01*
X10736729Y-17202008D02*
X10746253Y-17211531D01*
X10746253Y-17211531D02*
X10755777Y-17230579D01*
X10755777Y-17230579D02*
X10765301Y-17268674D01*
X10765301Y-17268674D02*
X10765301Y-17316293D01*
X10765301Y-17316293D02*
X10755777Y-17354389D01*
X10755777Y-17354389D02*
X10746253Y-17373436D01*
X10746253Y-17373436D02*
X10736729Y-17382960D01*
X10736729Y-17382960D02*
X10717682Y-17392484D01*
X10717682Y-17392484D02*
X10698634Y-17392484D01*
X10698634Y-17392484D02*
X10679587Y-17382960D01*
X10679587Y-17382960D02*
X10670063Y-17373436D01*
X10670063Y-17373436D02*
X10660539Y-17354389D01*
X10660539Y-17354389D02*
X10651015Y-17316293D01*
X10651015Y-17316293D02*
X10651015Y-17268674D01*
X10651015Y-17268674D02*
X10660539Y-17230579D01*
X10660539Y-17230579D02*
X10670063Y-17211531D01*
X10670063Y-17211531D02*
X10679587Y-17202008D01*
X10679587Y-17202008D02*
X10698634Y-17192484D01*
X10851015Y-17373436D02*
X10860539Y-17382960D01*
X10860539Y-17382960D02*
X10851015Y-17392484D01*
X10851015Y-17392484D02*
X10841491Y-17382960D01*
X10841491Y-17382960D02*
X10851015Y-17373436D01*
X10851015Y-17373436D02*
X10851015Y-17392484D01*
X10984348Y-17192484D02*
X11003396Y-17192484D01*
X11003396Y-17192484D02*
X11022444Y-17202008D01*
X11022444Y-17202008D02*
X11031968Y-17211531D01*
X11031968Y-17211531D02*
X11041491Y-17230579D01*
X11041491Y-17230579D02*
X11051015Y-17268674D01*
X11051015Y-17268674D02*
X11051015Y-17316293D01*
X11051015Y-17316293D02*
X11041491Y-17354389D01*
X11041491Y-17354389D02*
X11031968Y-17373436D01*
X11031968Y-17373436D02*
X11022444Y-17382960D01*
X11022444Y-17382960D02*
X11003396Y-17392484D01*
X11003396Y-17392484D02*
X10984348Y-17392484D01*
X10984348Y-17392484D02*
X10965301Y-17382960D01*
X10965301Y-17382960D02*
X10955777Y-17373436D01*
X10955777Y-17373436D02*
X10946253Y-17354389D01*
X10946253Y-17354389D02*
X10936729Y-17316293D01*
X10936729Y-17316293D02*
X10936729Y-17268674D01*
X10936729Y-17268674D02*
X10946253Y-17230579D01*
X10946253Y-17230579D02*
X10955777Y-17211531D01*
X10955777Y-17211531D02*
X10965301Y-17202008D01*
X10965301Y-17202008D02*
X10984348Y-17192484D01*
X11222444Y-17259150D02*
X11222444Y-17392484D01*
X11174825Y-17182960D02*
X11127206Y-17325817D01*
X11127206Y-17325817D02*
X11251015Y-17325817D01*
X11308158Y-17192484D02*
X11431967Y-17192484D01*
X11431967Y-17192484D02*
X11365301Y-17268674D01*
X11365301Y-17268674D02*
X11393872Y-17268674D01*
X11393872Y-17268674D02*
X11412920Y-17278198D01*
X11412920Y-17278198D02*
X11422444Y-17287722D01*
X11422444Y-17287722D02*
X11431967Y-17306770D01*
X11431967Y-17306770D02*
X11431967Y-17354389D01*
X11431967Y-17354389D02*
X11422444Y-17373436D01*
X11422444Y-17373436D02*
X11412920Y-17382960D01*
X11412920Y-17382960D02*
X11393872Y-17392484D01*
X11393872Y-17392484D02*
X11336729Y-17392484D01*
X11336729Y-17392484D02*
X11317682Y-17382960D01*
X11317682Y-17382960D02*
X11308158Y-17373436D01*
X11498634Y-17192484D02*
X11622444Y-17192484D01*
X11622444Y-17192484D02*
X11555777Y-17268674D01*
X11555777Y-17268674D02*
X11584348Y-17268674D01*
X11584348Y-17268674D02*
X11603396Y-17278198D01*
X11603396Y-17278198D02*
X11612920Y-17287722D01*
X11612920Y-17287722D02*
X11622444Y-17306770D01*
X11622444Y-17306770D02*
X11622444Y-17354389D01*
X11622444Y-17354389D02*
X11612920Y-17373436D01*
X11612920Y-17373436D02*
X11603396Y-17382960D01*
X11603396Y-17382960D02*
X11584348Y-17392484D01*
X11584348Y-17392484D02*
X11527206Y-17392484D01*
X11527206Y-17392484D02*
X11508158Y-17382960D01*
X11508158Y-17382960D02*
X11498634Y-17373436D01*
X11698634Y-17192484D02*
X11698634Y-17230579D01*
X11774825Y-17192484D02*
X11774825Y-17230579D01*
X12070063Y-17468674D02*
X12060539Y-17459150D01*
X12060539Y-17459150D02*
X12041491Y-17430579D01*
X12041491Y-17430579D02*
X12031968Y-17411531D01*
X12031968Y-17411531D02*
X12022444Y-17382960D01*
X12022444Y-17382960D02*
X12012920Y-17335341D01*
X12012920Y-17335341D02*
X12012920Y-17297246D01*
X12012920Y-17297246D02*
X12022444Y-17249627D01*
X12022444Y-17249627D02*
X12031968Y-17221055D01*
X12031968Y-17221055D02*
X12041491Y-17202008D01*
X12041491Y-17202008D02*
X12060539Y-17173436D01*
X12060539Y-17173436D02*
X12070063Y-17163912D01*
X12251015Y-17392484D02*
X12136729Y-17392484D01*
X12193872Y-17392484D02*
X12193872Y-17192484D01*
X12193872Y-17192484D02*
X12174825Y-17221055D01*
X12174825Y-17221055D02*
X12155777Y-17240103D01*
X12155777Y-17240103D02*
X12136729Y-17249627D01*
X12327206Y-17211531D02*
X12336729Y-17202008D01*
X12336729Y-17202008D02*
X12355777Y-17192484D01*
X12355777Y-17192484D02*
X12403396Y-17192484D01*
X12403396Y-17192484D02*
X12422444Y-17202008D01*
X12422444Y-17202008D02*
X12431968Y-17211531D01*
X12431968Y-17211531D02*
X12441491Y-17230579D01*
X12441491Y-17230579D02*
X12441491Y-17249627D01*
X12441491Y-17249627D02*
X12431968Y-17278198D01*
X12431968Y-17278198D02*
X12317682Y-17392484D01*
X12317682Y-17392484D02*
X12441491Y-17392484D01*
X12679587Y-17392484D02*
X12679587Y-17192484D01*
X12765301Y-17392484D02*
X12765301Y-17287722D01*
X12765301Y-17287722D02*
X12755777Y-17268674D01*
X12755777Y-17268674D02*
X12736730Y-17259150D01*
X12736730Y-17259150D02*
X12708158Y-17259150D01*
X12708158Y-17259150D02*
X12689110Y-17268674D01*
X12689110Y-17268674D02*
X12679587Y-17278198D01*
X12889110Y-17392484D02*
X12870063Y-17382960D01*
X12870063Y-17382960D02*
X12860539Y-17373436D01*
X12860539Y-17373436D02*
X12851015Y-17354389D01*
X12851015Y-17354389D02*
X12851015Y-17297246D01*
X12851015Y-17297246D02*
X12860539Y-17278198D01*
X12860539Y-17278198D02*
X12870063Y-17268674D01*
X12870063Y-17268674D02*
X12889110Y-17259150D01*
X12889110Y-17259150D02*
X12917682Y-17259150D01*
X12917682Y-17259150D02*
X12936730Y-17268674D01*
X12936730Y-17268674D02*
X12946253Y-17278198D01*
X12946253Y-17278198D02*
X12955777Y-17297246D01*
X12955777Y-17297246D02*
X12955777Y-17354389D01*
X12955777Y-17354389D02*
X12946253Y-17373436D01*
X12946253Y-17373436D02*
X12936730Y-17382960D01*
X12936730Y-17382960D02*
X12917682Y-17392484D01*
X12917682Y-17392484D02*
X12889110Y-17392484D01*
X13070063Y-17392484D02*
X13051015Y-17382960D01*
X13051015Y-17382960D02*
X13041491Y-17363912D01*
X13041491Y-17363912D02*
X13041491Y-17192484D01*
X13222444Y-17382960D02*
X13203396Y-17392484D01*
X13203396Y-17392484D02*
X13165301Y-17392484D01*
X13165301Y-17392484D02*
X13146253Y-17382960D01*
X13146253Y-17382960D02*
X13136730Y-17363912D01*
X13136730Y-17363912D02*
X13136730Y-17287722D01*
X13136730Y-17287722D02*
X13146253Y-17268674D01*
X13146253Y-17268674D02*
X13165301Y-17259150D01*
X13165301Y-17259150D02*
X13203396Y-17259150D01*
X13203396Y-17259150D02*
X13222444Y-17268674D01*
X13222444Y-17268674D02*
X13231968Y-17287722D01*
X13231968Y-17287722D02*
X13231968Y-17306770D01*
X13231968Y-17306770D02*
X13136730Y-17325817D01*
X13308158Y-17382960D02*
X13327206Y-17392484D01*
X13327206Y-17392484D02*
X13365301Y-17392484D01*
X13365301Y-17392484D02*
X13384349Y-17382960D01*
X13384349Y-17382960D02*
X13393872Y-17363912D01*
X13393872Y-17363912D02*
X13393872Y-17354389D01*
X13393872Y-17354389D02*
X13384349Y-17335341D01*
X13384349Y-17335341D02*
X13365301Y-17325817D01*
X13365301Y-17325817D02*
X13336730Y-17325817D01*
X13336730Y-17325817D02*
X13317682Y-17316293D01*
X13317682Y-17316293D02*
X13308158Y-17297246D01*
X13308158Y-17297246D02*
X13308158Y-17287722D01*
X13308158Y-17287722D02*
X13317682Y-17268674D01*
X13317682Y-17268674D02*
X13336730Y-17259150D01*
X13336730Y-17259150D02*
X13365301Y-17259150D01*
X13365301Y-17259150D02*
X13384349Y-17268674D01*
X13460539Y-17468674D02*
X13470063Y-17459150D01*
X13470063Y-17459150D02*
X13489111Y-17430579D01*
X13489111Y-17430579D02*
X13498634Y-17411531D01*
X13498634Y-17411531D02*
X13508158Y-17382960D01*
X13508158Y-17382960D02*
X13517682Y-17335341D01*
X13517682Y-17335341D02*
X13517682Y-17297246D01*
X13517682Y-17297246D02*
X13508158Y-17249627D01*
X13508158Y-17249627D02*
X13498634Y-17221055D01*
X13498634Y-17221055D02*
X13489111Y-17202008D01*
X13489111Y-17202008D02*
X13470063Y-17173436D01*
X13470063Y-17173436D02*
X13460539Y-17163912D01*
D13*
X8320000Y-17477500D02*
X8495000Y-17652500D01*
X8495000Y-17477500D02*
X8320000Y-17652500D01*
X8495000Y-17565000D02*
G75*
G02*
X8320000Y-17565000I-87500J0D01*
G01*
X8320000Y-17565000D02*
G75*
G02*
X8495000Y-17565000I87500J0D01*
G01*
D11*
X8860539Y-17656484D02*
X8746253Y-17656484D01*
X8803396Y-17656484D02*
X8803396Y-17456484D01*
X8803396Y-17456484D02*
X8784348Y-17485055D01*
X8784348Y-17485055D02*
X8765301Y-17504103D01*
X8765301Y-17504103D02*
X8746253Y-17513627D01*
X8946253Y-17637436D02*
X8955777Y-17646960D01*
X8955777Y-17646960D02*
X8946253Y-17656484D01*
X8946253Y-17656484D02*
X8936729Y-17646960D01*
X8936729Y-17646960D02*
X8946253Y-17637436D01*
X8946253Y-17637436D02*
X8946253Y-17656484D01*
X9022444Y-17456484D02*
X9155777Y-17456484D01*
X9155777Y-17456484D02*
X9070063Y-17656484D01*
X9327205Y-17456484D02*
X9231967Y-17456484D01*
X9231967Y-17456484D02*
X9222444Y-17551722D01*
X9222444Y-17551722D02*
X9231967Y-17542198D01*
X9231967Y-17542198D02*
X9251015Y-17532674D01*
X9251015Y-17532674D02*
X9298634Y-17532674D01*
X9298634Y-17532674D02*
X9317682Y-17542198D01*
X9317682Y-17542198D02*
X9327205Y-17551722D01*
X9327205Y-17551722D02*
X9336729Y-17570770D01*
X9336729Y-17570770D02*
X9336729Y-17618389D01*
X9336729Y-17618389D02*
X9327205Y-17637436D01*
X9327205Y-17637436D02*
X9317682Y-17646960D01*
X9317682Y-17646960D02*
X9298634Y-17656484D01*
X9298634Y-17656484D02*
X9251015Y-17656484D01*
X9251015Y-17656484D02*
X9231967Y-17646960D01*
X9231967Y-17646960D02*
X9222444Y-17637436D01*
X9460539Y-17456484D02*
X9479586Y-17456484D01*
X9479586Y-17456484D02*
X9498634Y-17466008D01*
X9498634Y-17466008D02*
X9508158Y-17475531D01*
X9508158Y-17475531D02*
X9517682Y-17494579D01*
X9517682Y-17494579D02*
X9527205Y-17532674D01*
X9527205Y-17532674D02*
X9527205Y-17580293D01*
X9527205Y-17580293D02*
X9517682Y-17618389D01*
X9517682Y-17618389D02*
X9508158Y-17637436D01*
X9508158Y-17637436D02*
X9498634Y-17646960D01*
X9498634Y-17646960D02*
X9479586Y-17656484D01*
X9479586Y-17656484D02*
X9460539Y-17656484D01*
X9460539Y-17656484D02*
X9441491Y-17646960D01*
X9441491Y-17646960D02*
X9431967Y-17637436D01*
X9431967Y-17637436D02*
X9422444Y-17618389D01*
X9422444Y-17618389D02*
X9412920Y-17580293D01*
X9412920Y-17580293D02*
X9412920Y-17532674D01*
X9412920Y-17532674D02*
X9422444Y-17494579D01*
X9422444Y-17494579D02*
X9431967Y-17475531D01*
X9431967Y-17475531D02*
X9441491Y-17466008D01*
X9441491Y-17466008D02*
X9460539Y-17456484D01*
X9612920Y-17656484D02*
X9612920Y-17523150D01*
X9612920Y-17542198D02*
X9622444Y-17532674D01*
X9622444Y-17532674D02*
X9641491Y-17523150D01*
X9641491Y-17523150D02*
X9670063Y-17523150D01*
X9670063Y-17523150D02*
X9689110Y-17532674D01*
X9689110Y-17532674D02*
X9698634Y-17551722D01*
X9698634Y-17551722D02*
X9698634Y-17656484D01*
X9698634Y-17551722D02*
X9708158Y-17532674D01*
X9708158Y-17532674D02*
X9727205Y-17523150D01*
X9727205Y-17523150D02*
X9755777Y-17523150D01*
X9755777Y-17523150D02*
X9774825Y-17532674D01*
X9774825Y-17532674D02*
X9784348Y-17551722D01*
X9784348Y-17551722D02*
X9784348Y-17656484D01*
X9879586Y-17656484D02*
X9879586Y-17523150D01*
X9879586Y-17542198D02*
X9889110Y-17532674D01*
X9889110Y-17532674D02*
X9908158Y-17523150D01*
X9908158Y-17523150D02*
X9936729Y-17523150D01*
X9936729Y-17523150D02*
X9955777Y-17532674D01*
X9955777Y-17532674D02*
X9965301Y-17551722D01*
X9965301Y-17551722D02*
X9965301Y-17656484D01*
X9965301Y-17551722D02*
X9974825Y-17532674D01*
X9974825Y-17532674D02*
X9993872Y-17523150D01*
X9993872Y-17523150D02*
X10022444Y-17523150D01*
X10022444Y-17523150D02*
X10041491Y-17532674D01*
X10041491Y-17532674D02*
X10051015Y-17551722D01*
X10051015Y-17551722D02*
X10051015Y-17656484D01*
X10441491Y-17446960D02*
X10270063Y-17704103D01*
X10698634Y-17456484D02*
X10717682Y-17456484D01*
X10717682Y-17456484D02*
X10736729Y-17466008D01*
X10736729Y-17466008D02*
X10746253Y-17475531D01*
X10746253Y-17475531D02*
X10755777Y-17494579D01*
X10755777Y-17494579D02*
X10765301Y-17532674D01*
X10765301Y-17532674D02*
X10765301Y-17580293D01*
X10765301Y-17580293D02*
X10755777Y-17618389D01*
X10755777Y-17618389D02*
X10746253Y-17637436D01*
X10746253Y-17637436D02*
X10736729Y-17646960D01*
X10736729Y-17646960D02*
X10717682Y-17656484D01*
X10717682Y-17656484D02*
X10698634Y-17656484D01*
X10698634Y-17656484D02*
X10679587Y-17646960D01*
X10679587Y-17646960D02*
X10670063Y-17637436D01*
X10670063Y-17637436D02*
X10660539Y-17618389D01*
X10660539Y-17618389D02*
X10651015Y-17580293D01*
X10651015Y-17580293D02*
X10651015Y-17532674D01*
X10651015Y-17532674D02*
X10660539Y-17494579D01*
X10660539Y-17494579D02*
X10670063Y-17475531D01*
X10670063Y-17475531D02*
X10679587Y-17466008D01*
X10679587Y-17466008D02*
X10698634Y-17456484D01*
X10851015Y-17637436D02*
X10860539Y-17646960D01*
X10860539Y-17646960D02*
X10851015Y-17656484D01*
X10851015Y-17656484D02*
X10841491Y-17646960D01*
X10841491Y-17646960D02*
X10851015Y-17637436D01*
X10851015Y-17637436D02*
X10851015Y-17656484D01*
X10984348Y-17456484D02*
X11003396Y-17456484D01*
X11003396Y-17456484D02*
X11022444Y-17466008D01*
X11022444Y-17466008D02*
X11031968Y-17475531D01*
X11031968Y-17475531D02*
X11041491Y-17494579D01*
X11041491Y-17494579D02*
X11051015Y-17532674D01*
X11051015Y-17532674D02*
X11051015Y-17580293D01*
X11051015Y-17580293D02*
X11041491Y-17618389D01*
X11041491Y-17618389D02*
X11031968Y-17637436D01*
X11031968Y-17637436D02*
X11022444Y-17646960D01*
X11022444Y-17646960D02*
X11003396Y-17656484D01*
X11003396Y-17656484D02*
X10984348Y-17656484D01*
X10984348Y-17656484D02*
X10965301Y-17646960D01*
X10965301Y-17646960D02*
X10955777Y-17637436D01*
X10955777Y-17637436D02*
X10946253Y-17618389D01*
X10946253Y-17618389D02*
X10936729Y-17580293D01*
X10936729Y-17580293D02*
X10936729Y-17532674D01*
X10936729Y-17532674D02*
X10946253Y-17494579D01*
X10946253Y-17494579D02*
X10955777Y-17475531D01*
X10955777Y-17475531D02*
X10965301Y-17466008D01*
X10965301Y-17466008D02*
X10984348Y-17456484D01*
X11222444Y-17456484D02*
X11184348Y-17456484D01*
X11184348Y-17456484D02*
X11165301Y-17466008D01*
X11165301Y-17466008D02*
X11155777Y-17475531D01*
X11155777Y-17475531D02*
X11136729Y-17504103D01*
X11136729Y-17504103D02*
X11127206Y-17542198D01*
X11127206Y-17542198D02*
X11127206Y-17618389D01*
X11127206Y-17618389D02*
X11136729Y-17637436D01*
X11136729Y-17637436D02*
X11146253Y-17646960D01*
X11146253Y-17646960D02*
X11165301Y-17656484D01*
X11165301Y-17656484D02*
X11203396Y-17656484D01*
X11203396Y-17656484D02*
X11222444Y-17646960D01*
X11222444Y-17646960D02*
X11231967Y-17637436D01*
X11231967Y-17637436D02*
X11241491Y-17618389D01*
X11241491Y-17618389D02*
X11241491Y-17570770D01*
X11241491Y-17570770D02*
X11231967Y-17551722D01*
X11231967Y-17551722D02*
X11222444Y-17542198D01*
X11222444Y-17542198D02*
X11203396Y-17532674D01*
X11203396Y-17532674D02*
X11165301Y-17532674D01*
X11165301Y-17532674D02*
X11146253Y-17542198D01*
X11146253Y-17542198D02*
X11136729Y-17551722D01*
X11136729Y-17551722D02*
X11127206Y-17570770D01*
X11355777Y-17542198D02*
X11336729Y-17532674D01*
X11336729Y-17532674D02*
X11327206Y-17523150D01*
X11327206Y-17523150D02*
X11317682Y-17504103D01*
X11317682Y-17504103D02*
X11317682Y-17494579D01*
X11317682Y-17494579D02*
X11327206Y-17475531D01*
X11327206Y-17475531D02*
X11336729Y-17466008D01*
X11336729Y-17466008D02*
X11355777Y-17456484D01*
X11355777Y-17456484D02*
X11393872Y-17456484D01*
X11393872Y-17456484D02*
X11412920Y-17466008D01*
X11412920Y-17466008D02*
X11422444Y-17475531D01*
X11422444Y-17475531D02*
X11431967Y-17494579D01*
X11431967Y-17494579D02*
X11431967Y-17504103D01*
X11431967Y-17504103D02*
X11422444Y-17523150D01*
X11422444Y-17523150D02*
X11412920Y-17532674D01*
X11412920Y-17532674D02*
X11393872Y-17542198D01*
X11393872Y-17542198D02*
X11355777Y-17542198D01*
X11355777Y-17542198D02*
X11336729Y-17551722D01*
X11336729Y-17551722D02*
X11327206Y-17561246D01*
X11327206Y-17561246D02*
X11317682Y-17580293D01*
X11317682Y-17580293D02*
X11317682Y-17618389D01*
X11317682Y-17618389D02*
X11327206Y-17637436D01*
X11327206Y-17637436D02*
X11336729Y-17646960D01*
X11336729Y-17646960D02*
X11355777Y-17656484D01*
X11355777Y-17656484D02*
X11393872Y-17656484D01*
X11393872Y-17656484D02*
X11412920Y-17646960D01*
X11412920Y-17646960D02*
X11422444Y-17637436D01*
X11422444Y-17637436D02*
X11431967Y-17618389D01*
X11431967Y-17618389D02*
X11431967Y-17580293D01*
X11431967Y-17580293D02*
X11422444Y-17561246D01*
X11422444Y-17561246D02*
X11412920Y-17551722D01*
X11412920Y-17551722D02*
X11393872Y-17542198D01*
X11527206Y-17656484D02*
X11565301Y-17656484D01*
X11565301Y-17656484D02*
X11584348Y-17646960D01*
X11584348Y-17646960D02*
X11593872Y-17637436D01*
X11593872Y-17637436D02*
X11612920Y-17608865D01*
X11612920Y-17608865D02*
X11622444Y-17570770D01*
X11622444Y-17570770D02*
X11622444Y-17494579D01*
X11622444Y-17494579D02*
X11612920Y-17475531D01*
X11612920Y-17475531D02*
X11603396Y-17466008D01*
X11603396Y-17466008D02*
X11584348Y-17456484D01*
X11584348Y-17456484D02*
X11546253Y-17456484D01*
X11546253Y-17456484D02*
X11527206Y-17466008D01*
X11527206Y-17466008D02*
X11517682Y-17475531D01*
X11517682Y-17475531D02*
X11508158Y-17494579D01*
X11508158Y-17494579D02*
X11508158Y-17542198D01*
X11508158Y-17542198D02*
X11517682Y-17561246D01*
X11517682Y-17561246D02*
X11527206Y-17570770D01*
X11527206Y-17570770D02*
X11546253Y-17580293D01*
X11546253Y-17580293D02*
X11584348Y-17580293D01*
X11584348Y-17580293D02*
X11603396Y-17570770D01*
X11603396Y-17570770D02*
X11612920Y-17561246D01*
X11612920Y-17561246D02*
X11622444Y-17542198D01*
X11698634Y-17456484D02*
X11698634Y-17494579D01*
X11774825Y-17456484D02*
X11774825Y-17494579D01*
X12070063Y-17732674D02*
X12060539Y-17723150D01*
X12060539Y-17723150D02*
X12041491Y-17694579D01*
X12041491Y-17694579D02*
X12031968Y-17675531D01*
X12031968Y-17675531D02*
X12022444Y-17646960D01*
X12022444Y-17646960D02*
X12012920Y-17599341D01*
X12012920Y-17599341D02*
X12012920Y-17561246D01*
X12012920Y-17561246D02*
X12022444Y-17513627D01*
X12022444Y-17513627D02*
X12031968Y-17485055D01*
X12031968Y-17485055D02*
X12041491Y-17466008D01*
X12041491Y-17466008D02*
X12060539Y-17437436D01*
X12060539Y-17437436D02*
X12070063Y-17427912D01*
X12127206Y-17456484D02*
X12260539Y-17456484D01*
X12260539Y-17456484D02*
X12174825Y-17656484D01*
X12489110Y-17656484D02*
X12489110Y-17456484D01*
X12574825Y-17656484D02*
X12574825Y-17551722D01*
X12574825Y-17551722D02*
X12565301Y-17532674D01*
X12565301Y-17532674D02*
X12546253Y-17523150D01*
X12546253Y-17523150D02*
X12517682Y-17523150D01*
X12517682Y-17523150D02*
X12498634Y-17532674D01*
X12498634Y-17532674D02*
X12489110Y-17542198D01*
X12698634Y-17656484D02*
X12679587Y-17646960D01*
X12679587Y-17646960D02*
X12670063Y-17637436D01*
X12670063Y-17637436D02*
X12660539Y-17618389D01*
X12660539Y-17618389D02*
X12660539Y-17561246D01*
X12660539Y-17561246D02*
X12670063Y-17542198D01*
X12670063Y-17542198D02*
X12679587Y-17532674D01*
X12679587Y-17532674D02*
X12698634Y-17523150D01*
X12698634Y-17523150D02*
X12727206Y-17523150D01*
X12727206Y-17523150D02*
X12746253Y-17532674D01*
X12746253Y-17532674D02*
X12755777Y-17542198D01*
X12755777Y-17542198D02*
X12765301Y-17561246D01*
X12765301Y-17561246D02*
X12765301Y-17618389D01*
X12765301Y-17618389D02*
X12755777Y-17637436D01*
X12755777Y-17637436D02*
X12746253Y-17646960D01*
X12746253Y-17646960D02*
X12727206Y-17656484D01*
X12727206Y-17656484D02*
X12698634Y-17656484D01*
X12879587Y-17656484D02*
X12860539Y-17646960D01*
X12860539Y-17646960D02*
X12851015Y-17627912D01*
X12851015Y-17627912D02*
X12851015Y-17456484D01*
X13031968Y-17646960D02*
X13012920Y-17656484D01*
X13012920Y-17656484D02*
X12974825Y-17656484D01*
X12974825Y-17656484D02*
X12955777Y-17646960D01*
X12955777Y-17646960D02*
X12946253Y-17627912D01*
X12946253Y-17627912D02*
X12946253Y-17551722D01*
X12946253Y-17551722D02*
X12955777Y-17532674D01*
X12955777Y-17532674D02*
X12974825Y-17523150D01*
X12974825Y-17523150D02*
X13012920Y-17523150D01*
X13012920Y-17523150D02*
X13031968Y-17532674D01*
X13031968Y-17532674D02*
X13041491Y-17551722D01*
X13041491Y-17551722D02*
X13041491Y-17570770D01*
X13041491Y-17570770D02*
X12946253Y-17589817D01*
X13117682Y-17646960D02*
X13136730Y-17656484D01*
X13136730Y-17656484D02*
X13174825Y-17656484D01*
X13174825Y-17656484D02*
X13193872Y-17646960D01*
X13193872Y-17646960D02*
X13203396Y-17627912D01*
X13203396Y-17627912D02*
X13203396Y-17618389D01*
X13203396Y-17618389D02*
X13193872Y-17599341D01*
X13193872Y-17599341D02*
X13174825Y-17589817D01*
X13174825Y-17589817D02*
X13146253Y-17589817D01*
X13146253Y-17589817D02*
X13127206Y-17580293D01*
X13127206Y-17580293D02*
X13117682Y-17561246D01*
X13117682Y-17561246D02*
X13117682Y-17551722D01*
X13117682Y-17551722D02*
X13127206Y-17532674D01*
X13127206Y-17532674D02*
X13146253Y-17523150D01*
X13146253Y-17523150D02*
X13174825Y-17523150D01*
X13174825Y-17523150D02*
X13193872Y-17532674D01*
X13270063Y-17732674D02*
X13279587Y-17723150D01*
X13279587Y-17723150D02*
X13298634Y-17694579D01*
X13298634Y-17694579D02*
X13308158Y-17675531D01*
X13308158Y-17675531D02*
X13317682Y-17646960D01*
X13317682Y-17646960D02*
X13327206Y-17599341D01*
X13327206Y-17599341D02*
X13327206Y-17561246D01*
X13327206Y-17561246D02*
X13317682Y-17513627D01*
X13317682Y-17513627D02*
X13308158Y-17485055D01*
X13308158Y-17485055D02*
X13298634Y-17466008D01*
X13298634Y-17466008D02*
X13279587Y-17437436D01*
X13279587Y-17437436D02*
X13270063Y-17427912D01*
X8295000Y-17760000D02*
X8495000Y-17960000D01*
X8495000Y-17760000D02*
X8295000Y-17960000D01*
X8395000Y-17760000D02*
X8395000Y-17960000D01*
X8295000Y-17860000D02*
X8495000Y-17860000D01*
X8746253Y-17770531D02*
X8755777Y-17761008D01*
X8755777Y-17761008D02*
X8774824Y-17751484D01*
X8774824Y-17751484D02*
X8822444Y-17751484D01*
X8822444Y-17751484D02*
X8841491Y-17761008D01*
X8841491Y-17761008D02*
X8851015Y-17770531D01*
X8851015Y-17770531D02*
X8860539Y-17789579D01*
X8860539Y-17789579D02*
X8860539Y-17808627D01*
X8860539Y-17808627D02*
X8851015Y-17837198D01*
X8851015Y-17837198D02*
X8736729Y-17951484D01*
X8736729Y-17951484D02*
X8860539Y-17951484D01*
X8946253Y-17932436D02*
X8955777Y-17941960D01*
X8955777Y-17941960D02*
X8946253Y-17951484D01*
X8946253Y-17951484D02*
X8936729Y-17941960D01*
X8936729Y-17941960D02*
X8946253Y-17932436D01*
X8946253Y-17932436D02*
X8946253Y-17951484D01*
X9079586Y-17751484D02*
X9098634Y-17751484D01*
X9098634Y-17751484D02*
X9117682Y-17761008D01*
X9117682Y-17761008D02*
X9127205Y-17770531D01*
X9127205Y-17770531D02*
X9136729Y-17789579D01*
X9136729Y-17789579D02*
X9146253Y-17827674D01*
X9146253Y-17827674D02*
X9146253Y-17875293D01*
X9146253Y-17875293D02*
X9136729Y-17913389D01*
X9136729Y-17913389D02*
X9127205Y-17932436D01*
X9127205Y-17932436D02*
X9117682Y-17941960D01*
X9117682Y-17941960D02*
X9098634Y-17951484D01*
X9098634Y-17951484D02*
X9079586Y-17951484D01*
X9079586Y-17951484D02*
X9060539Y-17941960D01*
X9060539Y-17941960D02*
X9051015Y-17932436D01*
X9051015Y-17932436D02*
X9041491Y-17913389D01*
X9041491Y-17913389D02*
X9031967Y-17875293D01*
X9031967Y-17875293D02*
X9031967Y-17827674D01*
X9031967Y-17827674D02*
X9041491Y-17789579D01*
X9041491Y-17789579D02*
X9051015Y-17770531D01*
X9051015Y-17770531D02*
X9060539Y-17761008D01*
X9060539Y-17761008D02*
X9079586Y-17751484D01*
X9336729Y-17951484D02*
X9222444Y-17951484D01*
X9279586Y-17951484D02*
X9279586Y-17751484D01*
X9279586Y-17751484D02*
X9260539Y-17780055D01*
X9260539Y-17780055D02*
X9241491Y-17799103D01*
X9241491Y-17799103D02*
X9222444Y-17808627D01*
X9460539Y-17751484D02*
X9479586Y-17751484D01*
X9479586Y-17751484D02*
X9498634Y-17761008D01*
X9498634Y-17761008D02*
X9508158Y-17770531D01*
X9508158Y-17770531D02*
X9517682Y-17789579D01*
X9517682Y-17789579D02*
X9527205Y-17827674D01*
X9527205Y-17827674D02*
X9527205Y-17875293D01*
X9527205Y-17875293D02*
X9517682Y-17913389D01*
X9517682Y-17913389D02*
X9508158Y-17932436D01*
X9508158Y-17932436D02*
X9498634Y-17941960D01*
X9498634Y-17941960D02*
X9479586Y-17951484D01*
X9479586Y-17951484D02*
X9460539Y-17951484D01*
X9460539Y-17951484D02*
X9441491Y-17941960D01*
X9441491Y-17941960D02*
X9431967Y-17932436D01*
X9431967Y-17932436D02*
X9422444Y-17913389D01*
X9422444Y-17913389D02*
X9412920Y-17875293D01*
X9412920Y-17875293D02*
X9412920Y-17827674D01*
X9412920Y-17827674D02*
X9422444Y-17789579D01*
X9422444Y-17789579D02*
X9431967Y-17770531D01*
X9431967Y-17770531D02*
X9441491Y-17761008D01*
X9441491Y-17761008D02*
X9460539Y-17751484D01*
X9612920Y-17951484D02*
X9612920Y-17818150D01*
X9612920Y-17837198D02*
X9622444Y-17827674D01*
X9622444Y-17827674D02*
X9641491Y-17818150D01*
X9641491Y-17818150D02*
X9670063Y-17818150D01*
X9670063Y-17818150D02*
X9689110Y-17827674D01*
X9689110Y-17827674D02*
X9698634Y-17846722D01*
X9698634Y-17846722D02*
X9698634Y-17951484D01*
X9698634Y-17846722D02*
X9708158Y-17827674D01*
X9708158Y-17827674D02*
X9727205Y-17818150D01*
X9727205Y-17818150D02*
X9755777Y-17818150D01*
X9755777Y-17818150D02*
X9774825Y-17827674D01*
X9774825Y-17827674D02*
X9784348Y-17846722D01*
X9784348Y-17846722D02*
X9784348Y-17951484D01*
X9879586Y-17951484D02*
X9879586Y-17818150D01*
X9879586Y-17837198D02*
X9889110Y-17827674D01*
X9889110Y-17827674D02*
X9908158Y-17818150D01*
X9908158Y-17818150D02*
X9936729Y-17818150D01*
X9936729Y-17818150D02*
X9955777Y-17827674D01*
X9955777Y-17827674D02*
X9965301Y-17846722D01*
X9965301Y-17846722D02*
X9965301Y-17951484D01*
X9965301Y-17846722D02*
X9974825Y-17827674D01*
X9974825Y-17827674D02*
X9993872Y-17818150D01*
X9993872Y-17818150D02*
X10022444Y-17818150D01*
X10022444Y-17818150D02*
X10041491Y-17827674D01*
X10041491Y-17827674D02*
X10051015Y-17846722D01*
X10051015Y-17846722D02*
X10051015Y-17951484D01*
X10441491Y-17741960D02*
X10270063Y-17999103D01*
X10698634Y-17751484D02*
X10717682Y-17751484D01*
X10717682Y-17751484D02*
X10736729Y-17761008D01*
X10736729Y-17761008D02*
X10746253Y-17770531D01*
X10746253Y-17770531D02*
X10755777Y-17789579D01*
X10755777Y-17789579D02*
X10765301Y-17827674D01*
X10765301Y-17827674D02*
X10765301Y-17875293D01*
X10765301Y-17875293D02*
X10755777Y-17913389D01*
X10755777Y-17913389D02*
X10746253Y-17932436D01*
X10746253Y-17932436D02*
X10736729Y-17941960D01*
X10736729Y-17941960D02*
X10717682Y-17951484D01*
X10717682Y-17951484D02*
X10698634Y-17951484D01*
X10698634Y-17951484D02*
X10679587Y-17941960D01*
X10679587Y-17941960D02*
X10670063Y-17932436D01*
X10670063Y-17932436D02*
X10660539Y-17913389D01*
X10660539Y-17913389D02*
X10651015Y-17875293D01*
X10651015Y-17875293D02*
X10651015Y-17827674D01*
X10651015Y-17827674D02*
X10660539Y-17789579D01*
X10660539Y-17789579D02*
X10670063Y-17770531D01*
X10670063Y-17770531D02*
X10679587Y-17761008D01*
X10679587Y-17761008D02*
X10698634Y-17751484D01*
X10851015Y-17932436D02*
X10860539Y-17941960D01*
X10860539Y-17941960D02*
X10851015Y-17951484D01*
X10851015Y-17951484D02*
X10841491Y-17941960D01*
X10841491Y-17941960D02*
X10851015Y-17932436D01*
X10851015Y-17932436D02*
X10851015Y-17951484D01*
X10984348Y-17751484D02*
X11003396Y-17751484D01*
X11003396Y-17751484D02*
X11022444Y-17761008D01*
X11022444Y-17761008D02*
X11031968Y-17770531D01*
X11031968Y-17770531D02*
X11041491Y-17789579D01*
X11041491Y-17789579D02*
X11051015Y-17827674D01*
X11051015Y-17827674D02*
X11051015Y-17875293D01*
X11051015Y-17875293D02*
X11041491Y-17913389D01*
X11041491Y-17913389D02*
X11031968Y-17932436D01*
X11031968Y-17932436D02*
X11022444Y-17941960D01*
X11022444Y-17941960D02*
X11003396Y-17951484D01*
X11003396Y-17951484D02*
X10984348Y-17951484D01*
X10984348Y-17951484D02*
X10965301Y-17941960D01*
X10965301Y-17941960D02*
X10955777Y-17932436D01*
X10955777Y-17932436D02*
X10946253Y-17913389D01*
X10946253Y-17913389D02*
X10936729Y-17875293D01*
X10936729Y-17875293D02*
X10936729Y-17827674D01*
X10936729Y-17827674D02*
X10946253Y-17789579D01*
X10946253Y-17789579D02*
X10955777Y-17770531D01*
X10955777Y-17770531D02*
X10965301Y-17761008D01*
X10965301Y-17761008D02*
X10984348Y-17751484D01*
X11117682Y-17751484D02*
X11251015Y-17751484D01*
X11251015Y-17751484D02*
X11165301Y-17951484D01*
X11336729Y-17951484D02*
X11374825Y-17951484D01*
X11374825Y-17951484D02*
X11393872Y-17941960D01*
X11393872Y-17941960D02*
X11403396Y-17932436D01*
X11403396Y-17932436D02*
X11422444Y-17903865D01*
X11422444Y-17903865D02*
X11431967Y-17865770D01*
X11431967Y-17865770D02*
X11431967Y-17789579D01*
X11431967Y-17789579D02*
X11422444Y-17770531D01*
X11422444Y-17770531D02*
X11412920Y-17761008D01*
X11412920Y-17761008D02*
X11393872Y-17751484D01*
X11393872Y-17751484D02*
X11355777Y-17751484D01*
X11355777Y-17751484D02*
X11336729Y-17761008D01*
X11336729Y-17761008D02*
X11327206Y-17770531D01*
X11327206Y-17770531D02*
X11317682Y-17789579D01*
X11317682Y-17789579D02*
X11317682Y-17837198D01*
X11317682Y-17837198D02*
X11327206Y-17856246D01*
X11327206Y-17856246D02*
X11336729Y-17865770D01*
X11336729Y-17865770D02*
X11355777Y-17875293D01*
X11355777Y-17875293D02*
X11393872Y-17875293D01*
X11393872Y-17875293D02*
X11412920Y-17865770D01*
X11412920Y-17865770D02*
X11422444Y-17856246D01*
X11422444Y-17856246D02*
X11431967Y-17837198D01*
X11622444Y-17951484D02*
X11508158Y-17951484D01*
X11565301Y-17951484D02*
X11565301Y-17751484D01*
X11565301Y-17751484D02*
X11546253Y-17780055D01*
X11546253Y-17780055D02*
X11527206Y-17799103D01*
X11527206Y-17799103D02*
X11508158Y-17808627D01*
X11698634Y-17751484D02*
X11698634Y-17789579D01*
X11774825Y-17751484D02*
X11774825Y-17789579D01*
X12070063Y-18027674D02*
X12060539Y-18018150D01*
X12060539Y-18018150D02*
X12041491Y-17989579D01*
X12041491Y-17989579D02*
X12031968Y-17970531D01*
X12031968Y-17970531D02*
X12022444Y-17941960D01*
X12022444Y-17941960D02*
X12012920Y-17894341D01*
X12012920Y-17894341D02*
X12012920Y-17856246D01*
X12012920Y-17856246D02*
X12022444Y-17808627D01*
X12022444Y-17808627D02*
X12031968Y-17780055D01*
X12031968Y-17780055D02*
X12041491Y-17761008D01*
X12041491Y-17761008D02*
X12060539Y-17732436D01*
X12060539Y-17732436D02*
X12070063Y-17722912D01*
X12231968Y-17818150D02*
X12231968Y-17951484D01*
X12184348Y-17741960D02*
X12136729Y-17884817D01*
X12136729Y-17884817D02*
X12260539Y-17884817D01*
X12489110Y-17951484D02*
X12489110Y-17751484D01*
X12574825Y-17951484D02*
X12574825Y-17846722D01*
X12574825Y-17846722D02*
X12565301Y-17827674D01*
X12565301Y-17827674D02*
X12546253Y-17818150D01*
X12546253Y-17818150D02*
X12517682Y-17818150D01*
X12517682Y-17818150D02*
X12498634Y-17827674D01*
X12498634Y-17827674D02*
X12489110Y-17837198D01*
X12698634Y-17951484D02*
X12679587Y-17941960D01*
X12679587Y-17941960D02*
X12670063Y-17932436D01*
X12670063Y-17932436D02*
X12660539Y-17913389D01*
X12660539Y-17913389D02*
X12660539Y-17856246D01*
X12660539Y-17856246D02*
X12670063Y-17837198D01*
X12670063Y-17837198D02*
X12679587Y-17827674D01*
X12679587Y-17827674D02*
X12698634Y-17818150D01*
X12698634Y-17818150D02*
X12727206Y-17818150D01*
X12727206Y-17818150D02*
X12746253Y-17827674D01*
X12746253Y-17827674D02*
X12755777Y-17837198D01*
X12755777Y-17837198D02*
X12765301Y-17856246D01*
X12765301Y-17856246D02*
X12765301Y-17913389D01*
X12765301Y-17913389D02*
X12755777Y-17932436D01*
X12755777Y-17932436D02*
X12746253Y-17941960D01*
X12746253Y-17941960D02*
X12727206Y-17951484D01*
X12727206Y-17951484D02*
X12698634Y-17951484D01*
X12879587Y-17951484D02*
X12860539Y-17941960D01*
X12860539Y-17941960D02*
X12851015Y-17922912D01*
X12851015Y-17922912D02*
X12851015Y-17751484D01*
X13031968Y-17941960D02*
X13012920Y-17951484D01*
X13012920Y-17951484D02*
X12974825Y-17951484D01*
X12974825Y-17951484D02*
X12955777Y-17941960D01*
X12955777Y-17941960D02*
X12946253Y-17922912D01*
X12946253Y-17922912D02*
X12946253Y-17846722D01*
X12946253Y-17846722D02*
X12955777Y-17827674D01*
X12955777Y-17827674D02*
X12974825Y-17818150D01*
X12974825Y-17818150D02*
X13012920Y-17818150D01*
X13012920Y-17818150D02*
X13031968Y-17827674D01*
X13031968Y-17827674D02*
X13041491Y-17846722D01*
X13041491Y-17846722D02*
X13041491Y-17865770D01*
X13041491Y-17865770D02*
X12946253Y-17884817D01*
X13117682Y-17941960D02*
X13136730Y-17951484D01*
X13136730Y-17951484D02*
X13174825Y-17951484D01*
X13174825Y-17951484D02*
X13193872Y-17941960D01*
X13193872Y-17941960D02*
X13203396Y-17922912D01*
X13203396Y-17922912D02*
X13203396Y-17913389D01*
X13203396Y-17913389D02*
X13193872Y-17894341D01*
X13193872Y-17894341D02*
X13174825Y-17884817D01*
X13174825Y-17884817D02*
X13146253Y-17884817D01*
X13146253Y-17884817D02*
X13127206Y-17875293D01*
X13127206Y-17875293D02*
X13117682Y-17856246D01*
X13117682Y-17856246D02*
X13117682Y-17846722D01*
X13117682Y-17846722D02*
X13127206Y-17827674D01*
X13127206Y-17827674D02*
X13146253Y-17818150D01*
X13146253Y-17818150D02*
X13174825Y-17818150D01*
X13174825Y-17818150D02*
X13193872Y-17827674D01*
X13270063Y-18027674D02*
X13279587Y-18018150D01*
X13279587Y-18018150D02*
X13298634Y-17989579D01*
X13298634Y-17989579D02*
X13308158Y-17970531D01*
X13308158Y-17970531D02*
X13317682Y-17941960D01*
X13317682Y-17941960D02*
X13327206Y-17894341D01*
X13327206Y-17894341D02*
X13327206Y-17856246D01*
X13327206Y-17856246D02*
X13317682Y-17808627D01*
X13317682Y-17808627D02*
X13308158Y-17780055D01*
X13308158Y-17780055D02*
X13298634Y-17761008D01*
X13298634Y-17761008D02*
X13279587Y-17732436D01*
X13279587Y-17732436D02*
X13270063Y-17722912D01*
M02*
