G04 #@! TF.GenerationSoftware,KiCad,Pcbnew,8.0.7*
G04 #@! TF.CreationDate,2025-01-13T15:19:08-08:00*
G04 #@! TF.ProjectId,psu_linear_reg,7073755f-6c69-46e6-9561-725f7265672e,rev?*
G04 #@! TF.SameCoordinates,Original*
G04 #@! TF.FileFunction,Legend,Top*
G04 #@! TF.FilePolarity,Positive*
%FSLAX46Y46*%
G04 Gerber Fmt 4.6, Leading zero omitted, Abs format (unit mm)*
G04 Created by KiCad (PCBNEW 8.0.7) date 2025-01-13 15:19:08*
%MOMM*%
%LPD*%
G01*
G04 APERTURE LIST*
G04 Aperture macros list*
%AMRoundRect*
0 Rectangle with rounded corners*
0 $1 Rounding radius*
0 $2 $3 $4 $5 $6 $7 $8 $9 X,Y pos of 4 corners*
0 Add a 4 corners polygon primitive as box body*
4,1,4,$2,$3,$4,$5,$6,$7,$8,$9,$2,$3,0*
0 Add four circle primitives for the rounded corners*
1,1,$1+$1,$2,$3*
1,1,$1+$1,$4,$5*
1,1,$1+$1,$6,$7*
1,1,$1+$1,$8,$9*
0 Add four rect primitives between the rounded corners*
20,1,$1+$1,$2,$3,$4,$5,0*
20,1,$1+$1,$4,$5,$6,$7,0*
20,1,$1+$1,$6,$7,$8,$9,0*
20,1,$1+$1,$8,$9,$2,$3,0*%
G04 Aperture macros list end*
%ADD10C,0.150000*%
%ADD11C,0.120000*%
%ADD12O,1.600000X2.500000*%
%ADD13O,3.500000X7.000000*%
%ADD14RoundRect,0.250000X0.265000X0.615000X-0.265000X0.615000X-0.265000X-0.615000X0.265000X-0.615000X0*%
%ADD15O,1.030000X1.730000*%
%ADD16O,2.000000X1.905000*%
%ADD17R,2.000000X1.905000*%
%ADD18RoundRect,0.250000X0.337500X0.475000X-0.337500X0.475000X-0.337500X-0.475000X0.337500X-0.475000X0*%
%ADD19RoundRect,0.200000X0.200000X0.275000X-0.200000X0.275000X-0.200000X-0.275000X0.200000X-0.275000X0*%
%ADD20RoundRect,0.250002X-1.699998X-1.699998X1.699998X-1.699998X1.699998X1.699998X-1.699998X1.699998X0*%
%ADD21C,3.900000*%
%ADD22RoundRect,0.200000X-0.200000X-0.275000X0.200000X-0.275000X0.200000X0.275000X-0.200000X0.275000X0*%
%ADD23R,1.600000X1.600000*%
%ADD24C,1.600000*%
%ADD25RoundRect,0.162500X0.162500X-0.825000X0.162500X0.825000X-0.162500X0.825000X-0.162500X-0.825000X0*%
%ADD26RoundRect,0.150000X0.825000X0.150000X-0.825000X0.150000X-0.825000X-0.150000X0.825000X-0.150000X0*%
G04 APERTURE END LIST*
D10*
X154626133Y-151836779D02*
X154626133Y-152598684D01*
X154245180Y-152217731D02*
X155007085Y-152217731D01*
X155245180Y-153551064D02*
X155245180Y-153074874D01*
X155245180Y-153074874D02*
X154768990Y-153027255D01*
X154768990Y-153027255D02*
X154816609Y-153074874D01*
X154816609Y-153074874D02*
X154864228Y-153170112D01*
X154864228Y-153170112D02*
X154864228Y-153408207D01*
X154864228Y-153408207D02*
X154816609Y-153503445D01*
X154816609Y-153503445D02*
X154768990Y-153551064D01*
X154768990Y-153551064D02*
X154673752Y-153598683D01*
X154673752Y-153598683D02*
X154435657Y-153598683D01*
X154435657Y-153598683D02*
X154340419Y-153551064D01*
X154340419Y-153551064D02*
X154292800Y-153503445D01*
X154292800Y-153503445D02*
X154245180Y-153408207D01*
X154245180Y-153408207D02*
X154245180Y-153170112D01*
X154245180Y-153170112D02*
X154292800Y-153074874D01*
X154292800Y-153074874D02*
X154340419Y-153027255D01*
X155245180Y-153884398D02*
X154245180Y-154217731D01*
X154245180Y-154217731D02*
X155245180Y-154551064D01*
X162997561Y-152360588D02*
X163045180Y-152265350D01*
X163045180Y-152265350D02*
X163045180Y-152122493D01*
X163045180Y-152122493D02*
X162997561Y-151979636D01*
X162997561Y-151979636D02*
X162902323Y-151884398D01*
X162902323Y-151884398D02*
X162807085Y-151836779D01*
X162807085Y-151836779D02*
X162616609Y-151789160D01*
X162616609Y-151789160D02*
X162473752Y-151789160D01*
X162473752Y-151789160D02*
X162283276Y-151836779D01*
X162283276Y-151836779D02*
X162188038Y-151884398D01*
X162188038Y-151884398D02*
X162092800Y-151979636D01*
X162092800Y-151979636D02*
X162045180Y-152122493D01*
X162045180Y-152122493D02*
X162045180Y-152217731D01*
X162045180Y-152217731D02*
X162092800Y-152360588D01*
X162092800Y-152360588D02*
X162140419Y-152408207D01*
X162140419Y-152408207D02*
X162473752Y-152408207D01*
X162473752Y-152408207D02*
X162473752Y-152217731D01*
X162045180Y-152836779D02*
X163045180Y-152836779D01*
X163045180Y-152836779D02*
X162045180Y-153408207D01*
X162045180Y-153408207D02*
X163045180Y-153408207D01*
X162045180Y-153884398D02*
X163045180Y-153884398D01*
X163045180Y-153884398D02*
X163045180Y-154122493D01*
X163045180Y-154122493D02*
X162997561Y-154265350D01*
X162997561Y-154265350D02*
X162902323Y-154360588D01*
X162902323Y-154360588D02*
X162807085Y-154408207D01*
X162807085Y-154408207D02*
X162616609Y-154455826D01*
X162616609Y-154455826D02*
X162473752Y-154455826D01*
X162473752Y-154455826D02*
X162283276Y-154408207D01*
X162283276Y-154408207D02*
X162188038Y-154360588D01*
X162188038Y-154360588D02*
X162092800Y-154265350D01*
X162092800Y-154265350D02*
X162045180Y-154122493D01*
X162045180Y-154122493D02*
X162045180Y-153884398D01*
X178126133Y-151836779D02*
X178126133Y-152598684D01*
X177745180Y-153598683D02*
X177745180Y-153027255D01*
X177745180Y-153312969D02*
X178745180Y-153312969D01*
X178745180Y-153312969D02*
X178602323Y-153217731D01*
X178602323Y-153217731D02*
X178507085Y-153122493D01*
X178507085Y-153122493D02*
X178459466Y-153027255D01*
X178649942Y-153979636D02*
X178697561Y-154027255D01*
X178697561Y-154027255D02*
X178745180Y-154122493D01*
X178745180Y-154122493D02*
X178745180Y-154360588D01*
X178745180Y-154360588D02*
X178697561Y-154455826D01*
X178697561Y-154455826D02*
X178649942Y-154503445D01*
X178649942Y-154503445D02*
X178554704Y-154551064D01*
X178554704Y-154551064D02*
X178459466Y-154551064D01*
X178459466Y-154551064D02*
X178316609Y-154503445D01*
X178316609Y-154503445D02*
X177745180Y-153932017D01*
X177745180Y-153932017D02*
X177745180Y-154551064D01*
X178745180Y-154836779D02*
X177745180Y-155170112D01*
X177745180Y-155170112D02*
X178745180Y-155503445D01*
X146876133Y-151836779D02*
X146876133Y-152598684D01*
X146495180Y-152217731D02*
X147257085Y-152217731D01*
X146495180Y-153598683D02*
X146495180Y-153027255D01*
X146495180Y-153312969D02*
X147495180Y-153312969D01*
X147495180Y-153312969D02*
X147352323Y-153217731D01*
X147352323Y-153217731D02*
X147257085Y-153122493D01*
X147257085Y-153122493D02*
X147209466Y-153027255D01*
X147399942Y-153979636D02*
X147447561Y-154027255D01*
X147447561Y-154027255D02*
X147495180Y-154122493D01*
X147495180Y-154122493D02*
X147495180Y-154360588D01*
X147495180Y-154360588D02*
X147447561Y-154455826D01*
X147447561Y-154455826D02*
X147399942Y-154503445D01*
X147399942Y-154503445D02*
X147304704Y-154551064D01*
X147304704Y-154551064D02*
X147209466Y-154551064D01*
X147209466Y-154551064D02*
X147066609Y-154503445D01*
X147066609Y-154503445D02*
X146495180Y-153932017D01*
X146495180Y-153932017D02*
X146495180Y-154551064D01*
X147495180Y-154836779D02*
X146495180Y-155170112D01*
X146495180Y-155170112D02*
X147495180Y-155503445D01*
X92380951Y-119054819D02*
X92380951Y-119769104D01*
X92380951Y-119769104D02*
X92333332Y-119911961D01*
X92333332Y-119911961D02*
X92238094Y-120007200D01*
X92238094Y-120007200D02*
X92095237Y-120054819D01*
X92095237Y-120054819D02*
X91999999Y-120054819D01*
X93333332Y-120054819D02*
X92857142Y-120054819D01*
X92857142Y-120054819D02*
X92857142Y-119054819D01*
X94238094Y-119959580D02*
X94190475Y-120007200D01*
X94190475Y-120007200D02*
X94047618Y-120054819D01*
X94047618Y-120054819D02*
X93952380Y-120054819D01*
X93952380Y-120054819D02*
X93809523Y-120007200D01*
X93809523Y-120007200D02*
X93714285Y-119911961D01*
X93714285Y-119911961D02*
X93666666Y-119816723D01*
X93666666Y-119816723D02*
X93619047Y-119626247D01*
X93619047Y-119626247D02*
X93619047Y-119483390D01*
X93619047Y-119483390D02*
X93666666Y-119292914D01*
X93666666Y-119292914D02*
X93714285Y-119197676D01*
X93714285Y-119197676D02*
X93809523Y-119102438D01*
X93809523Y-119102438D02*
X93952380Y-119054819D01*
X93952380Y-119054819D02*
X94047618Y-119054819D01*
X94047618Y-119054819D02*
X94190475Y-119102438D01*
X94190475Y-119102438D02*
X94238094Y-119150057D01*
X94952380Y-119054819D02*
X94952380Y-119769104D01*
X94952380Y-119769104D02*
X94904761Y-119911961D01*
X94904761Y-119911961D02*
X94809523Y-120007200D01*
X94809523Y-120007200D02*
X94666666Y-120054819D01*
X94666666Y-120054819D02*
X94571428Y-120054819D01*
X95904761Y-120054819D02*
X95428571Y-120054819D01*
X95428571Y-120054819D02*
X95428571Y-119054819D01*
X96809523Y-119959580D02*
X96761904Y-120007200D01*
X96761904Y-120007200D02*
X96619047Y-120054819D01*
X96619047Y-120054819D02*
X96523809Y-120054819D01*
X96523809Y-120054819D02*
X96380952Y-120007200D01*
X96380952Y-120007200D02*
X96285714Y-119911961D01*
X96285714Y-119911961D02*
X96238095Y-119816723D01*
X96238095Y-119816723D02*
X96190476Y-119626247D01*
X96190476Y-119626247D02*
X96190476Y-119483390D01*
X96190476Y-119483390D02*
X96238095Y-119292914D01*
X96238095Y-119292914D02*
X96285714Y-119197676D01*
X96285714Y-119197676D02*
X96380952Y-119102438D01*
X96380952Y-119102438D02*
X96523809Y-119054819D01*
X96523809Y-119054819D02*
X96619047Y-119054819D01*
X96619047Y-119054819D02*
X96761904Y-119102438D01*
X96761904Y-119102438D02*
X96809523Y-119150057D01*
X97523809Y-119054819D02*
X97523809Y-119769104D01*
X97523809Y-119769104D02*
X97476190Y-119911961D01*
X97476190Y-119911961D02*
X97380952Y-120007200D01*
X97380952Y-120007200D02*
X97238095Y-120054819D01*
X97238095Y-120054819D02*
X97142857Y-120054819D01*
X98476190Y-120054819D02*
X98000000Y-120054819D01*
X98000000Y-120054819D02*
X98000000Y-119054819D01*
X99380952Y-119959580D02*
X99333333Y-120007200D01*
X99333333Y-120007200D02*
X99190476Y-120054819D01*
X99190476Y-120054819D02*
X99095238Y-120054819D01*
X99095238Y-120054819D02*
X98952381Y-120007200D01*
X98952381Y-120007200D02*
X98857143Y-119911961D01*
X98857143Y-119911961D02*
X98809524Y-119816723D01*
X98809524Y-119816723D02*
X98761905Y-119626247D01*
X98761905Y-119626247D02*
X98761905Y-119483390D01*
X98761905Y-119483390D02*
X98809524Y-119292914D01*
X98809524Y-119292914D02*
X98857143Y-119197676D01*
X98857143Y-119197676D02*
X98952381Y-119102438D01*
X98952381Y-119102438D02*
X99095238Y-119054819D01*
X99095238Y-119054819D02*
X99190476Y-119054819D01*
X99190476Y-119054819D02*
X99333333Y-119102438D01*
X99333333Y-119102438D02*
X99380952Y-119150057D01*
X100095238Y-119054819D02*
X100095238Y-119769104D01*
X100095238Y-119769104D02*
X100047619Y-119911961D01*
X100047619Y-119911961D02*
X99952381Y-120007200D01*
X99952381Y-120007200D02*
X99809524Y-120054819D01*
X99809524Y-120054819D02*
X99714286Y-120054819D01*
X101047619Y-120054819D02*
X100571429Y-120054819D01*
X100571429Y-120054819D02*
X100571429Y-119054819D01*
X101952381Y-119959580D02*
X101904762Y-120007200D01*
X101904762Y-120007200D02*
X101761905Y-120054819D01*
X101761905Y-120054819D02*
X101666667Y-120054819D01*
X101666667Y-120054819D02*
X101523810Y-120007200D01*
X101523810Y-120007200D02*
X101428572Y-119911961D01*
X101428572Y-119911961D02*
X101380953Y-119816723D01*
X101380953Y-119816723D02*
X101333334Y-119626247D01*
X101333334Y-119626247D02*
X101333334Y-119483390D01*
X101333334Y-119483390D02*
X101380953Y-119292914D01*
X101380953Y-119292914D02*
X101428572Y-119197676D01*
X101428572Y-119197676D02*
X101523810Y-119102438D01*
X101523810Y-119102438D02*
X101666667Y-119054819D01*
X101666667Y-119054819D02*
X101761905Y-119054819D01*
X101761905Y-119054819D02*
X101904762Y-119102438D01*
X101904762Y-119102438D02*
X101952381Y-119150057D01*
X139545180Y-151693922D02*
X138545180Y-152027255D01*
X138545180Y-152027255D02*
X139545180Y-152360588D01*
X138853752Y-152646303D02*
X138853752Y-152912969D01*
X138434704Y-153027255D02*
X138434704Y-152646303D01*
X138434704Y-152646303D02*
X139234704Y-152646303D01*
X139234704Y-152646303D02*
X139234704Y-153027255D01*
X138853752Y-153370113D02*
X138853752Y-153636779D01*
X138434704Y-153751065D02*
X138434704Y-153370113D01*
X138434704Y-153370113D02*
X139234704Y-153370113D01*
X139234704Y-153370113D02*
X139234704Y-153751065D01*
X170376133Y-151836779D02*
X170376133Y-152598684D01*
X170995180Y-153551064D02*
X170995180Y-153074874D01*
X170995180Y-153074874D02*
X170518990Y-153027255D01*
X170518990Y-153027255D02*
X170566609Y-153074874D01*
X170566609Y-153074874D02*
X170614228Y-153170112D01*
X170614228Y-153170112D02*
X170614228Y-153408207D01*
X170614228Y-153408207D02*
X170566609Y-153503445D01*
X170566609Y-153503445D02*
X170518990Y-153551064D01*
X170518990Y-153551064D02*
X170423752Y-153598683D01*
X170423752Y-153598683D02*
X170185657Y-153598683D01*
X170185657Y-153598683D02*
X170090419Y-153551064D01*
X170090419Y-153551064D02*
X170042800Y-153503445D01*
X170042800Y-153503445D02*
X169995180Y-153408207D01*
X169995180Y-153408207D02*
X169995180Y-153170112D01*
X169995180Y-153170112D02*
X170042800Y-153074874D01*
X170042800Y-153074874D02*
X170090419Y-153027255D01*
X170995180Y-153884398D02*
X169995180Y-154217731D01*
X169995180Y-154217731D02*
X170995180Y-154551064D01*
X131795180Y-151693922D02*
X130795180Y-152027255D01*
X130795180Y-152027255D02*
X131795180Y-152360588D01*
X130760895Y-153103446D02*
X130722800Y-153065350D01*
X130722800Y-153065350D02*
X130684704Y-152951065D01*
X130684704Y-152951065D02*
X130684704Y-152874874D01*
X130684704Y-152874874D02*
X130722800Y-152760588D01*
X130722800Y-152760588D02*
X130798990Y-152684398D01*
X130798990Y-152684398D02*
X130875180Y-152646303D01*
X130875180Y-152646303D02*
X131027561Y-152608207D01*
X131027561Y-152608207D02*
X131141847Y-152608207D01*
X131141847Y-152608207D02*
X131294228Y-152646303D01*
X131294228Y-152646303D02*
X131370419Y-152684398D01*
X131370419Y-152684398D02*
X131446609Y-152760588D01*
X131446609Y-152760588D02*
X131484704Y-152874874D01*
X131484704Y-152874874D02*
X131484704Y-152951065D01*
X131484704Y-152951065D02*
X131446609Y-153065350D01*
X131446609Y-153065350D02*
X131408514Y-153103446D01*
X130760895Y-153903446D02*
X130722800Y-153865350D01*
X130722800Y-153865350D02*
X130684704Y-153751065D01*
X130684704Y-153751065D02*
X130684704Y-153674874D01*
X130684704Y-153674874D02*
X130722800Y-153560588D01*
X130722800Y-153560588D02*
X130798990Y-153484398D01*
X130798990Y-153484398D02*
X130875180Y-153446303D01*
X130875180Y-153446303D02*
X131027561Y-153408207D01*
X131027561Y-153408207D02*
X131141847Y-153408207D01*
X131141847Y-153408207D02*
X131294228Y-153446303D01*
X131294228Y-153446303D02*
X131370419Y-153484398D01*
X131370419Y-153484398D02*
X131446609Y-153560588D01*
X131446609Y-153560588D02*
X131484704Y-153674874D01*
X131484704Y-153674874D02*
X131484704Y-153751065D01*
X131484704Y-153751065D02*
X131446609Y-153865350D01*
X131446609Y-153865350D02*
X131408514Y-153903446D01*
X96666666Y-138954819D02*
X96666666Y-139669104D01*
X96666666Y-139669104D02*
X96619047Y-139811961D01*
X96619047Y-139811961D02*
X96523809Y-139907200D01*
X96523809Y-139907200D02*
X96380952Y-139954819D01*
X96380952Y-139954819D02*
X96285714Y-139954819D01*
X97095238Y-139050057D02*
X97142857Y-139002438D01*
X97142857Y-139002438D02*
X97238095Y-138954819D01*
X97238095Y-138954819D02*
X97476190Y-138954819D01*
X97476190Y-138954819D02*
X97571428Y-139002438D01*
X97571428Y-139002438D02*
X97619047Y-139050057D01*
X97619047Y-139050057D02*
X97666666Y-139145295D01*
X97666666Y-139145295D02*
X97666666Y-139240533D01*
X97666666Y-139240533D02*
X97619047Y-139383390D01*
X97619047Y-139383390D02*
X97047619Y-139954819D01*
X97047619Y-139954819D02*
X97666666Y-139954819D01*
X143616666Y-121554819D02*
X143616666Y-122269104D01*
X143616666Y-122269104D02*
X143569047Y-122411961D01*
X143569047Y-122411961D02*
X143473809Y-122507200D01*
X143473809Y-122507200D02*
X143330952Y-122554819D01*
X143330952Y-122554819D02*
X143235714Y-122554819D01*
X144569047Y-121554819D02*
X144092857Y-121554819D01*
X144092857Y-121554819D02*
X144045238Y-122031009D01*
X144045238Y-122031009D02*
X144092857Y-121983390D01*
X144092857Y-121983390D02*
X144188095Y-121935771D01*
X144188095Y-121935771D02*
X144426190Y-121935771D01*
X144426190Y-121935771D02*
X144521428Y-121983390D01*
X144521428Y-121983390D02*
X144569047Y-122031009D01*
X144569047Y-122031009D02*
X144616666Y-122126247D01*
X144616666Y-122126247D02*
X144616666Y-122364342D01*
X144616666Y-122364342D02*
X144569047Y-122459580D01*
X144569047Y-122459580D02*
X144521428Y-122507200D01*
X144521428Y-122507200D02*
X144426190Y-122554819D01*
X144426190Y-122554819D02*
X144188095Y-122554819D01*
X144188095Y-122554819D02*
X144092857Y-122507200D01*
X144092857Y-122507200D02*
X144045238Y-122459580D01*
X116666666Y-138954819D02*
X116666666Y-139669104D01*
X116666666Y-139669104D02*
X116619047Y-139811961D01*
X116619047Y-139811961D02*
X116523809Y-139907200D01*
X116523809Y-139907200D02*
X116380952Y-139954819D01*
X116380952Y-139954819D02*
X116285714Y-139954819D01*
X117666666Y-139954819D02*
X117095238Y-139954819D01*
X117380952Y-139954819D02*
X117380952Y-138954819D01*
X117380952Y-138954819D02*
X117285714Y-139097676D01*
X117285714Y-139097676D02*
X117190476Y-139192914D01*
X117190476Y-139192914D02*
X117095238Y-139240533D01*
X145724819Y-133551904D02*
X146534342Y-133551904D01*
X146534342Y-133551904D02*
X146629580Y-133504285D01*
X146629580Y-133504285D02*
X146677200Y-133456666D01*
X146677200Y-133456666D02*
X146724819Y-133361428D01*
X146724819Y-133361428D02*
X146724819Y-133170952D01*
X146724819Y-133170952D02*
X146677200Y-133075714D01*
X146677200Y-133075714D02*
X146629580Y-133028095D01*
X146629580Y-133028095D02*
X146534342Y-132980476D01*
X146534342Y-132980476D02*
X145724819Y-132980476D01*
X145724819Y-132599523D02*
X145724819Y-131980476D01*
X145724819Y-131980476D02*
X146105771Y-132313809D01*
X146105771Y-132313809D02*
X146105771Y-132170952D01*
X146105771Y-132170952D02*
X146153390Y-132075714D01*
X146153390Y-132075714D02*
X146201009Y-132028095D01*
X146201009Y-132028095D02*
X146296247Y-131980476D01*
X146296247Y-131980476D02*
X146534342Y-131980476D01*
X146534342Y-131980476D02*
X146629580Y-132028095D01*
X146629580Y-132028095D02*
X146677200Y-132075714D01*
X146677200Y-132075714D02*
X146724819Y-132170952D01*
X146724819Y-132170952D02*
X146724819Y-132456666D01*
X146724819Y-132456666D02*
X146677200Y-132551904D01*
X146677200Y-132551904D02*
X146629580Y-132599523D01*
X137857142Y-135859580D02*
X137809523Y-135907200D01*
X137809523Y-135907200D02*
X137666666Y-135954819D01*
X137666666Y-135954819D02*
X137571428Y-135954819D01*
X137571428Y-135954819D02*
X137428571Y-135907200D01*
X137428571Y-135907200D02*
X137333333Y-135811961D01*
X137333333Y-135811961D02*
X137285714Y-135716723D01*
X137285714Y-135716723D02*
X137238095Y-135526247D01*
X137238095Y-135526247D02*
X137238095Y-135383390D01*
X137238095Y-135383390D02*
X137285714Y-135192914D01*
X137285714Y-135192914D02*
X137333333Y-135097676D01*
X137333333Y-135097676D02*
X137428571Y-135002438D01*
X137428571Y-135002438D02*
X137571428Y-134954819D01*
X137571428Y-134954819D02*
X137666666Y-134954819D01*
X137666666Y-134954819D02*
X137809523Y-135002438D01*
X137809523Y-135002438D02*
X137857142Y-135050057D01*
X138809523Y-135954819D02*
X138238095Y-135954819D01*
X138523809Y-135954819D02*
X138523809Y-134954819D01*
X138523809Y-134954819D02*
X138428571Y-135097676D01*
X138428571Y-135097676D02*
X138333333Y-135192914D01*
X138333333Y-135192914D02*
X138238095Y-135240533D01*
X139761904Y-135954819D02*
X139190476Y-135954819D01*
X139476190Y-135954819D02*
X139476190Y-134954819D01*
X139476190Y-134954819D02*
X139380952Y-135097676D01*
X139380952Y-135097676D02*
X139285714Y-135192914D01*
X139285714Y-135192914D02*
X139190476Y-135240533D01*
X165213833Y-129053580D02*
X165166214Y-129101200D01*
X165166214Y-129101200D02*
X165023357Y-129148819D01*
X165023357Y-129148819D02*
X164928119Y-129148819D01*
X164928119Y-129148819D02*
X164785262Y-129101200D01*
X164785262Y-129101200D02*
X164690024Y-129005961D01*
X164690024Y-129005961D02*
X164642405Y-128910723D01*
X164642405Y-128910723D02*
X164594786Y-128720247D01*
X164594786Y-128720247D02*
X164594786Y-128577390D01*
X164594786Y-128577390D02*
X164642405Y-128386914D01*
X164642405Y-128386914D02*
X164690024Y-128291676D01*
X164690024Y-128291676D02*
X164785262Y-128196438D01*
X164785262Y-128196438D02*
X164928119Y-128148819D01*
X164928119Y-128148819D02*
X165023357Y-128148819D01*
X165023357Y-128148819D02*
X165166214Y-128196438D01*
X165166214Y-128196438D02*
X165213833Y-128244057D01*
X166166214Y-129148819D02*
X165594786Y-129148819D01*
X165880500Y-129148819D02*
X165880500Y-128148819D01*
X165880500Y-128148819D02*
X165785262Y-128291676D01*
X165785262Y-128291676D02*
X165690024Y-128386914D01*
X165690024Y-128386914D02*
X165594786Y-128434533D01*
X90658333Y-133454819D02*
X90325000Y-132978628D01*
X90086905Y-133454819D02*
X90086905Y-132454819D01*
X90086905Y-132454819D02*
X90467857Y-132454819D01*
X90467857Y-132454819D02*
X90563095Y-132502438D01*
X90563095Y-132502438D02*
X90610714Y-132550057D01*
X90610714Y-132550057D02*
X90658333Y-132645295D01*
X90658333Y-132645295D02*
X90658333Y-132788152D01*
X90658333Y-132788152D02*
X90610714Y-132883390D01*
X90610714Y-132883390D02*
X90563095Y-132931009D01*
X90563095Y-132931009D02*
X90467857Y-132978628D01*
X90467857Y-132978628D02*
X90086905Y-132978628D01*
X90991667Y-132454819D02*
X91610714Y-132454819D01*
X91610714Y-132454819D02*
X91277381Y-132835771D01*
X91277381Y-132835771D02*
X91420238Y-132835771D01*
X91420238Y-132835771D02*
X91515476Y-132883390D01*
X91515476Y-132883390D02*
X91563095Y-132931009D01*
X91563095Y-132931009D02*
X91610714Y-133026247D01*
X91610714Y-133026247D02*
X91610714Y-133264342D01*
X91610714Y-133264342D02*
X91563095Y-133359580D01*
X91563095Y-133359580D02*
X91515476Y-133407200D01*
X91515476Y-133407200D02*
X91420238Y-133454819D01*
X91420238Y-133454819D02*
X91134524Y-133454819D01*
X91134524Y-133454819D02*
X91039286Y-133407200D01*
X91039286Y-133407200D02*
X90991667Y-133359580D01*
X165235333Y-137689580D02*
X165187714Y-137737200D01*
X165187714Y-137737200D02*
X165044857Y-137784819D01*
X165044857Y-137784819D02*
X164949619Y-137784819D01*
X164949619Y-137784819D02*
X164806762Y-137737200D01*
X164806762Y-137737200D02*
X164711524Y-137641961D01*
X164711524Y-137641961D02*
X164663905Y-137546723D01*
X164663905Y-137546723D02*
X164616286Y-137356247D01*
X164616286Y-137356247D02*
X164616286Y-137213390D01*
X164616286Y-137213390D02*
X164663905Y-137022914D01*
X164663905Y-137022914D02*
X164711524Y-136927676D01*
X164711524Y-136927676D02*
X164806762Y-136832438D01*
X164806762Y-136832438D02*
X164949619Y-136784819D01*
X164949619Y-136784819D02*
X165044857Y-136784819D01*
X165044857Y-136784819D02*
X165187714Y-136832438D01*
X165187714Y-136832438D02*
X165235333Y-136880057D01*
X165616286Y-136880057D02*
X165663905Y-136832438D01*
X165663905Y-136832438D02*
X165759143Y-136784819D01*
X165759143Y-136784819D02*
X165997238Y-136784819D01*
X165997238Y-136784819D02*
X166092476Y-136832438D01*
X166092476Y-136832438D02*
X166140095Y-136880057D01*
X166140095Y-136880057D02*
X166187714Y-136975295D01*
X166187714Y-136975295D02*
X166187714Y-137070533D01*
X166187714Y-137070533D02*
X166140095Y-137213390D01*
X166140095Y-137213390D02*
X165568667Y-137784819D01*
X165568667Y-137784819D02*
X166187714Y-137784819D01*
X165816666Y-121554819D02*
X165816666Y-122269104D01*
X165816666Y-122269104D02*
X165769047Y-122411961D01*
X165769047Y-122411961D02*
X165673809Y-122507200D01*
X165673809Y-122507200D02*
X165530952Y-122554819D01*
X165530952Y-122554819D02*
X165435714Y-122554819D01*
X166721428Y-121554819D02*
X166530952Y-121554819D01*
X166530952Y-121554819D02*
X166435714Y-121602438D01*
X166435714Y-121602438D02*
X166388095Y-121650057D01*
X166388095Y-121650057D02*
X166292857Y-121792914D01*
X166292857Y-121792914D02*
X166245238Y-121983390D01*
X166245238Y-121983390D02*
X166245238Y-122364342D01*
X166245238Y-122364342D02*
X166292857Y-122459580D01*
X166292857Y-122459580D02*
X166340476Y-122507200D01*
X166340476Y-122507200D02*
X166435714Y-122554819D01*
X166435714Y-122554819D02*
X166626190Y-122554819D01*
X166626190Y-122554819D02*
X166721428Y-122507200D01*
X166721428Y-122507200D02*
X166769047Y-122459580D01*
X166769047Y-122459580D02*
X166816666Y-122364342D01*
X166816666Y-122364342D02*
X166816666Y-122126247D01*
X166816666Y-122126247D02*
X166769047Y-122031009D01*
X166769047Y-122031009D02*
X166721428Y-121983390D01*
X166721428Y-121983390D02*
X166626190Y-121935771D01*
X166626190Y-121935771D02*
X166435714Y-121935771D01*
X166435714Y-121935771D02*
X166340476Y-121983390D01*
X166340476Y-121983390D02*
X166292857Y-122031009D01*
X166292857Y-122031009D02*
X166245238Y-122126247D01*
X130724819Y-133551904D02*
X131534342Y-133551904D01*
X131534342Y-133551904D02*
X131629580Y-133504285D01*
X131629580Y-133504285D02*
X131677200Y-133456666D01*
X131677200Y-133456666D02*
X131724819Y-133361428D01*
X131724819Y-133361428D02*
X131724819Y-133170952D01*
X131724819Y-133170952D02*
X131677200Y-133075714D01*
X131677200Y-133075714D02*
X131629580Y-133028095D01*
X131629580Y-133028095D02*
X131534342Y-132980476D01*
X131534342Y-132980476D02*
X130724819Y-132980476D01*
X131058152Y-132075714D02*
X131724819Y-132075714D01*
X130677200Y-132313809D02*
X131391485Y-132551904D01*
X131391485Y-132551904D02*
X131391485Y-131932857D01*
X139833333Y-145954819D02*
X139500000Y-145478628D01*
X139261905Y-145954819D02*
X139261905Y-144954819D01*
X139261905Y-144954819D02*
X139642857Y-144954819D01*
X139642857Y-144954819D02*
X139738095Y-145002438D01*
X139738095Y-145002438D02*
X139785714Y-145050057D01*
X139785714Y-145050057D02*
X139833333Y-145145295D01*
X139833333Y-145145295D02*
X139833333Y-145288152D01*
X139833333Y-145288152D02*
X139785714Y-145383390D01*
X139785714Y-145383390D02*
X139738095Y-145431009D01*
X139738095Y-145431009D02*
X139642857Y-145478628D01*
X139642857Y-145478628D02*
X139261905Y-145478628D01*
X140785714Y-145954819D02*
X140214286Y-145954819D01*
X140500000Y-145954819D02*
X140500000Y-144954819D01*
X140500000Y-144954819D02*
X140404762Y-145097676D01*
X140404762Y-145097676D02*
X140309524Y-145192914D01*
X140309524Y-145192914D02*
X140214286Y-145240533D01*
X107609580Y-130392857D02*
X107657200Y-130440476D01*
X107657200Y-130440476D02*
X107704819Y-130583333D01*
X107704819Y-130583333D02*
X107704819Y-130678571D01*
X107704819Y-130678571D02*
X107657200Y-130821428D01*
X107657200Y-130821428D02*
X107561961Y-130916666D01*
X107561961Y-130916666D02*
X107466723Y-130964285D01*
X107466723Y-130964285D02*
X107276247Y-131011904D01*
X107276247Y-131011904D02*
X107133390Y-131011904D01*
X107133390Y-131011904D02*
X106942914Y-130964285D01*
X106942914Y-130964285D02*
X106847676Y-130916666D01*
X106847676Y-130916666D02*
X106752438Y-130821428D01*
X106752438Y-130821428D02*
X106704819Y-130678571D01*
X106704819Y-130678571D02*
X106704819Y-130583333D01*
X106704819Y-130583333D02*
X106752438Y-130440476D01*
X106752438Y-130440476D02*
X106800057Y-130392857D01*
X107704819Y-129440476D02*
X107704819Y-130011904D01*
X107704819Y-129726190D02*
X106704819Y-129726190D01*
X106704819Y-129726190D02*
X106847676Y-129821428D01*
X106847676Y-129821428D02*
X106942914Y-129916666D01*
X106942914Y-129916666D02*
X106990533Y-130011904D01*
X106704819Y-128821428D02*
X106704819Y-128726190D01*
X106704819Y-128726190D02*
X106752438Y-128630952D01*
X106752438Y-128630952D02*
X106800057Y-128583333D01*
X106800057Y-128583333D02*
X106895295Y-128535714D01*
X106895295Y-128535714D02*
X107085771Y-128488095D01*
X107085771Y-128488095D02*
X107323866Y-128488095D01*
X107323866Y-128488095D02*
X107514342Y-128535714D01*
X107514342Y-128535714D02*
X107609580Y-128583333D01*
X107609580Y-128583333D02*
X107657200Y-128630952D01*
X107657200Y-128630952D02*
X107704819Y-128726190D01*
X107704819Y-128726190D02*
X107704819Y-128821428D01*
X107704819Y-128821428D02*
X107657200Y-128916666D01*
X107657200Y-128916666D02*
X107609580Y-128964285D01*
X107609580Y-128964285D02*
X107514342Y-129011904D01*
X107514342Y-129011904D02*
X107323866Y-129059523D01*
X107323866Y-129059523D02*
X107085771Y-129059523D01*
X107085771Y-129059523D02*
X106895295Y-129011904D01*
X106895295Y-129011904D02*
X106800057Y-128964285D01*
X106800057Y-128964285D02*
X106752438Y-128916666D01*
X106752438Y-128916666D02*
X106704819Y-128821428D01*
X135215333Y-128883580D02*
X135167714Y-128931200D01*
X135167714Y-128931200D02*
X135024857Y-128978819D01*
X135024857Y-128978819D02*
X134929619Y-128978819D01*
X134929619Y-128978819D02*
X134786762Y-128931200D01*
X134786762Y-128931200D02*
X134691524Y-128835961D01*
X134691524Y-128835961D02*
X134643905Y-128740723D01*
X134643905Y-128740723D02*
X134596286Y-128550247D01*
X134596286Y-128550247D02*
X134596286Y-128407390D01*
X134596286Y-128407390D02*
X134643905Y-128216914D01*
X134643905Y-128216914D02*
X134691524Y-128121676D01*
X134691524Y-128121676D02*
X134786762Y-128026438D01*
X134786762Y-128026438D02*
X134929619Y-127978819D01*
X134929619Y-127978819D02*
X135024857Y-127978819D01*
X135024857Y-127978819D02*
X135167714Y-128026438D01*
X135167714Y-128026438D02*
X135215333Y-128074057D01*
X135691524Y-128978819D02*
X135882000Y-128978819D01*
X135882000Y-128978819D02*
X135977238Y-128931200D01*
X135977238Y-128931200D02*
X136024857Y-128883580D01*
X136024857Y-128883580D02*
X136120095Y-128740723D01*
X136120095Y-128740723D02*
X136167714Y-128550247D01*
X136167714Y-128550247D02*
X136167714Y-128169295D01*
X136167714Y-128169295D02*
X136120095Y-128074057D01*
X136120095Y-128074057D02*
X136072476Y-128026438D01*
X136072476Y-128026438D02*
X135977238Y-127978819D01*
X135977238Y-127978819D02*
X135786762Y-127978819D01*
X135786762Y-127978819D02*
X135691524Y-128026438D01*
X135691524Y-128026438D02*
X135643905Y-128074057D01*
X135643905Y-128074057D02*
X135596286Y-128169295D01*
X135596286Y-128169295D02*
X135596286Y-128407390D01*
X135596286Y-128407390D02*
X135643905Y-128502628D01*
X135643905Y-128502628D02*
X135691524Y-128550247D01*
X135691524Y-128550247D02*
X135786762Y-128597866D01*
X135786762Y-128597866D02*
X135977238Y-128597866D01*
X135977238Y-128597866D02*
X136072476Y-128550247D01*
X136072476Y-128550247D02*
X136120095Y-128502628D01*
X136120095Y-128502628D02*
X136167714Y-128407390D01*
X121416666Y-121554819D02*
X121416666Y-122269104D01*
X121416666Y-122269104D02*
X121369047Y-122411961D01*
X121369047Y-122411961D02*
X121273809Y-122507200D01*
X121273809Y-122507200D02*
X121130952Y-122554819D01*
X121130952Y-122554819D02*
X121035714Y-122554819D01*
X122321428Y-121888152D02*
X122321428Y-122554819D01*
X122083333Y-121507200D02*
X121845238Y-122221485D01*
X121845238Y-122221485D02*
X122464285Y-122221485D01*
X142620057Y-142595238D02*
X142572438Y-142690476D01*
X142572438Y-142690476D02*
X142477200Y-142785714D01*
X142477200Y-142785714D02*
X142334342Y-142928571D01*
X142334342Y-142928571D02*
X142286723Y-143023809D01*
X142286723Y-143023809D02*
X142286723Y-143119047D01*
X142524819Y-143071428D02*
X142477200Y-143166666D01*
X142477200Y-143166666D02*
X142381961Y-143261904D01*
X142381961Y-143261904D02*
X142191485Y-143309523D01*
X142191485Y-143309523D02*
X141858152Y-143309523D01*
X141858152Y-143309523D02*
X141667676Y-143261904D01*
X141667676Y-143261904D02*
X141572438Y-143166666D01*
X141572438Y-143166666D02*
X141524819Y-143071428D01*
X141524819Y-143071428D02*
X141524819Y-142880952D01*
X141524819Y-142880952D02*
X141572438Y-142785714D01*
X141572438Y-142785714D02*
X141667676Y-142690476D01*
X141667676Y-142690476D02*
X141858152Y-142642857D01*
X141858152Y-142642857D02*
X142191485Y-142642857D01*
X142191485Y-142642857D02*
X142381961Y-142690476D01*
X142381961Y-142690476D02*
X142477200Y-142785714D01*
X142477200Y-142785714D02*
X142524819Y-142880952D01*
X142524819Y-142880952D02*
X142524819Y-143071428D01*
X141524819Y-142309523D02*
X141524819Y-141690476D01*
X141524819Y-141690476D02*
X141905771Y-142023809D01*
X141905771Y-142023809D02*
X141905771Y-141880952D01*
X141905771Y-141880952D02*
X141953390Y-141785714D01*
X141953390Y-141785714D02*
X142001009Y-141738095D01*
X142001009Y-141738095D02*
X142096247Y-141690476D01*
X142096247Y-141690476D02*
X142334342Y-141690476D01*
X142334342Y-141690476D02*
X142429580Y-141738095D01*
X142429580Y-141738095D02*
X142477200Y-141785714D01*
X142477200Y-141785714D02*
X142524819Y-141880952D01*
X142524819Y-141880952D02*
X142524819Y-142166666D01*
X142524819Y-142166666D02*
X142477200Y-142261904D01*
X142477200Y-142261904D02*
X142429580Y-142309523D01*
X170259580Y-142734287D02*
X170307200Y-142781906D01*
X170307200Y-142781906D02*
X170354819Y-142924763D01*
X170354819Y-142924763D02*
X170354819Y-143020001D01*
X170354819Y-143020001D02*
X170307200Y-143162858D01*
X170307200Y-143162858D02*
X170211961Y-143258096D01*
X170211961Y-143258096D02*
X170116723Y-143305715D01*
X170116723Y-143305715D02*
X169926247Y-143353334D01*
X169926247Y-143353334D02*
X169783390Y-143353334D01*
X169783390Y-143353334D02*
X169592914Y-143305715D01*
X169592914Y-143305715D02*
X169497676Y-143258096D01*
X169497676Y-143258096D02*
X169402438Y-143162858D01*
X169402438Y-143162858D02*
X169354819Y-143020001D01*
X169354819Y-143020001D02*
X169354819Y-142924763D01*
X169354819Y-142924763D02*
X169402438Y-142781906D01*
X169402438Y-142781906D02*
X169450057Y-142734287D01*
X169688152Y-141877144D02*
X170354819Y-141877144D01*
X169307200Y-142115239D02*
X170021485Y-142353334D01*
X170021485Y-142353334D02*
X170021485Y-141734287D01*
X160724819Y-133551904D02*
X161534342Y-133551904D01*
X161534342Y-133551904D02*
X161629580Y-133504285D01*
X161629580Y-133504285D02*
X161677200Y-133456666D01*
X161677200Y-133456666D02*
X161724819Y-133361428D01*
X161724819Y-133361428D02*
X161724819Y-133170952D01*
X161724819Y-133170952D02*
X161677200Y-133075714D01*
X161677200Y-133075714D02*
X161629580Y-133028095D01*
X161629580Y-133028095D02*
X161534342Y-132980476D01*
X161534342Y-132980476D02*
X160724819Y-132980476D01*
X160820057Y-132551904D02*
X160772438Y-132504285D01*
X160772438Y-132504285D02*
X160724819Y-132409047D01*
X160724819Y-132409047D02*
X160724819Y-132170952D01*
X160724819Y-132170952D02*
X160772438Y-132075714D01*
X160772438Y-132075714D02*
X160820057Y-132028095D01*
X160820057Y-132028095D02*
X160915295Y-131980476D01*
X160915295Y-131980476D02*
X161010533Y-131980476D01*
X161010533Y-131980476D02*
X161153390Y-132028095D01*
X161153390Y-132028095D02*
X161724819Y-132599523D01*
X161724819Y-132599523D02*
X161724819Y-131980476D01*
X175724819Y-133551904D02*
X176534342Y-133551904D01*
X176534342Y-133551904D02*
X176629580Y-133504285D01*
X176629580Y-133504285D02*
X176677200Y-133456666D01*
X176677200Y-133456666D02*
X176724819Y-133361428D01*
X176724819Y-133361428D02*
X176724819Y-133170952D01*
X176724819Y-133170952D02*
X176677200Y-133075714D01*
X176677200Y-133075714D02*
X176629580Y-133028095D01*
X176629580Y-133028095D02*
X176534342Y-132980476D01*
X176534342Y-132980476D02*
X175724819Y-132980476D01*
X176724819Y-131980476D02*
X176724819Y-132551904D01*
X176724819Y-132266190D02*
X175724819Y-132266190D01*
X175724819Y-132266190D02*
X175867676Y-132361428D01*
X175867676Y-132361428D02*
X175962914Y-132456666D01*
X175962914Y-132456666D02*
X176010533Y-132551904D01*
X158359580Y-144666666D02*
X158407200Y-144714285D01*
X158407200Y-144714285D02*
X158454819Y-144857142D01*
X158454819Y-144857142D02*
X158454819Y-144952380D01*
X158454819Y-144952380D02*
X158407200Y-145095237D01*
X158407200Y-145095237D02*
X158311961Y-145190475D01*
X158311961Y-145190475D02*
X158216723Y-145238094D01*
X158216723Y-145238094D02*
X158026247Y-145285713D01*
X158026247Y-145285713D02*
X157883390Y-145285713D01*
X157883390Y-145285713D02*
X157692914Y-145238094D01*
X157692914Y-145238094D02*
X157597676Y-145190475D01*
X157597676Y-145190475D02*
X157502438Y-145095237D01*
X157502438Y-145095237D02*
X157454819Y-144952380D01*
X157454819Y-144952380D02*
X157454819Y-144857142D01*
X157454819Y-144857142D02*
X157502438Y-144714285D01*
X157502438Y-144714285D02*
X157550057Y-144666666D01*
X157454819Y-144333332D02*
X157454819Y-143714285D01*
X157454819Y-143714285D02*
X157835771Y-144047618D01*
X157835771Y-144047618D02*
X157835771Y-143904761D01*
X157835771Y-143904761D02*
X157883390Y-143809523D01*
X157883390Y-143809523D02*
X157931009Y-143761904D01*
X157931009Y-143761904D02*
X158026247Y-143714285D01*
X158026247Y-143714285D02*
X158264342Y-143714285D01*
X158264342Y-143714285D02*
X158359580Y-143761904D01*
X158359580Y-143761904D02*
X158407200Y-143809523D01*
X158407200Y-143809523D02*
X158454819Y-143904761D01*
X158454819Y-143904761D02*
X158454819Y-144190475D01*
X158454819Y-144190475D02*
X158407200Y-144285713D01*
X158407200Y-144285713D02*
X158359580Y-144333332D01*
X139833333Y-140954819D02*
X139500000Y-140478628D01*
X139261905Y-140954819D02*
X139261905Y-139954819D01*
X139261905Y-139954819D02*
X139642857Y-139954819D01*
X139642857Y-139954819D02*
X139738095Y-140002438D01*
X139738095Y-140002438D02*
X139785714Y-140050057D01*
X139785714Y-140050057D02*
X139833333Y-140145295D01*
X139833333Y-140145295D02*
X139833333Y-140288152D01*
X139833333Y-140288152D02*
X139785714Y-140383390D01*
X139785714Y-140383390D02*
X139738095Y-140431009D01*
X139738095Y-140431009D02*
X139642857Y-140478628D01*
X139642857Y-140478628D02*
X139261905Y-140478628D01*
X140214286Y-140050057D02*
X140261905Y-140002438D01*
X140261905Y-140002438D02*
X140357143Y-139954819D01*
X140357143Y-139954819D02*
X140595238Y-139954819D01*
X140595238Y-139954819D02*
X140690476Y-140002438D01*
X140690476Y-140002438D02*
X140738095Y-140050057D01*
X140738095Y-140050057D02*
X140785714Y-140145295D01*
X140785714Y-140145295D02*
X140785714Y-140240533D01*
X140785714Y-140240533D02*
X140738095Y-140383390D01*
X140738095Y-140383390D02*
X140166667Y-140954819D01*
X140166667Y-140954819D02*
X140785714Y-140954819D01*
X95800057Y-130845238D02*
X95752438Y-130940476D01*
X95752438Y-130940476D02*
X95657200Y-131035714D01*
X95657200Y-131035714D02*
X95514342Y-131178571D01*
X95514342Y-131178571D02*
X95466723Y-131273809D01*
X95466723Y-131273809D02*
X95466723Y-131369047D01*
X95704819Y-131321428D02*
X95657200Y-131416666D01*
X95657200Y-131416666D02*
X95561961Y-131511904D01*
X95561961Y-131511904D02*
X95371485Y-131559523D01*
X95371485Y-131559523D02*
X95038152Y-131559523D01*
X95038152Y-131559523D02*
X94847676Y-131511904D01*
X94847676Y-131511904D02*
X94752438Y-131416666D01*
X94752438Y-131416666D02*
X94704819Y-131321428D01*
X94704819Y-131321428D02*
X94704819Y-131130952D01*
X94704819Y-131130952D02*
X94752438Y-131035714D01*
X94752438Y-131035714D02*
X94847676Y-130940476D01*
X94847676Y-130940476D02*
X95038152Y-130892857D01*
X95038152Y-130892857D02*
X95371485Y-130892857D01*
X95371485Y-130892857D02*
X95561961Y-130940476D01*
X95561961Y-130940476D02*
X95657200Y-131035714D01*
X95657200Y-131035714D02*
X95704819Y-131130952D01*
X95704819Y-131130952D02*
X95704819Y-131321428D01*
X95038152Y-130035714D02*
X95704819Y-130035714D01*
X94657200Y-130273809D02*
X95371485Y-130511904D01*
X95371485Y-130511904D02*
X95371485Y-129892857D01*
X124509580Y-133210478D02*
X124557200Y-133258097D01*
X124557200Y-133258097D02*
X124604819Y-133400954D01*
X124604819Y-133400954D02*
X124604819Y-133496192D01*
X124604819Y-133496192D02*
X124557200Y-133639049D01*
X124557200Y-133639049D02*
X124461961Y-133734287D01*
X124461961Y-133734287D02*
X124366723Y-133781906D01*
X124366723Y-133781906D02*
X124176247Y-133829525D01*
X124176247Y-133829525D02*
X124033390Y-133829525D01*
X124033390Y-133829525D02*
X123842914Y-133781906D01*
X123842914Y-133781906D02*
X123747676Y-133734287D01*
X123747676Y-133734287D02*
X123652438Y-133639049D01*
X123652438Y-133639049D02*
X123604819Y-133496192D01*
X123604819Y-133496192D02*
X123604819Y-133400954D01*
X123604819Y-133400954D02*
X123652438Y-133258097D01*
X123652438Y-133258097D02*
X123700057Y-133210478D01*
X124604819Y-132258097D02*
X124604819Y-132829525D01*
X124604819Y-132543811D02*
X123604819Y-132543811D01*
X123604819Y-132543811D02*
X123747676Y-132639049D01*
X123747676Y-132639049D02*
X123842914Y-132734287D01*
X123842914Y-132734287D02*
X123890533Y-132829525D01*
X123700057Y-131877144D02*
X123652438Y-131829525D01*
X123652438Y-131829525D02*
X123604819Y-131734287D01*
X123604819Y-131734287D02*
X123604819Y-131496192D01*
X123604819Y-131496192D02*
X123652438Y-131400954D01*
X123652438Y-131400954D02*
X123700057Y-131353335D01*
X123700057Y-131353335D02*
X123795295Y-131305716D01*
X123795295Y-131305716D02*
X123890533Y-131305716D01*
X123890533Y-131305716D02*
X124033390Y-131353335D01*
X124033390Y-131353335D02*
X124604819Y-131924763D01*
X124604819Y-131924763D02*
X124604819Y-131305716D01*
X99216666Y-121554819D02*
X99216666Y-122269104D01*
X99216666Y-122269104D02*
X99169047Y-122411961D01*
X99169047Y-122411961D02*
X99073809Y-122507200D01*
X99073809Y-122507200D02*
X98930952Y-122554819D01*
X98930952Y-122554819D02*
X98835714Y-122554819D01*
X99597619Y-121554819D02*
X100216666Y-121554819D01*
X100216666Y-121554819D02*
X99883333Y-121935771D01*
X99883333Y-121935771D02*
X100026190Y-121935771D01*
X100026190Y-121935771D02*
X100121428Y-121983390D01*
X100121428Y-121983390D02*
X100169047Y-122031009D01*
X100169047Y-122031009D02*
X100216666Y-122126247D01*
X100216666Y-122126247D02*
X100216666Y-122364342D01*
X100216666Y-122364342D02*
X100169047Y-122459580D01*
X100169047Y-122459580D02*
X100121428Y-122507200D01*
X100121428Y-122507200D02*
X100026190Y-122554819D01*
X100026190Y-122554819D02*
X99740476Y-122554819D01*
X99740476Y-122554819D02*
X99645238Y-122507200D01*
X99645238Y-122507200D02*
X99597619Y-122459580D01*
X132904761Y-145450057D02*
X132809523Y-145402438D01*
X132809523Y-145402438D02*
X132714285Y-145307200D01*
X132714285Y-145307200D02*
X132571428Y-145164342D01*
X132571428Y-145164342D02*
X132476190Y-145116723D01*
X132476190Y-145116723D02*
X132380952Y-145116723D01*
X132428571Y-145354819D02*
X132333333Y-145307200D01*
X132333333Y-145307200D02*
X132238095Y-145211961D01*
X132238095Y-145211961D02*
X132190476Y-145021485D01*
X132190476Y-145021485D02*
X132190476Y-144688152D01*
X132190476Y-144688152D02*
X132238095Y-144497676D01*
X132238095Y-144497676D02*
X132333333Y-144402438D01*
X132333333Y-144402438D02*
X132428571Y-144354819D01*
X132428571Y-144354819D02*
X132619047Y-144354819D01*
X132619047Y-144354819D02*
X132714285Y-144402438D01*
X132714285Y-144402438D02*
X132809523Y-144497676D01*
X132809523Y-144497676D02*
X132857142Y-144688152D01*
X132857142Y-144688152D02*
X132857142Y-145021485D01*
X132857142Y-145021485D02*
X132809523Y-145211961D01*
X132809523Y-145211961D02*
X132714285Y-145307200D01*
X132714285Y-145307200D02*
X132619047Y-145354819D01*
X132619047Y-145354819D02*
X132428571Y-145354819D01*
X133761904Y-144354819D02*
X133285714Y-144354819D01*
X133285714Y-144354819D02*
X133238095Y-144831009D01*
X133238095Y-144831009D02*
X133285714Y-144783390D01*
X133285714Y-144783390D02*
X133380952Y-144735771D01*
X133380952Y-144735771D02*
X133619047Y-144735771D01*
X133619047Y-144735771D02*
X133714285Y-144783390D01*
X133714285Y-144783390D02*
X133761904Y-144831009D01*
X133761904Y-144831009D02*
X133809523Y-144926247D01*
X133809523Y-144926247D02*
X133809523Y-145164342D01*
X133809523Y-145164342D02*
X133761904Y-145259580D01*
X133761904Y-145259580D02*
X133714285Y-145307200D01*
X133714285Y-145307200D02*
X133619047Y-145354819D01*
X133619047Y-145354819D02*
X133380952Y-145354819D01*
X133380952Y-145354819D02*
X133285714Y-145307200D01*
X133285714Y-145307200D02*
X133238095Y-145259580D01*
D11*
X89500000Y-140700000D02*
X104500000Y-140700000D01*
X89500000Y-155700000D02*
X89500000Y-140700000D01*
X97000000Y-155500000D02*
X96000000Y-154500000D01*
X97000000Y-155500000D02*
X98000000Y-154500000D01*
X104500000Y-140700000D02*
X104500000Y-155700000D01*
X104500000Y-155700000D02*
X89500000Y-155700000D01*
X135590000Y-117290000D02*
X135590000Y-121010000D01*
X135590000Y-119100000D02*
X135990000Y-119100000D01*
X135590000Y-120100000D02*
X135990000Y-120100000D01*
X135590000Y-121010000D02*
X152310000Y-121010000D01*
X135990000Y-117690000D02*
X135990000Y-120610000D01*
X135990000Y-120610000D02*
X151910000Y-120610000D01*
X137850000Y-118090000D02*
X137850000Y-117690000D01*
X137950000Y-117690000D02*
X137950000Y-118090000D01*
X138050000Y-117690000D02*
X138050000Y-118090000D01*
X138050000Y-118090000D02*
X137850000Y-118090000D01*
X139350000Y-118090000D02*
X139350000Y-117690000D01*
X139450000Y-117690000D02*
X139450000Y-118090000D01*
X139550000Y-117690000D02*
X139550000Y-118090000D01*
X139550000Y-118090000D02*
X139350000Y-118090000D01*
X140850000Y-118090000D02*
X140850000Y-117690000D01*
X140950000Y-117690000D02*
X140950000Y-118090000D01*
X141050000Y-117690000D02*
X141050000Y-118090000D01*
X141050000Y-118090000D02*
X140850000Y-118090000D01*
X142350000Y-118090000D02*
X142350000Y-117690000D01*
X142450000Y-117690000D02*
X142450000Y-118090000D01*
X142550000Y-117690000D02*
X142550000Y-118090000D01*
X142550000Y-118090000D02*
X142350000Y-118090000D01*
X143850000Y-118090000D02*
X143850000Y-117690000D01*
X143950000Y-117690000D02*
X143950000Y-118090000D01*
X144050000Y-117690000D02*
X144050000Y-118090000D01*
X144050000Y-118090000D02*
X143850000Y-118090000D01*
X145350000Y-118090000D02*
X145350000Y-117690000D01*
X145450000Y-117690000D02*
X145450000Y-118090000D01*
X145550000Y-117690000D02*
X145550000Y-118090000D01*
X145550000Y-118090000D02*
X145350000Y-118090000D01*
X146850000Y-118090000D02*
X146850000Y-117690000D01*
X146950000Y-117690000D02*
X146950000Y-118090000D01*
X147050000Y-117690000D02*
X147050000Y-118090000D01*
X147050000Y-118090000D02*
X146850000Y-118090000D01*
X148350000Y-118090000D02*
X148350000Y-117690000D01*
X148450000Y-117690000D02*
X148450000Y-118090000D01*
X148550000Y-117690000D02*
X148550000Y-118090000D01*
X148550000Y-118090000D02*
X148350000Y-118090000D01*
X149850000Y-118090000D02*
X149850000Y-117690000D01*
X149950000Y-117690000D02*
X149950000Y-118090000D01*
X150050000Y-117690000D02*
X150050000Y-118090000D01*
X150050000Y-118090000D02*
X149850000Y-118090000D01*
X151000000Y-121010000D02*
X151000000Y-121210000D01*
X151000000Y-121110000D02*
X151300000Y-121110000D01*
X151000000Y-121210000D02*
X151300000Y-121210000D01*
X151300000Y-121210000D02*
X151300000Y-121010000D01*
X151710000Y-121210000D02*
X152510000Y-121210000D01*
X151910000Y-117690000D02*
X135990000Y-117690000D01*
X151910000Y-120610000D02*
X151910000Y-117690000D01*
X152310000Y-117290000D02*
X135590000Y-117290000D01*
X152310000Y-119100000D02*
X151910000Y-119100000D01*
X152310000Y-120100000D02*
X151910000Y-120100000D01*
X152310000Y-121010000D02*
X152310000Y-117290000D01*
X152510000Y-121210000D02*
X152510000Y-120410000D01*
X109500000Y-140700000D02*
X124500000Y-140700000D01*
X109500000Y-155700000D02*
X109500000Y-140700000D01*
X117000000Y-155500000D02*
X116000000Y-154500000D01*
X117000000Y-155500000D02*
X118000000Y-154500000D01*
X124500000Y-140700000D02*
X124500000Y-155700000D01*
X124500000Y-155700000D02*
X109500000Y-155700000D01*
X145270000Y-137910000D02*
X140629000Y-137910000D01*
X145270000Y-134641000D02*
X143760000Y-134641000D01*
X145270000Y-130940000D02*
X143760000Y-130940000D01*
X145270000Y-127670000D02*
X145270000Y-137910000D01*
X145270000Y-127670000D02*
X140629000Y-127670000D01*
X143760000Y-127670000D02*
X143760000Y-137910000D01*
X140629000Y-127670000D02*
X140629000Y-137910000D01*
X138691252Y-136425000D02*
X138168748Y-136425000D01*
X138691252Y-137895000D02*
X138168748Y-137895000D01*
X168641752Y-127789000D02*
X168119248Y-127789000D01*
X168641752Y-129259000D02*
X168119248Y-129259000D01*
X94237258Y-132477500D02*
X93762742Y-132477500D01*
X94237258Y-133522500D02*
X93762742Y-133522500D01*
X168663252Y-136425000D02*
X168140748Y-136425000D01*
X168663252Y-137895000D02*
X168140748Y-137895000D01*
X157790000Y-117290000D02*
X157790000Y-121010000D01*
X157790000Y-119100000D02*
X158190000Y-119100000D01*
X157790000Y-120100000D02*
X158190000Y-120100000D01*
X157790000Y-121010000D02*
X174510000Y-121010000D01*
X158190000Y-117690000D02*
X158190000Y-120610000D01*
X158190000Y-120610000D02*
X174110000Y-120610000D01*
X160050000Y-118090000D02*
X160050000Y-117690000D01*
X160150000Y-117690000D02*
X160150000Y-118090000D01*
X160250000Y-117690000D02*
X160250000Y-118090000D01*
X160250000Y-118090000D02*
X160050000Y-118090000D01*
X161550000Y-118090000D02*
X161550000Y-117690000D01*
X161650000Y-117690000D02*
X161650000Y-118090000D01*
X161750000Y-117690000D02*
X161750000Y-118090000D01*
X161750000Y-118090000D02*
X161550000Y-118090000D01*
X163050000Y-118090000D02*
X163050000Y-117690000D01*
X163150000Y-117690000D02*
X163150000Y-118090000D01*
X163250000Y-117690000D02*
X163250000Y-118090000D01*
X163250000Y-118090000D02*
X163050000Y-118090000D01*
X164550000Y-118090000D02*
X164550000Y-117690000D01*
X164650000Y-117690000D02*
X164650000Y-118090000D01*
X164750000Y-117690000D02*
X164750000Y-118090000D01*
X164750000Y-118090000D02*
X164550000Y-118090000D01*
X166050000Y-118090000D02*
X166050000Y-117690000D01*
X166150000Y-117690000D02*
X166150000Y-118090000D01*
X166250000Y-117690000D02*
X166250000Y-118090000D01*
X166250000Y-118090000D02*
X166050000Y-118090000D01*
X167550000Y-118090000D02*
X167550000Y-117690000D01*
X167650000Y-117690000D02*
X167650000Y-118090000D01*
X167750000Y-117690000D02*
X167750000Y-118090000D01*
X167750000Y-118090000D02*
X167550000Y-118090000D01*
X169050000Y-118090000D02*
X169050000Y-117690000D01*
X169150000Y-117690000D02*
X169150000Y-118090000D01*
X169250000Y-117690000D02*
X169250000Y-118090000D01*
X169250000Y-118090000D02*
X169050000Y-118090000D01*
X170550000Y-118090000D02*
X170550000Y-117690000D01*
X170650000Y-117690000D02*
X170650000Y-118090000D01*
X170750000Y-117690000D02*
X170750000Y-118090000D01*
X170750000Y-118090000D02*
X170550000Y-118090000D01*
X172050000Y-118090000D02*
X172050000Y-117690000D01*
X172150000Y-117690000D02*
X172150000Y-118090000D01*
X172250000Y-117690000D02*
X172250000Y-118090000D01*
X172250000Y-118090000D02*
X172050000Y-118090000D01*
X173200000Y-121010000D02*
X173200000Y-121210000D01*
X173200000Y-121110000D02*
X173500000Y-121110000D01*
X173200000Y-121210000D02*
X173500000Y-121210000D01*
X173500000Y-121210000D02*
X173500000Y-121010000D01*
X173910000Y-121210000D02*
X174710000Y-121210000D01*
X174110000Y-117690000D02*
X158190000Y-117690000D01*
X174110000Y-120610000D02*
X174110000Y-117690000D01*
X174510000Y-117290000D02*
X157790000Y-117290000D01*
X174510000Y-119100000D02*
X174110000Y-119100000D01*
X174510000Y-120100000D02*
X174110000Y-120100000D01*
X174510000Y-121010000D02*
X174510000Y-117290000D01*
X174710000Y-121210000D02*
X174710000Y-120410000D01*
X125629000Y-127670000D02*
X125629000Y-137910000D01*
X128760000Y-127670000D02*
X128760000Y-137910000D01*
X130270000Y-127670000D02*
X125629000Y-127670000D01*
X130270000Y-127670000D02*
X130270000Y-137910000D01*
X130270000Y-130940000D02*
X128760000Y-130940000D01*
X130270000Y-134641000D02*
X128760000Y-134641000D01*
X130270000Y-137910000D02*
X125629000Y-137910000D01*
X138762742Y-143477500D02*
X139237258Y-143477500D01*
X138762742Y-144522500D02*
X139237258Y-144522500D01*
X110460000Y-131307621D02*
X108278000Y-131307621D01*
X110460000Y-131347621D02*
X108282000Y-131347621D01*
X110460000Y-131387621D02*
X108285000Y-131387621D01*
X110460000Y-131427621D02*
X108289000Y-131427621D01*
X110460000Y-131467621D02*
X108294000Y-131467621D01*
X110460000Y-131507621D02*
X108299000Y-131507621D01*
X110460000Y-131547621D02*
X108305000Y-131547621D01*
X110460000Y-131587621D02*
X108311000Y-131587621D01*
X110460000Y-131627621D02*
X108318000Y-131627621D01*
X110460000Y-131667621D02*
X108325000Y-131667621D01*
X110460000Y-131707621D02*
X108333000Y-131707621D01*
X110460000Y-131747621D02*
X108341000Y-131747621D01*
X110460000Y-131788621D02*
X108350000Y-131788621D01*
X110460000Y-131828621D02*
X108359000Y-131828621D01*
X110460000Y-131868621D02*
X108369000Y-131868621D01*
X110460000Y-131908621D02*
X108379000Y-131908621D01*
X110460000Y-131948621D02*
X108390000Y-131948621D01*
X110460000Y-131988621D02*
X108402000Y-131988621D01*
X110460000Y-132028621D02*
X108414000Y-132028621D01*
X110460000Y-132068621D02*
X108426000Y-132068621D01*
X110460000Y-132108621D02*
X108439000Y-132108621D01*
X110460000Y-132148621D02*
X108453000Y-132148621D01*
X110460000Y-132188621D02*
X108467000Y-132188621D01*
X110460000Y-132228621D02*
X108482000Y-132228621D01*
X110460000Y-132268621D02*
X108498000Y-132268621D01*
X110460000Y-132308621D02*
X108514000Y-132308621D01*
X110460000Y-132348621D02*
X108530000Y-132348621D01*
X110460000Y-132388621D02*
X108548000Y-132388621D01*
X110460000Y-132428621D02*
X108566000Y-132428621D01*
X110460000Y-132468621D02*
X108584000Y-132468621D01*
X110460000Y-132508621D02*
X108604000Y-132508621D01*
X110460000Y-132548621D02*
X108624000Y-132548621D01*
X110460000Y-132588621D02*
X108644000Y-132588621D01*
X110460000Y-132628621D02*
X108666000Y-132628621D01*
X110460000Y-132668621D02*
X108688000Y-132668621D01*
X110460000Y-132708621D02*
X108710000Y-132708621D01*
X110460000Y-132748621D02*
X108734000Y-132748621D01*
X110460000Y-132788621D02*
X108758000Y-132788621D01*
X110460000Y-132828621D02*
X108784000Y-132828621D01*
X110460000Y-132868621D02*
X108810000Y-132868621D01*
X110460000Y-132908621D02*
X108836000Y-132908621D01*
X110460000Y-132948621D02*
X108864000Y-132948621D01*
X110460000Y-132988621D02*
X108893000Y-132988621D01*
X110460000Y-133028621D02*
X108922000Y-133028621D01*
X110460000Y-133068621D02*
X108952000Y-133068621D01*
X110460000Y-133108621D02*
X108984000Y-133108621D01*
X110460000Y-133148621D02*
X109016000Y-133148621D01*
X110460000Y-133188621D02*
X109050000Y-133188621D01*
X110460000Y-133228621D02*
X109084000Y-133228621D01*
X110460000Y-133268621D02*
X109120000Y-133268621D01*
X110460000Y-133308621D02*
X109157000Y-133308621D01*
X110460000Y-133348621D02*
X109195000Y-133348621D01*
X111902000Y-134308621D02*
X111098000Y-134308621D01*
X112133000Y-134268621D02*
X110867000Y-134268621D01*
X112302000Y-134228621D02*
X110698000Y-134228621D01*
X112440000Y-134188621D02*
X110560000Y-134188621D01*
X112559000Y-134148621D02*
X110441000Y-134148621D01*
X112665000Y-134108621D02*
X110335000Y-134108621D01*
X112762000Y-134068621D02*
X110238000Y-134068621D01*
X112850000Y-134028621D02*
X110150000Y-134028621D01*
X112932000Y-133988621D02*
X110068000Y-133988621D01*
X113009000Y-133948621D02*
X109991000Y-133948621D01*
X113081000Y-133908621D02*
X109919000Y-133908621D01*
X113150000Y-133868621D02*
X109850000Y-133868621D01*
X113214000Y-133828621D02*
X109786000Y-133828621D01*
X113276000Y-133788621D02*
X109724000Y-133788621D01*
X113334000Y-133748621D02*
X109666000Y-133748621D01*
X113339000Y-127567380D02*
X113339000Y-128197380D01*
X113390000Y-133708621D02*
X109610000Y-133708621D01*
X113444000Y-133668621D02*
X109556000Y-133668621D01*
X113495000Y-133628621D02*
X109505000Y-133628621D01*
X113544000Y-133588621D02*
X109456000Y-133588621D01*
X113592000Y-133548621D02*
X109408000Y-133548621D01*
X113637000Y-133508621D02*
X109363000Y-133508621D01*
X113654000Y-127882380D02*
X113024000Y-127882380D01*
X113682000Y-133468621D02*
X109318000Y-133468621D01*
X113724000Y-133428621D02*
X109276000Y-133428621D01*
X113765000Y-133388621D02*
X109235000Y-133388621D01*
X113805000Y-133348621D02*
X112540000Y-133348621D01*
X113843000Y-133308621D02*
X112540000Y-133308621D01*
X113880000Y-133268621D02*
X112540000Y-133268621D01*
X113916000Y-133228621D02*
X112540000Y-133228621D01*
X113950000Y-133188621D02*
X112540000Y-133188621D01*
X113984000Y-133148621D02*
X112540000Y-133148621D01*
X114016000Y-133108621D02*
X112540000Y-133108621D01*
X114048000Y-133068621D02*
X112540000Y-133068621D01*
X114078000Y-133028621D02*
X112540000Y-133028621D01*
X114107000Y-132988621D02*
X112540000Y-132988621D01*
X114136000Y-132948621D02*
X112540000Y-132948621D01*
X114164000Y-132908621D02*
X112540000Y-132908621D01*
X114190000Y-132868621D02*
X112540000Y-132868621D01*
X114216000Y-132828621D02*
X112540000Y-132828621D01*
X114242000Y-132788621D02*
X112540000Y-132788621D01*
X114266000Y-132748621D02*
X112540000Y-132748621D01*
X114290000Y-132708621D02*
X112540000Y-132708621D01*
X114312000Y-132668621D02*
X112540000Y-132668621D01*
X114334000Y-132628621D02*
X112540000Y-132628621D01*
X114356000Y-132588621D02*
X112540000Y-132588621D01*
X114376000Y-132548621D02*
X112540000Y-132548621D01*
X114396000Y-132508621D02*
X112540000Y-132508621D01*
X114416000Y-132468621D02*
X112540000Y-132468621D01*
X114434000Y-132428621D02*
X112540000Y-132428621D01*
X114452000Y-132388621D02*
X112540000Y-132388621D01*
X114470000Y-132348621D02*
X112540000Y-132348621D01*
X114486000Y-132308621D02*
X112540000Y-132308621D01*
X114502000Y-132268621D02*
X112540000Y-132268621D01*
X114518000Y-132228621D02*
X112540000Y-132228621D01*
X114533000Y-132188621D02*
X112540000Y-132188621D01*
X114547000Y-132148621D02*
X112540000Y-132148621D01*
X114561000Y-132108621D02*
X112540000Y-132108621D01*
X114574000Y-132068621D02*
X112540000Y-132068621D01*
X114586000Y-132028621D02*
X112540000Y-132028621D01*
X114598000Y-131988621D02*
X112540000Y-131988621D01*
X114610000Y-131948621D02*
X112540000Y-131948621D01*
X114621000Y-131908621D02*
X112540000Y-131908621D01*
X114631000Y-131868621D02*
X112540000Y-131868621D01*
X114641000Y-131828621D02*
X112540000Y-131828621D01*
X114650000Y-131788621D02*
X112540000Y-131788621D01*
X114659000Y-131747621D02*
X112540000Y-131747621D01*
X114667000Y-131707621D02*
X112540000Y-131707621D01*
X114675000Y-131667621D02*
X112540000Y-131667621D01*
X114682000Y-131627621D02*
X112540000Y-131627621D01*
X114689000Y-131587621D02*
X112540000Y-131587621D01*
X114695000Y-131547621D02*
X112540000Y-131547621D01*
X114701000Y-131507621D02*
X112540000Y-131507621D01*
X114706000Y-131467621D02*
X112540000Y-131467621D01*
X114711000Y-131427621D02*
X112540000Y-131427621D01*
X114715000Y-131387621D02*
X112540000Y-131387621D01*
X114718000Y-131347621D02*
X112540000Y-131347621D01*
X114722000Y-131307621D02*
X112540000Y-131307621D01*
X114724000Y-131267621D02*
X108276000Y-131267621D01*
X114727000Y-131227621D02*
X108273000Y-131227621D01*
X114728000Y-131187621D02*
X108272000Y-131187621D01*
X114730000Y-131067621D02*
X108270000Y-131067621D01*
X114730000Y-131107621D02*
X108270000Y-131107621D01*
X114730000Y-131147621D02*
X108270000Y-131147621D01*
X114770000Y-131067621D02*
G75*
G02*
X108230000Y-131067621I-3270000J0D01*
G01*
X108230000Y-131067621D02*
G75*
G02*
X114770000Y-131067621I3270000J0D01*
G01*
X138691252Y-127789000D02*
X138168748Y-127789000D01*
X138691252Y-129259000D02*
X138168748Y-129259000D01*
X113390000Y-117290000D02*
X113390000Y-121010000D01*
X113390000Y-119100000D02*
X113790000Y-119100000D01*
X113390000Y-120100000D02*
X113790000Y-120100000D01*
X113390000Y-121010000D02*
X130110000Y-121010000D01*
X113790000Y-117690000D02*
X113790000Y-120610000D01*
X113790000Y-120610000D02*
X129710000Y-120610000D01*
X115650000Y-118090000D02*
X115650000Y-117690000D01*
X115750000Y-117690000D02*
X115750000Y-118090000D01*
X115850000Y-117690000D02*
X115850000Y-118090000D01*
X115850000Y-118090000D02*
X115650000Y-118090000D01*
X117150000Y-118090000D02*
X117150000Y-117690000D01*
X117250000Y-117690000D02*
X117250000Y-118090000D01*
X117350000Y-117690000D02*
X117350000Y-118090000D01*
X117350000Y-118090000D02*
X117150000Y-118090000D01*
X118650000Y-118090000D02*
X118650000Y-117690000D01*
X118750000Y-117690000D02*
X118750000Y-118090000D01*
X118850000Y-117690000D02*
X118850000Y-118090000D01*
X118850000Y-118090000D02*
X118650000Y-118090000D01*
X120150000Y-118090000D02*
X120150000Y-117690000D01*
X120250000Y-117690000D02*
X120250000Y-118090000D01*
X120350000Y-117690000D02*
X120350000Y-118090000D01*
X120350000Y-118090000D02*
X120150000Y-118090000D01*
X121650000Y-118090000D02*
X121650000Y-117690000D01*
X121750000Y-117690000D02*
X121750000Y-118090000D01*
X121850000Y-117690000D02*
X121850000Y-118090000D01*
X121850000Y-118090000D02*
X121650000Y-118090000D01*
X123150000Y-118090000D02*
X123150000Y-117690000D01*
X123250000Y-117690000D02*
X123250000Y-118090000D01*
X123350000Y-117690000D02*
X123350000Y-118090000D01*
X123350000Y-118090000D02*
X123150000Y-118090000D01*
X124650000Y-118090000D02*
X124650000Y-117690000D01*
X124750000Y-117690000D02*
X124750000Y-118090000D01*
X124850000Y-117690000D02*
X124850000Y-118090000D01*
X124850000Y-118090000D02*
X124650000Y-118090000D01*
X126150000Y-118090000D02*
X126150000Y-117690000D01*
X126250000Y-117690000D02*
X126250000Y-118090000D01*
X126350000Y-117690000D02*
X126350000Y-118090000D01*
X126350000Y-118090000D02*
X126150000Y-118090000D01*
X127650000Y-118090000D02*
X127650000Y-117690000D01*
X127750000Y-117690000D02*
X127750000Y-118090000D01*
X127850000Y-117690000D02*
X127850000Y-118090000D01*
X127850000Y-118090000D02*
X127650000Y-118090000D01*
X128800000Y-121010000D02*
X128800000Y-121210000D01*
X128800000Y-121110000D02*
X129100000Y-121110000D01*
X128800000Y-121210000D02*
X129100000Y-121210000D01*
X129100000Y-121210000D02*
X129100000Y-121010000D01*
X129510000Y-121210000D02*
X130310000Y-121210000D01*
X129710000Y-117690000D02*
X113790000Y-117690000D01*
X129710000Y-120610000D02*
X129710000Y-117690000D01*
X130110000Y-117290000D02*
X113390000Y-117290000D01*
X130110000Y-119100000D02*
X129710000Y-119100000D01*
X130110000Y-120100000D02*
X129710000Y-120100000D01*
X130110000Y-121010000D02*
X130110000Y-117290000D01*
X130310000Y-121210000D02*
X130310000Y-120410000D01*
X148090000Y-142500000D02*
X148090000Y-140620000D01*
X148090000Y-142500000D02*
X148090000Y-144380000D01*
X142910000Y-142500000D02*
X142910000Y-140620000D01*
X142910000Y-142500000D02*
X142910000Y-144380000D01*
X143010000Y-145202500D02*
X142680000Y-145442500D01*
X142680000Y-144962500D01*
X143010000Y-145202500D01*
G36*
X143010000Y-145202500D02*
G01*
X142680000Y-145442500D01*
X142680000Y-144962500D01*
X143010000Y-145202500D01*
G37*
X164460000Y-142807621D02*
X162278000Y-142807621D01*
X164460000Y-142847621D02*
X162282000Y-142847621D01*
X164460000Y-142887621D02*
X162285000Y-142887621D01*
X164460000Y-142927621D02*
X162289000Y-142927621D01*
X164460000Y-142967621D02*
X162294000Y-142967621D01*
X164460000Y-143007621D02*
X162299000Y-143007621D01*
X164460000Y-143047621D02*
X162305000Y-143047621D01*
X164460000Y-143087621D02*
X162311000Y-143087621D01*
X164460000Y-143127621D02*
X162318000Y-143127621D01*
X164460000Y-143167621D02*
X162325000Y-143167621D01*
X164460000Y-143207621D02*
X162333000Y-143207621D01*
X164460000Y-143247621D02*
X162341000Y-143247621D01*
X164460000Y-143288621D02*
X162350000Y-143288621D01*
X164460000Y-143328621D02*
X162359000Y-143328621D01*
X164460000Y-143368621D02*
X162369000Y-143368621D01*
X164460000Y-143408621D02*
X162379000Y-143408621D01*
X164460000Y-143448621D02*
X162390000Y-143448621D01*
X164460000Y-143488621D02*
X162402000Y-143488621D01*
X164460000Y-143528621D02*
X162414000Y-143528621D01*
X164460000Y-143568621D02*
X162426000Y-143568621D01*
X164460000Y-143608621D02*
X162439000Y-143608621D01*
X164460000Y-143648621D02*
X162453000Y-143648621D01*
X164460000Y-143688621D02*
X162467000Y-143688621D01*
X164460000Y-143728621D02*
X162482000Y-143728621D01*
X164460000Y-143768621D02*
X162498000Y-143768621D01*
X164460000Y-143808621D02*
X162514000Y-143808621D01*
X164460000Y-143848621D02*
X162530000Y-143848621D01*
X164460000Y-143888621D02*
X162548000Y-143888621D01*
X164460000Y-143928621D02*
X162566000Y-143928621D01*
X164460000Y-143968621D02*
X162584000Y-143968621D01*
X164460000Y-144008621D02*
X162604000Y-144008621D01*
X164460000Y-144048621D02*
X162624000Y-144048621D01*
X164460000Y-144088621D02*
X162644000Y-144088621D01*
X164460000Y-144128621D02*
X162666000Y-144128621D01*
X164460000Y-144168621D02*
X162688000Y-144168621D01*
X164460000Y-144208621D02*
X162710000Y-144208621D01*
X164460000Y-144248621D02*
X162734000Y-144248621D01*
X164460000Y-144288621D02*
X162758000Y-144288621D01*
X164460000Y-144328621D02*
X162784000Y-144328621D01*
X164460000Y-144368621D02*
X162810000Y-144368621D01*
X164460000Y-144408621D02*
X162836000Y-144408621D01*
X164460000Y-144448621D02*
X162864000Y-144448621D01*
X164460000Y-144488621D02*
X162893000Y-144488621D01*
X164460000Y-144528621D02*
X162922000Y-144528621D01*
X164460000Y-144568621D02*
X162952000Y-144568621D01*
X164460000Y-144608621D02*
X162984000Y-144608621D01*
X164460000Y-144648621D02*
X163016000Y-144648621D01*
X164460000Y-144688621D02*
X163050000Y-144688621D01*
X164460000Y-144728621D02*
X163084000Y-144728621D01*
X164460000Y-144768621D02*
X163120000Y-144768621D01*
X164460000Y-144808621D02*
X163157000Y-144808621D01*
X164460000Y-144848621D02*
X163195000Y-144848621D01*
X165902000Y-145808621D02*
X165098000Y-145808621D01*
X166133000Y-145768621D02*
X164867000Y-145768621D01*
X166302000Y-145728621D02*
X164698000Y-145728621D01*
X166440000Y-145688621D02*
X164560000Y-145688621D01*
X166559000Y-145648621D02*
X164441000Y-145648621D01*
X166665000Y-145608621D02*
X164335000Y-145608621D01*
X166762000Y-145568621D02*
X164238000Y-145568621D01*
X166850000Y-145528621D02*
X164150000Y-145528621D01*
X166932000Y-145488621D02*
X164068000Y-145488621D01*
X167009000Y-145448621D02*
X163991000Y-145448621D01*
X167081000Y-145408621D02*
X163919000Y-145408621D01*
X167150000Y-145368621D02*
X163850000Y-145368621D01*
X167214000Y-145328621D02*
X163786000Y-145328621D01*
X167276000Y-145288621D02*
X163724000Y-145288621D01*
X167334000Y-145248621D02*
X163666000Y-145248621D01*
X167339000Y-139067380D02*
X167339000Y-139697380D01*
X167390000Y-145208621D02*
X163610000Y-145208621D01*
X167444000Y-145168621D02*
X163556000Y-145168621D01*
X167495000Y-145128621D02*
X163505000Y-145128621D01*
X167544000Y-145088621D02*
X163456000Y-145088621D01*
X167592000Y-145048621D02*
X163408000Y-145048621D01*
X167637000Y-145008621D02*
X163363000Y-145008621D01*
X167654000Y-139382380D02*
X167024000Y-139382380D01*
X167682000Y-144968621D02*
X163318000Y-144968621D01*
X167724000Y-144928621D02*
X163276000Y-144928621D01*
X167765000Y-144888621D02*
X163235000Y-144888621D01*
X167805000Y-144848621D02*
X166540000Y-144848621D01*
X167843000Y-144808621D02*
X166540000Y-144808621D01*
X167880000Y-144768621D02*
X166540000Y-144768621D01*
X167916000Y-144728621D02*
X166540000Y-144728621D01*
X167950000Y-144688621D02*
X166540000Y-144688621D01*
X167984000Y-144648621D02*
X166540000Y-144648621D01*
X168016000Y-144608621D02*
X166540000Y-144608621D01*
X168048000Y-144568621D02*
X166540000Y-144568621D01*
X168078000Y-144528621D02*
X166540000Y-144528621D01*
X168107000Y-144488621D02*
X166540000Y-144488621D01*
X168136000Y-144448621D02*
X166540000Y-144448621D01*
X168164000Y-144408621D02*
X166540000Y-144408621D01*
X168190000Y-144368621D02*
X166540000Y-144368621D01*
X168216000Y-144328621D02*
X166540000Y-144328621D01*
X168242000Y-144288621D02*
X166540000Y-144288621D01*
X168266000Y-144248621D02*
X166540000Y-144248621D01*
X168290000Y-144208621D02*
X166540000Y-144208621D01*
X168312000Y-144168621D02*
X166540000Y-144168621D01*
X168334000Y-144128621D02*
X166540000Y-144128621D01*
X168356000Y-144088621D02*
X166540000Y-144088621D01*
X168376000Y-144048621D02*
X166540000Y-144048621D01*
X168396000Y-144008621D02*
X166540000Y-144008621D01*
X168416000Y-143968621D02*
X166540000Y-143968621D01*
X168434000Y-143928621D02*
X166540000Y-143928621D01*
X168452000Y-143888621D02*
X166540000Y-143888621D01*
X168470000Y-143848621D02*
X166540000Y-143848621D01*
X168486000Y-143808621D02*
X166540000Y-143808621D01*
X168502000Y-143768621D02*
X166540000Y-143768621D01*
X168518000Y-143728621D02*
X166540000Y-143728621D01*
X168533000Y-143688621D02*
X166540000Y-143688621D01*
X168547000Y-143648621D02*
X166540000Y-143648621D01*
X168561000Y-143608621D02*
X166540000Y-143608621D01*
X168574000Y-143568621D02*
X166540000Y-143568621D01*
X168586000Y-143528621D02*
X166540000Y-143528621D01*
X168598000Y-143488621D02*
X166540000Y-143488621D01*
X168610000Y-143448621D02*
X166540000Y-143448621D01*
X168621000Y-143408621D02*
X166540000Y-143408621D01*
X168631000Y-143368621D02*
X166540000Y-143368621D01*
X168641000Y-143328621D02*
X166540000Y-143328621D01*
X168650000Y-143288621D02*
X166540000Y-143288621D01*
X168659000Y-143247621D02*
X166540000Y-143247621D01*
X168667000Y-143207621D02*
X166540000Y-143207621D01*
X168675000Y-143167621D02*
X166540000Y-143167621D01*
X168682000Y-143127621D02*
X166540000Y-143127621D01*
X168689000Y-143087621D02*
X166540000Y-143087621D01*
X168695000Y-143047621D02*
X166540000Y-143047621D01*
X168701000Y-143007621D02*
X166540000Y-143007621D01*
X168706000Y-142967621D02*
X166540000Y-142967621D01*
X168711000Y-142927621D02*
X166540000Y-142927621D01*
X168715000Y-142887621D02*
X166540000Y-142887621D01*
X168718000Y-142847621D02*
X166540000Y-142847621D01*
X168722000Y-142807621D02*
X166540000Y-142807621D01*
X168724000Y-142767621D02*
X162276000Y-142767621D01*
X168727000Y-142727621D02*
X162273000Y-142727621D01*
X168728000Y-142687621D02*
X162272000Y-142687621D01*
X168730000Y-142567621D02*
X162270000Y-142567621D01*
X168730000Y-142607621D02*
X162270000Y-142607621D01*
X168730000Y-142647621D02*
X162270000Y-142647621D01*
X168770000Y-142567621D02*
G75*
G02*
X162230000Y-142567621I-3270000J0D01*
G01*
X162230000Y-142567621D02*
G75*
G02*
X168770000Y-142567621I3270000J0D01*
G01*
X155629000Y-127670000D02*
X155629000Y-137910000D01*
X158760000Y-127670000D02*
X158760000Y-137910000D01*
X160270000Y-127670000D02*
X155629000Y-127670000D01*
X160270000Y-127670000D02*
X160270000Y-137910000D01*
X160270000Y-130940000D02*
X158760000Y-130940000D01*
X160270000Y-134641000D02*
X158760000Y-134641000D01*
X160270000Y-137910000D02*
X155629000Y-137910000D01*
X170629000Y-127670000D02*
X170629000Y-137910000D01*
X173760000Y-127670000D02*
X173760000Y-137910000D01*
X175270000Y-127670000D02*
X170629000Y-127670000D01*
X175270000Y-127670000D02*
X175270000Y-137910000D01*
X175270000Y-130940000D02*
X173760000Y-130940000D01*
X175270000Y-134641000D02*
X173760000Y-134641000D01*
X175270000Y-137910000D02*
X170629000Y-137910000D01*
X150270000Y-141670000D02*
X156730000Y-141670000D01*
X150270000Y-141710000D02*
X156730000Y-141710000D01*
X150270000Y-141750000D02*
X156730000Y-141750000D01*
X150272000Y-141630000D02*
X156728000Y-141630000D01*
X150273000Y-141590000D02*
X156727000Y-141590000D01*
X150276000Y-141550000D02*
X156724000Y-141550000D01*
X150278000Y-141510000D02*
X152460000Y-141510000D01*
X150282000Y-141470000D02*
X152460000Y-141470000D01*
X150285000Y-141430000D02*
X152460000Y-141430000D01*
X150289000Y-141390000D02*
X152460000Y-141390000D01*
X150294000Y-141350000D02*
X152460000Y-141350000D01*
X150299000Y-141310000D02*
X152460000Y-141310000D01*
X150305000Y-141270000D02*
X152460000Y-141270000D01*
X150311000Y-141230000D02*
X152460000Y-141230000D01*
X150318000Y-141190000D02*
X152460000Y-141190000D01*
X150325000Y-141150000D02*
X152460000Y-141150000D01*
X150333000Y-141110000D02*
X152460000Y-141110000D01*
X150341000Y-141070000D02*
X152460000Y-141070000D01*
X150350000Y-141029000D02*
X152460000Y-141029000D01*
X150359000Y-140989000D02*
X152460000Y-140989000D01*
X150369000Y-140949000D02*
X152460000Y-140949000D01*
X150379000Y-140909000D02*
X152460000Y-140909000D01*
X150390000Y-140869000D02*
X152460000Y-140869000D01*
X150402000Y-140829000D02*
X152460000Y-140829000D01*
X150414000Y-140789000D02*
X152460000Y-140789000D01*
X150426000Y-140749000D02*
X152460000Y-140749000D01*
X150439000Y-140709000D02*
X152460000Y-140709000D01*
X150453000Y-140669000D02*
X152460000Y-140669000D01*
X150467000Y-140629000D02*
X152460000Y-140629000D01*
X150482000Y-140589000D02*
X152460000Y-140589000D01*
X150498000Y-140549000D02*
X152460000Y-140549000D01*
X150514000Y-140509000D02*
X152460000Y-140509000D01*
X150530000Y-140469000D02*
X152460000Y-140469000D01*
X150548000Y-140429000D02*
X152460000Y-140429000D01*
X150566000Y-140389000D02*
X152460000Y-140389000D01*
X150584000Y-140349000D02*
X152460000Y-140349000D01*
X150604000Y-140309000D02*
X152460000Y-140309000D01*
X150624000Y-140269000D02*
X152460000Y-140269000D01*
X150644000Y-140229000D02*
X152460000Y-140229000D01*
X150666000Y-140189000D02*
X152460000Y-140189000D01*
X150688000Y-140149000D02*
X152460000Y-140149000D01*
X150710000Y-140109000D02*
X152460000Y-140109000D01*
X150734000Y-140069000D02*
X152460000Y-140069000D01*
X150758000Y-140029000D02*
X152460000Y-140029000D01*
X150784000Y-139989000D02*
X152460000Y-139989000D01*
X150810000Y-139949000D02*
X152460000Y-139949000D01*
X150836000Y-139909000D02*
X152460000Y-139909000D01*
X150864000Y-139869000D02*
X152460000Y-139869000D01*
X150893000Y-139829000D02*
X152460000Y-139829000D01*
X150922000Y-139789000D02*
X152460000Y-139789000D01*
X150952000Y-139749000D02*
X152460000Y-139749000D01*
X150984000Y-139709000D02*
X152460000Y-139709000D01*
X151016000Y-139669000D02*
X152460000Y-139669000D01*
X151050000Y-139629000D02*
X152460000Y-139629000D01*
X151084000Y-139589000D02*
X152460000Y-139589000D01*
X151120000Y-139549000D02*
X152460000Y-139549000D01*
X151157000Y-139509000D02*
X152460000Y-139509000D01*
X151195000Y-139469000D02*
X152460000Y-139469000D01*
X151235000Y-139429000D02*
X155765000Y-139429000D01*
X151276000Y-139389000D02*
X155724000Y-139389000D01*
X151318000Y-139349000D02*
X155682000Y-139349000D01*
X151346000Y-144935241D02*
X151976000Y-144935241D01*
X151363000Y-139309000D02*
X155637000Y-139309000D01*
X151408000Y-139269000D02*
X155592000Y-139269000D01*
X151456000Y-139229000D02*
X155544000Y-139229000D01*
X151505000Y-139189000D02*
X155495000Y-139189000D01*
X151556000Y-139149000D02*
X155444000Y-139149000D01*
X151610000Y-139109000D02*
X155390000Y-139109000D01*
X151661000Y-145250241D02*
X151661000Y-144620241D01*
X151666000Y-139069000D02*
X155334000Y-139069000D01*
X151724000Y-139029000D02*
X155276000Y-139029000D01*
X151786000Y-138989000D02*
X155214000Y-138989000D01*
X151850000Y-138949000D02*
X155150000Y-138949000D01*
X151919000Y-138909000D02*
X155081000Y-138909000D01*
X151991000Y-138869000D02*
X155009000Y-138869000D01*
X152068000Y-138829000D02*
X154932000Y-138829000D01*
X152150000Y-138789000D02*
X154850000Y-138789000D01*
X152238000Y-138749000D02*
X154762000Y-138749000D01*
X152335000Y-138709000D02*
X154665000Y-138709000D01*
X152441000Y-138669000D02*
X154559000Y-138669000D01*
X152560000Y-138629000D02*
X154440000Y-138629000D01*
X152698000Y-138589000D02*
X154302000Y-138589000D01*
X152867000Y-138549000D02*
X154133000Y-138549000D01*
X153098000Y-138509000D02*
X153902000Y-138509000D01*
X154540000Y-139469000D02*
X155805000Y-139469000D01*
X154540000Y-139509000D02*
X155843000Y-139509000D01*
X154540000Y-139549000D02*
X155880000Y-139549000D01*
X154540000Y-139589000D02*
X155916000Y-139589000D01*
X154540000Y-139629000D02*
X155950000Y-139629000D01*
X154540000Y-139669000D02*
X155984000Y-139669000D01*
X154540000Y-139709000D02*
X156016000Y-139709000D01*
X154540000Y-139749000D02*
X156048000Y-139749000D01*
X154540000Y-139789000D02*
X156078000Y-139789000D01*
X154540000Y-139829000D02*
X156107000Y-139829000D01*
X154540000Y-139869000D02*
X156136000Y-139869000D01*
X154540000Y-139909000D02*
X156164000Y-139909000D01*
X154540000Y-139949000D02*
X156190000Y-139949000D01*
X154540000Y-139989000D02*
X156216000Y-139989000D01*
X154540000Y-140029000D02*
X156242000Y-140029000D01*
X154540000Y-140069000D02*
X156266000Y-140069000D01*
X154540000Y-140109000D02*
X156290000Y-140109000D01*
X154540000Y-140149000D02*
X156312000Y-140149000D01*
X154540000Y-140189000D02*
X156334000Y-140189000D01*
X154540000Y-140229000D02*
X156356000Y-140229000D01*
X154540000Y-140269000D02*
X156376000Y-140269000D01*
X154540000Y-140309000D02*
X156396000Y-140309000D01*
X154540000Y-140349000D02*
X156416000Y-140349000D01*
X154540000Y-140389000D02*
X156434000Y-140389000D01*
X154540000Y-140429000D02*
X156452000Y-140429000D01*
X154540000Y-140469000D02*
X156470000Y-140469000D01*
X154540000Y-140509000D02*
X156486000Y-140509000D01*
X154540000Y-140549000D02*
X156502000Y-140549000D01*
X154540000Y-140589000D02*
X156518000Y-140589000D01*
X154540000Y-140629000D02*
X156533000Y-140629000D01*
X154540000Y-140669000D02*
X156547000Y-140669000D01*
X154540000Y-140709000D02*
X156561000Y-140709000D01*
X154540000Y-140749000D02*
X156574000Y-140749000D01*
X154540000Y-140789000D02*
X156586000Y-140789000D01*
X154540000Y-140829000D02*
X156598000Y-140829000D01*
X154540000Y-140869000D02*
X156610000Y-140869000D01*
X154540000Y-140909000D02*
X156621000Y-140909000D01*
X154540000Y-140949000D02*
X156631000Y-140949000D01*
X154540000Y-140989000D02*
X156641000Y-140989000D01*
X154540000Y-141029000D02*
X156650000Y-141029000D01*
X154540000Y-141070000D02*
X156659000Y-141070000D01*
X154540000Y-141110000D02*
X156667000Y-141110000D01*
X154540000Y-141150000D02*
X156675000Y-141150000D01*
X154540000Y-141190000D02*
X156682000Y-141190000D01*
X154540000Y-141230000D02*
X156689000Y-141230000D01*
X154540000Y-141270000D02*
X156695000Y-141270000D01*
X154540000Y-141310000D02*
X156701000Y-141310000D01*
X154540000Y-141350000D02*
X156706000Y-141350000D01*
X154540000Y-141390000D02*
X156711000Y-141390000D01*
X154540000Y-141430000D02*
X156715000Y-141430000D01*
X154540000Y-141470000D02*
X156718000Y-141470000D01*
X154540000Y-141510000D02*
X156722000Y-141510000D01*
X156770000Y-141750000D02*
G75*
G02*
X150230000Y-141750000I-3270000J0D01*
G01*
X150230000Y-141750000D02*
G75*
G02*
X156770000Y-141750000I3270000J0D01*
G01*
X139237258Y-142522500D02*
X138762742Y-142522500D01*
X139237258Y-141477500D02*
X138762742Y-141477500D01*
X96005000Y-132500000D02*
X96005000Y-134380000D01*
X96005000Y-132500000D02*
X96005000Y-130620000D01*
X101185000Y-132500000D02*
X101185000Y-134380000D01*
X101185000Y-132500000D02*
X101185000Y-130620000D01*
X96105000Y-135202500D02*
X95775000Y-135442500D01*
X95775000Y-134962500D01*
X96105000Y-135202500D01*
G36*
X96105000Y-135202500D02*
G01*
X95775000Y-135442500D01*
X95775000Y-134962500D01*
X96105000Y-135202500D01*
G37*
X118710000Y-132807621D02*
X116528000Y-132807621D01*
X118710000Y-132847621D02*
X116532000Y-132847621D01*
X118710000Y-132887621D02*
X116535000Y-132887621D01*
X118710000Y-132927621D02*
X116539000Y-132927621D01*
X118710000Y-132967621D02*
X116544000Y-132967621D01*
X118710000Y-133007621D02*
X116549000Y-133007621D01*
X118710000Y-133047621D02*
X116555000Y-133047621D01*
X118710000Y-133087621D02*
X116561000Y-133087621D01*
X118710000Y-133127621D02*
X116568000Y-133127621D01*
X118710000Y-133167621D02*
X116575000Y-133167621D01*
X118710000Y-133207621D02*
X116583000Y-133207621D01*
X118710000Y-133247621D02*
X116591000Y-133247621D01*
X118710000Y-133288621D02*
X116600000Y-133288621D01*
X118710000Y-133328621D02*
X116609000Y-133328621D01*
X118710000Y-133368621D02*
X116619000Y-133368621D01*
X118710000Y-133408621D02*
X116629000Y-133408621D01*
X118710000Y-133448621D02*
X116640000Y-133448621D01*
X118710000Y-133488621D02*
X116652000Y-133488621D01*
X118710000Y-133528621D02*
X116664000Y-133528621D01*
X118710000Y-133568621D02*
X116676000Y-133568621D01*
X118710000Y-133608621D02*
X116689000Y-133608621D01*
X118710000Y-133648621D02*
X116703000Y-133648621D01*
X118710000Y-133688621D02*
X116717000Y-133688621D01*
X118710000Y-133728621D02*
X116732000Y-133728621D01*
X118710000Y-133768621D02*
X116748000Y-133768621D01*
X118710000Y-133808621D02*
X116764000Y-133808621D01*
X118710000Y-133848621D02*
X116780000Y-133848621D01*
X118710000Y-133888621D02*
X116798000Y-133888621D01*
X118710000Y-133928621D02*
X116816000Y-133928621D01*
X118710000Y-133968621D02*
X116834000Y-133968621D01*
X118710000Y-134008621D02*
X116854000Y-134008621D01*
X118710000Y-134048621D02*
X116874000Y-134048621D01*
X118710000Y-134088621D02*
X116894000Y-134088621D01*
X118710000Y-134128621D02*
X116916000Y-134128621D01*
X118710000Y-134168621D02*
X116938000Y-134168621D01*
X118710000Y-134208621D02*
X116960000Y-134208621D01*
X118710000Y-134248621D02*
X116984000Y-134248621D01*
X118710000Y-134288621D02*
X117008000Y-134288621D01*
X118710000Y-134328621D02*
X117034000Y-134328621D01*
X118710000Y-134368621D02*
X117060000Y-134368621D01*
X118710000Y-134408621D02*
X117086000Y-134408621D01*
X118710000Y-134448621D02*
X117114000Y-134448621D01*
X118710000Y-134488621D02*
X117143000Y-134488621D01*
X118710000Y-134528621D02*
X117172000Y-134528621D01*
X118710000Y-134568621D02*
X117202000Y-134568621D01*
X118710000Y-134608621D02*
X117234000Y-134608621D01*
X118710000Y-134648621D02*
X117266000Y-134648621D01*
X118710000Y-134688621D02*
X117300000Y-134688621D01*
X118710000Y-134728621D02*
X117334000Y-134728621D01*
X118710000Y-134768621D02*
X117370000Y-134768621D01*
X118710000Y-134808621D02*
X117407000Y-134808621D01*
X118710000Y-134848621D02*
X117445000Y-134848621D01*
X120152000Y-135808621D02*
X119348000Y-135808621D01*
X120383000Y-135768621D02*
X119117000Y-135768621D01*
X120552000Y-135728621D02*
X118948000Y-135728621D01*
X120690000Y-135688621D02*
X118810000Y-135688621D01*
X120809000Y-135648621D02*
X118691000Y-135648621D01*
X120915000Y-135608621D02*
X118585000Y-135608621D01*
X121012000Y-135568621D02*
X118488000Y-135568621D01*
X121100000Y-135528621D02*
X118400000Y-135528621D01*
X121182000Y-135488621D02*
X118318000Y-135488621D01*
X121259000Y-135448621D02*
X118241000Y-135448621D01*
X121331000Y-135408621D02*
X118169000Y-135408621D01*
X121400000Y-135368621D02*
X118100000Y-135368621D01*
X121464000Y-135328621D02*
X118036000Y-135328621D01*
X121526000Y-135288621D02*
X117974000Y-135288621D01*
X121584000Y-135248621D02*
X117916000Y-135248621D01*
X121589000Y-129067380D02*
X121589000Y-129697380D01*
X121640000Y-135208621D02*
X117860000Y-135208621D01*
X121694000Y-135168621D02*
X117806000Y-135168621D01*
X121745000Y-135128621D02*
X117755000Y-135128621D01*
X121794000Y-135088621D02*
X117706000Y-135088621D01*
X121842000Y-135048621D02*
X117658000Y-135048621D01*
X121887000Y-135008621D02*
X117613000Y-135008621D01*
X121904000Y-129382380D02*
X121274000Y-129382380D01*
X121932000Y-134968621D02*
X117568000Y-134968621D01*
X121974000Y-134928621D02*
X117526000Y-134928621D01*
X122015000Y-134888621D02*
X117485000Y-134888621D01*
X122055000Y-134848621D02*
X120790000Y-134848621D01*
X122093000Y-134808621D02*
X120790000Y-134808621D01*
X122130000Y-134768621D02*
X120790000Y-134768621D01*
X122166000Y-134728621D02*
X120790000Y-134728621D01*
X122200000Y-134688621D02*
X120790000Y-134688621D01*
X122234000Y-134648621D02*
X120790000Y-134648621D01*
X122266000Y-134608621D02*
X120790000Y-134608621D01*
X122298000Y-134568621D02*
X120790000Y-134568621D01*
X122328000Y-134528621D02*
X120790000Y-134528621D01*
X122357000Y-134488621D02*
X120790000Y-134488621D01*
X122386000Y-134448621D02*
X120790000Y-134448621D01*
X122414000Y-134408621D02*
X120790000Y-134408621D01*
X122440000Y-134368621D02*
X120790000Y-134368621D01*
X122466000Y-134328621D02*
X120790000Y-134328621D01*
X122492000Y-134288621D02*
X120790000Y-134288621D01*
X122516000Y-134248621D02*
X120790000Y-134248621D01*
X122540000Y-134208621D02*
X120790000Y-134208621D01*
X122562000Y-134168621D02*
X120790000Y-134168621D01*
X122584000Y-134128621D02*
X120790000Y-134128621D01*
X122606000Y-134088621D02*
X120790000Y-134088621D01*
X122626000Y-134048621D02*
X120790000Y-134048621D01*
X122646000Y-134008621D02*
X120790000Y-134008621D01*
X122666000Y-133968621D02*
X120790000Y-133968621D01*
X122684000Y-133928621D02*
X120790000Y-133928621D01*
X122702000Y-133888621D02*
X120790000Y-133888621D01*
X122720000Y-133848621D02*
X120790000Y-133848621D01*
X122736000Y-133808621D02*
X120790000Y-133808621D01*
X122752000Y-133768621D02*
X120790000Y-133768621D01*
X122768000Y-133728621D02*
X120790000Y-133728621D01*
X122783000Y-133688621D02*
X120790000Y-133688621D01*
X122797000Y-133648621D02*
X120790000Y-133648621D01*
X122811000Y-133608621D02*
X120790000Y-133608621D01*
X122824000Y-133568621D02*
X120790000Y-133568621D01*
X122836000Y-133528621D02*
X120790000Y-133528621D01*
X122848000Y-133488621D02*
X120790000Y-133488621D01*
X122860000Y-133448621D02*
X120790000Y-133448621D01*
X122871000Y-133408621D02*
X120790000Y-133408621D01*
X122881000Y-133368621D02*
X120790000Y-133368621D01*
X122891000Y-133328621D02*
X120790000Y-133328621D01*
X122900000Y-133288621D02*
X120790000Y-133288621D01*
X122909000Y-133247621D02*
X120790000Y-133247621D01*
X122917000Y-133207621D02*
X120790000Y-133207621D01*
X122925000Y-133167621D02*
X120790000Y-133167621D01*
X122932000Y-133127621D02*
X120790000Y-133127621D01*
X122939000Y-133087621D02*
X120790000Y-133087621D01*
X122945000Y-133047621D02*
X120790000Y-133047621D01*
X122951000Y-133007621D02*
X120790000Y-133007621D01*
X122956000Y-132967621D02*
X120790000Y-132967621D01*
X122961000Y-132927621D02*
X120790000Y-132927621D01*
X122965000Y-132887621D02*
X120790000Y-132887621D01*
X122968000Y-132847621D02*
X120790000Y-132847621D01*
X122972000Y-132807621D02*
X120790000Y-132807621D01*
X122974000Y-132767621D02*
X116526000Y-132767621D01*
X122977000Y-132727621D02*
X116523000Y-132727621D01*
X122978000Y-132687621D02*
X116522000Y-132687621D01*
X122980000Y-132567621D02*
X116520000Y-132567621D01*
X122980000Y-132607621D02*
X116520000Y-132607621D01*
X122980000Y-132647621D02*
X116520000Y-132647621D01*
X123020000Y-132567621D02*
G75*
G02*
X116480000Y-132567621I-3270000J0D01*
G01*
X116480000Y-132567621D02*
G75*
G02*
X123020000Y-132567621I3270000J0D01*
G01*
X91190000Y-117290000D02*
X91190000Y-121010000D01*
X91190000Y-119100000D02*
X91590000Y-119100000D01*
X91190000Y-120100000D02*
X91590000Y-120100000D01*
X91190000Y-121010000D02*
X107910000Y-121010000D01*
X91590000Y-117690000D02*
X91590000Y-120610000D01*
X91590000Y-120610000D02*
X107510000Y-120610000D01*
X93450000Y-118090000D02*
X93450000Y-117690000D01*
X93550000Y-117690000D02*
X93550000Y-118090000D01*
X93650000Y-117690000D02*
X93650000Y-118090000D01*
X93650000Y-118090000D02*
X93450000Y-118090000D01*
X94950000Y-118090000D02*
X94950000Y-117690000D01*
X95050000Y-117690000D02*
X95050000Y-118090000D01*
X95150000Y-117690000D02*
X95150000Y-118090000D01*
X95150000Y-118090000D02*
X94950000Y-118090000D01*
X96450000Y-118090000D02*
X96450000Y-117690000D01*
X96550000Y-117690000D02*
X96550000Y-118090000D01*
X96650000Y-117690000D02*
X96650000Y-118090000D01*
X96650000Y-118090000D02*
X96450000Y-118090000D01*
X97950000Y-118090000D02*
X97950000Y-117690000D01*
X98050000Y-117690000D02*
X98050000Y-118090000D01*
X98150000Y-117690000D02*
X98150000Y-118090000D01*
X98150000Y-118090000D02*
X97950000Y-118090000D01*
X99450000Y-118090000D02*
X99450000Y-117690000D01*
X99550000Y-117690000D02*
X99550000Y-118090000D01*
X99650000Y-117690000D02*
X99650000Y-118090000D01*
X99650000Y-118090000D02*
X99450000Y-118090000D01*
X100950000Y-118090000D02*
X100950000Y-117690000D01*
X101050000Y-117690000D02*
X101050000Y-118090000D01*
X101150000Y-117690000D02*
X101150000Y-118090000D01*
X101150000Y-118090000D02*
X100950000Y-118090000D01*
X102450000Y-118090000D02*
X102450000Y-117690000D01*
X102550000Y-117690000D02*
X102550000Y-118090000D01*
X102650000Y-117690000D02*
X102650000Y-118090000D01*
X102650000Y-118090000D02*
X102450000Y-118090000D01*
X103950000Y-118090000D02*
X103950000Y-117690000D01*
X104050000Y-117690000D02*
X104050000Y-118090000D01*
X104150000Y-117690000D02*
X104150000Y-118090000D01*
X104150000Y-118090000D02*
X103950000Y-118090000D01*
X105450000Y-118090000D02*
X105450000Y-117690000D01*
X105550000Y-117690000D02*
X105550000Y-118090000D01*
X105650000Y-117690000D02*
X105650000Y-118090000D01*
X105650000Y-118090000D02*
X105450000Y-118090000D01*
X106600000Y-121010000D02*
X106600000Y-121210000D01*
X106600000Y-121110000D02*
X106900000Y-121110000D01*
X106600000Y-121210000D02*
X106900000Y-121210000D01*
X106900000Y-121210000D02*
X106900000Y-121010000D01*
X107310000Y-121210000D02*
X108110000Y-121210000D01*
X107510000Y-117690000D02*
X91590000Y-117690000D01*
X107510000Y-120610000D02*
X107510000Y-117690000D01*
X107910000Y-117290000D02*
X91190000Y-117290000D01*
X107910000Y-119100000D02*
X107510000Y-119100000D01*
X107910000Y-120100000D02*
X107510000Y-120100000D01*
X107910000Y-121010000D02*
X107910000Y-117290000D01*
X108110000Y-121210000D02*
X108110000Y-120410000D01*
X133000000Y-138940000D02*
X131050000Y-138940000D01*
X133000000Y-138940000D02*
X134950000Y-138940000D01*
X133000000Y-144060000D02*
X131050000Y-144060000D01*
X133000000Y-144060000D02*
X134950000Y-144060000D01*
X135940000Y-144295000D02*
X135460000Y-144295000D01*
X135700000Y-143965000D01*
X135940000Y-144295000D01*
G36*
X135940000Y-144295000D02*
G01*
X135460000Y-144295000D01*
X135700000Y-143965000D01*
X135940000Y-144295000D01*
G37*
%LPC*%
D12*
X97000000Y-143000000D03*
D13*
X102080000Y-148080000D03*
D12*
X99540000Y-143000000D03*
D13*
X91920000Y-148080000D03*
D14*
X150700000Y-119600000D03*
D15*
X149200000Y-119600000D03*
X147700000Y-119600000D03*
X146200000Y-119600000D03*
X144700000Y-119600000D03*
X143200000Y-119600000D03*
X141700000Y-119600000D03*
X140200000Y-119600000D03*
X138700000Y-119600000D03*
X137200000Y-119600000D03*
D12*
X117000000Y-143000000D03*
D13*
X122080000Y-148080000D03*
D12*
X119540000Y-143000000D03*
D13*
X111920000Y-148080000D03*
D16*
X142000000Y-135330000D03*
X142000000Y-132790000D03*
D17*
X142000000Y-130250000D03*
D18*
X139467500Y-137160000D03*
X137392500Y-137160000D03*
X169418000Y-128524000D03*
X167343000Y-128524000D03*
D19*
X94825000Y-133000000D03*
X93175000Y-133000000D03*
D18*
X169439500Y-137160000D03*
X167364500Y-137160000D03*
D20*
X131300000Y-149000000D03*
D21*
X139100000Y-149000000D03*
D14*
X172900000Y-119600000D03*
D15*
X171400000Y-119600000D03*
X169900000Y-119600000D03*
X168400000Y-119600000D03*
X166900000Y-119600000D03*
X165400000Y-119600000D03*
X163900000Y-119600000D03*
X162400000Y-119600000D03*
X160900000Y-119600000D03*
X159400000Y-119600000D03*
D17*
X127000000Y-130250000D03*
D16*
X127000000Y-132790000D03*
X127000000Y-135330000D03*
D22*
X138175000Y-144000000D03*
X139825000Y-144000000D03*
D23*
X111500000Y-129817621D03*
D24*
X111500000Y-132317621D03*
D20*
X146900000Y-149000000D03*
D21*
X154700000Y-149000000D03*
X162500000Y-149000000D03*
X170300000Y-149000000D03*
X178100000Y-149000000D03*
D18*
X139467500Y-128524000D03*
X137392500Y-128524000D03*
D14*
X128500000Y-119600000D03*
D15*
X127000000Y-119600000D03*
X125500000Y-119600000D03*
X124000000Y-119600000D03*
X122500000Y-119600000D03*
X121000000Y-119600000D03*
X119500000Y-119600000D03*
X118000000Y-119600000D03*
X116500000Y-119600000D03*
X115000000Y-119600000D03*
D25*
X143595000Y-145037500D03*
X144865000Y-145037500D03*
X146135000Y-145037500D03*
X147405000Y-145037500D03*
X147405000Y-139962500D03*
X146135000Y-139962500D03*
X144865000Y-139962500D03*
X143595000Y-139962500D03*
D23*
X165500000Y-141317621D03*
D24*
X165500000Y-143817621D03*
D17*
X157000000Y-130250000D03*
D16*
X157000000Y-132790000D03*
X157000000Y-135330000D03*
D17*
X172000000Y-130250000D03*
D16*
X172000000Y-132790000D03*
X172000000Y-135330000D03*
D23*
X153500000Y-143000000D03*
D24*
X153500000Y-140500000D03*
D19*
X139825000Y-142000000D03*
X138175000Y-142000000D03*
D25*
X96690000Y-135037500D03*
X97960000Y-135037500D03*
X99230000Y-135037500D03*
X100500000Y-135037500D03*
X100500000Y-129962500D03*
X99230000Y-129962500D03*
X97960000Y-129962500D03*
X96690000Y-129962500D03*
D23*
X119750000Y-131317621D03*
D24*
X119750000Y-133817621D03*
D14*
X106300000Y-119600000D03*
D15*
X104800000Y-119600000D03*
X103300000Y-119600000D03*
X101800000Y-119600000D03*
X100300000Y-119600000D03*
X98800000Y-119600000D03*
X97300000Y-119600000D03*
X95800000Y-119600000D03*
X94300000Y-119600000D03*
X92800000Y-119600000D03*
D26*
X135475000Y-143405000D03*
X135475000Y-142135000D03*
X135475000Y-140865000D03*
X135475000Y-139595000D03*
X130525000Y-139595000D03*
X130525000Y-140865000D03*
X130525000Y-142135000D03*
X130525000Y-143405000D03*
%LPD*%
M02*
