G04 #@! TF.GenerationSoftware,KiCad,Pcbnew,8.0.7*
G04 #@! TF.CreationDate,2025-05-28T10:08:30-07:00*
G04 #@! TF.ProjectId,psu_linear_reg,7073755f-6c69-46e6-9561-725f7265672e,rev?*
G04 #@! TF.SameCoordinates,Original*
G04 #@! TF.FileFunction,Copper,L2,Bot*
G04 #@! TF.FilePolarity,Positive*
%FSLAX46Y46*%
G04 Gerber Fmt 4.6, Leading zero omitted, Abs format (unit mm)*
G04 Created by KiCad (PCBNEW 8.0.7) date 2025-05-28 10:08:30*
%MOMM*%
%LPD*%
G01*
G04 APERTURE LIST*
G04 Aperture macros list*
%AMRoundRect*
0 Rectangle with rounded corners*
0 $1 Rounding radius*
0 $2 $3 $4 $5 $6 $7 $8 $9 X,Y pos of 4 corners*
0 Add a 4 corners polygon primitive as box body*
4,1,4,$2,$3,$4,$5,$6,$7,$8,$9,$2,$3,0*
0 Add four circle primitives for the rounded corners*
1,1,$1+$1,$2,$3*
1,1,$1+$1,$4,$5*
1,1,$1+$1,$6,$7*
1,1,$1+$1,$8,$9*
0 Add four rect primitives between the rounded corners*
20,1,$1+$1,$2,$3,$4,$5,0*
20,1,$1+$1,$4,$5,$6,$7,0*
20,1,$1+$1,$6,$7,$8,$9,0*
20,1,$1+$1,$8,$9,$2,$3,0*%
G04 Aperture macros list end*
G04 #@! TA.AperFunction,ComponentPad*
%ADD10O,1.600000X2.500000*%
G04 #@! TD*
G04 #@! TA.AperFunction,ComponentPad*
%ADD11O,3.500000X7.000000*%
G04 #@! TD*
G04 #@! TA.AperFunction,ComponentPad*
%ADD12RoundRect,0.250000X0.265000X0.615000X-0.265000X0.615000X-0.265000X-0.615000X0.265000X-0.615000X0*%
G04 #@! TD*
G04 #@! TA.AperFunction,ComponentPad*
%ADD13O,1.030000X1.730000*%
G04 #@! TD*
G04 #@! TA.AperFunction,ComponentPad*
%ADD14R,2.000000X1.905000*%
G04 #@! TD*
G04 #@! TA.AperFunction,ComponentPad*
%ADD15O,2.000000X1.905000*%
G04 #@! TD*
G04 #@! TA.AperFunction,ComponentPad*
%ADD16RoundRect,0.250002X-1.699998X-1.699998X1.699998X-1.699998X1.699998X1.699998X-1.699998X1.699998X0*%
G04 #@! TD*
G04 #@! TA.AperFunction,ComponentPad*
%ADD17C,3.900000*%
G04 #@! TD*
G04 #@! TA.AperFunction,ComponentPad*
%ADD18R,1.600000X1.600000*%
G04 #@! TD*
G04 #@! TA.AperFunction,ComponentPad*
%ADD19C,1.600000*%
G04 #@! TD*
G04 #@! TA.AperFunction,ViaPad*
%ADD20C,0.800000*%
G04 #@! TD*
G04 #@! TA.AperFunction,Conductor*
%ADD21C,0.500000*%
G04 #@! TD*
G04 APERTURE END LIST*
D10*
X97000000Y-143000000D03*
D11*
X102080000Y-148080000D03*
D10*
X99540000Y-143000000D03*
D11*
X91920000Y-148080000D03*
D12*
X150700000Y-119600000D03*
D13*
X149200000Y-119600000D03*
X147700000Y-119600000D03*
X146200000Y-119600000D03*
X144700000Y-119600000D03*
X143200000Y-119600000D03*
X141700000Y-119600000D03*
X140200000Y-119600000D03*
X138700000Y-119600000D03*
X137200000Y-119600000D03*
D10*
X117000000Y-143000000D03*
D11*
X122080000Y-148080000D03*
D10*
X119540000Y-143000000D03*
D11*
X111920000Y-148080000D03*
D14*
X142000000Y-130250000D03*
D15*
X142000000Y-132790000D03*
X142000000Y-135330000D03*
D16*
X131300000Y-149000000D03*
D17*
X139100000Y-149000000D03*
D12*
X172900000Y-119600000D03*
D13*
X171400000Y-119600000D03*
X169900000Y-119600000D03*
X168400000Y-119600000D03*
X166900000Y-119600000D03*
X165400000Y-119600000D03*
X163900000Y-119600000D03*
X162400000Y-119600000D03*
X160900000Y-119600000D03*
X159400000Y-119600000D03*
D14*
X127000000Y-130250000D03*
D15*
X127000000Y-132790000D03*
X127000000Y-135330000D03*
D18*
X111500000Y-129817621D03*
D19*
X111500000Y-132317621D03*
D16*
X146900000Y-149000000D03*
D17*
X154700000Y-149000000D03*
X162500000Y-149000000D03*
X170300000Y-149000000D03*
X178100000Y-149000000D03*
D12*
X128500000Y-119600000D03*
D13*
X127000000Y-119600000D03*
X125500000Y-119600000D03*
X124000000Y-119600000D03*
X122500000Y-119600000D03*
X121000000Y-119600000D03*
X119500000Y-119600000D03*
X118000000Y-119600000D03*
X116500000Y-119600000D03*
X115000000Y-119600000D03*
D18*
X165500000Y-141317621D03*
D19*
X165500000Y-143817621D03*
D14*
X157000000Y-130250000D03*
D15*
X157000000Y-132790000D03*
X157000000Y-135330000D03*
D14*
X172000000Y-130250000D03*
D15*
X172000000Y-132790000D03*
X172000000Y-135330000D03*
D18*
X153500000Y-143000000D03*
D19*
X153500000Y-140500000D03*
D18*
X119750000Y-131317621D03*
D19*
X119750000Y-133817621D03*
D12*
X106300000Y-119600000D03*
D13*
X104800000Y-119600000D03*
X103300000Y-119600000D03*
X101800000Y-119600000D03*
X100300000Y-119600000D03*
X98800000Y-119600000D03*
X97300000Y-119600000D03*
X95800000Y-119600000D03*
X94300000Y-119600000D03*
X92800000Y-119600000D03*
D20*
X144700000Y-124600000D03*
X165400000Y-124600000D03*
X121000000Y-124600000D03*
X146200000Y-125600000D03*
X124000000Y-125600000D03*
X168400000Y-125600000D03*
X160900000Y-126600000D03*
X116500000Y-126600000D03*
X149200000Y-126600000D03*
X129000000Y-123600000D03*
X155250000Y-128250000D03*
D21*
X142000000Y-144100000D02*
X146900000Y-149000000D01*
X144700000Y-124600000D02*
X144700000Y-132630000D01*
X165400000Y-124600000D02*
X165400000Y-119600000D01*
X142000000Y-135330000D02*
X142000000Y-144100000D01*
X144700000Y-132630000D02*
X142000000Y-135330000D01*
X121000000Y-124600000D02*
X121000000Y-119600000D01*
X144700000Y-124600000D02*
X144700000Y-119600000D01*
X146200000Y-125600000D02*
X146200000Y-119600000D01*
X124000000Y-119600000D02*
X124000000Y-125600000D01*
X168400000Y-125600000D02*
X168400000Y-119600000D01*
X160900000Y-126600000D02*
X160900000Y-119600000D01*
X149200000Y-119600000D02*
X149200000Y-126600000D01*
X116500000Y-119600000D02*
X116500000Y-126600000D01*
X129000000Y-123600000D02*
X129000000Y-133330000D01*
X129000000Y-133330000D02*
X127000000Y-135330000D01*
X170000000Y-128250000D02*
X172000000Y-130250000D01*
X155250000Y-128250000D02*
X170000000Y-128250000D01*
X127000000Y-132790000D02*
X126777621Y-132567621D01*
G04 #@! TA.AperFunction,Conductor*
G36*
X92201848Y-118219685D02*
G01*
X92247603Y-118272489D01*
X92257547Y-118341647D01*
X92228522Y-118405203D01*
X92203700Y-118427102D01*
X92152656Y-118461208D01*
X92152652Y-118461211D01*
X92011211Y-118602652D01*
X92011208Y-118602656D01*
X91900078Y-118768973D01*
X91900071Y-118768986D01*
X91823526Y-118953784D01*
X91823523Y-118953796D01*
X91784500Y-119149977D01*
X91784500Y-120050022D01*
X91823523Y-120246203D01*
X91823526Y-120246215D01*
X91900071Y-120431013D01*
X91900078Y-120431026D01*
X92011208Y-120597343D01*
X92011211Y-120597347D01*
X92152652Y-120738788D01*
X92152656Y-120738791D01*
X92318973Y-120849921D01*
X92318986Y-120849928D01*
X92502625Y-120925993D01*
X92503789Y-120926475D01*
X92647185Y-120954998D01*
X92699977Y-120965499D01*
X92699981Y-120965500D01*
X92699982Y-120965500D01*
X92900019Y-120965500D01*
X92900020Y-120965499D01*
X93096211Y-120926475D01*
X93281020Y-120849925D01*
X93447344Y-120738791D01*
X93462318Y-120723816D01*
X93523639Y-120690331D01*
X93593331Y-120695314D01*
X93637681Y-120723816D01*
X93652264Y-120738399D01*
X93652657Y-120738792D01*
X93818973Y-120849921D01*
X93818986Y-120849928D01*
X94002625Y-120925993D01*
X94003789Y-120926475D01*
X94147185Y-120954998D01*
X94199977Y-120965499D01*
X94199981Y-120965500D01*
X94199982Y-120965500D01*
X94400019Y-120965500D01*
X94400020Y-120965499D01*
X94596211Y-120926475D01*
X94781020Y-120849925D01*
X94947344Y-120738791D01*
X94962671Y-120723463D01*
X95023989Y-120689978D01*
X95093681Y-120694959D01*
X95138034Y-120723462D01*
X95152971Y-120738399D01*
X95152975Y-120738402D01*
X95319210Y-120849477D01*
X95319223Y-120849484D01*
X95503929Y-120925991D01*
X95503936Y-120925993D01*
X95550000Y-120935155D01*
X95550000Y-119866189D01*
X95575884Y-119892073D01*
X95659115Y-119940126D01*
X95751947Y-119965000D01*
X95848053Y-119965000D01*
X95940885Y-119940126D01*
X96024116Y-119892073D01*
X96050000Y-119866189D01*
X96050000Y-120935154D01*
X96096063Y-120925993D01*
X96096070Y-120925991D01*
X96280776Y-120849484D01*
X96280789Y-120849477D01*
X96447023Y-120738403D01*
X96461962Y-120723464D01*
X96523285Y-120689977D01*
X96592977Y-120694960D01*
X96637329Y-120723464D01*
X96652653Y-120738789D01*
X96652656Y-120738791D01*
X96818973Y-120849921D01*
X96818986Y-120849928D01*
X97002625Y-120925993D01*
X97003789Y-120926475D01*
X97147185Y-120954998D01*
X97199977Y-120965499D01*
X97199981Y-120965500D01*
X97199982Y-120965500D01*
X97400019Y-120965500D01*
X97400020Y-120965499D01*
X97596211Y-120926475D01*
X97781020Y-120849925D01*
X97947344Y-120738791D01*
X97962318Y-120723816D01*
X98023639Y-120690331D01*
X98093331Y-120695314D01*
X98137681Y-120723816D01*
X98152264Y-120738399D01*
X98152657Y-120738792D01*
X98318973Y-120849921D01*
X98318986Y-120849928D01*
X98502625Y-120925993D01*
X98503789Y-120926475D01*
X98647185Y-120954998D01*
X98699977Y-120965499D01*
X98699981Y-120965500D01*
X98699982Y-120965500D01*
X98900019Y-120965500D01*
X98900020Y-120965499D01*
X99096211Y-120926475D01*
X99281020Y-120849925D01*
X99447344Y-120738791D01*
X99462318Y-120723816D01*
X99523639Y-120690331D01*
X99593331Y-120695314D01*
X99637681Y-120723816D01*
X99652264Y-120738399D01*
X99652657Y-120738792D01*
X99818973Y-120849921D01*
X99818986Y-120849928D01*
X100002625Y-120925993D01*
X100003789Y-120926475D01*
X100147185Y-120954998D01*
X100199977Y-120965499D01*
X100199981Y-120965500D01*
X100199982Y-120965500D01*
X100400019Y-120965500D01*
X100400020Y-120965499D01*
X100596211Y-120926475D01*
X100781020Y-120849925D01*
X100947344Y-120738791D01*
X100962318Y-120723816D01*
X101023639Y-120690331D01*
X101093331Y-120695314D01*
X101137681Y-120723816D01*
X101152264Y-120738399D01*
X101152657Y-120738792D01*
X101318973Y-120849921D01*
X101318986Y-120849928D01*
X101502625Y-120925993D01*
X101503789Y-120926475D01*
X101647185Y-120954998D01*
X101699977Y-120965499D01*
X101699981Y-120965500D01*
X101699982Y-120965500D01*
X101900019Y-120965500D01*
X101900020Y-120965499D01*
X102096211Y-120926475D01*
X102281020Y-120849925D01*
X102447344Y-120738791D01*
X102462671Y-120723463D01*
X102523989Y-120689978D01*
X102593681Y-120694959D01*
X102638034Y-120723462D01*
X102652971Y-120738399D01*
X102652975Y-120738402D01*
X102819210Y-120849477D01*
X102819223Y-120849484D01*
X103003929Y-120925991D01*
X103003936Y-120925993D01*
X103050000Y-120935155D01*
X103050000Y-119866189D01*
X103075884Y-119892073D01*
X103159115Y-119940126D01*
X103251947Y-119965000D01*
X103348053Y-119965000D01*
X103440885Y-119940126D01*
X103524116Y-119892073D01*
X103550000Y-119866189D01*
X103550000Y-120935154D01*
X103596063Y-120925993D01*
X103596070Y-120925991D01*
X103780776Y-120849484D01*
X103780789Y-120849477D01*
X103947023Y-120738403D01*
X103961962Y-120723464D01*
X104023285Y-120689977D01*
X104092977Y-120694960D01*
X104137329Y-120723464D01*
X104152653Y-120738789D01*
X104152656Y-120738791D01*
X104318973Y-120849921D01*
X104318986Y-120849928D01*
X104502625Y-120925993D01*
X104503789Y-120926475D01*
X104647185Y-120954998D01*
X104699977Y-120965499D01*
X104699981Y-120965500D01*
X104699982Y-120965500D01*
X104900019Y-120965500D01*
X104900020Y-120965499D01*
X105096211Y-120926475D01*
X105281020Y-120849925D01*
X105392751Y-120775268D01*
X105459427Y-120754391D01*
X105526807Y-120772875D01*
X105549322Y-120790690D01*
X105566344Y-120807712D01*
X105715666Y-120899814D01*
X105882203Y-120954999D01*
X105984991Y-120965500D01*
X106615008Y-120965499D01*
X106615016Y-120965498D01*
X106615019Y-120965498D01*
X106671302Y-120959748D01*
X106717797Y-120954999D01*
X106884334Y-120899814D01*
X107033656Y-120807712D01*
X107157712Y-120683656D01*
X107249814Y-120534334D01*
X107304999Y-120367797D01*
X107315500Y-120265009D01*
X107315499Y-118934992D01*
X107304999Y-118832203D01*
X107249814Y-118665666D01*
X107157712Y-118516344D01*
X107053049Y-118411681D01*
X107019564Y-118350358D01*
X107024548Y-118280666D01*
X107066420Y-118224733D01*
X107131884Y-118200316D01*
X107140730Y-118200000D01*
X114334809Y-118200000D01*
X114401848Y-118219685D01*
X114447603Y-118272489D01*
X114457547Y-118341647D01*
X114428522Y-118405203D01*
X114403700Y-118427102D01*
X114352656Y-118461208D01*
X114352652Y-118461211D01*
X114211211Y-118602652D01*
X114211208Y-118602656D01*
X114100078Y-118768973D01*
X114100071Y-118768986D01*
X114023526Y-118953784D01*
X114023523Y-118953796D01*
X113984500Y-119149977D01*
X113984500Y-120050022D01*
X114023523Y-120246203D01*
X114023526Y-120246215D01*
X114100071Y-120431013D01*
X114100078Y-120431026D01*
X114211208Y-120597343D01*
X114211211Y-120597347D01*
X114352652Y-120738788D01*
X114352656Y-120738791D01*
X114518973Y-120849921D01*
X114518986Y-120849928D01*
X114702625Y-120925993D01*
X114703789Y-120926475D01*
X114847185Y-120954998D01*
X114899977Y-120965499D01*
X114899981Y-120965500D01*
X114899982Y-120965500D01*
X115100019Y-120965500D01*
X115100020Y-120965499D01*
X115296211Y-120926475D01*
X115481020Y-120849925D01*
X115556609Y-120799417D01*
X115623286Y-120778540D01*
X115690666Y-120797024D01*
X115737357Y-120849003D01*
X115749500Y-120902520D01*
X115749500Y-126065677D01*
X115732887Y-126127677D01*
X115672821Y-126231714D01*
X115614327Y-126411740D01*
X115614326Y-126411744D01*
X115594540Y-126600000D01*
X115614326Y-126788256D01*
X115614327Y-126788259D01*
X115672818Y-126968277D01*
X115672821Y-126968284D01*
X115767467Y-127132216D01*
X115894129Y-127272888D01*
X116047265Y-127384148D01*
X116047270Y-127384151D01*
X116220192Y-127461142D01*
X116220197Y-127461144D01*
X116405354Y-127500500D01*
X116405355Y-127500500D01*
X116594644Y-127500500D01*
X116594646Y-127500500D01*
X116779803Y-127461144D01*
X116952730Y-127384151D01*
X117105871Y-127272888D01*
X117232533Y-127132216D01*
X117327179Y-126968284D01*
X117385674Y-126788256D01*
X117405460Y-126600000D01*
X117385674Y-126411744D01*
X117327179Y-126231716D01*
X117327178Y-126231714D01*
X117267113Y-126127677D01*
X117250500Y-126065677D01*
X117250500Y-120901918D01*
X117270185Y-120834879D01*
X117322989Y-120789124D01*
X117392147Y-120779180D01*
X117443391Y-120798816D01*
X117519210Y-120849477D01*
X117519223Y-120849484D01*
X117703929Y-120925991D01*
X117703936Y-120925993D01*
X117750000Y-120935155D01*
X117750000Y-119866189D01*
X117775884Y-119892073D01*
X117859115Y-119940126D01*
X117951947Y-119965000D01*
X118048053Y-119965000D01*
X118140885Y-119940126D01*
X118224116Y-119892073D01*
X118250000Y-119866189D01*
X118250000Y-120935154D01*
X118296063Y-120925993D01*
X118296070Y-120925991D01*
X118480776Y-120849484D01*
X118480789Y-120849477D01*
X118647023Y-120738403D01*
X118661962Y-120723464D01*
X118723285Y-120689977D01*
X118792977Y-120694960D01*
X118837329Y-120723464D01*
X118852653Y-120738789D01*
X118852656Y-120738791D01*
X119018973Y-120849921D01*
X119018986Y-120849928D01*
X119202625Y-120925993D01*
X119203789Y-120926475D01*
X119347185Y-120954998D01*
X119399977Y-120965499D01*
X119399981Y-120965500D01*
X119399982Y-120965500D01*
X119600019Y-120965500D01*
X119600020Y-120965499D01*
X119796211Y-120926475D01*
X119981020Y-120849925D01*
X120056609Y-120799417D01*
X120123286Y-120778540D01*
X120190666Y-120797024D01*
X120237357Y-120849003D01*
X120249500Y-120902520D01*
X120249500Y-124065677D01*
X120232887Y-124127677D01*
X120172821Y-124231714D01*
X120114327Y-124411740D01*
X120114326Y-124411744D01*
X120094540Y-124600000D01*
X120114326Y-124788256D01*
X120114327Y-124788259D01*
X120172818Y-124968277D01*
X120172821Y-124968284D01*
X120267467Y-125132216D01*
X120394129Y-125272888D01*
X120547265Y-125384148D01*
X120547270Y-125384151D01*
X120720192Y-125461142D01*
X120720197Y-125461144D01*
X120905354Y-125500500D01*
X120905355Y-125500500D01*
X121094644Y-125500500D01*
X121094646Y-125500500D01*
X121279803Y-125461144D01*
X121452730Y-125384151D01*
X121605871Y-125272888D01*
X121732533Y-125132216D01*
X121827179Y-124968284D01*
X121885674Y-124788256D01*
X121905460Y-124600000D01*
X121885674Y-124411744D01*
X121827179Y-124231716D01*
X121827178Y-124231714D01*
X121767113Y-124127677D01*
X121750500Y-124065677D01*
X121750500Y-120902520D01*
X121770185Y-120835481D01*
X121822989Y-120789726D01*
X121892147Y-120779782D01*
X121943390Y-120799417D01*
X122018980Y-120849925D01*
X122018982Y-120849926D01*
X122018986Y-120849928D01*
X122202625Y-120925993D01*
X122203789Y-120926475D01*
X122347185Y-120954998D01*
X122399977Y-120965499D01*
X122399981Y-120965500D01*
X122399982Y-120965500D01*
X122600019Y-120965500D01*
X122600020Y-120965499D01*
X122796211Y-120926475D01*
X122981020Y-120849925D01*
X123056609Y-120799417D01*
X123123286Y-120778540D01*
X123190666Y-120797024D01*
X123237357Y-120849003D01*
X123249500Y-120902520D01*
X123249500Y-125065677D01*
X123232887Y-125127677D01*
X123172821Y-125231714D01*
X123114327Y-125411740D01*
X123114326Y-125411744D01*
X123094540Y-125600000D01*
X123114326Y-125788256D01*
X123114327Y-125788259D01*
X123172818Y-125968277D01*
X123172821Y-125968284D01*
X123267467Y-126132216D01*
X123394129Y-126272888D01*
X123547265Y-126384148D01*
X123547270Y-126384151D01*
X123720192Y-126461142D01*
X123720197Y-126461144D01*
X123905354Y-126500500D01*
X123905355Y-126500500D01*
X124094644Y-126500500D01*
X124094646Y-126500500D01*
X124279803Y-126461144D01*
X124452730Y-126384151D01*
X124605871Y-126272888D01*
X124732533Y-126132216D01*
X124827179Y-125968284D01*
X124885674Y-125788256D01*
X124905460Y-125600000D01*
X124885674Y-125411744D01*
X124827179Y-125231716D01*
X124827178Y-125231714D01*
X124767113Y-125127677D01*
X124750500Y-125065677D01*
X124750500Y-120901918D01*
X124770185Y-120834879D01*
X124822989Y-120789124D01*
X124892147Y-120779180D01*
X124943391Y-120798816D01*
X125019210Y-120849477D01*
X125019223Y-120849484D01*
X125203929Y-120925991D01*
X125203936Y-120925993D01*
X125250000Y-120935155D01*
X125250000Y-119866189D01*
X125275884Y-119892073D01*
X125359115Y-119940126D01*
X125451947Y-119965000D01*
X125548053Y-119965000D01*
X125640885Y-119940126D01*
X125724116Y-119892073D01*
X125750000Y-119866189D01*
X125750000Y-120935154D01*
X125796063Y-120925993D01*
X125796070Y-120925991D01*
X125980776Y-120849484D01*
X125980789Y-120849477D01*
X126147023Y-120738403D01*
X126161962Y-120723464D01*
X126223285Y-120689977D01*
X126292977Y-120694960D01*
X126337329Y-120723464D01*
X126352653Y-120738789D01*
X126352656Y-120738791D01*
X126518973Y-120849921D01*
X126518986Y-120849928D01*
X126702625Y-120925993D01*
X126703789Y-120926475D01*
X126847185Y-120954998D01*
X126899977Y-120965499D01*
X126899981Y-120965500D01*
X126899982Y-120965500D01*
X127100019Y-120965500D01*
X127100020Y-120965499D01*
X127296211Y-120926475D01*
X127481020Y-120849925D01*
X127592751Y-120775268D01*
X127659427Y-120754391D01*
X127726807Y-120772875D01*
X127749322Y-120790690D01*
X127766344Y-120807712D01*
X127915666Y-120899814D01*
X128082203Y-120954999D01*
X128184991Y-120965500D01*
X128815008Y-120965499D01*
X128815016Y-120965498D01*
X128815019Y-120965498D01*
X128871302Y-120959748D01*
X128917797Y-120954999D01*
X129084334Y-120899814D01*
X129233656Y-120807712D01*
X129357712Y-120683656D01*
X129449814Y-120534334D01*
X129504999Y-120367797D01*
X129515500Y-120265009D01*
X129515499Y-118934992D01*
X129504999Y-118832203D01*
X129449814Y-118665666D01*
X129357712Y-118516344D01*
X129253049Y-118411681D01*
X129219564Y-118350358D01*
X129224548Y-118280666D01*
X129266420Y-118224733D01*
X129331884Y-118200316D01*
X129340730Y-118200000D01*
X136534809Y-118200000D01*
X136601848Y-118219685D01*
X136647603Y-118272489D01*
X136657547Y-118341647D01*
X136628522Y-118405203D01*
X136603700Y-118427102D01*
X136552656Y-118461208D01*
X136552652Y-118461211D01*
X136411211Y-118602652D01*
X136411208Y-118602656D01*
X136300078Y-118768973D01*
X136300071Y-118768986D01*
X136223526Y-118953784D01*
X136223523Y-118953796D01*
X136184500Y-119149977D01*
X136184500Y-120050022D01*
X136223523Y-120246203D01*
X136223526Y-120246215D01*
X136300071Y-120431013D01*
X136300078Y-120431026D01*
X136411208Y-120597343D01*
X136411211Y-120597347D01*
X136552652Y-120738788D01*
X136552656Y-120738791D01*
X136718973Y-120849921D01*
X136718986Y-120849928D01*
X136902625Y-120925993D01*
X136903789Y-120926475D01*
X137047185Y-120954998D01*
X137099977Y-120965499D01*
X137099981Y-120965500D01*
X137099982Y-120965500D01*
X137300019Y-120965500D01*
X137300020Y-120965499D01*
X137496211Y-120926475D01*
X137681020Y-120849925D01*
X137847344Y-120738791D01*
X137862318Y-120723816D01*
X137923639Y-120690331D01*
X137993331Y-120695314D01*
X138037681Y-120723816D01*
X138052264Y-120738399D01*
X138052657Y-120738792D01*
X138218973Y-120849921D01*
X138218986Y-120849928D01*
X138402625Y-120925993D01*
X138403789Y-120926475D01*
X138547185Y-120954998D01*
X138599977Y-120965499D01*
X138599981Y-120965500D01*
X138599982Y-120965500D01*
X138800019Y-120965500D01*
X138800020Y-120965499D01*
X138996211Y-120926475D01*
X139181020Y-120849925D01*
X139347344Y-120738791D01*
X139362671Y-120723463D01*
X139423989Y-120689978D01*
X139493681Y-120694959D01*
X139538034Y-120723462D01*
X139552971Y-120738399D01*
X139552975Y-120738402D01*
X139719210Y-120849477D01*
X139719223Y-120849484D01*
X139903929Y-120925991D01*
X139903936Y-120925993D01*
X139950000Y-120935155D01*
X139950000Y-119866189D01*
X139975884Y-119892073D01*
X140059115Y-119940126D01*
X140151947Y-119965000D01*
X140248053Y-119965000D01*
X140340885Y-119940126D01*
X140424116Y-119892073D01*
X140450000Y-119866189D01*
X140450000Y-120935154D01*
X140496063Y-120925993D01*
X140496070Y-120925991D01*
X140680776Y-120849484D01*
X140680789Y-120849477D01*
X140847023Y-120738403D01*
X140861962Y-120723464D01*
X140923285Y-120689977D01*
X140992977Y-120694960D01*
X141037329Y-120723464D01*
X141052653Y-120738789D01*
X141052656Y-120738791D01*
X141218973Y-120849921D01*
X141218986Y-120849928D01*
X141402625Y-120925993D01*
X141403789Y-120926475D01*
X141547185Y-120954998D01*
X141599977Y-120965499D01*
X141599981Y-120965500D01*
X141599982Y-120965500D01*
X141800019Y-120965500D01*
X141800020Y-120965499D01*
X141996211Y-120926475D01*
X142181020Y-120849925D01*
X142347344Y-120738791D01*
X142362318Y-120723816D01*
X142423639Y-120690331D01*
X142493331Y-120695314D01*
X142537681Y-120723816D01*
X142552264Y-120738399D01*
X142552657Y-120738792D01*
X142718973Y-120849921D01*
X142718986Y-120849928D01*
X142902625Y-120925993D01*
X142903789Y-120926475D01*
X143047185Y-120954998D01*
X143099977Y-120965499D01*
X143099981Y-120965500D01*
X143099982Y-120965500D01*
X143300019Y-120965500D01*
X143300020Y-120965499D01*
X143496211Y-120926475D01*
X143681020Y-120849925D01*
X143756609Y-120799417D01*
X143823286Y-120778540D01*
X143890666Y-120797024D01*
X143937357Y-120849003D01*
X143949500Y-120902520D01*
X143949500Y-124065677D01*
X143932887Y-124127677D01*
X143872821Y-124231714D01*
X143814327Y-124411740D01*
X143814326Y-124411744D01*
X143794540Y-124600000D01*
X143814326Y-124788256D01*
X143814327Y-124788259D01*
X143872818Y-124968277D01*
X143872821Y-124968284D01*
X143932887Y-125072321D01*
X143949500Y-125134321D01*
X143949500Y-132267769D01*
X143929815Y-132334808D01*
X143913181Y-132355450D01*
X143684791Y-132583839D01*
X143623468Y-132617324D01*
X143553776Y-132612340D01*
X143497843Y-132570468D01*
X143474637Y-132515555D01*
X143464234Y-132449876D01*
X143464234Y-132449874D01*
X143393582Y-132232431D01*
X143289788Y-132028723D01*
X143156988Y-131845940D01*
X143133508Y-131780133D01*
X143149333Y-131712079D01*
X143199439Y-131663384D01*
X143213966Y-131656875D01*
X143242331Y-131646296D01*
X143357546Y-131560046D01*
X143443796Y-131444831D01*
X143494091Y-131309983D01*
X143500500Y-131250373D01*
X143500499Y-129249628D01*
X143495299Y-129201257D01*
X143494091Y-129190016D01*
X143443797Y-129055171D01*
X143443793Y-129055164D01*
X143357547Y-128939955D01*
X143357544Y-128939952D01*
X143242335Y-128853706D01*
X143242328Y-128853702D01*
X143107482Y-128803408D01*
X143107483Y-128803408D01*
X143047883Y-128797001D01*
X143047881Y-128797000D01*
X143047873Y-128797000D01*
X143047864Y-128797000D01*
X140952129Y-128797000D01*
X140952123Y-128797001D01*
X140892516Y-128803408D01*
X140757671Y-128853702D01*
X140757664Y-128853706D01*
X140642455Y-128939952D01*
X140642452Y-128939955D01*
X140556206Y-129055164D01*
X140556202Y-129055171D01*
X140505908Y-129190017D01*
X140499501Y-129249616D01*
X140499501Y-129249623D01*
X140499500Y-129249635D01*
X140499500Y-131250370D01*
X140499501Y-131250376D01*
X140505908Y-131309983D01*
X140556202Y-131444828D01*
X140556206Y-131444835D01*
X140642452Y-131560044D01*
X140642455Y-131560047D01*
X140757664Y-131646293D01*
X140757667Y-131646295D01*
X140757668Y-131646295D01*
X140757669Y-131646296D01*
X140786025Y-131656872D01*
X140841958Y-131698742D01*
X140866376Y-131764206D01*
X140851525Y-131832479D01*
X140843010Y-131845939D01*
X140710213Y-132028719D01*
X140606417Y-132232429D01*
X140535765Y-132449871D01*
X140521491Y-132540000D01*
X141509252Y-132540000D01*
X141487482Y-132577708D01*
X141450000Y-132717591D01*
X141450000Y-132862409D01*
X141487482Y-133002292D01*
X141509252Y-133040000D01*
X140521491Y-133040000D01*
X140535765Y-133130128D01*
X140606417Y-133347570D01*
X140710211Y-133551276D01*
X140844597Y-133736242D01*
X141006257Y-133897902D01*
X141006263Y-133897907D01*
X141090863Y-133959372D01*
X141133529Y-134014701D01*
X141139508Y-134084315D01*
X141106903Y-134146110D01*
X141090864Y-134160007D01*
X141005940Y-134221709D01*
X141005931Y-134221716D01*
X140844216Y-134383431D01*
X140844216Y-134383432D01*
X140844214Y-134383434D01*
X140786480Y-134462896D01*
X140709783Y-134568461D01*
X140605950Y-134772244D01*
X140535278Y-134989750D01*
X140535278Y-134989753D01*
X140499500Y-135215646D01*
X140499500Y-135444353D01*
X140535278Y-135670246D01*
X140535278Y-135670249D01*
X140605950Y-135887755D01*
X140605952Y-135887758D01*
X140709783Y-136091538D01*
X140844214Y-136276566D01*
X141005934Y-136438286D01*
X141190961Y-136572716D01*
X141194904Y-136575581D01*
X141194166Y-136576596D01*
X141237157Y-136624098D01*
X141249500Y-136678032D01*
X141249500Y-144173918D01*
X141249500Y-144173920D01*
X141249499Y-144173920D01*
X141278340Y-144318907D01*
X141278343Y-144318917D01*
X141334914Y-144455492D01*
X141367812Y-144504727D01*
X141367813Y-144504730D01*
X141417046Y-144578414D01*
X141417052Y-144578421D01*
X144413181Y-147574548D01*
X144446666Y-147635871D01*
X144449500Y-147662229D01*
X144449500Y-150749999D01*
X144449501Y-150750016D01*
X144460000Y-150852795D01*
X144460001Y-150852798D01*
X144515185Y-151019330D01*
X144515186Y-151019333D01*
X144607289Y-151168655D01*
X144731345Y-151292711D01*
X144880667Y-151384814D01*
X145047204Y-151439999D01*
X145149993Y-151450500D01*
X148650006Y-151450499D01*
X148752796Y-151439999D01*
X148919333Y-151384814D01*
X149068655Y-151292711D01*
X149192711Y-151168655D01*
X149284814Y-151019333D01*
X149339999Y-150852796D01*
X149350500Y-150750007D01*
X149350499Y-148999994D01*
X152244655Y-148999994D01*
X152244655Y-149000005D01*
X152264014Y-149307725D01*
X152264015Y-149307732D01*
X152264016Y-149307736D01*
X152311714Y-149557780D01*
X152321795Y-149610623D01*
X152417078Y-149903874D01*
X152417080Y-149903879D01*
X152548362Y-150182867D01*
X152548366Y-150182873D01*
X152713577Y-150443206D01*
X152713579Y-150443209D01*
X152713584Y-150443216D01*
X152910131Y-150680799D01*
X152910132Y-150680800D01*
X153134902Y-150891874D01*
X153134912Y-150891882D01*
X153384348Y-151073108D01*
X153384353Y-151073110D01*
X153384360Y-151073116D01*
X153654565Y-151221663D01*
X153654570Y-151221665D01*
X153654572Y-151221666D01*
X153654573Y-151221667D01*
X153941253Y-151335171D01*
X153941256Y-151335172D01*
X154134592Y-151384812D01*
X154239914Y-151411854D01*
X154304091Y-151419961D01*
X154545816Y-151450499D01*
X154545825Y-151450499D01*
X154545828Y-151450500D01*
X154545830Y-151450500D01*
X154854170Y-151450500D01*
X154854172Y-151450500D01*
X154854175Y-151450499D01*
X154854183Y-151450499D01*
X155036722Y-151427438D01*
X155160086Y-151411854D01*
X155458743Y-151335172D01*
X155505358Y-151316716D01*
X155745426Y-151221667D01*
X155745427Y-151221666D01*
X155745425Y-151221666D01*
X155745435Y-151221663D01*
X156015640Y-151073116D01*
X156265096Y-150891876D01*
X156489869Y-150680799D01*
X156686416Y-150443216D01*
X156851635Y-150182871D01*
X156851748Y-150182632D01*
X156982919Y-149903879D01*
X156982922Y-149903873D01*
X157078206Y-149610619D01*
X157135984Y-149307736D01*
X157149923Y-149086180D01*
X157155345Y-149000005D01*
X157155345Y-148999994D01*
X160045156Y-148999994D01*
X160045156Y-149000005D01*
X160064511Y-149307663D01*
X160064512Y-149307670D01*
X160122280Y-149610499D01*
X160217544Y-149903689D01*
X160217546Y-149903694D01*
X160348802Y-150182626D01*
X160348805Y-150182632D01*
X160513987Y-150442919D01*
X160513990Y-150442923D01*
X160599799Y-150546647D01*
X161727546Y-149418899D01*
X161820343Y-149557780D01*
X161942220Y-149679657D01*
X162081099Y-149772453D01*
X160950767Y-150902783D01*
X160950768Y-150902785D01*
X161184617Y-151072685D01*
X161184635Y-151072697D01*
X161454778Y-151221209D01*
X161454786Y-151221213D01*
X161741406Y-151334693D01*
X162040008Y-151411361D01*
X162040017Y-151411363D01*
X162345847Y-151449999D01*
X162345861Y-151450000D01*
X162654139Y-151450000D01*
X162654152Y-151449999D01*
X162959982Y-151411363D01*
X162959991Y-151411361D01*
X163258593Y-151334693D01*
X163545213Y-151221213D01*
X163545221Y-151221209D01*
X163815364Y-151072697D01*
X163815382Y-151072685D01*
X164049230Y-150902785D01*
X164049231Y-150902783D01*
X162918900Y-149772453D01*
X163057780Y-149679657D01*
X163179657Y-149557780D01*
X163272453Y-149418900D01*
X164400199Y-150546647D01*
X164486014Y-150442916D01*
X164651194Y-150182632D01*
X164651197Y-150182626D01*
X164782453Y-149903694D01*
X164782455Y-149903689D01*
X164877719Y-149610499D01*
X164935487Y-149307670D01*
X164935488Y-149307663D01*
X164954844Y-149000005D01*
X164954844Y-148999994D01*
X167844655Y-148999994D01*
X167844655Y-149000005D01*
X167864014Y-149307725D01*
X167864015Y-149307732D01*
X167864016Y-149307736D01*
X167911714Y-149557780D01*
X167921795Y-149610623D01*
X168017078Y-149903874D01*
X168017080Y-149903879D01*
X168148362Y-150182867D01*
X168148366Y-150182873D01*
X168313577Y-150443206D01*
X168313579Y-150443209D01*
X168313584Y-150443216D01*
X168510131Y-150680799D01*
X168510132Y-150680800D01*
X168734902Y-150891874D01*
X168734912Y-150891882D01*
X168984348Y-151073108D01*
X168984353Y-151073110D01*
X168984360Y-151073116D01*
X169254565Y-151221663D01*
X169254570Y-151221665D01*
X169254572Y-151221666D01*
X169254573Y-151221667D01*
X169541253Y-151335171D01*
X169541256Y-151335172D01*
X169734592Y-151384812D01*
X169839914Y-151411854D01*
X169904091Y-151419961D01*
X170145816Y-151450499D01*
X170145825Y-151450499D01*
X170145828Y-151450500D01*
X170145830Y-151450500D01*
X170454170Y-151450500D01*
X170454172Y-151450500D01*
X170454175Y-151450499D01*
X170454183Y-151450499D01*
X170636722Y-151427438D01*
X170760086Y-151411854D01*
X171058743Y-151335172D01*
X171105358Y-151316716D01*
X171345426Y-151221667D01*
X171345427Y-151221666D01*
X171345425Y-151221666D01*
X171345435Y-151221663D01*
X171615640Y-151073116D01*
X171865096Y-150891876D01*
X172089869Y-150680799D01*
X172286416Y-150443216D01*
X172451635Y-150182871D01*
X172451748Y-150182632D01*
X172582919Y-149903879D01*
X172582922Y-149903873D01*
X172678206Y-149610619D01*
X172735984Y-149307736D01*
X172749923Y-149086180D01*
X172755345Y-149000005D01*
X172755345Y-148999994D01*
X175644655Y-148999994D01*
X175644655Y-149000005D01*
X175664014Y-149307725D01*
X175664015Y-149307732D01*
X175664016Y-149307736D01*
X175711714Y-149557780D01*
X175721795Y-149610623D01*
X175817078Y-149903874D01*
X175817080Y-149903879D01*
X175948362Y-150182867D01*
X175948366Y-150182873D01*
X176113577Y-150443206D01*
X176113579Y-150443209D01*
X176113584Y-150443216D01*
X176310131Y-150680799D01*
X176310132Y-150680800D01*
X176534902Y-150891874D01*
X176534912Y-150891882D01*
X176784348Y-151073108D01*
X176784353Y-151073110D01*
X176784360Y-151073116D01*
X177054565Y-151221663D01*
X177054570Y-151221665D01*
X177054572Y-151221666D01*
X177054573Y-151221667D01*
X177341253Y-151335171D01*
X177341256Y-151335172D01*
X177534592Y-151384812D01*
X177639914Y-151411854D01*
X177704091Y-151419961D01*
X177945816Y-151450499D01*
X177945825Y-151450499D01*
X177945828Y-151450500D01*
X177945830Y-151450500D01*
X178254170Y-151450500D01*
X178254172Y-151450500D01*
X178254175Y-151450499D01*
X178254183Y-151450499D01*
X178436722Y-151427438D01*
X178560086Y-151411854D01*
X178858743Y-151335172D01*
X178905358Y-151316716D01*
X179145426Y-151221667D01*
X179145427Y-151221666D01*
X179145425Y-151221666D01*
X179145435Y-151221663D01*
X179415640Y-151073116D01*
X179665096Y-150891876D01*
X179889869Y-150680799D01*
X180086416Y-150443216D01*
X180251635Y-150182871D01*
X180251748Y-150182632D01*
X180382919Y-149903879D01*
X180382922Y-149903873D01*
X180478206Y-149610619D01*
X180535984Y-149307736D01*
X180549923Y-149086180D01*
X180555345Y-149000005D01*
X180555345Y-148999994D01*
X180535985Y-148692274D01*
X180535984Y-148692267D01*
X180535984Y-148692264D01*
X180478206Y-148389381D01*
X180382922Y-148096127D01*
X180251750Y-147817373D01*
X180251637Y-147817132D01*
X180251633Y-147817126D01*
X180086422Y-147556793D01*
X180086420Y-147556791D01*
X180086416Y-147556784D01*
X179889869Y-147319201D01*
X179665096Y-147108124D01*
X179665093Y-147108122D01*
X179665087Y-147108117D01*
X179415651Y-146926891D01*
X179415644Y-146926886D01*
X179415640Y-146926884D01*
X179145435Y-146778337D01*
X179145432Y-146778335D01*
X179145427Y-146778333D01*
X179145426Y-146778332D01*
X178858746Y-146664828D01*
X178858743Y-146664827D01*
X178560089Y-146588146D01*
X178560076Y-146588144D01*
X178254183Y-146549500D01*
X178254172Y-146549500D01*
X177945828Y-146549500D01*
X177945816Y-146549500D01*
X177639923Y-146588144D01*
X177639910Y-146588146D01*
X177341256Y-146664827D01*
X177341253Y-146664828D01*
X177054573Y-146778332D01*
X177054572Y-146778333D01*
X176784360Y-146926884D01*
X176784348Y-146926891D01*
X176534912Y-147108117D01*
X176534902Y-147108125D01*
X176310132Y-147319199D01*
X176113577Y-147556793D01*
X175948366Y-147817126D01*
X175948362Y-147817132D01*
X175817080Y-148096120D01*
X175817078Y-148096125D01*
X175721795Y-148389376D01*
X175664015Y-148692267D01*
X175664014Y-148692274D01*
X175644655Y-148999994D01*
X172755345Y-148999994D01*
X172735985Y-148692274D01*
X172735984Y-148692267D01*
X172735984Y-148692264D01*
X172678206Y-148389381D01*
X172582922Y-148096127D01*
X172451750Y-147817373D01*
X172451637Y-147817132D01*
X172451633Y-147817126D01*
X172286422Y-147556793D01*
X172286420Y-147556791D01*
X172286416Y-147556784D01*
X172089869Y-147319201D01*
X171865096Y-147108124D01*
X171865093Y-147108122D01*
X171865087Y-147108117D01*
X171615651Y-146926891D01*
X171615644Y-146926886D01*
X171615640Y-146926884D01*
X171345435Y-146778337D01*
X171345432Y-146778335D01*
X171345427Y-146778333D01*
X171345426Y-146778332D01*
X171058746Y-146664828D01*
X171058743Y-146664827D01*
X170760089Y-146588146D01*
X170760076Y-146588144D01*
X170454183Y-146549500D01*
X170454172Y-146549500D01*
X170145828Y-146549500D01*
X170145816Y-146549500D01*
X169839923Y-146588144D01*
X169839910Y-146588146D01*
X169541256Y-146664827D01*
X169541253Y-146664828D01*
X169254573Y-146778332D01*
X169254572Y-146778333D01*
X168984360Y-146926884D01*
X168984348Y-146926891D01*
X168734912Y-147108117D01*
X168734902Y-147108125D01*
X168510132Y-147319199D01*
X168313577Y-147556793D01*
X168148366Y-147817126D01*
X168148362Y-147817132D01*
X168017080Y-148096120D01*
X168017078Y-148096125D01*
X167921795Y-148389376D01*
X167864015Y-148692267D01*
X167864014Y-148692274D01*
X167844655Y-148999994D01*
X164954844Y-148999994D01*
X164935488Y-148692336D01*
X164935487Y-148692329D01*
X164877719Y-148389500D01*
X164782455Y-148096310D01*
X164782453Y-148096305D01*
X164651197Y-147817373D01*
X164651194Y-147817367D01*
X164486017Y-147557088D01*
X164400198Y-147453351D01*
X163272452Y-148581098D01*
X163179657Y-148442220D01*
X163057780Y-148320343D01*
X162918899Y-148227545D01*
X164049231Y-147097215D01*
X164049230Y-147097214D01*
X163815382Y-146927314D01*
X163815364Y-146927302D01*
X163545221Y-146778790D01*
X163545213Y-146778786D01*
X163258593Y-146665306D01*
X162959991Y-146588638D01*
X162959982Y-146588636D01*
X162654152Y-146550000D01*
X162345847Y-146550000D01*
X162040017Y-146588636D01*
X162040008Y-146588638D01*
X161741406Y-146665306D01*
X161454786Y-146778786D01*
X161454778Y-146778790D01*
X161184632Y-146927304D01*
X161184627Y-146927307D01*
X160950768Y-147097214D01*
X160950768Y-147097216D01*
X162081099Y-148227546D01*
X161942220Y-148320343D01*
X161820343Y-148442220D01*
X161727546Y-148581099D01*
X160599799Y-147453351D01*
X160513985Y-147557083D01*
X160348805Y-147817367D01*
X160348802Y-147817373D01*
X160217546Y-148096305D01*
X160217544Y-148096310D01*
X160122280Y-148389500D01*
X160064512Y-148692329D01*
X160064511Y-148692336D01*
X160045156Y-148999994D01*
X157155345Y-148999994D01*
X157135985Y-148692274D01*
X157135984Y-148692267D01*
X157135984Y-148692264D01*
X157078206Y-148389381D01*
X156982922Y-148096127D01*
X156851750Y-147817373D01*
X156851637Y-147817132D01*
X156851633Y-147817126D01*
X156686422Y-147556793D01*
X156686420Y-147556791D01*
X156686416Y-147556784D01*
X156489869Y-147319201D01*
X156265096Y-147108124D01*
X156265093Y-147108122D01*
X156265087Y-147108117D01*
X156015651Y-146926891D01*
X156015644Y-146926886D01*
X156015640Y-146926884D01*
X155745435Y-146778337D01*
X155745432Y-146778335D01*
X155745427Y-146778333D01*
X155745426Y-146778332D01*
X155458746Y-146664828D01*
X155458743Y-146664827D01*
X155160089Y-146588146D01*
X155160076Y-146588144D01*
X154854183Y-146549500D01*
X154854172Y-146549500D01*
X154545828Y-146549500D01*
X154545816Y-146549500D01*
X154239923Y-146588144D01*
X154239910Y-146588146D01*
X153941256Y-146664827D01*
X153941253Y-146664828D01*
X153654573Y-146778332D01*
X153654572Y-146778333D01*
X153384360Y-146926884D01*
X153384348Y-146926891D01*
X153134912Y-147108117D01*
X153134902Y-147108125D01*
X152910132Y-147319199D01*
X152713577Y-147556793D01*
X152548366Y-147817126D01*
X152548362Y-147817132D01*
X152417080Y-148096120D01*
X152417078Y-148096125D01*
X152321795Y-148389376D01*
X152264015Y-148692267D01*
X152264014Y-148692274D01*
X152244655Y-148999994D01*
X149350499Y-148999994D01*
X149350499Y-147249994D01*
X149339999Y-147147204D01*
X149284814Y-146980667D01*
X149192711Y-146831345D01*
X149068655Y-146707289D01*
X148919333Y-146615186D01*
X148752796Y-146560001D01*
X148752794Y-146560000D01*
X148650014Y-146549500D01*
X148650007Y-146549500D01*
X145562230Y-146549500D01*
X145495191Y-146529815D01*
X145474549Y-146513181D01*
X142786819Y-143825451D01*
X142753334Y-143764128D01*
X142750500Y-143737770D01*
X142750500Y-140499998D01*
X152194532Y-140499998D01*
X152194532Y-140500001D01*
X152214364Y-140726686D01*
X152214366Y-140726697D01*
X152273258Y-140946488D01*
X152273261Y-140946497D01*
X152369431Y-141152732D01*
X152369432Y-141152734D01*
X152499954Y-141339141D01*
X152657506Y-141496693D01*
X152690991Y-141558016D01*
X152686007Y-141627708D01*
X152644135Y-141683641D01*
X152598343Y-141705050D01*
X152592626Y-141706401D01*
X152457913Y-141756645D01*
X152457906Y-141756649D01*
X152342812Y-141842809D01*
X152342809Y-141842812D01*
X152256649Y-141957906D01*
X152256645Y-141957913D01*
X152206403Y-142092620D01*
X152206401Y-142092627D01*
X152200000Y-142152155D01*
X152200000Y-142750000D01*
X153184314Y-142750000D01*
X153179920Y-142754394D01*
X153127259Y-142845606D01*
X153100000Y-142947339D01*
X153100000Y-143052661D01*
X153127259Y-143154394D01*
X153179920Y-143245606D01*
X153184314Y-143250000D01*
X152200000Y-143250000D01*
X152200000Y-143847844D01*
X152206401Y-143907372D01*
X152206403Y-143907379D01*
X152256645Y-144042086D01*
X152256649Y-144042093D01*
X152342809Y-144157187D01*
X152342812Y-144157190D01*
X152457906Y-144243350D01*
X152457913Y-144243354D01*
X152592620Y-144293596D01*
X152592627Y-144293598D01*
X152652155Y-144299999D01*
X152652172Y-144300000D01*
X153250000Y-144300000D01*
X153250000Y-143315686D01*
X153254394Y-143320080D01*
X153345606Y-143372741D01*
X153447339Y-143400000D01*
X153552661Y-143400000D01*
X153654394Y-143372741D01*
X153745606Y-143320080D01*
X153750000Y-143315686D01*
X153750000Y-144300000D01*
X154347828Y-144300000D01*
X154347844Y-144299999D01*
X154407372Y-144293598D01*
X154407379Y-144293596D01*
X154542086Y-144243354D01*
X154542093Y-144243350D01*
X154657187Y-144157190D01*
X154657190Y-144157187D01*
X154743350Y-144042093D01*
X154743354Y-144042086D01*
X154793596Y-143907379D01*
X154793598Y-143907372D01*
X154799999Y-143847844D01*
X154800000Y-143847827D01*
X154800000Y-143817619D01*
X164194532Y-143817619D01*
X164194532Y-143817622D01*
X164214364Y-144044307D01*
X164214366Y-144044318D01*
X164273258Y-144264109D01*
X164273261Y-144264118D01*
X164369431Y-144470353D01*
X164369432Y-144470355D01*
X164499954Y-144656762D01*
X164660858Y-144817666D01*
X164660861Y-144817668D01*
X164847266Y-144948189D01*
X165053504Y-145044360D01*
X165273308Y-145103256D01*
X165435230Y-145117422D01*
X165499998Y-145123089D01*
X165500000Y-145123089D01*
X165500002Y-145123089D01*
X165556673Y-145118130D01*
X165726692Y-145103256D01*
X165946496Y-145044360D01*
X166152734Y-144948189D01*
X166339139Y-144817668D01*
X166500047Y-144656760D01*
X166630568Y-144470355D01*
X166726739Y-144264117D01*
X166785635Y-144044313D01*
X166805468Y-143817621D01*
X166785635Y-143590929D01*
X166726739Y-143371125D01*
X166630568Y-143164887D01*
X166500047Y-142978482D01*
X166500045Y-142978479D01*
X166342493Y-142820927D01*
X166309008Y-142759604D01*
X166313992Y-142689912D01*
X166355864Y-142633979D01*
X166401667Y-142612567D01*
X166407381Y-142611216D01*
X166542086Y-142560975D01*
X166542093Y-142560971D01*
X166657187Y-142474811D01*
X166657190Y-142474808D01*
X166743350Y-142359714D01*
X166743354Y-142359707D01*
X166793596Y-142225000D01*
X166793598Y-142224993D01*
X166799999Y-142165465D01*
X166800000Y-142165448D01*
X166800000Y-141567621D01*
X165815686Y-141567621D01*
X165820080Y-141563227D01*
X165872741Y-141472015D01*
X165900000Y-141370282D01*
X165900000Y-141264960D01*
X165872741Y-141163227D01*
X165820080Y-141072015D01*
X165815686Y-141067621D01*
X166800000Y-141067621D01*
X166800000Y-140469793D01*
X166799999Y-140469776D01*
X166793598Y-140410248D01*
X166793596Y-140410241D01*
X166743354Y-140275534D01*
X166743350Y-140275527D01*
X166657190Y-140160433D01*
X166657187Y-140160430D01*
X166542093Y-140074270D01*
X166542086Y-140074266D01*
X166407379Y-140024024D01*
X166407372Y-140024022D01*
X166347844Y-140017621D01*
X165750000Y-140017621D01*
X165750000Y-141001935D01*
X165745606Y-140997541D01*
X165654394Y-140944880D01*
X165552661Y-140917621D01*
X165447339Y-140917621D01*
X165345606Y-140944880D01*
X165254394Y-140997541D01*
X165250000Y-141001935D01*
X165250000Y-140017621D01*
X164652155Y-140017621D01*
X164592627Y-140024022D01*
X164592620Y-140024024D01*
X164457913Y-140074266D01*
X164457906Y-140074270D01*
X164342812Y-140160430D01*
X164342809Y-140160433D01*
X164256649Y-140275527D01*
X164256645Y-140275534D01*
X164206403Y-140410241D01*
X164206401Y-140410248D01*
X164200000Y-140469776D01*
X164200000Y-141067621D01*
X165184314Y-141067621D01*
X165179920Y-141072015D01*
X165127259Y-141163227D01*
X165100000Y-141264960D01*
X165100000Y-141370282D01*
X165127259Y-141472015D01*
X165179920Y-141563227D01*
X165184314Y-141567621D01*
X164200000Y-141567621D01*
X164200000Y-142165465D01*
X164206401Y-142224993D01*
X164206403Y-142225000D01*
X164256645Y-142359707D01*
X164256649Y-142359714D01*
X164342809Y-142474808D01*
X164342812Y-142474811D01*
X164457906Y-142560971D01*
X164457913Y-142560975D01*
X164592622Y-142611218D01*
X164598334Y-142612568D01*
X164659052Y-142647138D01*
X164691441Y-142709048D01*
X164685218Y-142778639D01*
X164657507Y-142820927D01*
X164499951Y-142978483D01*
X164369432Y-143164886D01*
X164369431Y-143164888D01*
X164273261Y-143371123D01*
X164273258Y-143371132D01*
X164214366Y-143590923D01*
X164214364Y-143590934D01*
X164194532Y-143817619D01*
X154800000Y-143817619D01*
X154800000Y-143250000D01*
X153815686Y-143250000D01*
X153820080Y-143245606D01*
X153872741Y-143154394D01*
X153900000Y-143052661D01*
X153900000Y-142947339D01*
X153872741Y-142845606D01*
X153820080Y-142754394D01*
X153815686Y-142750000D01*
X154800000Y-142750000D01*
X154800000Y-142152172D01*
X154799999Y-142152155D01*
X154793598Y-142092627D01*
X154793596Y-142092620D01*
X154743354Y-141957913D01*
X154743350Y-141957906D01*
X154657190Y-141842812D01*
X154657187Y-141842809D01*
X154542093Y-141756649D01*
X154542086Y-141756645D01*
X154407378Y-141706402D01*
X154401658Y-141705051D01*
X154340942Y-141670477D01*
X154308557Y-141608566D01*
X154314784Y-141538974D01*
X154342491Y-141496694D01*
X154500047Y-141339139D01*
X154630568Y-141152734D01*
X154726739Y-140946496D01*
X154785635Y-140726692D01*
X154805468Y-140500000D01*
X154785635Y-140273308D01*
X154726739Y-140053504D01*
X154630568Y-139847266D01*
X154500047Y-139660861D01*
X154500045Y-139660858D01*
X154339141Y-139499954D01*
X154152734Y-139369432D01*
X154152732Y-139369431D01*
X153946497Y-139273261D01*
X153946488Y-139273258D01*
X153726697Y-139214366D01*
X153726693Y-139214365D01*
X153726692Y-139214365D01*
X153726691Y-139214364D01*
X153726686Y-139214364D01*
X153500002Y-139194532D01*
X153499998Y-139194532D01*
X153273313Y-139214364D01*
X153273302Y-139214366D01*
X153053511Y-139273258D01*
X153053502Y-139273261D01*
X152847267Y-139369431D01*
X152847265Y-139369432D01*
X152660858Y-139499954D01*
X152499954Y-139660858D01*
X152369432Y-139847265D01*
X152369431Y-139847267D01*
X152273261Y-140053502D01*
X152273258Y-140053511D01*
X152214366Y-140273302D01*
X152214364Y-140273313D01*
X152194532Y-140499998D01*
X142750500Y-140499998D01*
X142750500Y-136678032D01*
X142770185Y-136610993D01*
X142805624Y-136576308D01*
X142805096Y-136575581D01*
X142809039Y-136572716D01*
X142994066Y-136438286D01*
X143155786Y-136276566D01*
X143290217Y-136091538D01*
X143394048Y-135887758D01*
X143464722Y-135670245D01*
X143500500Y-135444354D01*
X143500500Y-135215646D01*
X143465976Y-134997674D01*
X143474930Y-134928384D01*
X143500765Y-134890601D01*
X145282952Y-133108415D01*
X145328665Y-133040000D01*
X145349437Y-133008913D01*
X145355703Y-132999532D01*
X145365084Y-132985495D01*
X145403204Y-132893465D01*
X145421659Y-132848912D01*
X145450500Y-132703917D01*
X145450500Y-132556082D01*
X145450500Y-126411898D01*
X145470185Y-126344859D01*
X145522989Y-126299104D01*
X145592147Y-126289160D01*
X145647381Y-126311578D01*
X145747266Y-126384148D01*
X145747270Y-126384151D01*
X145920192Y-126461142D01*
X145920197Y-126461144D01*
X146105354Y-126500500D01*
X146105355Y-126500500D01*
X146294644Y-126500500D01*
X146294646Y-126500500D01*
X146479803Y-126461144D01*
X146652730Y-126384151D01*
X146805871Y-126272888D01*
X146932533Y-126132216D01*
X147027179Y-125968284D01*
X147085674Y-125788256D01*
X147105460Y-125600000D01*
X147085674Y-125411744D01*
X147027179Y-125231716D01*
X147027178Y-125231714D01*
X146967113Y-125127677D01*
X146950500Y-125065677D01*
X146950500Y-120901918D01*
X146970185Y-120834879D01*
X147022989Y-120789124D01*
X147092147Y-120779180D01*
X147143391Y-120798816D01*
X147219210Y-120849477D01*
X147219223Y-120849484D01*
X147403929Y-120925991D01*
X147403936Y-120925993D01*
X147450000Y-120935155D01*
X147450000Y-119866189D01*
X147475884Y-119892073D01*
X147559115Y-119940126D01*
X147651947Y-119965000D01*
X147748053Y-119965000D01*
X147840885Y-119940126D01*
X147924116Y-119892073D01*
X147950000Y-119866189D01*
X147950000Y-120935155D01*
X147996063Y-120925993D01*
X147996070Y-120925991D01*
X148180776Y-120849484D01*
X148180789Y-120849477D01*
X148256609Y-120798816D01*
X148323286Y-120777938D01*
X148390667Y-120796422D01*
X148437357Y-120848401D01*
X148449500Y-120901918D01*
X148449500Y-126065677D01*
X148432887Y-126127677D01*
X148372821Y-126231714D01*
X148314327Y-126411740D01*
X148314326Y-126411744D01*
X148294540Y-126600000D01*
X148314326Y-126788256D01*
X148314327Y-126788259D01*
X148372818Y-126968277D01*
X148372821Y-126968284D01*
X148467467Y-127132216D01*
X148594129Y-127272888D01*
X148747265Y-127384148D01*
X148747270Y-127384151D01*
X148920192Y-127461142D01*
X148920197Y-127461144D01*
X149105354Y-127500500D01*
X149105355Y-127500500D01*
X149294644Y-127500500D01*
X149294646Y-127500500D01*
X149479803Y-127461144D01*
X149652730Y-127384151D01*
X149805871Y-127272888D01*
X149932533Y-127132216D01*
X150027179Y-126968284D01*
X150085674Y-126788256D01*
X150105460Y-126600000D01*
X150085674Y-126411744D01*
X150027179Y-126231716D01*
X150027178Y-126231714D01*
X149967113Y-126127677D01*
X149950500Y-126065677D01*
X149950500Y-121016803D01*
X149970185Y-120949764D01*
X150022989Y-120904009D01*
X150092147Y-120894065D01*
X150113504Y-120899097D01*
X150115663Y-120899812D01*
X150115666Y-120899814D01*
X150282203Y-120954999D01*
X150384991Y-120965500D01*
X151015008Y-120965499D01*
X151015016Y-120965498D01*
X151015019Y-120965498D01*
X151071302Y-120959748D01*
X151117797Y-120954999D01*
X151284334Y-120899814D01*
X151433656Y-120807712D01*
X151557712Y-120683656D01*
X151649814Y-120534334D01*
X151704999Y-120367797D01*
X151715500Y-120265009D01*
X151715499Y-118934992D01*
X151704999Y-118832203D01*
X151649814Y-118665666D01*
X151557712Y-118516344D01*
X151453049Y-118411681D01*
X151419564Y-118350358D01*
X151424548Y-118280666D01*
X151466420Y-118224733D01*
X151531884Y-118200316D01*
X151540730Y-118200000D01*
X158734809Y-118200000D01*
X158801848Y-118219685D01*
X158847603Y-118272489D01*
X158857547Y-118341647D01*
X158828522Y-118405203D01*
X158803700Y-118427102D01*
X158752656Y-118461208D01*
X158752652Y-118461211D01*
X158611211Y-118602652D01*
X158611208Y-118602656D01*
X158500078Y-118768973D01*
X158500071Y-118768986D01*
X158423526Y-118953784D01*
X158423523Y-118953796D01*
X158384500Y-119149977D01*
X158384500Y-120050022D01*
X158423523Y-120246203D01*
X158423526Y-120246215D01*
X158500071Y-120431013D01*
X158500078Y-120431026D01*
X158611208Y-120597343D01*
X158611211Y-120597347D01*
X158752652Y-120738788D01*
X158752656Y-120738791D01*
X158918973Y-120849921D01*
X158918986Y-120849928D01*
X159102625Y-120925993D01*
X159103789Y-120926475D01*
X159247185Y-120954998D01*
X159299977Y-120965499D01*
X159299981Y-120965500D01*
X159299982Y-120965500D01*
X159500019Y-120965500D01*
X159500020Y-120965499D01*
X159696211Y-120926475D01*
X159881020Y-120849925D01*
X159956609Y-120799417D01*
X160023286Y-120778540D01*
X160090666Y-120797024D01*
X160137357Y-120849003D01*
X160149500Y-120902520D01*
X160149500Y-126065677D01*
X160132887Y-126127677D01*
X160072821Y-126231714D01*
X160014327Y-126411740D01*
X160014326Y-126411744D01*
X159994540Y-126600000D01*
X160014326Y-126788256D01*
X160014327Y-126788259D01*
X160072818Y-126968277D01*
X160072821Y-126968284D01*
X160167467Y-127132216D01*
X160294129Y-127272888D01*
X160294132Y-127272890D01*
X160297287Y-127275183D01*
X160298670Y-127276977D01*
X160298958Y-127277236D01*
X160298910Y-127277288D01*
X160339953Y-127330513D01*
X160345931Y-127400127D01*
X160313324Y-127461921D01*
X160252485Y-127496278D01*
X160224401Y-127499500D01*
X155789337Y-127499500D01*
X155722298Y-127479815D01*
X155716452Y-127475818D01*
X155702734Y-127465851D01*
X155702729Y-127465848D01*
X155529807Y-127388857D01*
X155529802Y-127388855D01*
X155383944Y-127357853D01*
X155344646Y-127349500D01*
X155155354Y-127349500D01*
X155122897Y-127356398D01*
X154970197Y-127388855D01*
X154970192Y-127388857D01*
X154797270Y-127465848D01*
X154797265Y-127465851D01*
X154644129Y-127577111D01*
X154517466Y-127717785D01*
X154422821Y-127881715D01*
X154422818Y-127881722D01*
X154364327Y-128061740D01*
X154364326Y-128061744D01*
X154344540Y-128250000D01*
X154364326Y-128438256D01*
X154364327Y-128438259D01*
X154422818Y-128618277D01*
X154422821Y-128618284D01*
X154517467Y-128782216D01*
X154582236Y-128854149D01*
X154644129Y-128922888D01*
X154797265Y-129034148D01*
X154797270Y-129034151D01*
X154970192Y-129111142D01*
X154970197Y-129111144D01*
X155155354Y-129150500D01*
X155155355Y-129150500D01*
X155344642Y-129150500D01*
X155344646Y-129150500D01*
X155350219Y-129149315D01*
X155419884Y-129154630D01*
X155475619Y-129196766D01*
X155499725Y-129262346D01*
X155500000Y-129270605D01*
X155500000Y-130000000D01*
X156509252Y-130000000D01*
X156487482Y-130037708D01*
X156450000Y-130177591D01*
X156450000Y-130322409D01*
X156487482Y-130462292D01*
X156509252Y-130500000D01*
X155500000Y-130500000D01*
X155500000Y-131250344D01*
X155506401Y-131309872D01*
X155506403Y-131309879D01*
X155556645Y-131444586D01*
X155556649Y-131444593D01*
X155642809Y-131559687D01*
X155642812Y-131559690D01*
X155757906Y-131645850D01*
X155757911Y-131645853D01*
X155785845Y-131656272D01*
X155841778Y-131698144D01*
X155866195Y-131763608D01*
X155851343Y-131831881D01*
X155842829Y-131845339D01*
X155709785Y-132028458D01*
X155605950Y-132232244D01*
X155535278Y-132449750D01*
X155535278Y-132449753D01*
X155499500Y-132675646D01*
X155499500Y-132904353D01*
X155535278Y-133130246D01*
X155535278Y-133130249D01*
X155605950Y-133347755D01*
X155657124Y-133448189D01*
X155709783Y-133551538D01*
X155844214Y-133736566D01*
X156005934Y-133898286D01*
X156075423Y-133948773D01*
X156090438Y-133959682D01*
X156133103Y-134015013D01*
X156139082Y-134084626D01*
X156106476Y-134146421D01*
X156090438Y-134160318D01*
X156005932Y-134221715D01*
X155844216Y-134383431D01*
X155844216Y-134383432D01*
X155844214Y-134383434D01*
X155786480Y-134462896D01*
X155709783Y-134568461D01*
X155605950Y-134772244D01*
X155535278Y-134989750D01*
X155535278Y-134989753D01*
X155499500Y-135215646D01*
X155499500Y-135444353D01*
X155535278Y-135670246D01*
X155535278Y-135670249D01*
X155605950Y-135887755D01*
X155605952Y-135887758D01*
X155709783Y-136091538D01*
X155844214Y-136276566D01*
X156005934Y-136438286D01*
X156190962Y-136572717D01*
X156291803Y-136624098D01*
X156394744Y-136676549D01*
X156612251Y-136747221D01*
X156612252Y-136747221D01*
X156612255Y-136747222D01*
X156838146Y-136783000D01*
X156838147Y-136783000D01*
X157161853Y-136783000D01*
X157161854Y-136783000D01*
X157387745Y-136747222D01*
X157387748Y-136747221D01*
X157387749Y-136747221D01*
X157605255Y-136676549D01*
X157605255Y-136676548D01*
X157605258Y-136676548D01*
X157809038Y-136572717D01*
X157994066Y-136438286D01*
X158155786Y-136276566D01*
X158290217Y-136091538D01*
X158394048Y-135887758D01*
X158464722Y-135670245D01*
X158500500Y-135444354D01*
X158500500Y-135215646D01*
X158464722Y-134989755D01*
X158464721Y-134989751D01*
X158464721Y-134989750D01*
X158394049Y-134772244D01*
X158290216Y-134568461D01*
X158155786Y-134383434D01*
X157994066Y-134221714D01*
X157909559Y-134160316D01*
X157866896Y-134104988D01*
X157860917Y-134035375D01*
X157893523Y-133973580D01*
X157909556Y-133959685D01*
X157994066Y-133898286D01*
X158155786Y-133736566D01*
X158290217Y-133551538D01*
X158394048Y-133347758D01*
X158403825Y-133317668D01*
X158464721Y-133130249D01*
X158464721Y-133130248D01*
X158464722Y-133130245D01*
X158500500Y-132904354D01*
X158500500Y-132675646D01*
X158464722Y-132449755D01*
X158464721Y-132449751D01*
X158464721Y-132449750D01*
X158394049Y-132232244D01*
X158322042Y-132090923D01*
X158290217Y-132028462D01*
X158157169Y-131845337D01*
X158133690Y-131779533D01*
X158149515Y-131711480D01*
X158199621Y-131662785D01*
X158214155Y-131656272D01*
X158242086Y-131645854D01*
X158242093Y-131645850D01*
X158357187Y-131559690D01*
X158357190Y-131559687D01*
X158443350Y-131444593D01*
X158443354Y-131444586D01*
X158493596Y-131309879D01*
X158493598Y-131309872D01*
X158499999Y-131250344D01*
X158500000Y-131250327D01*
X158500000Y-130500000D01*
X157490748Y-130500000D01*
X157512518Y-130462292D01*
X157550000Y-130322409D01*
X157550000Y-130177591D01*
X157512518Y-130037708D01*
X157490748Y-130000000D01*
X158500000Y-130000000D01*
X158500000Y-129249672D01*
X158499999Y-129249655D01*
X158493598Y-129190127D01*
X158493597Y-129190123D01*
X158485284Y-129167834D01*
X158480300Y-129098142D01*
X158513785Y-129036819D01*
X158575108Y-129003334D01*
X158601466Y-129000500D01*
X169637770Y-129000500D01*
X169704809Y-129020185D01*
X169725451Y-129036819D01*
X170463181Y-129774548D01*
X170496666Y-129835871D01*
X170499500Y-129862229D01*
X170499500Y-131250370D01*
X170499501Y-131250376D01*
X170505908Y-131309983D01*
X170556202Y-131444828D01*
X170556206Y-131444835D01*
X170642452Y-131560044D01*
X170642455Y-131560047D01*
X170757664Y-131646293D01*
X170757667Y-131646295D01*
X170757668Y-131646295D01*
X170757669Y-131646296D01*
X170786025Y-131656872D01*
X170841958Y-131698742D01*
X170866376Y-131764206D01*
X170851525Y-131832479D01*
X170843010Y-131845939D01*
X170710213Y-132028719D01*
X170606417Y-132232429D01*
X170535765Y-132449871D01*
X170521491Y-132540000D01*
X171509252Y-132540000D01*
X171487482Y-132577708D01*
X171450000Y-132717591D01*
X171450000Y-132862409D01*
X171487482Y-133002292D01*
X171509252Y-133040000D01*
X170521491Y-133040000D01*
X170535765Y-133130128D01*
X170606417Y-133347570D01*
X170710211Y-133551276D01*
X170844597Y-133736242D01*
X171006257Y-133897902D01*
X171006263Y-133897907D01*
X171090863Y-133959372D01*
X171133529Y-134014701D01*
X171139508Y-134084315D01*
X171106903Y-134146110D01*
X171090864Y-134160007D01*
X171005940Y-134221709D01*
X171005931Y-134221716D01*
X170844216Y-134383431D01*
X170844216Y-134383432D01*
X170844214Y-134383434D01*
X170786480Y-134462896D01*
X170709783Y-134568461D01*
X170605950Y-134772244D01*
X170535278Y-134989750D01*
X170535278Y-134989753D01*
X170499500Y-135215646D01*
X170499500Y-135444353D01*
X170535278Y-135670246D01*
X170535278Y-135670249D01*
X170605950Y-135887755D01*
X170605952Y-135887758D01*
X170709783Y-136091538D01*
X170844214Y-136276566D01*
X171005934Y-136438286D01*
X171190962Y-136572717D01*
X171291803Y-136624098D01*
X171394744Y-136676549D01*
X171612251Y-136747221D01*
X171612252Y-136747221D01*
X171612255Y-136747222D01*
X171838146Y-136783000D01*
X171838147Y-136783000D01*
X172161853Y-136783000D01*
X172161854Y-136783000D01*
X172387745Y-136747222D01*
X172387748Y-136747221D01*
X172387749Y-136747221D01*
X172605255Y-136676549D01*
X172605255Y-136676548D01*
X172605258Y-136676548D01*
X172809038Y-136572717D01*
X172994066Y-136438286D01*
X173155786Y-136276566D01*
X173290217Y-136091538D01*
X173394048Y-135887758D01*
X173464722Y-135670245D01*
X173500500Y-135444354D01*
X173500500Y-135215646D01*
X173464722Y-134989755D01*
X173464721Y-134989751D01*
X173464721Y-134989750D01*
X173394049Y-134772244D01*
X173290216Y-134568461D01*
X173155786Y-134383434D01*
X172994066Y-134221714D01*
X172909134Y-134160007D01*
X172866470Y-134104678D01*
X172860491Y-134035064D01*
X172893097Y-133973269D01*
X172909137Y-133959371D01*
X172993739Y-133897905D01*
X173155402Y-133736242D01*
X173289788Y-133551276D01*
X173393582Y-133347570D01*
X173464234Y-133130128D01*
X173478509Y-133040000D01*
X172490748Y-133040000D01*
X172512518Y-133002292D01*
X172550000Y-132862409D01*
X172550000Y-132717591D01*
X172512518Y-132577708D01*
X172490748Y-132540000D01*
X173478509Y-132540000D01*
X173464234Y-132449871D01*
X173393582Y-132232429D01*
X173289788Y-132028723D01*
X173156988Y-131845940D01*
X173133508Y-131780133D01*
X173149333Y-131712079D01*
X173199439Y-131663384D01*
X173213966Y-131656875D01*
X173242331Y-131646296D01*
X173357546Y-131560046D01*
X173443796Y-131444831D01*
X173494091Y-131309983D01*
X173500500Y-131250373D01*
X173500499Y-129249628D01*
X173495299Y-129201257D01*
X173494091Y-129190016D01*
X173443797Y-129055171D01*
X173443793Y-129055164D01*
X173357547Y-128939955D01*
X173357544Y-128939952D01*
X173242335Y-128853706D01*
X173242328Y-128853702D01*
X173107482Y-128803408D01*
X173107483Y-128803408D01*
X173047883Y-128797001D01*
X173047881Y-128797000D01*
X173047873Y-128797000D01*
X173047865Y-128797000D01*
X171659730Y-128797000D01*
X171592691Y-128777315D01*
X171572049Y-128760681D01*
X170478421Y-127667052D01*
X170478414Y-127667046D01*
X170404729Y-127617812D01*
X170404729Y-127617813D01*
X170355491Y-127584913D01*
X170218917Y-127528343D01*
X170218907Y-127528340D01*
X170073920Y-127499500D01*
X170073918Y-127499500D01*
X161575599Y-127499500D01*
X161508560Y-127479815D01*
X161462805Y-127427011D01*
X161452861Y-127357853D01*
X161481886Y-127294297D01*
X161502713Y-127275183D01*
X161503954Y-127274280D01*
X161505871Y-127272888D01*
X161632533Y-127132216D01*
X161727179Y-126968284D01*
X161785674Y-126788256D01*
X161805460Y-126600000D01*
X161785674Y-126411744D01*
X161727179Y-126231716D01*
X161727178Y-126231714D01*
X161667113Y-126127677D01*
X161650500Y-126065677D01*
X161650500Y-120901918D01*
X161670185Y-120834879D01*
X161722989Y-120789124D01*
X161792147Y-120779180D01*
X161843391Y-120798816D01*
X161919210Y-120849477D01*
X161919223Y-120849484D01*
X162103929Y-120925991D01*
X162103936Y-120925993D01*
X162150000Y-120935155D01*
X162150000Y-119866189D01*
X162175884Y-119892073D01*
X162259115Y-119940126D01*
X162351947Y-119965000D01*
X162448053Y-119965000D01*
X162540885Y-119940126D01*
X162624116Y-119892073D01*
X162650000Y-119866189D01*
X162650000Y-120935155D01*
X162696063Y-120925993D01*
X162696070Y-120925991D01*
X162880776Y-120849484D01*
X162880789Y-120849477D01*
X163047023Y-120738403D01*
X163061962Y-120723464D01*
X163123285Y-120689977D01*
X163192977Y-120694960D01*
X163237329Y-120723464D01*
X163252653Y-120738789D01*
X163252656Y-120738791D01*
X163418973Y-120849921D01*
X163418986Y-120849928D01*
X163602625Y-120925993D01*
X163603789Y-120926475D01*
X163747185Y-120954998D01*
X163799977Y-120965499D01*
X163799981Y-120965500D01*
X163799982Y-120965500D01*
X164000019Y-120965500D01*
X164000020Y-120965499D01*
X164196211Y-120926475D01*
X164381020Y-120849925D01*
X164456609Y-120799417D01*
X164523286Y-120778540D01*
X164590666Y-120797024D01*
X164637357Y-120849003D01*
X164649500Y-120902520D01*
X164649500Y-124065677D01*
X164632887Y-124127677D01*
X164572821Y-124231714D01*
X164514327Y-124411740D01*
X164514326Y-124411744D01*
X164494540Y-124600000D01*
X164514326Y-124788256D01*
X164514327Y-124788259D01*
X164572818Y-124968277D01*
X164572821Y-124968284D01*
X164667467Y-125132216D01*
X164794129Y-125272888D01*
X164947265Y-125384148D01*
X164947270Y-125384151D01*
X165120192Y-125461142D01*
X165120197Y-125461144D01*
X165305354Y-125500500D01*
X165305355Y-125500500D01*
X165494644Y-125500500D01*
X165494646Y-125500500D01*
X165679803Y-125461144D01*
X165852730Y-125384151D01*
X166005871Y-125272888D01*
X166132533Y-125132216D01*
X166227179Y-124968284D01*
X166285674Y-124788256D01*
X166305460Y-124600000D01*
X166285674Y-124411744D01*
X166227179Y-124231716D01*
X166227178Y-124231714D01*
X166167113Y-124127677D01*
X166150500Y-124065677D01*
X166150500Y-120902520D01*
X166170185Y-120835481D01*
X166222989Y-120789726D01*
X166292147Y-120779782D01*
X166343390Y-120799417D01*
X166418980Y-120849925D01*
X166418982Y-120849926D01*
X166418986Y-120849928D01*
X166602625Y-120925993D01*
X166603789Y-120926475D01*
X166747185Y-120954998D01*
X166799977Y-120965499D01*
X166799981Y-120965500D01*
X166799982Y-120965500D01*
X167000019Y-120965500D01*
X167000020Y-120965499D01*
X167196211Y-120926475D01*
X167381020Y-120849925D01*
X167456609Y-120799417D01*
X167523286Y-120778540D01*
X167590666Y-120797024D01*
X167637357Y-120849003D01*
X167649500Y-120902520D01*
X167649500Y-125065677D01*
X167632887Y-125127677D01*
X167572821Y-125231714D01*
X167514327Y-125411740D01*
X167514326Y-125411744D01*
X167494540Y-125600000D01*
X167514326Y-125788256D01*
X167514327Y-125788259D01*
X167572818Y-125968277D01*
X167572821Y-125968284D01*
X167667467Y-126132216D01*
X167794129Y-126272888D01*
X167947265Y-126384148D01*
X167947270Y-126384151D01*
X168120192Y-126461142D01*
X168120197Y-126461144D01*
X168305354Y-126500500D01*
X168305355Y-126500500D01*
X168494644Y-126500500D01*
X168494646Y-126500500D01*
X168679803Y-126461144D01*
X168852730Y-126384151D01*
X169005871Y-126272888D01*
X169132533Y-126132216D01*
X169227179Y-125968284D01*
X169285674Y-125788256D01*
X169305460Y-125600000D01*
X169285674Y-125411744D01*
X169227179Y-125231716D01*
X169227178Y-125231714D01*
X169167113Y-125127677D01*
X169150500Y-125065677D01*
X169150500Y-120901918D01*
X169170185Y-120834879D01*
X169222989Y-120789124D01*
X169292147Y-120779180D01*
X169343391Y-120798816D01*
X169419210Y-120849477D01*
X169419223Y-120849484D01*
X169603929Y-120925991D01*
X169603936Y-120925993D01*
X169650000Y-120935155D01*
X169650000Y-119866189D01*
X169675884Y-119892073D01*
X169759115Y-119940126D01*
X169851947Y-119965000D01*
X169948053Y-119965000D01*
X170040885Y-119940126D01*
X170124116Y-119892073D01*
X170150000Y-119866189D01*
X170150000Y-120935155D01*
X170196063Y-120925993D01*
X170196070Y-120925991D01*
X170380776Y-120849484D01*
X170380789Y-120849477D01*
X170547023Y-120738403D01*
X170561962Y-120723464D01*
X170623285Y-120689977D01*
X170692977Y-120694960D01*
X170737329Y-120723464D01*
X170752653Y-120738789D01*
X170752656Y-120738791D01*
X170918973Y-120849921D01*
X170918986Y-120849928D01*
X171102625Y-120925993D01*
X171103789Y-120926475D01*
X171247185Y-120954998D01*
X171299977Y-120965499D01*
X171299981Y-120965500D01*
X171299982Y-120965500D01*
X171500019Y-120965500D01*
X171500020Y-120965499D01*
X171696211Y-120926475D01*
X171881020Y-120849925D01*
X171992751Y-120775268D01*
X172059427Y-120754391D01*
X172126807Y-120772875D01*
X172149322Y-120790690D01*
X172166344Y-120807712D01*
X172315666Y-120899814D01*
X172482203Y-120954999D01*
X172584991Y-120965500D01*
X173215008Y-120965499D01*
X173215016Y-120965498D01*
X173215019Y-120965498D01*
X173271302Y-120959748D01*
X173317797Y-120954999D01*
X173484334Y-120899814D01*
X173633656Y-120807712D01*
X173757712Y-120683656D01*
X173849814Y-120534334D01*
X173904999Y-120367797D01*
X173915500Y-120265009D01*
X173915499Y-118934992D01*
X173904999Y-118832203D01*
X173849814Y-118665666D01*
X173757712Y-118516344D01*
X173653049Y-118411681D01*
X173619564Y-118350358D01*
X173624548Y-118280666D01*
X173666420Y-118224733D01*
X173731884Y-118200316D01*
X173740730Y-118200000D01*
X182876000Y-118200000D01*
X182943039Y-118219685D01*
X182988794Y-118272489D01*
X183000000Y-118324000D01*
X183000000Y-153676000D01*
X182980315Y-153743039D01*
X182927511Y-153788794D01*
X182876000Y-153800000D01*
X87124000Y-153800000D01*
X87056961Y-153780315D01*
X87011206Y-153727511D01*
X87000000Y-153676000D01*
X87000000Y-146182533D01*
X89670000Y-146182533D01*
X89670000Y-147830000D01*
X90945038Y-147830000D01*
X90915000Y-147981016D01*
X90915000Y-148178984D01*
X90945038Y-148330000D01*
X89670000Y-148330000D01*
X89670000Y-149977466D01*
X89670001Y-149977483D01*
X89708496Y-150269884D01*
X89708499Y-150269897D01*
X89784835Y-150554790D01*
X89784838Y-150554800D01*
X89897704Y-150827281D01*
X89897709Y-150827292D01*
X90045174Y-151082707D01*
X90045185Y-151082723D01*
X90224729Y-151316709D01*
X90224735Y-151316716D01*
X90433283Y-151525264D01*
X90433290Y-151525270D01*
X90667276Y-151704814D01*
X90667292Y-151704825D01*
X90922707Y-151852290D01*
X90922718Y-151852295D01*
X91195199Y-151965161D01*
X91195209Y-151965164D01*
X91480102Y-152041500D01*
X91480115Y-152041503D01*
X91670000Y-152066502D01*
X91670000Y-149054961D01*
X91821016Y-149085000D01*
X92018984Y-149085000D01*
X92170000Y-149054961D01*
X92170000Y-152066501D01*
X92359884Y-152041503D01*
X92359897Y-152041500D01*
X92644790Y-151965164D01*
X92644800Y-151965161D01*
X92917281Y-151852295D01*
X92917292Y-151852290D01*
X93172707Y-151704825D01*
X93172723Y-151704814D01*
X93406709Y-151525270D01*
X93406716Y-151525264D01*
X93615264Y-151316716D01*
X93615270Y-151316709D01*
X93794814Y-151082723D01*
X93794825Y-151082707D01*
X93942290Y-150827292D01*
X93942295Y-150827281D01*
X94055161Y-150554800D01*
X94055164Y-150554790D01*
X94131500Y-150269897D01*
X94131503Y-150269884D01*
X94169998Y-149977483D01*
X94170000Y-149977466D01*
X94170000Y-148330000D01*
X92894962Y-148330000D01*
X92925000Y-148178984D01*
X92925000Y-147981016D01*
X92894962Y-147830000D01*
X94170000Y-147830000D01*
X94170000Y-146182533D01*
X99830000Y-146182533D01*
X99830000Y-147830000D01*
X101105038Y-147830000D01*
X101075000Y-147981016D01*
X101075000Y-148178984D01*
X101105038Y-148330000D01*
X99830000Y-148330000D01*
X99830000Y-149977466D01*
X99830001Y-149977483D01*
X99868496Y-150269884D01*
X99868499Y-150269897D01*
X99944835Y-150554790D01*
X99944838Y-150554800D01*
X100057704Y-150827281D01*
X100057709Y-150827292D01*
X100205174Y-151082707D01*
X100205185Y-151082723D01*
X100384729Y-151316709D01*
X100384735Y-151316716D01*
X100593283Y-151525264D01*
X100593290Y-151525270D01*
X100827276Y-151704814D01*
X100827292Y-151704825D01*
X101082707Y-151852290D01*
X101082718Y-151852295D01*
X101355199Y-151965161D01*
X101355209Y-151965164D01*
X101640102Y-152041500D01*
X101640115Y-152041503D01*
X101830000Y-152066502D01*
X101830000Y-149054961D01*
X101981016Y-149085000D01*
X102178984Y-149085000D01*
X102330000Y-149054961D01*
X102330000Y-152066501D01*
X102519884Y-152041503D01*
X102519897Y-152041500D01*
X102804790Y-151965164D01*
X102804800Y-151965161D01*
X103077281Y-151852295D01*
X103077292Y-151852290D01*
X103332707Y-151704825D01*
X103332723Y-151704814D01*
X103566709Y-151525270D01*
X103566716Y-151525264D01*
X103775264Y-151316716D01*
X103775270Y-151316709D01*
X103954814Y-151082723D01*
X103954825Y-151082707D01*
X104102290Y-150827292D01*
X104102295Y-150827281D01*
X104215161Y-150554800D01*
X104215164Y-150554790D01*
X104291500Y-150269897D01*
X104291503Y-150269884D01*
X104329998Y-149977483D01*
X104330000Y-149977466D01*
X104330000Y-148330000D01*
X103054962Y-148330000D01*
X103085000Y-148178984D01*
X103085000Y-147981016D01*
X103054962Y-147830000D01*
X104330000Y-147830000D01*
X104330000Y-146182533D01*
X109670000Y-146182533D01*
X109670000Y-147830000D01*
X110945038Y-147830000D01*
X110915000Y-147981016D01*
X110915000Y-148178984D01*
X110945038Y-148330000D01*
X109670000Y-148330000D01*
X109670000Y-149977466D01*
X109670001Y-149977483D01*
X109708496Y-150269884D01*
X109708499Y-150269897D01*
X109784835Y-150554790D01*
X109784838Y-150554800D01*
X109897704Y-150827281D01*
X109897709Y-150827292D01*
X110045174Y-151082707D01*
X110045185Y-151082723D01*
X110224729Y-151316709D01*
X110224735Y-151316716D01*
X110433283Y-151525264D01*
X110433290Y-151525270D01*
X110667276Y-151704814D01*
X110667292Y-151704825D01*
X110922707Y-151852290D01*
X110922718Y-151852295D01*
X111195199Y-151965161D01*
X111195209Y-151965164D01*
X111480102Y-152041500D01*
X111480115Y-152041503D01*
X111670000Y-152066502D01*
X111670000Y-149054961D01*
X111821016Y-149085000D01*
X112018984Y-149085000D01*
X112170000Y-149054961D01*
X112170000Y-152066501D01*
X112359884Y-152041503D01*
X112359897Y-152041500D01*
X112644790Y-151965164D01*
X112644800Y-151965161D01*
X112917281Y-151852295D01*
X112917292Y-151852290D01*
X113172707Y-151704825D01*
X113172723Y-151704814D01*
X113406709Y-151525270D01*
X113406716Y-151525264D01*
X113615264Y-151316716D01*
X113615270Y-151316709D01*
X113794814Y-151082723D01*
X113794825Y-151082707D01*
X113942290Y-150827292D01*
X113942295Y-150827281D01*
X114055161Y-150554800D01*
X114055164Y-150554790D01*
X114131500Y-150269897D01*
X114131503Y-150269884D01*
X114169998Y-149977483D01*
X114170000Y-149977466D01*
X114170000Y-148330000D01*
X112894962Y-148330000D01*
X112925000Y-148178984D01*
X112925000Y-147981016D01*
X112894962Y-147830000D01*
X114170000Y-147830000D01*
X114170000Y-146182533D01*
X119830000Y-146182533D01*
X119830000Y-147830000D01*
X121105038Y-147830000D01*
X121075000Y-147981016D01*
X121075000Y-148178984D01*
X121105038Y-148330000D01*
X119830000Y-148330000D01*
X119830000Y-149977466D01*
X119830001Y-149977483D01*
X119868496Y-150269884D01*
X119868499Y-150269897D01*
X119944835Y-150554790D01*
X119944838Y-150554800D01*
X120057704Y-150827281D01*
X120057709Y-150827292D01*
X120205174Y-151082707D01*
X120205185Y-151082723D01*
X120384729Y-151316709D01*
X120384735Y-151316716D01*
X120593283Y-151525264D01*
X120593290Y-151525270D01*
X120827276Y-151704814D01*
X120827292Y-151704825D01*
X121082707Y-151852290D01*
X121082718Y-151852295D01*
X121355199Y-151965161D01*
X121355209Y-151965164D01*
X121640102Y-152041500D01*
X121640115Y-152041503D01*
X121830000Y-152066502D01*
X121830000Y-149054961D01*
X121981016Y-149085000D01*
X122178984Y-149085000D01*
X122330000Y-149054961D01*
X122330000Y-152066501D01*
X122519884Y-152041503D01*
X122519897Y-152041500D01*
X122804790Y-151965164D01*
X122804800Y-151965161D01*
X123077281Y-151852295D01*
X123077292Y-151852290D01*
X123332707Y-151704825D01*
X123332723Y-151704814D01*
X123566709Y-151525270D01*
X123566716Y-151525264D01*
X123775264Y-151316716D01*
X123775270Y-151316709D01*
X123954814Y-151082723D01*
X123954825Y-151082707D01*
X124102290Y-150827292D01*
X124102295Y-150827281D01*
X124215161Y-150554800D01*
X124215164Y-150554790D01*
X124291500Y-150269897D01*
X124291503Y-150269884D01*
X124329998Y-149977483D01*
X124330000Y-149977466D01*
X124330000Y-148330000D01*
X123054962Y-148330000D01*
X123085000Y-148178984D01*
X123085000Y-147981016D01*
X123054962Y-147830000D01*
X124330000Y-147830000D01*
X124330000Y-147249985D01*
X128849500Y-147249985D01*
X128849500Y-150749999D01*
X128849501Y-150750016D01*
X128860000Y-150852795D01*
X128860001Y-150852798D01*
X128915185Y-151019330D01*
X128915186Y-151019333D01*
X129007289Y-151168655D01*
X129131345Y-151292711D01*
X129280667Y-151384814D01*
X129447204Y-151439999D01*
X129549993Y-151450500D01*
X133050006Y-151450499D01*
X133152796Y-151439999D01*
X133319333Y-151384814D01*
X133468655Y-151292711D01*
X133592711Y-151168655D01*
X133684814Y-151019333D01*
X133739999Y-150852796D01*
X133750500Y-150750007D01*
X133750499Y-148999994D01*
X136644655Y-148999994D01*
X136644655Y-149000005D01*
X136664014Y-149307725D01*
X136664015Y-149307732D01*
X136664016Y-149307736D01*
X136711714Y-149557780D01*
X136721795Y-149610623D01*
X136817078Y-149903874D01*
X136817080Y-149903879D01*
X136948362Y-150182867D01*
X136948366Y-150182873D01*
X137113577Y-150443206D01*
X137113579Y-150443209D01*
X137113584Y-150443216D01*
X137310131Y-150680799D01*
X137310132Y-150680800D01*
X137534902Y-150891874D01*
X137534912Y-150891882D01*
X137784348Y-151073108D01*
X137784353Y-151073110D01*
X137784360Y-151073116D01*
X138054565Y-151221663D01*
X138054570Y-151221665D01*
X138054572Y-151221666D01*
X138054573Y-151221667D01*
X138341253Y-151335171D01*
X138341256Y-151335172D01*
X138534592Y-151384812D01*
X138639914Y-151411854D01*
X138704091Y-151419961D01*
X138945816Y-151450499D01*
X138945825Y-151450499D01*
X138945828Y-151450500D01*
X138945830Y-151450500D01*
X139254170Y-151450500D01*
X139254172Y-151450500D01*
X139254175Y-151450499D01*
X139254183Y-151450499D01*
X139436722Y-151427438D01*
X139560086Y-151411854D01*
X139858743Y-151335172D01*
X139905358Y-151316716D01*
X140145426Y-151221667D01*
X140145427Y-151221666D01*
X140145425Y-151221666D01*
X140145435Y-151221663D01*
X140415640Y-151073116D01*
X140665096Y-150891876D01*
X140889869Y-150680799D01*
X141086416Y-150443216D01*
X141251635Y-150182871D01*
X141251748Y-150182632D01*
X141382919Y-149903879D01*
X141382922Y-149903873D01*
X141478206Y-149610619D01*
X141535984Y-149307736D01*
X141549923Y-149086180D01*
X141555345Y-149000005D01*
X141555345Y-148999994D01*
X141535985Y-148692274D01*
X141535984Y-148692267D01*
X141535984Y-148692264D01*
X141478206Y-148389381D01*
X141382922Y-148096127D01*
X141251750Y-147817373D01*
X141251637Y-147817132D01*
X141251633Y-147817126D01*
X141086422Y-147556793D01*
X141086420Y-147556791D01*
X141086416Y-147556784D01*
X140889869Y-147319201D01*
X140665096Y-147108124D01*
X140665093Y-147108122D01*
X140665087Y-147108117D01*
X140415651Y-146926891D01*
X140415644Y-146926886D01*
X140415640Y-146926884D01*
X140145435Y-146778337D01*
X140145432Y-146778335D01*
X140145427Y-146778333D01*
X140145426Y-146778332D01*
X139858746Y-146664828D01*
X139858743Y-146664827D01*
X139560089Y-146588146D01*
X139560076Y-146588144D01*
X139254183Y-146549500D01*
X139254172Y-146549500D01*
X138945828Y-146549500D01*
X138945816Y-146549500D01*
X138639923Y-146588144D01*
X138639910Y-146588146D01*
X138341256Y-146664827D01*
X138341253Y-146664828D01*
X138054573Y-146778332D01*
X138054572Y-146778333D01*
X137784360Y-146926884D01*
X137784348Y-146926891D01*
X137534912Y-147108117D01*
X137534902Y-147108125D01*
X137310132Y-147319199D01*
X137113577Y-147556793D01*
X136948366Y-147817126D01*
X136948362Y-147817132D01*
X136817080Y-148096120D01*
X136817078Y-148096125D01*
X136721795Y-148389376D01*
X136664015Y-148692267D01*
X136664014Y-148692274D01*
X136644655Y-148999994D01*
X133750499Y-148999994D01*
X133750499Y-147249994D01*
X133739999Y-147147204D01*
X133684814Y-146980667D01*
X133592711Y-146831345D01*
X133468655Y-146707289D01*
X133319333Y-146615186D01*
X133152796Y-146560001D01*
X133152794Y-146560000D01*
X133050008Y-146549500D01*
X129550000Y-146549500D01*
X129549983Y-146549501D01*
X129447204Y-146560000D01*
X129447201Y-146560001D01*
X129280669Y-146615185D01*
X129280664Y-146615187D01*
X129131343Y-146707290D01*
X129007290Y-146831343D01*
X128915187Y-146980664D01*
X128915186Y-146980667D01*
X128860001Y-147147204D01*
X128860001Y-147147205D01*
X128860000Y-147147205D01*
X128849500Y-147249985D01*
X124330000Y-147249985D01*
X124330000Y-146182533D01*
X124329998Y-146182516D01*
X124291503Y-145890115D01*
X124291500Y-145890102D01*
X124215164Y-145605209D01*
X124215161Y-145605199D01*
X124102295Y-145332718D01*
X124102290Y-145332707D01*
X123954825Y-145077292D01*
X123954814Y-145077276D01*
X123775270Y-144843290D01*
X123775264Y-144843283D01*
X123566716Y-144634735D01*
X123566709Y-144634729D01*
X123332723Y-144455185D01*
X123332707Y-144455174D01*
X123077292Y-144307709D01*
X123077281Y-144307704D01*
X122804800Y-144194838D01*
X122804790Y-144194835D01*
X122519897Y-144118499D01*
X122519886Y-144118497D01*
X122330000Y-144093496D01*
X122330000Y-147105038D01*
X122178984Y-147075000D01*
X121981016Y-147075000D01*
X121830000Y-147105038D01*
X121830000Y-144093496D01*
X121829999Y-144093496D01*
X121640113Y-144118497D01*
X121640102Y-144118499D01*
X121355209Y-144194835D01*
X121355199Y-144194838D01*
X121082718Y-144307704D01*
X121082707Y-144307709D01*
X120827292Y-144455174D01*
X120827276Y-144455185D01*
X120593290Y-144634729D01*
X120593283Y-144634735D01*
X120384735Y-144843283D01*
X120384729Y-144843290D01*
X120205185Y-145077276D01*
X120205174Y-145077292D01*
X120057709Y-145332707D01*
X120057704Y-145332718D01*
X119944838Y-145605199D01*
X119944835Y-145605209D01*
X119868499Y-145890102D01*
X119868496Y-145890115D01*
X119830001Y-146182516D01*
X119830000Y-146182533D01*
X114170000Y-146182533D01*
X114169998Y-146182516D01*
X114131503Y-145890115D01*
X114131500Y-145890102D01*
X114055164Y-145605209D01*
X114055161Y-145605199D01*
X113942295Y-145332718D01*
X113942290Y-145332707D01*
X113794825Y-145077292D01*
X113794814Y-145077276D01*
X113615270Y-144843290D01*
X113615264Y-144843283D01*
X113406716Y-144634735D01*
X113406709Y-144634729D01*
X113172723Y-144455185D01*
X113172707Y-144455174D01*
X112917292Y-144307709D01*
X112917281Y-144307704D01*
X112644800Y-144194838D01*
X112644790Y-144194835D01*
X112359897Y-144118499D01*
X112359886Y-144118497D01*
X112170000Y-144093496D01*
X112170000Y-147105038D01*
X112018984Y-147075000D01*
X111821016Y-147075000D01*
X111670000Y-147105038D01*
X111670000Y-144093496D01*
X111669999Y-144093496D01*
X111480113Y-144118497D01*
X111480102Y-144118499D01*
X111195209Y-144194835D01*
X111195199Y-144194838D01*
X110922718Y-144307704D01*
X110922707Y-144307709D01*
X110667292Y-144455174D01*
X110667276Y-144455185D01*
X110433290Y-144634729D01*
X110433283Y-144634735D01*
X110224735Y-144843283D01*
X110224729Y-144843290D01*
X110045185Y-145077276D01*
X110045174Y-145077292D01*
X109897709Y-145332707D01*
X109897704Y-145332718D01*
X109784838Y-145605199D01*
X109784835Y-145605209D01*
X109708499Y-145890102D01*
X109708496Y-145890115D01*
X109670001Y-146182516D01*
X109670000Y-146182533D01*
X104330000Y-146182533D01*
X104329998Y-146182516D01*
X104291503Y-145890115D01*
X104291500Y-145890102D01*
X104215164Y-145605209D01*
X104215161Y-145605199D01*
X104102295Y-145332718D01*
X104102290Y-145332707D01*
X103954825Y-145077292D01*
X103954814Y-145077276D01*
X103775270Y-144843290D01*
X103775264Y-144843283D01*
X103566716Y-144634735D01*
X103566709Y-144634729D01*
X103332723Y-144455185D01*
X103332707Y-144455174D01*
X103077292Y-144307709D01*
X103077281Y-144307704D01*
X102804800Y-144194838D01*
X102804790Y-144194835D01*
X102519897Y-144118499D01*
X102519886Y-144118497D01*
X102330000Y-144093496D01*
X102330000Y-147105038D01*
X102178984Y-147075000D01*
X101981016Y-147075000D01*
X101830000Y-147105038D01*
X101830000Y-144093496D01*
X101829999Y-144093496D01*
X101640113Y-144118497D01*
X101640102Y-144118499D01*
X101355209Y-144194835D01*
X101355199Y-144194838D01*
X101082718Y-144307704D01*
X101082707Y-144307709D01*
X100827292Y-144455174D01*
X100827276Y-144455185D01*
X100593290Y-144634729D01*
X100593283Y-144634735D01*
X100384735Y-144843283D01*
X100384729Y-144843290D01*
X100205185Y-145077276D01*
X100205174Y-145077292D01*
X100057709Y-145332707D01*
X100057704Y-145332718D01*
X99944838Y-145605199D01*
X99944835Y-145605209D01*
X99868499Y-145890102D01*
X99868496Y-145890115D01*
X99830001Y-146182516D01*
X99830000Y-146182533D01*
X94170000Y-146182533D01*
X94169998Y-146182516D01*
X94131503Y-145890115D01*
X94131500Y-145890102D01*
X94055164Y-145605209D01*
X94055161Y-145605199D01*
X93942295Y-145332718D01*
X93942290Y-145332707D01*
X93794825Y-145077292D01*
X93794814Y-145077276D01*
X93615270Y-144843290D01*
X93615264Y-144843283D01*
X93406716Y-144634735D01*
X93406709Y-144634729D01*
X93172723Y-144455185D01*
X93172707Y-144455174D01*
X92917292Y-144307709D01*
X92917281Y-144307704D01*
X92644800Y-144194838D01*
X92644790Y-144194835D01*
X92359897Y-144118499D01*
X92359886Y-144118497D01*
X92170000Y-144093496D01*
X92170000Y-147105038D01*
X92018984Y-147075000D01*
X91821016Y-147075000D01*
X91670000Y-147105038D01*
X91670000Y-144093496D01*
X91669999Y-144093496D01*
X91480113Y-144118497D01*
X91480102Y-144118499D01*
X91195209Y-144194835D01*
X91195199Y-144194838D01*
X90922718Y-144307704D01*
X90922707Y-144307709D01*
X90667292Y-144455174D01*
X90667276Y-144455185D01*
X90433290Y-144634729D01*
X90433283Y-144634735D01*
X90224735Y-144843283D01*
X90224729Y-144843290D01*
X90045185Y-145077276D01*
X90045174Y-145077292D01*
X89897709Y-145332707D01*
X89897704Y-145332718D01*
X89784838Y-145605199D01*
X89784835Y-145605209D01*
X89708499Y-145890102D01*
X89708496Y-145890115D01*
X89670001Y-146182516D01*
X89670000Y-146182533D01*
X87000000Y-146182533D01*
X87000000Y-142447648D01*
X95699500Y-142447648D01*
X95699500Y-143552351D01*
X95731522Y-143754534D01*
X95794781Y-143949223D01*
X95887715Y-144131613D01*
X96008028Y-144297213D01*
X96152786Y-144441971D01*
X96307749Y-144554556D01*
X96318390Y-144562287D01*
X96434607Y-144621503D01*
X96500776Y-144655218D01*
X96500778Y-144655218D01*
X96500781Y-144655220D01*
X96605137Y-144689127D01*
X96695465Y-144718477D01*
X96796557Y-144734488D01*
X96897648Y-144750500D01*
X96897649Y-144750500D01*
X97102351Y-144750500D01*
X97102352Y-144750500D01*
X97304534Y-144718477D01*
X97499219Y-144655220D01*
X97681610Y-144562287D01*
X97808145Y-144470355D01*
X97847213Y-144441971D01*
X97847215Y-144441968D01*
X97847219Y-144441966D01*
X97991966Y-144297219D01*
X97991968Y-144297215D01*
X97991971Y-144297213D01*
X98112284Y-144131614D01*
X98112285Y-144131613D01*
X98112287Y-144131610D01*
X98159795Y-144038369D01*
X98207770Y-143987574D01*
X98275591Y-143970779D01*
X98341725Y-143993316D01*
X98380765Y-144038370D01*
X98428140Y-144131349D01*
X98548417Y-144296894D01*
X98548417Y-144296895D01*
X98693104Y-144441582D01*
X98858650Y-144561859D01*
X99040968Y-144654754D01*
X99235578Y-144717988D01*
X99290000Y-144726607D01*
X99290000Y-143369504D01*
X99368236Y-143414674D01*
X99481415Y-143445000D01*
X99598585Y-143445000D01*
X99711764Y-143414674D01*
X99790000Y-143369504D01*
X99790000Y-144726606D01*
X99844421Y-144717988D01*
X100039031Y-144654754D01*
X100221349Y-144561859D01*
X100386894Y-144441582D01*
X100386895Y-144441582D01*
X100531582Y-144296895D01*
X100531582Y-144296894D01*
X100651859Y-144131349D01*
X100744755Y-143949031D01*
X100807990Y-143754417D01*
X100840000Y-143552317D01*
X100840000Y-143250000D01*
X99909504Y-143250000D01*
X99954674Y-143171764D01*
X99985000Y-143058585D01*
X99985000Y-142941415D01*
X99954674Y-142828236D01*
X99909504Y-142750000D01*
X100840000Y-142750000D01*
X100840000Y-142447682D01*
X100839995Y-142447648D01*
X115699500Y-142447648D01*
X115699500Y-143552351D01*
X115731522Y-143754534D01*
X115794781Y-143949223D01*
X115887715Y-144131613D01*
X116008028Y-144297213D01*
X116152786Y-144441971D01*
X116307749Y-144554556D01*
X116318390Y-144562287D01*
X116434607Y-144621503D01*
X116500776Y-144655218D01*
X116500778Y-144655218D01*
X116500781Y-144655220D01*
X116605137Y-144689127D01*
X116695465Y-144718477D01*
X116796557Y-144734488D01*
X116897648Y-144750500D01*
X116897649Y-144750500D01*
X117102351Y-144750500D01*
X117102352Y-144750500D01*
X117304534Y-144718477D01*
X117499219Y-144655220D01*
X117681610Y-144562287D01*
X117808145Y-144470355D01*
X117847213Y-144441971D01*
X117847215Y-144441968D01*
X117847219Y-144441966D01*
X117991966Y-144297219D01*
X117991968Y-144297215D01*
X117991971Y-144297213D01*
X118112284Y-144131614D01*
X118112285Y-144131613D01*
X118112287Y-144131610D01*
X118159795Y-144038369D01*
X118207770Y-143987574D01*
X118275591Y-143970779D01*
X118341725Y-143993316D01*
X118380765Y-144038370D01*
X118428140Y-144131349D01*
X118548417Y-144296894D01*
X118548417Y-144296895D01*
X118693104Y-144441582D01*
X118858650Y-144561859D01*
X119040968Y-144654754D01*
X119235578Y-144717988D01*
X119290000Y-144726607D01*
X119290000Y-143369504D01*
X119368236Y-143414674D01*
X119481415Y-143445000D01*
X119598585Y-143445000D01*
X119711764Y-143414674D01*
X119790000Y-143369504D01*
X119790000Y-144726606D01*
X119844421Y-144717988D01*
X120039031Y-144654754D01*
X120221349Y-144561859D01*
X120386894Y-144441582D01*
X120386895Y-144441582D01*
X120531582Y-144296895D01*
X120531582Y-144296894D01*
X120651859Y-144131349D01*
X120744755Y-143949031D01*
X120807990Y-143754417D01*
X120840000Y-143552317D01*
X120840000Y-143250000D01*
X119909504Y-143250000D01*
X119954674Y-143171764D01*
X119985000Y-143058585D01*
X119985000Y-142941415D01*
X119954674Y-142828236D01*
X119909504Y-142750000D01*
X120840000Y-142750000D01*
X120840000Y-142447682D01*
X120807990Y-142245582D01*
X120744755Y-142050968D01*
X120651859Y-141868650D01*
X120531582Y-141703105D01*
X120531582Y-141703104D01*
X120386895Y-141558417D01*
X120221349Y-141438140D01*
X120039029Y-141345244D01*
X119844413Y-141282009D01*
X119790000Y-141273390D01*
X119790000Y-142630495D01*
X119711764Y-142585326D01*
X119598585Y-142555000D01*
X119481415Y-142555000D01*
X119368236Y-142585326D01*
X119290000Y-142630495D01*
X119290000Y-141273390D01*
X119235586Y-141282009D01*
X119040970Y-141345244D01*
X118858650Y-141438140D01*
X118693105Y-141558417D01*
X118693104Y-141558417D01*
X118548417Y-141703104D01*
X118548417Y-141703105D01*
X118428140Y-141868650D01*
X118380765Y-141961629D01*
X118332790Y-142012425D01*
X118264969Y-142029220D01*
X118198834Y-142006682D01*
X118159795Y-141961629D01*
X118112419Y-141868650D01*
X118112287Y-141868390D01*
X118093704Y-141842812D01*
X117991971Y-141702786D01*
X117847213Y-141558028D01*
X117681613Y-141437715D01*
X117681612Y-141437714D01*
X117681610Y-141437713D01*
X117624653Y-141408691D01*
X117499223Y-141344781D01*
X117304534Y-141281522D01*
X117129995Y-141253878D01*
X117102352Y-141249500D01*
X116897648Y-141249500D01*
X116873329Y-141253351D01*
X116695465Y-141281522D01*
X116500776Y-141344781D01*
X116318386Y-141437715D01*
X116152786Y-141558028D01*
X116008028Y-141702786D01*
X115887715Y-141868386D01*
X115794781Y-142050776D01*
X115731522Y-142245465D01*
X115699500Y-142447648D01*
X100839995Y-142447648D01*
X100807990Y-142245582D01*
X100744755Y-142050968D01*
X100651859Y-141868650D01*
X100531582Y-141703105D01*
X100531582Y-141703104D01*
X100386895Y-141558417D01*
X100221349Y-141438140D01*
X100039029Y-141345244D01*
X99844413Y-141282009D01*
X99790000Y-141273390D01*
X99790000Y-142630495D01*
X99711764Y-142585326D01*
X99598585Y-142555000D01*
X99481415Y-142555000D01*
X99368236Y-142585326D01*
X99290000Y-142630495D01*
X99290000Y-141273390D01*
X99235586Y-141282009D01*
X99040970Y-141345244D01*
X98858650Y-141438140D01*
X98693105Y-141558417D01*
X98693104Y-141558417D01*
X98548417Y-141703104D01*
X98548417Y-141703105D01*
X98428140Y-141868650D01*
X98380765Y-141961629D01*
X98332790Y-142012425D01*
X98264969Y-142029220D01*
X98198834Y-142006682D01*
X98159795Y-141961629D01*
X98112419Y-141868650D01*
X98112287Y-141868390D01*
X98093704Y-141842812D01*
X97991971Y-141702786D01*
X97847213Y-141558028D01*
X97681613Y-141437715D01*
X97681612Y-141437714D01*
X97681610Y-141437713D01*
X97624653Y-141408691D01*
X97499223Y-141344781D01*
X97304534Y-141281522D01*
X97129995Y-141253878D01*
X97102352Y-141249500D01*
X96897648Y-141249500D01*
X96873329Y-141253351D01*
X96695465Y-141281522D01*
X96500776Y-141344781D01*
X96318386Y-141437715D01*
X96152786Y-141558028D01*
X96008028Y-141702786D01*
X95887715Y-141868386D01*
X95794781Y-142050776D01*
X95731522Y-142245465D01*
X95699500Y-142447648D01*
X87000000Y-142447648D01*
X87000000Y-133817619D01*
X118444532Y-133817619D01*
X118444532Y-133817622D01*
X118464364Y-134044307D01*
X118464366Y-134044318D01*
X118523258Y-134264109D01*
X118523261Y-134264118D01*
X118619431Y-134470353D01*
X118619432Y-134470355D01*
X118749954Y-134656762D01*
X118910858Y-134817666D01*
X118910861Y-134817668D01*
X119097266Y-134948189D01*
X119303504Y-135044360D01*
X119523308Y-135103256D01*
X119685230Y-135117422D01*
X119749998Y-135123089D01*
X119750000Y-135123089D01*
X119750002Y-135123089D01*
X119806673Y-135118130D01*
X119976692Y-135103256D01*
X120196496Y-135044360D01*
X120402734Y-134948189D01*
X120589139Y-134817668D01*
X120750047Y-134656760D01*
X120880568Y-134470355D01*
X120976739Y-134264117D01*
X121035635Y-134044313D01*
X121055468Y-133817621D01*
X121035635Y-133590929D01*
X120976739Y-133371125D01*
X120880568Y-133164887D01*
X120750047Y-132978482D01*
X120750045Y-132978479D01*
X120592493Y-132820927D01*
X120559008Y-132759604D01*
X120563992Y-132689912D01*
X120574672Y-132675646D01*
X125499500Y-132675646D01*
X125499500Y-132904353D01*
X125535278Y-133130246D01*
X125535278Y-133130249D01*
X125605950Y-133347755D01*
X125657124Y-133448189D01*
X125709783Y-133551538D01*
X125844214Y-133736566D01*
X126005934Y-133898286D01*
X126075423Y-133948773D01*
X126090438Y-133959682D01*
X126133103Y-134015013D01*
X126139082Y-134084626D01*
X126106476Y-134146421D01*
X126090438Y-134160318D01*
X126005932Y-134221715D01*
X125844216Y-134383431D01*
X125844216Y-134383432D01*
X125844214Y-134383434D01*
X125786480Y-134462896D01*
X125709783Y-134568461D01*
X125605950Y-134772244D01*
X125535278Y-134989750D01*
X125535278Y-134989753D01*
X125499500Y-135215646D01*
X125499500Y-135444353D01*
X125535278Y-135670246D01*
X125535278Y-135670249D01*
X125605950Y-135887755D01*
X125605952Y-135887758D01*
X125709783Y-136091538D01*
X125844214Y-136276566D01*
X126005934Y-136438286D01*
X126190962Y-136572717D01*
X126291803Y-136624098D01*
X126394744Y-136676549D01*
X126612251Y-136747221D01*
X126612252Y-136747221D01*
X126612255Y-136747222D01*
X126838146Y-136783000D01*
X126838147Y-136783000D01*
X127161853Y-136783000D01*
X127161854Y-136783000D01*
X127387745Y-136747222D01*
X127387748Y-136747221D01*
X127387749Y-136747221D01*
X127605255Y-136676549D01*
X127605255Y-136676548D01*
X127605258Y-136676548D01*
X127809038Y-136572717D01*
X127994066Y-136438286D01*
X128155786Y-136276566D01*
X128290217Y-136091538D01*
X128394048Y-135887758D01*
X128464722Y-135670245D01*
X128500500Y-135444354D01*
X128500500Y-135215646D01*
X128465976Y-134997674D01*
X128474930Y-134928384D01*
X128500765Y-134890601D01*
X129582951Y-133808416D01*
X129665084Y-133685495D01*
X129721658Y-133548913D01*
X129750500Y-133403918D01*
X129750500Y-124134321D01*
X129767113Y-124072321D01*
X129770949Y-124065677D01*
X129827179Y-123968284D01*
X129885674Y-123788256D01*
X129905460Y-123600000D01*
X129885674Y-123411744D01*
X129827179Y-123231716D01*
X129732533Y-123067784D01*
X129605871Y-122927112D01*
X129605870Y-122927111D01*
X129452734Y-122815851D01*
X129452729Y-122815848D01*
X129279807Y-122738857D01*
X129279802Y-122738855D01*
X129134001Y-122707865D01*
X129094646Y-122699500D01*
X128905354Y-122699500D01*
X128872897Y-122706398D01*
X128720197Y-122738855D01*
X128720192Y-122738857D01*
X128547270Y-122815848D01*
X128547265Y-122815851D01*
X128394129Y-122927111D01*
X128267466Y-123067785D01*
X128172821Y-123231715D01*
X128172818Y-123231722D01*
X128114327Y-123411740D01*
X128114326Y-123411744D01*
X128094540Y-123600000D01*
X128114326Y-123788256D01*
X128114327Y-123788259D01*
X128172818Y-123968277D01*
X128172821Y-123968284D01*
X128232887Y-124072321D01*
X128249500Y-124134321D01*
X128249500Y-128681136D01*
X128229815Y-128748175D01*
X128177011Y-128793930D01*
X128112244Y-128804425D01*
X128047844Y-128797500D01*
X127250000Y-128797500D01*
X127250000Y-129759252D01*
X127212292Y-129737482D01*
X127072409Y-129700000D01*
X126927591Y-129700000D01*
X126787708Y-129737482D01*
X126750000Y-129759252D01*
X126750000Y-128797500D01*
X125952155Y-128797500D01*
X125892627Y-128803901D01*
X125892620Y-128803903D01*
X125757913Y-128854145D01*
X125757906Y-128854149D01*
X125642812Y-128940309D01*
X125642809Y-128940312D01*
X125556649Y-129055406D01*
X125556645Y-129055413D01*
X125506403Y-129190120D01*
X125506401Y-129190127D01*
X125500000Y-129249655D01*
X125500000Y-130000000D01*
X126509252Y-130000000D01*
X126487482Y-130037708D01*
X126450000Y-130177591D01*
X126450000Y-130322409D01*
X126487482Y-130462292D01*
X126509252Y-130500000D01*
X125500000Y-130500000D01*
X125500000Y-131250344D01*
X125506401Y-131309872D01*
X125506403Y-131309879D01*
X125556645Y-131444586D01*
X125556649Y-131444593D01*
X125642809Y-131559687D01*
X125642812Y-131559690D01*
X125757906Y-131645850D01*
X125757911Y-131645853D01*
X125785845Y-131656272D01*
X125841778Y-131698144D01*
X125866195Y-131763608D01*
X125851343Y-131831881D01*
X125842829Y-131845339D01*
X125709785Y-132028458D01*
X125605950Y-132232244D01*
X125535278Y-132449750D01*
X125535278Y-132449753D01*
X125499500Y-132675646D01*
X120574672Y-132675646D01*
X120605864Y-132633979D01*
X120651667Y-132612567D01*
X120657381Y-132611216D01*
X120792086Y-132560975D01*
X120792093Y-132560971D01*
X120907187Y-132474811D01*
X120907190Y-132474808D01*
X120993350Y-132359714D01*
X120993354Y-132359707D01*
X121043596Y-132225000D01*
X121043598Y-132224993D01*
X121049999Y-132165465D01*
X121050000Y-132165448D01*
X121050000Y-131567621D01*
X120065686Y-131567621D01*
X120070080Y-131563227D01*
X120122741Y-131472015D01*
X120150000Y-131370282D01*
X120150000Y-131264960D01*
X120122741Y-131163227D01*
X120070080Y-131072015D01*
X120065686Y-131067621D01*
X121050000Y-131067621D01*
X121050000Y-130469793D01*
X121049999Y-130469776D01*
X121043598Y-130410248D01*
X121043596Y-130410241D01*
X120993354Y-130275534D01*
X120993350Y-130275527D01*
X120907190Y-130160433D01*
X120907187Y-130160430D01*
X120792093Y-130074270D01*
X120792086Y-130074266D01*
X120657379Y-130024024D01*
X120657372Y-130024022D01*
X120597844Y-130017621D01*
X120000000Y-130017621D01*
X120000000Y-131001935D01*
X119995606Y-130997541D01*
X119904394Y-130944880D01*
X119802661Y-130917621D01*
X119697339Y-130917621D01*
X119595606Y-130944880D01*
X119504394Y-130997541D01*
X119500000Y-131001935D01*
X119500000Y-130017621D01*
X118902155Y-130017621D01*
X118842627Y-130024022D01*
X118842620Y-130024024D01*
X118707913Y-130074266D01*
X118707906Y-130074270D01*
X118592812Y-130160430D01*
X118592809Y-130160433D01*
X118506649Y-130275527D01*
X118506645Y-130275534D01*
X118456403Y-130410241D01*
X118456401Y-130410248D01*
X118450000Y-130469776D01*
X118450000Y-131067621D01*
X119434314Y-131067621D01*
X119429920Y-131072015D01*
X119377259Y-131163227D01*
X119350000Y-131264960D01*
X119350000Y-131370282D01*
X119377259Y-131472015D01*
X119429920Y-131563227D01*
X119434314Y-131567621D01*
X118450000Y-131567621D01*
X118450000Y-132165465D01*
X118456401Y-132224993D01*
X118456403Y-132225000D01*
X118506645Y-132359707D01*
X118506649Y-132359714D01*
X118592809Y-132474808D01*
X118592812Y-132474811D01*
X118707906Y-132560971D01*
X118707913Y-132560975D01*
X118842622Y-132611218D01*
X118848334Y-132612568D01*
X118909052Y-132647138D01*
X118941441Y-132709048D01*
X118935218Y-132778639D01*
X118907507Y-132820927D01*
X118749951Y-132978483D01*
X118619432Y-133164886D01*
X118619431Y-133164888D01*
X118523261Y-133371123D01*
X118523258Y-133371132D01*
X118464366Y-133590923D01*
X118464364Y-133590934D01*
X118444532Y-133817619D01*
X87000000Y-133817619D01*
X87000000Y-132317619D01*
X110194532Y-132317619D01*
X110194532Y-132317622D01*
X110214364Y-132544307D01*
X110214366Y-132544318D01*
X110273258Y-132764109D01*
X110273261Y-132764118D01*
X110369431Y-132970353D01*
X110369432Y-132970355D01*
X110499954Y-133156762D01*
X110660858Y-133317666D01*
X110660861Y-133317668D01*
X110847266Y-133448189D01*
X111053504Y-133544360D01*
X111053509Y-133544361D01*
X111053511Y-133544362D01*
X111070496Y-133548913D01*
X111273308Y-133603256D01*
X111435230Y-133617422D01*
X111499998Y-133623089D01*
X111500000Y-133623089D01*
X111500002Y-133623089D01*
X111556673Y-133618130D01*
X111726692Y-133603256D01*
X111946496Y-133544360D01*
X112152734Y-133448189D01*
X112339139Y-133317668D01*
X112500047Y-133156760D01*
X112630568Y-132970355D01*
X112726739Y-132764117D01*
X112785635Y-132544313D01*
X112805468Y-132317621D01*
X112785635Y-132090929D01*
X112726739Y-131871125D01*
X112630568Y-131664887D01*
X112500047Y-131478482D01*
X112500045Y-131478479D01*
X112342493Y-131320927D01*
X112309008Y-131259604D01*
X112313992Y-131189912D01*
X112355864Y-131133979D01*
X112401667Y-131112567D01*
X112407381Y-131111216D01*
X112542086Y-131060975D01*
X112542093Y-131060971D01*
X112657187Y-130974811D01*
X112657190Y-130974808D01*
X112743350Y-130859714D01*
X112743354Y-130859707D01*
X112793596Y-130725000D01*
X112793598Y-130724993D01*
X112799999Y-130665465D01*
X112800000Y-130665448D01*
X112800000Y-130067621D01*
X111815686Y-130067621D01*
X111820080Y-130063227D01*
X111872741Y-129972015D01*
X111900000Y-129870282D01*
X111900000Y-129764960D01*
X111872741Y-129663227D01*
X111820080Y-129572015D01*
X111815686Y-129567621D01*
X112800000Y-129567621D01*
X112800000Y-128969793D01*
X112799999Y-128969776D01*
X112793598Y-128910248D01*
X112793596Y-128910241D01*
X112743354Y-128775534D01*
X112743350Y-128775527D01*
X112657190Y-128660433D01*
X112657187Y-128660430D01*
X112542093Y-128574270D01*
X112542086Y-128574266D01*
X112407379Y-128524024D01*
X112407372Y-128524022D01*
X112347844Y-128517621D01*
X111750000Y-128517621D01*
X111750000Y-129501935D01*
X111745606Y-129497541D01*
X111654394Y-129444880D01*
X111552661Y-129417621D01*
X111447339Y-129417621D01*
X111345606Y-129444880D01*
X111254394Y-129497541D01*
X111250000Y-129501935D01*
X111250000Y-128517621D01*
X110652155Y-128517621D01*
X110592627Y-128524022D01*
X110592620Y-128524024D01*
X110457913Y-128574266D01*
X110457906Y-128574270D01*
X110342812Y-128660430D01*
X110342809Y-128660433D01*
X110256649Y-128775527D01*
X110256645Y-128775534D01*
X110206403Y-128910241D01*
X110206401Y-128910248D01*
X110200000Y-128969776D01*
X110200000Y-129567621D01*
X111184314Y-129567621D01*
X111179920Y-129572015D01*
X111127259Y-129663227D01*
X111100000Y-129764960D01*
X111100000Y-129870282D01*
X111127259Y-129972015D01*
X111179920Y-130063227D01*
X111184314Y-130067621D01*
X110200000Y-130067621D01*
X110200000Y-130665465D01*
X110206401Y-130724993D01*
X110206403Y-130725000D01*
X110256645Y-130859707D01*
X110256649Y-130859714D01*
X110342809Y-130974808D01*
X110342812Y-130974811D01*
X110457906Y-131060971D01*
X110457913Y-131060975D01*
X110592622Y-131111218D01*
X110598334Y-131112568D01*
X110659052Y-131147138D01*
X110691441Y-131209048D01*
X110685218Y-131278639D01*
X110657507Y-131320927D01*
X110499951Y-131478483D01*
X110369432Y-131664886D01*
X110369431Y-131664888D01*
X110273261Y-131871123D01*
X110273258Y-131871132D01*
X110214366Y-132090923D01*
X110214364Y-132090934D01*
X110194532Y-132317619D01*
X87000000Y-132317619D01*
X87000000Y-118324000D01*
X87019685Y-118256961D01*
X87072489Y-118211206D01*
X87124000Y-118200000D01*
X92134809Y-118200000D01*
X92201848Y-118219685D01*
G37*
G04 #@! TD.AperFunction*
M02*
