G04 #@! TF.GenerationSoftware,KiCad,Pcbnew,8.0.7*
G04 #@! TF.CreationDate,2025-05-28T10:08:30-07:00*
G04 #@! TF.ProjectId,psu_linear_reg,7073755f-6c69-46e6-9561-725f7265672e,rev?*
G04 #@! TF.SameCoordinates,Original*
G04 #@! TF.FileFunction,Legend,Bot*
G04 #@! TF.FilePolarity,Positive*
%FSLAX46Y46*%
G04 Gerber Fmt 4.6, Leading zero omitted, Abs format (unit mm)*
G04 Created by KiCad (PCBNEW 8.0.7) date 2025-05-28 10:08:30*
%MOMM*%
%LPD*%
G01*
G04 APERTURE LIST*
G04 Aperture macros list*
%AMRoundRect*
0 Rectangle with rounded corners*
0 $1 Rounding radius*
0 $2 $3 $4 $5 $6 $7 $8 $9 X,Y pos of 4 corners*
0 Add a 4 corners polygon primitive as box body*
4,1,4,$2,$3,$4,$5,$6,$7,$8,$9,$2,$3,0*
0 Add four circle primitives for the rounded corners*
1,1,$1+$1,$2,$3*
1,1,$1+$1,$4,$5*
1,1,$1+$1,$6,$7*
1,1,$1+$1,$8,$9*
0 Add four rect primitives between the rounded corners*
20,1,$1+$1,$2,$3,$4,$5,0*
20,1,$1+$1,$4,$5,$6,$7,0*
20,1,$1+$1,$6,$7,$8,$9,0*
20,1,$1+$1,$8,$9,$2,$3,0*%
G04 Aperture macros list end*
%ADD10C,0.150000*%
%ADD11C,0.300000*%
%ADD12O,1.600000X2.500000*%
%ADD13O,3.500000X7.000000*%
%ADD14RoundRect,0.250000X0.265000X0.615000X-0.265000X0.615000X-0.265000X-0.615000X0.265000X-0.615000X0*%
%ADD15O,1.030000X1.730000*%
%ADD16R,2.000000X1.905000*%
%ADD17O,2.000000X1.905000*%
%ADD18RoundRect,0.250002X-1.699998X-1.699998X1.699998X-1.699998X1.699998X1.699998X-1.699998X1.699998X0*%
%ADD19C,3.900000*%
%ADD20R,1.600000X1.600000*%
%ADD21C,1.600000*%
G04 APERTURE END LIST*
D10*
X181377506Y-124649847D02*
X181377506Y-125364132D01*
X181377506Y-125364132D02*
X181425125Y-125506989D01*
X181425125Y-125506989D02*
X181520363Y-125602228D01*
X181520363Y-125602228D02*
X181663220Y-125649847D01*
X181663220Y-125649847D02*
X181758458Y-125649847D01*
X179567982Y-125649847D02*
X179901315Y-125173656D01*
X180139410Y-125649847D02*
X180139410Y-124649847D01*
X180139410Y-124649847D02*
X179758458Y-124649847D01*
X179758458Y-124649847D02*
X179663220Y-124697466D01*
X179663220Y-124697466D02*
X179615601Y-124745085D01*
X179615601Y-124745085D02*
X179567982Y-124840323D01*
X179567982Y-124840323D02*
X179567982Y-124983180D01*
X179567982Y-124983180D02*
X179615601Y-125078418D01*
X179615601Y-125078418D02*
X179663220Y-125126037D01*
X179663220Y-125126037D02*
X179758458Y-125173656D01*
X179758458Y-125173656D02*
X180139410Y-125173656D01*
X178996553Y-125649847D02*
X179091791Y-125602228D01*
X179091791Y-125602228D02*
X179139410Y-125554608D01*
X179139410Y-125554608D02*
X179187029Y-125459370D01*
X179187029Y-125459370D02*
X179187029Y-125173656D01*
X179187029Y-125173656D02*
X179139410Y-125078418D01*
X179139410Y-125078418D02*
X179091791Y-125030799D01*
X179091791Y-125030799D02*
X178996553Y-124983180D01*
X178996553Y-124983180D02*
X178853696Y-124983180D01*
X178853696Y-124983180D02*
X178758458Y-125030799D01*
X178758458Y-125030799D02*
X178710839Y-125078418D01*
X178710839Y-125078418D02*
X178663220Y-125173656D01*
X178663220Y-125173656D02*
X178663220Y-125459370D01*
X178663220Y-125459370D02*
X178710839Y-125554608D01*
X178710839Y-125554608D02*
X178758458Y-125602228D01*
X178758458Y-125602228D02*
X178853696Y-125649847D01*
X178853696Y-125649847D02*
X178996553Y-125649847D01*
X178377505Y-124983180D02*
X177996553Y-124983180D01*
X178234648Y-124649847D02*
X178234648Y-125506989D01*
X178234648Y-125506989D02*
X178187029Y-125602228D01*
X178187029Y-125602228D02*
X178091791Y-125649847D01*
X178091791Y-125649847D02*
X177996553Y-125649847D01*
X177663219Y-125649847D02*
X177663219Y-124649847D01*
X177234648Y-125649847D02*
X177234648Y-125126037D01*
X177234648Y-125126037D02*
X177282267Y-125030799D01*
X177282267Y-125030799D02*
X177377505Y-124983180D01*
X177377505Y-124983180D02*
X177520362Y-124983180D01*
X177520362Y-124983180D02*
X177615600Y-125030799D01*
X177615600Y-125030799D02*
X177663219Y-125078418D01*
X176710838Y-125602228D02*
X176710838Y-125649847D01*
X176710838Y-125649847D02*
X176758457Y-125745085D01*
X176758457Y-125745085D02*
X176806076Y-125792704D01*
X175520362Y-125649847D02*
X175520362Y-124649847D01*
X175520362Y-124649847D02*
X175187029Y-125364132D01*
X175187029Y-125364132D02*
X174853696Y-124649847D01*
X174853696Y-124649847D02*
X174853696Y-125649847D01*
X173758457Y-124649847D02*
X173187029Y-124649847D01*
X173472743Y-125649847D02*
X173472743Y-124649847D01*
X172425124Y-125649847D02*
X172425124Y-125126037D01*
X172425124Y-125126037D02*
X172472743Y-125030799D01*
X172472743Y-125030799D02*
X172567981Y-124983180D01*
X172567981Y-124983180D02*
X172758457Y-124983180D01*
X172758457Y-124983180D02*
X172853695Y-125030799D01*
X172425124Y-125602228D02*
X172520362Y-125649847D01*
X172520362Y-125649847D02*
X172758457Y-125649847D01*
X172758457Y-125649847D02*
X172853695Y-125602228D01*
X172853695Y-125602228D02*
X172901314Y-125506989D01*
X172901314Y-125506989D02*
X172901314Y-125411751D01*
X172901314Y-125411751D02*
X172853695Y-125316513D01*
X172853695Y-125316513D02*
X172758457Y-125268894D01*
X172758457Y-125268894D02*
X172520362Y-125268894D01*
X172520362Y-125268894D02*
X172425124Y-125221275D01*
X171806076Y-125649847D02*
X171901314Y-125602228D01*
X171901314Y-125602228D02*
X171948933Y-125554608D01*
X171948933Y-125554608D02*
X171996552Y-125459370D01*
X171996552Y-125459370D02*
X171996552Y-125173656D01*
X171996552Y-125173656D02*
X171948933Y-125078418D01*
X171948933Y-125078418D02*
X171901314Y-125030799D01*
X171901314Y-125030799D02*
X171806076Y-124983180D01*
X171806076Y-124983180D02*
X171663219Y-124983180D01*
X171663219Y-124983180D02*
X171567981Y-125030799D01*
X171567981Y-125030799D02*
X171520362Y-125078418D01*
X171520362Y-125078418D02*
X171472743Y-125173656D01*
X171472743Y-125173656D02*
X171472743Y-125459370D01*
X171472743Y-125459370D02*
X171520362Y-125554608D01*
X171520362Y-125554608D02*
X171567981Y-125602228D01*
X171567981Y-125602228D02*
X171663219Y-125649847D01*
X171663219Y-125649847D02*
X171806076Y-125649847D01*
X170996552Y-125602228D02*
X170996552Y-125649847D01*
X170996552Y-125649847D02*
X171044171Y-125745085D01*
X171044171Y-125745085D02*
X171091790Y-125792704D01*
X169806076Y-125649847D02*
X169806076Y-124649847D01*
X169806076Y-124649847D02*
X169472743Y-125364132D01*
X169472743Y-125364132D02*
X169139410Y-124649847D01*
X169139410Y-124649847D02*
X169139410Y-125649847D01*
X168234648Y-124983180D02*
X168234648Y-125649847D01*
X168663219Y-124983180D02*
X168663219Y-125506989D01*
X168663219Y-125506989D02*
X168615600Y-125602228D01*
X168615600Y-125602228D02*
X168520362Y-125649847D01*
X168520362Y-125649847D02*
X168377505Y-125649847D01*
X168377505Y-125649847D02*
X168282267Y-125602228D01*
X168282267Y-125602228D02*
X168234648Y-125554608D01*
X167377505Y-125602228D02*
X167472743Y-125649847D01*
X167472743Y-125649847D02*
X167663219Y-125649847D01*
X167663219Y-125649847D02*
X167758457Y-125602228D01*
X167758457Y-125602228D02*
X167806076Y-125506989D01*
X167806076Y-125506989D02*
X167806076Y-125126037D01*
X167806076Y-125126037D02*
X167758457Y-125030799D01*
X167758457Y-125030799D02*
X167663219Y-124983180D01*
X167663219Y-124983180D02*
X167472743Y-124983180D01*
X167472743Y-124983180D02*
X167377505Y-125030799D01*
X167377505Y-125030799D02*
X167329886Y-125126037D01*
X167329886Y-125126037D02*
X167329886Y-125221275D01*
X167329886Y-125221275D02*
X167806076Y-125316513D01*
X166758457Y-125649847D02*
X166853695Y-125602228D01*
X166853695Y-125602228D02*
X166901314Y-125506989D01*
X166901314Y-125506989D02*
X166901314Y-124649847D01*
X166234647Y-125649847D02*
X166329885Y-125602228D01*
X166329885Y-125602228D02*
X166377504Y-125506989D01*
X166377504Y-125506989D02*
X166377504Y-124649847D01*
X165472742Y-125602228D02*
X165567980Y-125649847D01*
X165567980Y-125649847D02*
X165758456Y-125649847D01*
X165758456Y-125649847D02*
X165853694Y-125602228D01*
X165853694Y-125602228D02*
X165901313Y-125506989D01*
X165901313Y-125506989D02*
X165901313Y-125126037D01*
X165901313Y-125126037D02*
X165853694Y-125030799D01*
X165853694Y-125030799D02*
X165758456Y-124983180D01*
X165758456Y-124983180D02*
X165567980Y-124983180D01*
X165567980Y-124983180D02*
X165472742Y-125030799D01*
X165472742Y-125030799D02*
X165425123Y-125126037D01*
X165425123Y-125126037D02*
X165425123Y-125221275D01*
X165425123Y-125221275D02*
X165901313Y-125316513D01*
X164996551Y-125649847D02*
X164996551Y-124983180D01*
X164996551Y-125173656D02*
X164948932Y-125078418D01*
X164948932Y-125078418D02*
X164901313Y-125030799D01*
X164901313Y-125030799D02*
X164806075Y-124983180D01*
X164806075Y-124983180D02*
X164710837Y-124983180D01*
X163091789Y-124697466D02*
X163187027Y-124649847D01*
X163187027Y-124649847D02*
X163329884Y-124649847D01*
X163329884Y-124649847D02*
X163472741Y-124697466D01*
X163472741Y-124697466D02*
X163567979Y-124792704D01*
X163567979Y-124792704D02*
X163615598Y-124887942D01*
X163615598Y-124887942D02*
X163663217Y-125078418D01*
X163663217Y-125078418D02*
X163663217Y-125221275D01*
X163663217Y-125221275D02*
X163615598Y-125411751D01*
X163615598Y-125411751D02*
X163567979Y-125506989D01*
X163567979Y-125506989D02*
X163472741Y-125602228D01*
X163472741Y-125602228D02*
X163329884Y-125649847D01*
X163329884Y-125649847D02*
X163234646Y-125649847D01*
X163234646Y-125649847D02*
X163091789Y-125602228D01*
X163091789Y-125602228D02*
X163044170Y-125554608D01*
X163044170Y-125554608D02*
X163044170Y-125221275D01*
X163044170Y-125221275D02*
X163234646Y-125221275D01*
X162615598Y-125649847D02*
X162615598Y-124983180D01*
X162615598Y-125173656D02*
X162567979Y-125078418D01*
X162567979Y-125078418D02*
X162520360Y-125030799D01*
X162520360Y-125030799D02*
X162425122Y-124983180D01*
X162425122Y-124983180D02*
X162329884Y-124983180D01*
X161853693Y-125649847D02*
X161948931Y-125602228D01*
X161948931Y-125602228D02*
X161996550Y-125554608D01*
X161996550Y-125554608D02*
X162044169Y-125459370D01*
X162044169Y-125459370D02*
X162044169Y-125173656D01*
X162044169Y-125173656D02*
X161996550Y-125078418D01*
X161996550Y-125078418D02*
X161948931Y-125030799D01*
X161948931Y-125030799D02*
X161853693Y-124983180D01*
X161853693Y-124983180D02*
X161710836Y-124983180D01*
X161710836Y-124983180D02*
X161615598Y-125030799D01*
X161615598Y-125030799D02*
X161567979Y-125078418D01*
X161567979Y-125078418D02*
X161520360Y-125173656D01*
X161520360Y-125173656D02*
X161520360Y-125459370D01*
X161520360Y-125459370D02*
X161567979Y-125554608D01*
X161567979Y-125554608D02*
X161615598Y-125602228D01*
X161615598Y-125602228D02*
X161710836Y-125649847D01*
X161710836Y-125649847D02*
X161853693Y-125649847D01*
X160663217Y-124983180D02*
X160663217Y-125649847D01*
X161091788Y-124983180D02*
X161091788Y-125506989D01*
X161091788Y-125506989D02*
X161044169Y-125602228D01*
X161044169Y-125602228D02*
X160948931Y-125649847D01*
X160948931Y-125649847D02*
X160806074Y-125649847D01*
X160806074Y-125649847D02*
X160710836Y-125602228D01*
X160710836Y-125602228D02*
X160663217Y-125554608D01*
X160187026Y-124983180D02*
X160187026Y-125983180D01*
X160187026Y-125030799D02*
X160091788Y-124983180D01*
X160091788Y-124983180D02*
X159901312Y-124983180D01*
X159901312Y-124983180D02*
X159806074Y-125030799D01*
X159806074Y-125030799D02*
X159758455Y-125078418D01*
X159758455Y-125078418D02*
X159710836Y-125173656D01*
X159710836Y-125173656D02*
X159710836Y-125459370D01*
X159710836Y-125459370D02*
X159758455Y-125554608D01*
X159758455Y-125554608D02*
X159806074Y-125602228D01*
X159806074Y-125602228D02*
X159901312Y-125649847D01*
X159901312Y-125649847D02*
X160091788Y-125649847D01*
X160091788Y-125649847D02*
X160187026Y-125602228D01*
X159234645Y-125602228D02*
X159234645Y-125649847D01*
X159234645Y-125649847D02*
X159282264Y-125745085D01*
X159282264Y-125745085D02*
X159329883Y-125792704D01*
X158044169Y-124649847D02*
X158044169Y-125459370D01*
X158044169Y-125459370D02*
X157996550Y-125554608D01*
X157996550Y-125554608D02*
X157948931Y-125602228D01*
X157948931Y-125602228D02*
X157853693Y-125649847D01*
X157853693Y-125649847D02*
X157663217Y-125649847D01*
X157663217Y-125649847D02*
X157567979Y-125602228D01*
X157567979Y-125602228D02*
X157520360Y-125554608D01*
X157520360Y-125554608D02*
X157472741Y-125459370D01*
X157472741Y-125459370D02*
X157472741Y-124649847D01*
X156425122Y-125554608D02*
X156472741Y-125602228D01*
X156472741Y-125602228D02*
X156615598Y-125649847D01*
X156615598Y-125649847D02*
X156710836Y-125649847D01*
X156710836Y-125649847D02*
X156853693Y-125602228D01*
X156853693Y-125602228D02*
X156948931Y-125506989D01*
X156948931Y-125506989D02*
X156996550Y-125411751D01*
X156996550Y-125411751D02*
X157044169Y-125221275D01*
X157044169Y-125221275D02*
X157044169Y-125078418D01*
X157044169Y-125078418D02*
X156996550Y-124887942D01*
X156996550Y-124887942D02*
X156948931Y-124792704D01*
X156948931Y-124792704D02*
X156853693Y-124697466D01*
X156853693Y-124697466D02*
X156710836Y-124649847D01*
X156710836Y-124649847D02*
X156615598Y-124649847D01*
X156615598Y-124649847D02*
X156472741Y-124697466D01*
X156472741Y-124697466D02*
X156425122Y-124745085D01*
X154901312Y-125126037D02*
X154758455Y-125173656D01*
X154758455Y-125173656D02*
X154710836Y-125221275D01*
X154710836Y-125221275D02*
X154663217Y-125316513D01*
X154663217Y-125316513D02*
X154663217Y-125459370D01*
X154663217Y-125459370D02*
X154710836Y-125554608D01*
X154710836Y-125554608D02*
X154758455Y-125602228D01*
X154758455Y-125602228D02*
X154853693Y-125649847D01*
X154853693Y-125649847D02*
X155234645Y-125649847D01*
X155234645Y-125649847D02*
X155234645Y-124649847D01*
X155234645Y-124649847D02*
X154901312Y-124649847D01*
X154901312Y-124649847D02*
X154806074Y-124697466D01*
X154806074Y-124697466D02*
X154758455Y-124745085D01*
X154758455Y-124745085D02*
X154710836Y-124840323D01*
X154710836Y-124840323D02*
X154710836Y-124935561D01*
X154710836Y-124935561D02*
X154758455Y-125030799D01*
X154758455Y-125030799D02*
X154806074Y-125078418D01*
X154806074Y-125078418D02*
X154901312Y-125126037D01*
X154901312Y-125126037D02*
X155234645Y-125126037D01*
X153853693Y-125602228D02*
X153948931Y-125649847D01*
X153948931Y-125649847D02*
X154139407Y-125649847D01*
X154139407Y-125649847D02*
X154234645Y-125602228D01*
X154234645Y-125602228D02*
X154282264Y-125506989D01*
X154282264Y-125506989D02*
X154282264Y-125126037D01*
X154282264Y-125126037D02*
X154234645Y-125030799D01*
X154234645Y-125030799D02*
X154139407Y-124983180D01*
X154139407Y-124983180D02*
X153948931Y-124983180D01*
X153948931Y-124983180D02*
X153853693Y-125030799D01*
X153853693Y-125030799D02*
X153806074Y-125126037D01*
X153806074Y-125126037D02*
X153806074Y-125221275D01*
X153806074Y-125221275D02*
X154282264Y-125316513D01*
X153377502Y-125649847D02*
X153377502Y-124983180D01*
X153377502Y-125173656D02*
X153329883Y-125078418D01*
X153329883Y-125078418D02*
X153282264Y-125030799D01*
X153282264Y-125030799D02*
X153187026Y-124983180D01*
X153187026Y-124983180D02*
X153091788Y-124983180D01*
X152758454Y-125649847D02*
X152758454Y-124649847D01*
X152663216Y-125268894D02*
X152377502Y-125649847D01*
X152377502Y-124983180D02*
X152758454Y-125364132D01*
X151567978Y-125602228D02*
X151663216Y-125649847D01*
X151663216Y-125649847D02*
X151853692Y-125649847D01*
X151853692Y-125649847D02*
X151948930Y-125602228D01*
X151948930Y-125602228D02*
X151996549Y-125506989D01*
X151996549Y-125506989D02*
X151996549Y-125126037D01*
X151996549Y-125126037D02*
X151948930Y-125030799D01*
X151948930Y-125030799D02*
X151853692Y-124983180D01*
X151853692Y-124983180D02*
X151663216Y-124983180D01*
X151663216Y-124983180D02*
X151567978Y-125030799D01*
X151567978Y-125030799D02*
X151520359Y-125126037D01*
X151520359Y-125126037D02*
X151520359Y-125221275D01*
X151520359Y-125221275D02*
X151996549Y-125316513D01*
X150948930Y-125649847D02*
X151044168Y-125602228D01*
X151044168Y-125602228D02*
X151091787Y-125506989D01*
X151091787Y-125506989D02*
X151091787Y-124649847D01*
X150187025Y-125602228D02*
X150282263Y-125649847D01*
X150282263Y-125649847D02*
X150472739Y-125649847D01*
X150472739Y-125649847D02*
X150567977Y-125602228D01*
X150567977Y-125602228D02*
X150615596Y-125506989D01*
X150615596Y-125506989D02*
X150615596Y-125126037D01*
X150615596Y-125126037D02*
X150567977Y-125030799D01*
X150567977Y-125030799D02*
X150472739Y-124983180D01*
X150472739Y-124983180D02*
X150282263Y-124983180D01*
X150282263Y-124983180D02*
X150187025Y-125030799D01*
X150187025Y-125030799D02*
X150139406Y-125126037D01*
X150139406Y-125126037D02*
X150139406Y-125221275D01*
X150139406Y-125221275D02*
X150615596Y-125316513D01*
X149806072Y-124983180D02*
X149567977Y-125649847D01*
X149329882Y-124983180D02*
X149567977Y-125649847D01*
X149567977Y-125649847D02*
X149663215Y-125887942D01*
X149663215Y-125887942D02*
X149710834Y-125935561D01*
X149710834Y-125935561D02*
X149806072Y-125983180D01*
X181663220Y-127259791D02*
X181663220Y-126593124D01*
X181663220Y-126783600D02*
X181615601Y-126688362D01*
X181615601Y-126688362D02*
X181567982Y-126640743D01*
X181567982Y-126640743D02*
X181472744Y-126593124D01*
X181472744Y-126593124D02*
X181377506Y-126593124D01*
X180663220Y-127212172D02*
X180758458Y-127259791D01*
X180758458Y-127259791D02*
X180948934Y-127259791D01*
X180948934Y-127259791D02*
X181044172Y-127212172D01*
X181044172Y-127212172D02*
X181091791Y-127116933D01*
X181091791Y-127116933D02*
X181091791Y-126735981D01*
X181091791Y-126735981D02*
X181044172Y-126640743D01*
X181044172Y-126640743D02*
X180948934Y-126593124D01*
X180948934Y-126593124D02*
X180758458Y-126593124D01*
X180758458Y-126593124D02*
X180663220Y-126640743D01*
X180663220Y-126640743D02*
X180615601Y-126735981D01*
X180615601Y-126735981D02*
X180615601Y-126831219D01*
X180615601Y-126831219D02*
X181091791Y-126926457D01*
X180282267Y-126593124D02*
X180044172Y-127259791D01*
X180044172Y-127259791D02*
X179806077Y-126593124D01*
X178758457Y-126593124D02*
X178520362Y-127259791D01*
X178520362Y-127259791D02*
X178282267Y-126593124D01*
X177377505Y-127259791D02*
X177948933Y-127259791D01*
X177663219Y-127259791D02*
X177663219Y-126259791D01*
X177663219Y-126259791D02*
X177758457Y-126402648D01*
X177758457Y-126402648D02*
X177853695Y-126497886D01*
X177853695Y-126497886D02*
X177948933Y-126545505D01*
X176948933Y-127164552D02*
X176901314Y-127212172D01*
X176901314Y-127212172D02*
X176948933Y-127259791D01*
X176948933Y-127259791D02*
X176996552Y-127212172D01*
X176996552Y-127212172D02*
X176948933Y-127164552D01*
X176948933Y-127164552D02*
X176948933Y-127259791D01*
X176520362Y-126355029D02*
X176472743Y-126307410D01*
X176472743Y-126307410D02*
X176377505Y-126259791D01*
X176377505Y-126259791D02*
X176139410Y-126259791D01*
X176139410Y-126259791D02*
X176044172Y-126307410D01*
X176044172Y-126307410D02*
X175996553Y-126355029D01*
X175996553Y-126355029D02*
X175948934Y-126450267D01*
X175948934Y-126450267D02*
X175948934Y-126545505D01*
X175948934Y-126545505D02*
X175996553Y-126688362D01*
X175996553Y-126688362D02*
X176567981Y-127259791D01*
X176567981Y-127259791D02*
X175948934Y-127259791D01*
X175520362Y-127164552D02*
X175472743Y-127212172D01*
X175472743Y-127212172D02*
X175520362Y-127259791D01*
X175520362Y-127259791D02*
X175567981Y-127212172D01*
X175567981Y-127212172D02*
X175520362Y-127164552D01*
X175520362Y-127164552D02*
X175520362Y-127259791D01*
X175520362Y-126640743D02*
X175472743Y-126688362D01*
X175472743Y-126688362D02*
X175520362Y-126735981D01*
X175520362Y-126735981D02*
X175567981Y-126688362D01*
X175567981Y-126688362D02*
X175520362Y-126640743D01*
X175520362Y-126640743D02*
X175520362Y-126735981D01*
X173758458Y-127259791D02*
X174329886Y-127259791D01*
X174044172Y-127259791D02*
X174044172Y-126259791D01*
X174044172Y-126259791D02*
X174139410Y-126402648D01*
X174139410Y-126402648D02*
X174234648Y-126497886D01*
X174234648Y-126497886D02*
X174329886Y-126545505D01*
X173329886Y-126878838D02*
X172567982Y-126878838D01*
X171663220Y-126259791D02*
X171853696Y-126259791D01*
X171853696Y-126259791D02*
X171948934Y-126307410D01*
X171948934Y-126307410D02*
X171996553Y-126355029D01*
X171996553Y-126355029D02*
X172091791Y-126497886D01*
X172091791Y-126497886D02*
X172139410Y-126688362D01*
X172139410Y-126688362D02*
X172139410Y-127069314D01*
X172139410Y-127069314D02*
X172091791Y-127164552D01*
X172091791Y-127164552D02*
X172044172Y-127212172D01*
X172044172Y-127212172D02*
X171948934Y-127259791D01*
X171948934Y-127259791D02*
X171758458Y-127259791D01*
X171758458Y-127259791D02*
X171663220Y-127212172D01*
X171663220Y-127212172D02*
X171615601Y-127164552D01*
X171615601Y-127164552D02*
X171567982Y-127069314D01*
X171567982Y-127069314D02*
X171567982Y-126831219D01*
X171567982Y-126831219D02*
X171615601Y-126735981D01*
X171615601Y-126735981D02*
X171663220Y-126688362D01*
X171663220Y-126688362D02*
X171758458Y-126640743D01*
X171758458Y-126640743D02*
X171948934Y-126640743D01*
X171948934Y-126640743D02*
X172044172Y-126688362D01*
X172044172Y-126688362D02*
X172091791Y-126735981D01*
X172091791Y-126735981D02*
X172139410Y-126831219D01*
X171139410Y-126878838D02*
X170377506Y-126878838D01*
X169948934Y-126355029D02*
X169901315Y-126307410D01*
X169901315Y-126307410D02*
X169806077Y-126259791D01*
X169806077Y-126259791D02*
X169567982Y-126259791D01*
X169567982Y-126259791D02*
X169472744Y-126307410D01*
X169472744Y-126307410D02*
X169425125Y-126355029D01*
X169425125Y-126355029D02*
X169377506Y-126450267D01*
X169377506Y-126450267D02*
X169377506Y-126545505D01*
X169377506Y-126545505D02*
X169425125Y-126688362D01*
X169425125Y-126688362D02*
X169996553Y-127259791D01*
X169996553Y-127259791D02*
X169377506Y-127259791D01*
X168472744Y-126259791D02*
X168948934Y-126259791D01*
X168948934Y-126259791D02*
X168996553Y-126735981D01*
X168996553Y-126735981D02*
X168948934Y-126688362D01*
X168948934Y-126688362D02*
X168853696Y-126640743D01*
X168853696Y-126640743D02*
X168615601Y-126640743D01*
X168615601Y-126640743D02*
X168520363Y-126688362D01*
X168520363Y-126688362D02*
X168472744Y-126735981D01*
X168472744Y-126735981D02*
X168425125Y-126831219D01*
X168425125Y-126831219D02*
X168425125Y-127069314D01*
X168425125Y-127069314D02*
X168472744Y-127164552D01*
X168472744Y-127164552D02*
X168520363Y-127212172D01*
X168520363Y-127212172D02*
X168615601Y-127259791D01*
X168615601Y-127259791D02*
X168853696Y-127259791D01*
X168853696Y-127259791D02*
X168948934Y-127212172D01*
X168948934Y-127212172D02*
X168996553Y-127164552D01*
D11*
X182171679Y-123144400D02*
X181885965Y-123239638D01*
X181885965Y-123239638D02*
X181409774Y-123239638D01*
X181409774Y-123239638D02*
X181219298Y-123144400D01*
X181219298Y-123144400D02*
X181124060Y-123049161D01*
X181124060Y-123049161D02*
X181028822Y-122858685D01*
X181028822Y-122858685D02*
X181028822Y-122668209D01*
X181028822Y-122668209D02*
X181124060Y-122477733D01*
X181124060Y-122477733D02*
X181219298Y-122382495D01*
X181219298Y-122382495D02*
X181409774Y-122287257D01*
X181409774Y-122287257D02*
X181790727Y-122192019D01*
X181790727Y-122192019D02*
X181981203Y-122096780D01*
X181981203Y-122096780D02*
X182076441Y-122001542D01*
X182076441Y-122001542D02*
X182171679Y-121811066D01*
X182171679Y-121811066D02*
X182171679Y-121620590D01*
X182171679Y-121620590D02*
X182076441Y-121430114D01*
X182076441Y-121430114D02*
X181981203Y-121334876D01*
X181981203Y-121334876D02*
X181790727Y-121239638D01*
X181790727Y-121239638D02*
X181314536Y-121239638D01*
X181314536Y-121239638D02*
X181028822Y-121334876D01*
X180171679Y-121906304D02*
X180171679Y-123906304D01*
X180171679Y-122001542D02*
X179981203Y-121906304D01*
X179981203Y-121906304D02*
X179600250Y-121906304D01*
X179600250Y-121906304D02*
X179409774Y-122001542D01*
X179409774Y-122001542D02*
X179314536Y-122096780D01*
X179314536Y-122096780D02*
X179219298Y-122287257D01*
X179219298Y-122287257D02*
X179219298Y-122858685D01*
X179219298Y-122858685D02*
X179314536Y-123049161D01*
X179314536Y-123049161D02*
X179409774Y-123144400D01*
X179409774Y-123144400D02*
X179600250Y-123239638D01*
X179600250Y-123239638D02*
X179981203Y-123239638D01*
X179981203Y-123239638D02*
X180171679Y-123144400D01*
X178076441Y-123239638D02*
X178266917Y-123144400D01*
X178266917Y-123144400D02*
X178362155Y-122953923D01*
X178362155Y-122953923D02*
X178362155Y-121239638D01*
X177314536Y-123239638D02*
X177314536Y-121906304D01*
X177314536Y-121239638D02*
X177409774Y-121334876D01*
X177409774Y-121334876D02*
X177314536Y-121430114D01*
X177314536Y-121430114D02*
X177219298Y-121334876D01*
X177219298Y-121334876D02*
X177314536Y-121239638D01*
X177314536Y-121239638D02*
X177314536Y-121430114D01*
X176647869Y-121906304D02*
X175885965Y-121906304D01*
X176362155Y-121239638D02*
X176362155Y-122953923D01*
X176362155Y-122953923D02*
X176266917Y-123144400D01*
X176266917Y-123144400D02*
X176076441Y-123239638D01*
X176076441Y-123239638D02*
X175885965Y-123239638D01*
X173695488Y-123239638D02*
X173695488Y-121906304D01*
X173695488Y-122287257D02*
X173600250Y-122096780D01*
X173600250Y-122096780D02*
X173505012Y-122001542D01*
X173505012Y-122001542D02*
X173314536Y-121906304D01*
X173314536Y-121906304D02*
X173124059Y-121906304D01*
X171600250Y-123239638D02*
X171600250Y-122192019D01*
X171600250Y-122192019D02*
X171695488Y-122001542D01*
X171695488Y-122001542D02*
X171885964Y-121906304D01*
X171885964Y-121906304D02*
X172266917Y-121906304D01*
X172266917Y-121906304D02*
X172457393Y-122001542D01*
X171600250Y-123144400D02*
X171790726Y-123239638D01*
X171790726Y-123239638D02*
X172266917Y-123239638D01*
X172266917Y-123239638D02*
X172457393Y-123144400D01*
X172457393Y-123144400D02*
X172552631Y-122953923D01*
X172552631Y-122953923D02*
X172552631Y-122763447D01*
X172552631Y-122763447D02*
X172457393Y-122572971D01*
X172457393Y-122572971D02*
X172266917Y-122477733D01*
X172266917Y-122477733D02*
X171790726Y-122477733D01*
X171790726Y-122477733D02*
X171600250Y-122382495D01*
X170647869Y-123239638D02*
X170647869Y-121906304D01*
X170647869Y-121239638D02*
X170743107Y-121334876D01*
X170743107Y-121334876D02*
X170647869Y-121430114D01*
X170647869Y-121430114D02*
X170552631Y-121334876D01*
X170552631Y-121334876D02*
X170647869Y-121239638D01*
X170647869Y-121239638D02*
X170647869Y-121430114D01*
X169409774Y-123239638D02*
X169600250Y-123144400D01*
X169600250Y-123144400D02*
X169695488Y-122953923D01*
X169695488Y-122953923D02*
X169695488Y-121239638D01*
X166838345Y-123239638D02*
X167028821Y-123144400D01*
X167028821Y-123144400D02*
X167124059Y-122953923D01*
X167124059Y-122953923D02*
X167124059Y-121239638D01*
X166076440Y-123239638D02*
X166076440Y-121906304D01*
X166076440Y-121239638D02*
X166171678Y-121334876D01*
X166171678Y-121334876D02*
X166076440Y-121430114D01*
X166076440Y-121430114D02*
X165981202Y-121334876D01*
X165981202Y-121334876D02*
X166076440Y-121239638D01*
X166076440Y-121239638D02*
X166076440Y-121430114D01*
X165124059Y-121906304D02*
X165124059Y-123239638D01*
X165124059Y-122096780D02*
X165028821Y-122001542D01*
X165028821Y-122001542D02*
X164838345Y-121906304D01*
X164838345Y-121906304D02*
X164552630Y-121906304D01*
X164552630Y-121906304D02*
X164362154Y-122001542D01*
X164362154Y-122001542D02*
X164266916Y-122192019D01*
X164266916Y-122192019D02*
X164266916Y-123239638D01*
X162552630Y-123144400D02*
X162743106Y-123239638D01*
X162743106Y-123239638D02*
X163124059Y-123239638D01*
X163124059Y-123239638D02*
X163314535Y-123144400D01*
X163314535Y-123144400D02*
X163409773Y-122953923D01*
X163409773Y-122953923D02*
X163409773Y-122192019D01*
X163409773Y-122192019D02*
X163314535Y-122001542D01*
X163314535Y-122001542D02*
X163124059Y-121906304D01*
X163124059Y-121906304D02*
X162743106Y-121906304D01*
X162743106Y-121906304D02*
X162552630Y-122001542D01*
X162552630Y-122001542D02*
X162457392Y-122192019D01*
X162457392Y-122192019D02*
X162457392Y-122382495D01*
X162457392Y-122382495D02*
X163409773Y-122572971D01*
X160743106Y-123239638D02*
X160743106Y-122192019D01*
X160743106Y-122192019D02*
X160838344Y-122001542D01*
X160838344Y-122001542D02*
X161028820Y-121906304D01*
X161028820Y-121906304D02*
X161409773Y-121906304D01*
X161409773Y-121906304D02*
X161600249Y-122001542D01*
X160743106Y-123144400D02*
X160933582Y-123239638D01*
X160933582Y-123239638D02*
X161409773Y-123239638D01*
X161409773Y-123239638D02*
X161600249Y-123144400D01*
X161600249Y-123144400D02*
X161695487Y-122953923D01*
X161695487Y-122953923D02*
X161695487Y-122763447D01*
X161695487Y-122763447D02*
X161600249Y-122572971D01*
X161600249Y-122572971D02*
X161409773Y-122477733D01*
X161409773Y-122477733D02*
X160933582Y-122477733D01*
X160933582Y-122477733D02*
X160743106Y-122382495D01*
X159790725Y-123239638D02*
X159790725Y-121906304D01*
X159790725Y-122287257D02*
X159695487Y-122096780D01*
X159695487Y-122096780D02*
X159600249Y-122001542D01*
X159600249Y-122001542D02*
X159409773Y-121906304D01*
X159409773Y-121906304D02*
X159219296Y-121906304D01*
X157028820Y-123239638D02*
X157028820Y-121239638D01*
X157028820Y-121239638D02*
X156552630Y-121239638D01*
X156552630Y-121239638D02*
X156266915Y-121334876D01*
X156266915Y-121334876D02*
X156076439Y-121525352D01*
X156076439Y-121525352D02*
X155981201Y-121715828D01*
X155981201Y-121715828D02*
X155885963Y-122096780D01*
X155885963Y-122096780D02*
X155885963Y-122382495D01*
X155885963Y-122382495D02*
X155981201Y-122763447D01*
X155981201Y-122763447D02*
X156076439Y-122953923D01*
X156076439Y-122953923D02*
X156266915Y-123144400D01*
X156266915Y-123144400D02*
X156552630Y-123239638D01*
X156552630Y-123239638D02*
X157028820Y-123239638D01*
X153885963Y-123049161D02*
X153981201Y-123144400D01*
X153981201Y-123144400D02*
X154266915Y-123239638D01*
X154266915Y-123239638D02*
X154457391Y-123239638D01*
X154457391Y-123239638D02*
X154743106Y-123144400D01*
X154743106Y-123144400D02*
X154933582Y-122953923D01*
X154933582Y-122953923D02*
X155028820Y-122763447D01*
X155028820Y-122763447D02*
X155124058Y-122382495D01*
X155124058Y-122382495D02*
X155124058Y-122096780D01*
X155124058Y-122096780D02*
X155028820Y-121715828D01*
X155028820Y-121715828D02*
X154933582Y-121525352D01*
X154933582Y-121525352D02*
X154743106Y-121334876D01*
X154743106Y-121334876D02*
X154457391Y-121239638D01*
X154457391Y-121239638D02*
X154266915Y-121239638D01*
X154266915Y-121239638D02*
X153981201Y-121334876D01*
X153981201Y-121334876D02*
X153885963Y-121430114D01*
X151505010Y-121906304D02*
X151505010Y-123906304D01*
X151505010Y-122001542D02*
X151314534Y-121906304D01*
X151314534Y-121906304D02*
X150933581Y-121906304D01*
X150933581Y-121906304D02*
X150743105Y-122001542D01*
X150743105Y-122001542D02*
X150647867Y-122096780D01*
X150647867Y-122096780D02*
X150552629Y-122287257D01*
X150552629Y-122287257D02*
X150552629Y-122858685D01*
X150552629Y-122858685D02*
X150647867Y-123049161D01*
X150647867Y-123049161D02*
X150743105Y-123144400D01*
X150743105Y-123144400D02*
X150933581Y-123239638D01*
X150933581Y-123239638D02*
X151314534Y-123239638D01*
X151314534Y-123239638D02*
X151505010Y-123144400D01*
X149409772Y-123239638D02*
X149600248Y-123144400D01*
X149600248Y-123144400D02*
X149695486Y-123049161D01*
X149695486Y-123049161D02*
X149790724Y-122858685D01*
X149790724Y-122858685D02*
X149790724Y-122287257D01*
X149790724Y-122287257D02*
X149695486Y-122096780D01*
X149695486Y-122096780D02*
X149600248Y-122001542D01*
X149600248Y-122001542D02*
X149409772Y-121906304D01*
X149409772Y-121906304D02*
X149124057Y-121906304D01*
X149124057Y-121906304D02*
X148933581Y-122001542D01*
X148933581Y-122001542D02*
X148838343Y-122096780D01*
X148838343Y-122096780D02*
X148743105Y-122287257D01*
X148743105Y-122287257D02*
X148743105Y-122858685D01*
X148743105Y-122858685D02*
X148838343Y-123049161D01*
X148838343Y-123049161D02*
X148933581Y-123144400D01*
X148933581Y-123144400D02*
X149124057Y-123239638D01*
X149124057Y-123239638D02*
X149409772Y-123239638D01*
X148076438Y-121906304D02*
X147695486Y-123239638D01*
X147695486Y-123239638D02*
X147314533Y-122287257D01*
X147314533Y-122287257D02*
X146933581Y-123239638D01*
X146933581Y-123239638D02*
X146552629Y-121906304D01*
X145028819Y-123144400D02*
X145219295Y-123239638D01*
X145219295Y-123239638D02*
X145600248Y-123239638D01*
X145600248Y-123239638D02*
X145790724Y-123144400D01*
X145790724Y-123144400D02*
X145885962Y-122953923D01*
X145885962Y-122953923D02*
X145885962Y-122192019D01*
X145885962Y-122192019D02*
X145790724Y-122001542D01*
X145790724Y-122001542D02*
X145600248Y-121906304D01*
X145600248Y-121906304D02*
X145219295Y-121906304D01*
X145219295Y-121906304D02*
X145028819Y-122001542D01*
X145028819Y-122001542D02*
X144933581Y-122192019D01*
X144933581Y-122192019D02*
X144933581Y-122382495D01*
X144933581Y-122382495D02*
X145885962Y-122572971D01*
X144076438Y-123239638D02*
X144076438Y-121906304D01*
X144076438Y-122287257D02*
X143981200Y-122096780D01*
X143981200Y-122096780D02*
X143885962Y-122001542D01*
X143885962Y-122001542D02*
X143695486Y-121906304D01*
X143695486Y-121906304D02*
X143505009Y-121906304D01*
X141409771Y-123144400D02*
X141219295Y-123239638D01*
X141219295Y-123239638D02*
X140838343Y-123239638D01*
X140838343Y-123239638D02*
X140647866Y-123144400D01*
X140647866Y-123144400D02*
X140552628Y-122953923D01*
X140552628Y-122953923D02*
X140552628Y-122858685D01*
X140552628Y-122858685D02*
X140647866Y-122668209D01*
X140647866Y-122668209D02*
X140838343Y-122572971D01*
X140838343Y-122572971D02*
X141124057Y-122572971D01*
X141124057Y-122572971D02*
X141314533Y-122477733D01*
X141314533Y-122477733D02*
X141409771Y-122287257D01*
X141409771Y-122287257D02*
X141409771Y-122192019D01*
X141409771Y-122192019D02*
X141314533Y-122001542D01*
X141314533Y-122001542D02*
X141124057Y-121906304D01*
X141124057Y-121906304D02*
X140838343Y-121906304D01*
X140838343Y-121906304D02*
X140647866Y-122001542D01*
X138838342Y-121906304D02*
X138838342Y-123239638D01*
X139695485Y-121906304D02*
X139695485Y-122953923D01*
X139695485Y-122953923D02*
X139600247Y-123144400D01*
X139600247Y-123144400D02*
X139409771Y-123239638D01*
X139409771Y-123239638D02*
X139124056Y-123239638D01*
X139124056Y-123239638D02*
X138933580Y-123144400D01*
X138933580Y-123144400D02*
X138838342Y-123049161D01*
X137885961Y-121906304D02*
X137885961Y-123906304D01*
X137885961Y-122001542D02*
X137695485Y-121906304D01*
X137695485Y-121906304D02*
X137314532Y-121906304D01*
X137314532Y-121906304D02*
X137124056Y-122001542D01*
X137124056Y-122001542D02*
X137028818Y-122096780D01*
X137028818Y-122096780D02*
X136933580Y-122287257D01*
X136933580Y-122287257D02*
X136933580Y-122858685D01*
X136933580Y-122858685D02*
X137028818Y-123049161D01*
X137028818Y-123049161D02*
X137124056Y-123144400D01*
X137124056Y-123144400D02*
X137314532Y-123239638D01*
X137314532Y-123239638D02*
X137695485Y-123239638D01*
X137695485Y-123239638D02*
X137885961Y-123144400D01*
X136076437Y-121906304D02*
X136076437Y-123906304D01*
X136076437Y-122001542D02*
X135885961Y-121906304D01*
X135885961Y-121906304D02*
X135505008Y-121906304D01*
X135505008Y-121906304D02*
X135314532Y-122001542D01*
X135314532Y-122001542D02*
X135219294Y-122096780D01*
X135219294Y-122096780D02*
X135124056Y-122287257D01*
X135124056Y-122287257D02*
X135124056Y-122858685D01*
X135124056Y-122858685D02*
X135219294Y-123049161D01*
X135219294Y-123049161D02*
X135314532Y-123144400D01*
X135314532Y-123144400D02*
X135505008Y-123239638D01*
X135505008Y-123239638D02*
X135885961Y-123239638D01*
X135885961Y-123239638D02*
X136076437Y-123144400D01*
X133981199Y-123239638D02*
X134171675Y-123144400D01*
X134171675Y-123144400D02*
X134266913Y-122953923D01*
X134266913Y-122953923D02*
X134266913Y-121239638D01*
X133409770Y-121906304D02*
X132933580Y-123239638D01*
X132457389Y-121906304D02*
X132933580Y-123239638D01*
X132933580Y-123239638D02*
X133124056Y-123715828D01*
X133124056Y-123715828D02*
X133219294Y-123811066D01*
X133219294Y-123811066D02*
X133409770Y-123906304D01*
D10*
X132008458Y-122703152D02*
X131770363Y-123369819D01*
X131770363Y-123369819D02*
X131532268Y-122703152D01*
X131198934Y-122465057D02*
X131151315Y-122417438D01*
X131151315Y-122417438D02*
X131056077Y-122369819D01*
X131056077Y-122369819D02*
X130817982Y-122369819D01*
X130817982Y-122369819D02*
X130722744Y-122417438D01*
X130722744Y-122417438D02*
X130675125Y-122465057D01*
X130675125Y-122465057D02*
X130627506Y-122560295D01*
X130627506Y-122560295D02*
X130627506Y-122655533D01*
X130627506Y-122655533D02*
X130675125Y-122798390D01*
X130675125Y-122798390D02*
X131246553Y-123369819D01*
X131246553Y-123369819D02*
X130627506Y-123369819D01*
%LPC*%
D12*
X97000000Y-143000000D03*
D13*
X102080000Y-148080000D03*
D12*
X99540000Y-143000000D03*
D13*
X91920000Y-148080000D03*
D14*
X150700000Y-119600000D03*
D15*
X149200000Y-119600000D03*
X147700000Y-119600000D03*
X146200000Y-119600000D03*
X144700000Y-119600000D03*
X143200000Y-119600000D03*
X141700000Y-119600000D03*
X140200000Y-119600000D03*
X138700000Y-119600000D03*
X137200000Y-119600000D03*
D12*
X117000000Y-143000000D03*
D13*
X122080000Y-148080000D03*
D12*
X119540000Y-143000000D03*
D13*
X111920000Y-148080000D03*
D16*
X142000000Y-130250000D03*
D17*
X142000000Y-132790000D03*
X142000000Y-135330000D03*
D18*
X131300000Y-149000000D03*
D19*
X139100000Y-149000000D03*
D14*
X172900000Y-119600000D03*
D15*
X171400000Y-119600000D03*
X169900000Y-119600000D03*
X168400000Y-119600000D03*
X166900000Y-119600000D03*
X165400000Y-119600000D03*
X163900000Y-119600000D03*
X162400000Y-119600000D03*
X160900000Y-119600000D03*
X159400000Y-119600000D03*
D16*
X127000000Y-130250000D03*
D17*
X127000000Y-132790000D03*
X127000000Y-135330000D03*
D20*
X111500000Y-129817621D03*
D21*
X111500000Y-132317621D03*
D18*
X146900000Y-149000000D03*
D19*
X154700000Y-149000000D03*
X162500000Y-149000000D03*
X170300000Y-149000000D03*
X178100000Y-149000000D03*
D14*
X128500000Y-119600000D03*
D15*
X127000000Y-119600000D03*
X125500000Y-119600000D03*
X124000000Y-119600000D03*
X122500000Y-119600000D03*
X121000000Y-119600000D03*
X119500000Y-119600000D03*
X118000000Y-119600000D03*
X116500000Y-119600000D03*
X115000000Y-119600000D03*
D20*
X165500000Y-141317621D03*
D21*
X165500000Y-143817621D03*
D16*
X157000000Y-130250000D03*
D17*
X157000000Y-132790000D03*
X157000000Y-135330000D03*
D16*
X172000000Y-130250000D03*
D17*
X172000000Y-132790000D03*
X172000000Y-135330000D03*
D20*
X153500000Y-143000000D03*
D21*
X153500000Y-140500000D03*
D20*
X119750000Y-131317621D03*
D21*
X119750000Y-133817621D03*
D14*
X106300000Y-119600000D03*
D15*
X104800000Y-119600000D03*
X103300000Y-119600000D03*
X101800000Y-119600000D03*
X100300000Y-119600000D03*
X98800000Y-119600000D03*
X97300000Y-119600000D03*
X95800000Y-119600000D03*
X94300000Y-119600000D03*
X92800000Y-119600000D03*
%LPD*%
M02*
