G04 #@! TF.GenerationSoftware,KiCad,Pcbnew,8.0.7*
G04 #@! TF.CreationDate,2025-05-28T10:08:30-07:00*
G04 #@! TF.ProjectId,psu_linear_reg,7073755f-6c69-46e6-9561-725f7265672e,rev?*
G04 #@! TF.SameCoordinates,Original*
G04 #@! TF.FileFunction,Copper,L1,Top*
G04 #@! TF.FilePolarity,Positive*
%FSLAX46Y46*%
G04 Gerber Fmt 4.6, Leading zero omitted, Abs format (unit mm)*
G04 Created by KiCad (PCBNEW 8.0.7) date 2025-05-28 10:08:30*
%MOMM*%
%LPD*%
G01*
G04 APERTURE LIST*
G04 Aperture macros list*
%AMRoundRect*
0 Rectangle with rounded corners*
0 $1 Rounding radius*
0 $2 $3 $4 $5 $6 $7 $8 $9 X,Y pos of 4 corners*
0 Add a 4 corners polygon primitive as box body*
4,1,4,$2,$3,$4,$5,$6,$7,$8,$9,$2,$3,0*
0 Add four circle primitives for the rounded corners*
1,1,$1+$1,$2,$3*
1,1,$1+$1,$4,$5*
1,1,$1+$1,$6,$7*
1,1,$1+$1,$8,$9*
0 Add four rect primitives between the rounded corners*
20,1,$1+$1,$2,$3,$4,$5,0*
20,1,$1+$1,$4,$5,$6,$7,0*
20,1,$1+$1,$6,$7,$8,$9,0*
20,1,$1+$1,$8,$9,$2,$3,0*%
G04 Aperture macros list end*
G04 #@! TA.AperFunction,SMDPad,CuDef*
%ADD10RoundRect,0.150000X-0.150000X0.587500X-0.150000X-0.587500X0.150000X-0.587500X0.150000X0.587500X0*%
G04 #@! TD*
G04 #@! TA.AperFunction,ComponentPad*
%ADD11O,1.600000X2.500000*%
G04 #@! TD*
G04 #@! TA.AperFunction,ComponentPad*
%ADD12O,3.500000X7.000000*%
G04 #@! TD*
G04 #@! TA.AperFunction,ComponentPad*
%ADD13RoundRect,0.250000X0.265000X0.615000X-0.265000X0.615000X-0.265000X-0.615000X0.265000X-0.615000X0*%
G04 #@! TD*
G04 #@! TA.AperFunction,ComponentPad*
%ADD14O,1.030000X1.730000*%
G04 #@! TD*
G04 #@! TA.AperFunction,SMDPad,CuDef*
%ADD15RoundRect,0.150000X0.825000X0.150000X-0.825000X0.150000X-0.825000X-0.150000X0.825000X-0.150000X0*%
G04 #@! TD*
G04 #@! TA.AperFunction,ComponentPad*
%ADD16R,2.000000X1.905000*%
G04 #@! TD*
G04 #@! TA.AperFunction,ComponentPad*
%ADD17O,2.000000X1.905000*%
G04 #@! TD*
G04 #@! TA.AperFunction,SMDPad,CuDef*
%ADD18RoundRect,0.250000X0.337500X0.475000X-0.337500X0.475000X-0.337500X-0.475000X0.337500X-0.475000X0*%
G04 #@! TD*
G04 #@! TA.AperFunction,SMDPad,CuDef*
%ADD19RoundRect,0.200000X-0.200000X-0.275000X0.200000X-0.275000X0.200000X0.275000X-0.200000X0.275000X0*%
G04 #@! TD*
G04 #@! TA.AperFunction,ComponentPad*
%ADD20RoundRect,0.250002X-1.699998X-1.699998X1.699998X-1.699998X1.699998X1.699998X-1.699998X1.699998X0*%
G04 #@! TD*
G04 #@! TA.AperFunction,ComponentPad*
%ADD21C,3.900000*%
G04 #@! TD*
G04 #@! TA.AperFunction,ComponentPad*
%ADD22R,1.600000X1.600000*%
G04 #@! TD*
G04 #@! TA.AperFunction,ComponentPad*
%ADD23C,1.600000*%
G04 #@! TD*
G04 #@! TA.AperFunction,ViaPad*
%ADD24C,0.800000*%
G04 #@! TD*
G04 #@! TA.AperFunction,Conductor*
%ADD25C,0.500000*%
G04 #@! TD*
G04 APERTURE END LIST*
D10*
X97950000Y-132062500D03*
X96050000Y-132062500D03*
X97000000Y-133937500D03*
D11*
X97000000Y-143000000D03*
D12*
X102080000Y-148080000D03*
D11*
X99540000Y-143000000D03*
D12*
X91920000Y-148080000D03*
D13*
X150700000Y-119600000D03*
D14*
X149200000Y-119600000D03*
X147700000Y-119600000D03*
X146200000Y-119600000D03*
X144700000Y-119600000D03*
X143200000Y-119600000D03*
X141700000Y-119600000D03*
X140200000Y-119600000D03*
X138700000Y-119600000D03*
X137200000Y-119600000D03*
D15*
X135475000Y-143405000D03*
X135475000Y-142135000D03*
X135475000Y-140865000D03*
X135475000Y-139595000D03*
X130525000Y-139595000D03*
X130525000Y-140865000D03*
X130525000Y-142135000D03*
X130525000Y-143405000D03*
D11*
X117000000Y-143000000D03*
D12*
X122080000Y-148080000D03*
D11*
X119540000Y-143000000D03*
D12*
X111920000Y-148080000D03*
D16*
X142000000Y-130250000D03*
D17*
X142000000Y-132790000D03*
X142000000Y-135330000D03*
D18*
X139467500Y-137160000D03*
X137392500Y-137160000D03*
D10*
X146450000Y-141562500D03*
X144550000Y-141562500D03*
X145500000Y-143437500D03*
D18*
X169418000Y-128524000D03*
X167343000Y-128524000D03*
D19*
X99500000Y-131000000D03*
X101150000Y-131000000D03*
D18*
X169439500Y-137160000D03*
X167364500Y-137160000D03*
D20*
X131300000Y-149000000D03*
D21*
X139100000Y-149000000D03*
D13*
X172900000Y-119600000D03*
D14*
X171400000Y-119600000D03*
X169900000Y-119600000D03*
X168400000Y-119600000D03*
X166900000Y-119600000D03*
X165400000Y-119600000D03*
X163900000Y-119600000D03*
X162400000Y-119600000D03*
X160900000Y-119600000D03*
X159400000Y-119600000D03*
D16*
X127000000Y-130250000D03*
D17*
X127000000Y-132790000D03*
X127000000Y-135330000D03*
D19*
X138175000Y-144000000D03*
X139825000Y-144000000D03*
D22*
X111500000Y-129817621D03*
D23*
X111500000Y-132317621D03*
D20*
X146900000Y-149000000D03*
D21*
X154700000Y-149000000D03*
X162500000Y-149000000D03*
X170300000Y-149000000D03*
X178100000Y-149000000D03*
D18*
X139467500Y-128524000D03*
X137392500Y-128524000D03*
D13*
X128500000Y-119600000D03*
D14*
X127000000Y-119600000D03*
X125500000Y-119600000D03*
X124000000Y-119600000D03*
X122500000Y-119600000D03*
X121000000Y-119600000D03*
X119500000Y-119600000D03*
X118000000Y-119600000D03*
X116500000Y-119600000D03*
X115000000Y-119600000D03*
D22*
X165500000Y-141317621D03*
D23*
X165500000Y-143817621D03*
D16*
X157000000Y-130250000D03*
D17*
X157000000Y-132790000D03*
X157000000Y-135330000D03*
D16*
X172000000Y-130250000D03*
D17*
X172000000Y-132790000D03*
X172000000Y-135330000D03*
D22*
X153500000Y-143000000D03*
D23*
X153500000Y-140500000D03*
D19*
X147675000Y-145500000D03*
X149325000Y-145500000D03*
D22*
X119750000Y-131317621D03*
D23*
X119750000Y-133817621D03*
D13*
X106300000Y-119600000D03*
D14*
X104800000Y-119600000D03*
X103300000Y-119600000D03*
X101800000Y-119600000D03*
X100300000Y-119600000D03*
X98800000Y-119600000D03*
X97300000Y-119600000D03*
X95800000Y-119600000D03*
X94300000Y-119600000D03*
X92800000Y-119600000D03*
D24*
X144700000Y-124600000D03*
X165400000Y-124600000D03*
X121000000Y-124600000D03*
X146200000Y-125600000D03*
X124000000Y-125600000D03*
X168400000Y-125600000D03*
X160900000Y-126600000D03*
X116500000Y-126600000D03*
X149200000Y-126600000D03*
X129000000Y-123600000D03*
X155250000Y-128250000D03*
D25*
X117000000Y-152500000D02*
X118250000Y-153750000D01*
X117000000Y-143000000D02*
X117000000Y-152500000D01*
X131300000Y-149000000D02*
X131300000Y-147580000D01*
X118250000Y-153750000D02*
X126550000Y-153750000D01*
X131300000Y-147580000D02*
X135475000Y-143405000D01*
X126550000Y-153750000D02*
X131300000Y-149000000D01*
X121000000Y-124600000D02*
X102700000Y-124600000D01*
X144700000Y-119600000D02*
X143200000Y-119600000D01*
X139467500Y-137160000D02*
X140170000Y-137160000D01*
X100300000Y-122200000D02*
X100300000Y-119600000D01*
X122500000Y-119600000D02*
X121000000Y-119600000D01*
X140170000Y-137160000D02*
X142000000Y-135330000D01*
X102700000Y-124600000D02*
X100300000Y-122200000D01*
X144700000Y-124600000D02*
X165400000Y-124600000D01*
X121000000Y-124600000D02*
X144700000Y-124600000D01*
X100300000Y-119600000D02*
X98800000Y-119600000D01*
X166900000Y-119600000D02*
X165400000Y-119600000D01*
X100600000Y-125600000D02*
X124000000Y-125600000D01*
X101385000Y-118285000D02*
X101800000Y-118700000D01*
X168400000Y-125600000D02*
X172600000Y-125600000D01*
X119500000Y-118700000D02*
X119915000Y-118285000D01*
X141700000Y-118700000D02*
X142115000Y-118285000D01*
X169439500Y-137160000D02*
X170170000Y-137160000D01*
X124000000Y-118700000D02*
X124000000Y-119600000D01*
X124000000Y-125600000D02*
X146200000Y-125600000D01*
X172000000Y-135330000D02*
X172700000Y-136030000D01*
X123585000Y-118285000D02*
X124000000Y-118700000D01*
X168400000Y-118700000D02*
X168400000Y-119600000D01*
X163900000Y-118700000D02*
X164315000Y-118285000D01*
X119500000Y-119600000D02*
X119500000Y-118700000D01*
X97300000Y-119600000D02*
X97300000Y-118700000D01*
X170170000Y-137160000D02*
X172000000Y-135330000D01*
X173750000Y-126750000D02*
X173750000Y-133580000D01*
X173750000Y-133580000D02*
X172000000Y-135330000D01*
X164315000Y-118285000D02*
X167985000Y-118285000D01*
X145785000Y-118285000D02*
X146200000Y-118700000D01*
X97300000Y-122300000D02*
X100600000Y-125600000D01*
X154700000Y-150700000D02*
X154700000Y-149000000D01*
X141700000Y-119600000D02*
X141700000Y-118700000D01*
X171000000Y-153250000D02*
X157250000Y-153250000D01*
X101800000Y-118700000D02*
X101800000Y-119600000D01*
X167985000Y-118285000D02*
X168400000Y-118700000D01*
X172700000Y-151550000D02*
X171000000Y-153250000D01*
X119915000Y-118285000D02*
X123585000Y-118285000D01*
X172600000Y-125600000D02*
X173750000Y-126750000D01*
X146200000Y-118700000D02*
X146200000Y-119600000D01*
X157250000Y-153250000D02*
X154700000Y-150700000D01*
X97300000Y-118700000D02*
X97715000Y-118285000D01*
X97715000Y-118285000D02*
X101385000Y-118285000D01*
X142115000Y-118285000D02*
X145785000Y-118285000D01*
X146200000Y-125600000D02*
X168400000Y-125600000D01*
X172700000Y-136030000D02*
X172700000Y-151550000D01*
X97300000Y-119600000D02*
X97300000Y-122300000D01*
X163900000Y-119600000D02*
X163900000Y-118700000D01*
X160900000Y-118665000D02*
X160900000Y-119600000D01*
X159000000Y-134250000D02*
X159000000Y-126600000D01*
X149200000Y-119600000D02*
X149200000Y-118935000D01*
X157920000Y-135330000D02*
X159000000Y-134250000D01*
X149200000Y-126600000D02*
X159000000Y-126600000D01*
X149200000Y-118935000D02*
X147765000Y-117500000D01*
X171400000Y-118935000D02*
X169965000Y-117500000D01*
X157000000Y-135330000D02*
X157920000Y-135330000D01*
X116500000Y-118665000D02*
X116500000Y-119600000D01*
X95465000Y-117500000D02*
X94300000Y-118665000D01*
X157012379Y-135330000D02*
X157000000Y-135330000D01*
X94300000Y-118665000D02*
X94300000Y-119600000D01*
X171400000Y-119600000D02*
X171400000Y-118935000D01*
X159000000Y-126600000D02*
X160900000Y-126600000D01*
X170300000Y-148617621D02*
X170300000Y-149000000D01*
X98500000Y-126600000D02*
X94300000Y-122400000D01*
X165500000Y-143817621D02*
X157012379Y-135330000D01*
X104800000Y-118935000D02*
X103365000Y-117500000D01*
X169965000Y-117500000D02*
X162065000Y-117500000D01*
X127000000Y-119600000D02*
X127000000Y-118935000D01*
X104800000Y-119600000D02*
X104800000Y-118935000D01*
X147765000Y-117500000D02*
X139865000Y-117500000D01*
X117665000Y-117500000D02*
X116500000Y-118665000D01*
X138700000Y-118665000D02*
X138700000Y-119600000D01*
X127000000Y-118935000D02*
X125565000Y-117500000D01*
X103365000Y-117500000D02*
X95465000Y-117500000D01*
X165500000Y-143817621D02*
X170300000Y-148617621D01*
X94300000Y-122400000D02*
X94300000Y-119600000D01*
X116500000Y-126600000D02*
X149200000Y-126600000D01*
X125565000Y-117500000D02*
X117665000Y-117500000D01*
X162065000Y-117500000D02*
X160900000Y-118665000D01*
X116500000Y-126600000D02*
X98500000Y-126600000D01*
X139865000Y-117500000D02*
X138700000Y-118665000D01*
X177000000Y-123600000D02*
X178100000Y-124700000D01*
X127000000Y-135330000D02*
X121262379Y-135330000D01*
X150700000Y-118800000D02*
X150700000Y-119600000D01*
X104300000Y-116800000D02*
X106300000Y-118800000D01*
X137200000Y-118935000D02*
X139335000Y-116800000D01*
X148700000Y-116800000D02*
X150700000Y-118800000D01*
X159400000Y-118935000D02*
X161535000Y-116800000D01*
X159400000Y-119600000D02*
X159400000Y-118935000D01*
X107900000Y-123600000D02*
X150900000Y-123600000D01*
X172900000Y-119600000D02*
X172900000Y-123550000D01*
X129000000Y-123600000D02*
X129000000Y-120100000D01*
X117135000Y-116800000D02*
X126500000Y-116800000D01*
X92800000Y-118935000D02*
X94935000Y-116800000D01*
X172900000Y-123550000D02*
X172950000Y-123600000D01*
X115000000Y-119600000D02*
X115000000Y-118935000D01*
X137200000Y-119600000D02*
X137200000Y-118935000D01*
X172950000Y-123600000D02*
X177000000Y-123600000D01*
X150700000Y-119600000D02*
X150900000Y-119800000D01*
X170900000Y-116800000D02*
X172900000Y-118800000D01*
X128500000Y-118800000D02*
X128500000Y-119600000D01*
X106300000Y-118800000D02*
X106300000Y-119600000D01*
X172900000Y-118800000D02*
X172900000Y-119600000D01*
X178100000Y-124700000D02*
X178100000Y-149000000D01*
X106300000Y-119600000D02*
X106300000Y-122000000D01*
X121262379Y-135330000D02*
X119750000Y-133817621D01*
X139335000Y-116800000D02*
X148700000Y-116800000D01*
X150900000Y-123600000D02*
X172850000Y-123600000D01*
X161535000Y-116800000D02*
X170900000Y-116800000D01*
X150900000Y-119800000D02*
X150900000Y-123600000D01*
X129000000Y-120100000D02*
X128500000Y-119600000D01*
X172850000Y-123600000D02*
X172900000Y-123550000D01*
X106300000Y-122000000D02*
X107900000Y-123600000D01*
X92800000Y-119600000D02*
X92800000Y-118935000D01*
X126500000Y-116800000D02*
X128500000Y-118800000D01*
X115000000Y-118935000D02*
X117135000Y-116800000D01*
X94935000Y-116800000D02*
X104300000Y-116800000D01*
X97000000Y-153000000D02*
X97000000Y-143000000D01*
X133600000Y-154500000D02*
X98500000Y-154500000D01*
X139100000Y-149000000D02*
X133600000Y-154500000D01*
X139100000Y-149000000D02*
X143062500Y-145037500D01*
X143900000Y-145037500D02*
X145500000Y-143437500D01*
X98500000Y-154500000D02*
X97000000Y-153000000D01*
X97000000Y-143000000D02*
X97000000Y-133937500D01*
X143062500Y-145037500D02*
X143900000Y-145037500D01*
X142000000Y-130250000D02*
X153250000Y-130250000D01*
X140274000Y-128524000D02*
X142000000Y-130250000D01*
X139467500Y-128524000D02*
X140274000Y-128524000D01*
X135475000Y-140865000D02*
X134500001Y-140865000D01*
X134500001Y-140865000D02*
X133365000Y-139729999D01*
X133365000Y-139729999D02*
X133365000Y-136135000D01*
X153250000Y-130250000D02*
X155250000Y-128250000D01*
X139250000Y-130250000D02*
X133365000Y-136135000D01*
X142000000Y-130250000D02*
X139250000Y-130250000D01*
X169418000Y-128524000D02*
X170274000Y-128524000D01*
X170274000Y-128524000D02*
X172000000Y-130250000D01*
X138175000Y-144000000D02*
X136310000Y-142135000D01*
X136310000Y-142135000D02*
X135475000Y-142135000D01*
X153000000Y-140000000D02*
X153500000Y-140500000D01*
X144550000Y-140450000D02*
X145000000Y-140000000D01*
X153500000Y-136290000D02*
X157000000Y-132790000D01*
X144550000Y-141562500D02*
X144550000Y-140450000D01*
X145000000Y-140000000D02*
X153000000Y-140000000D01*
X153500000Y-140500000D02*
X153500000Y-136290000D01*
X96050000Y-130450000D02*
X97000000Y-129500000D01*
X126777621Y-132567621D02*
X113250000Y-132567621D01*
X113250000Y-132567621D02*
X113000000Y-132317621D01*
X106000000Y-132317621D02*
X111500000Y-132317621D01*
X113000000Y-132317621D02*
X111500000Y-132317621D01*
X105317621Y-132317621D02*
X106000000Y-132317621D01*
X96050000Y-132062500D02*
X96050000Y-130450000D01*
X102500000Y-129500000D02*
X105317621Y-132317621D01*
X127000000Y-132790000D02*
X126777621Y-132567621D01*
X97000000Y-129500000D02*
X102500000Y-129500000D01*
X146450000Y-141562500D02*
X146450000Y-144275000D01*
X146450000Y-144275000D02*
X147675000Y-145500000D01*
X98437500Y-132062500D02*
X99500000Y-131000000D01*
X97950000Y-132062500D02*
X98437500Y-132062500D01*
G04 #@! TA.AperFunction,Conductor*
G36*
X92201848Y-118219685D02*
G01*
X92247603Y-118272489D01*
X92257547Y-118341647D01*
X92228522Y-118405203D01*
X92203700Y-118427102D01*
X92152656Y-118461208D01*
X92152652Y-118461211D01*
X92011211Y-118602652D01*
X92011208Y-118602656D01*
X91900078Y-118768973D01*
X91900071Y-118768986D01*
X91823526Y-118953784D01*
X91823523Y-118953796D01*
X91784500Y-119149977D01*
X91784500Y-120050022D01*
X91823523Y-120246203D01*
X91823526Y-120246215D01*
X91900071Y-120431013D01*
X91900078Y-120431026D01*
X92011208Y-120597343D01*
X92011211Y-120597347D01*
X92152652Y-120738788D01*
X92152656Y-120738791D01*
X92318973Y-120849921D01*
X92318986Y-120849928D01*
X92502625Y-120925993D01*
X92503789Y-120926475D01*
X92647185Y-120954998D01*
X92699977Y-120965499D01*
X92699981Y-120965500D01*
X92699982Y-120965500D01*
X92900019Y-120965500D01*
X92900020Y-120965499D01*
X93096211Y-120926475D01*
X93281020Y-120849925D01*
X93356609Y-120799417D01*
X93423286Y-120778540D01*
X93490666Y-120797024D01*
X93537357Y-120849003D01*
X93549500Y-120902520D01*
X93549500Y-122473918D01*
X93549500Y-122473920D01*
X93549499Y-122473920D01*
X93578340Y-122618907D01*
X93578343Y-122618917D01*
X93634914Y-122755492D01*
X93634915Y-122755494D01*
X93634916Y-122755495D01*
X93649292Y-122777011D01*
X93664318Y-122799498D01*
X93664319Y-122799501D01*
X93717046Y-122878414D01*
X93717052Y-122878421D01*
X98021581Y-127182950D01*
X98021584Y-127182952D01*
X98089627Y-127228416D01*
X98144505Y-127265084D01*
X98144506Y-127265084D01*
X98144507Y-127265085D01*
X98226388Y-127299001D01*
X98281087Y-127321658D01*
X98281091Y-127321658D01*
X98281092Y-127321659D01*
X98426079Y-127350500D01*
X98426082Y-127350500D01*
X98426083Y-127350500D01*
X98573917Y-127350500D01*
X115960663Y-127350500D01*
X116027702Y-127370185D01*
X116033548Y-127374182D01*
X116047265Y-127384148D01*
X116047270Y-127384151D01*
X116220192Y-127461142D01*
X116220197Y-127461144D01*
X116405354Y-127500500D01*
X116405355Y-127500500D01*
X116594644Y-127500500D01*
X116594646Y-127500500D01*
X116779803Y-127461144D01*
X116952730Y-127384151D01*
X116965005Y-127375233D01*
X116966452Y-127374182D01*
X117032258Y-127350702D01*
X117039337Y-127350500D01*
X136393477Y-127350500D01*
X136460516Y-127370185D01*
X136506271Y-127422989D01*
X136516215Y-127492147D01*
X136487190Y-127555703D01*
X136481158Y-127562181D01*
X136462684Y-127580654D01*
X136370643Y-127729875D01*
X136370641Y-127729880D01*
X136315494Y-127896302D01*
X136315493Y-127896309D01*
X136305000Y-127999013D01*
X136305000Y-128274000D01*
X137268500Y-128274000D01*
X137335539Y-128293685D01*
X137381294Y-128346489D01*
X137392500Y-128398000D01*
X137392500Y-128524000D01*
X137518500Y-128524000D01*
X137585539Y-128543685D01*
X137631294Y-128596489D01*
X137642500Y-128648000D01*
X137642500Y-129748999D01*
X137779972Y-129748999D01*
X137779986Y-129748998D01*
X137882697Y-129738505D01*
X138049119Y-129683358D01*
X138049124Y-129683356D01*
X138198345Y-129591315D01*
X138322318Y-129467342D01*
X138324165Y-129464348D01*
X138325969Y-129462724D01*
X138326798Y-129461677D01*
X138326976Y-129461818D01*
X138376110Y-129417621D01*
X138445073Y-129406396D01*
X138509156Y-129434236D01*
X138535243Y-129464341D01*
X138537288Y-129467656D01*
X138537289Y-129467657D01*
X138666450Y-129596818D01*
X138699935Y-129658141D01*
X138694951Y-129727833D01*
X138666450Y-129772180D01*
X132782047Y-135656584D01*
X132782044Y-135656588D01*
X132766554Y-135679772D01*
X132762731Y-135685495D01*
X132755626Y-135696129D01*
X132699914Y-135779507D01*
X132643343Y-135916082D01*
X132643340Y-135916092D01*
X132614500Y-136061079D01*
X132614500Y-136061082D01*
X132614500Y-139803917D01*
X132614500Y-139803919D01*
X132614499Y-139803919D01*
X132643340Y-139948906D01*
X132643343Y-139948916D01*
X132699913Y-140085489D01*
X132699914Y-140085490D01*
X132699916Y-140085494D01*
X132705936Y-140094503D01*
X132705937Y-140094506D01*
X132782046Y-140208413D01*
X132782052Y-140208420D01*
X134021585Y-141447952D01*
X134021591Y-141447957D01*
X134060384Y-141473876D01*
X134105191Y-141527486D01*
X134113901Y-141596811D01*
X134098230Y-141640100D01*
X134048254Y-141724605D01*
X134048254Y-141724606D01*
X134002402Y-141882426D01*
X134002401Y-141882432D01*
X133999500Y-141919298D01*
X133999500Y-142350701D01*
X134002401Y-142387567D01*
X134002402Y-142387573D01*
X134048254Y-142545393D01*
X134048255Y-142545396D01*
X134131917Y-142686862D01*
X134136702Y-142693031D01*
X134134256Y-142694927D01*
X134160857Y-142743642D01*
X134155873Y-142813334D01*
X134135069Y-142845703D01*
X134136702Y-142846969D01*
X134131917Y-142853137D01*
X134048255Y-142994603D01*
X134048254Y-142994606D01*
X134002402Y-143152426D01*
X134002401Y-143152432D01*
X133999500Y-143189298D01*
X133999500Y-143620701D01*
X134002401Y-143657563D01*
X134002402Y-143657569D01*
X134017661Y-143710091D01*
X134017461Y-143779961D01*
X133986265Y-143832366D01*
X131305449Y-146513181D01*
X131244126Y-146546666D01*
X131217768Y-146549500D01*
X129550000Y-146549500D01*
X129549983Y-146549501D01*
X129447204Y-146560000D01*
X129447201Y-146560001D01*
X129280669Y-146615185D01*
X129280664Y-146615187D01*
X129131343Y-146707290D01*
X129007290Y-146831343D01*
X128915187Y-146980664D01*
X128915186Y-146980667D01*
X128860001Y-147147204D01*
X128860001Y-147147205D01*
X128860000Y-147147205D01*
X128849500Y-147249985D01*
X128849500Y-150337769D01*
X128829815Y-150404808D01*
X128813181Y-150425450D01*
X126275451Y-152963181D01*
X126214128Y-152996666D01*
X126187770Y-152999500D01*
X118612230Y-152999500D01*
X118545191Y-152979815D01*
X118524549Y-152963181D01*
X117786819Y-152225451D01*
X117753334Y-152164128D01*
X117750500Y-152137770D01*
X117750500Y-146182533D01*
X119830000Y-146182533D01*
X119830000Y-147830000D01*
X121105038Y-147830000D01*
X121075000Y-147981016D01*
X121075000Y-148178984D01*
X121105038Y-148330000D01*
X119830000Y-148330000D01*
X119830000Y-149977466D01*
X119830001Y-149977483D01*
X119868496Y-150269884D01*
X119868499Y-150269897D01*
X119944835Y-150554790D01*
X119944838Y-150554800D01*
X120057704Y-150827281D01*
X120057709Y-150827292D01*
X120205174Y-151082707D01*
X120205185Y-151082723D01*
X120384729Y-151316709D01*
X120384735Y-151316716D01*
X120593283Y-151525264D01*
X120593290Y-151525270D01*
X120827276Y-151704814D01*
X120827292Y-151704825D01*
X121082707Y-151852290D01*
X121082718Y-151852295D01*
X121355199Y-151965161D01*
X121355209Y-151965164D01*
X121640102Y-152041500D01*
X121640115Y-152041503D01*
X121830000Y-152066502D01*
X121830000Y-149054961D01*
X121981016Y-149085000D01*
X122178984Y-149085000D01*
X122330000Y-149054961D01*
X122330000Y-152066501D01*
X122519884Y-152041503D01*
X122519897Y-152041500D01*
X122804790Y-151965164D01*
X122804800Y-151965161D01*
X123077281Y-151852295D01*
X123077292Y-151852290D01*
X123332707Y-151704825D01*
X123332723Y-151704814D01*
X123566709Y-151525270D01*
X123566716Y-151525264D01*
X123775264Y-151316716D01*
X123775270Y-151316709D01*
X123954814Y-151082723D01*
X123954825Y-151082707D01*
X124102290Y-150827292D01*
X124102295Y-150827281D01*
X124215161Y-150554800D01*
X124215164Y-150554790D01*
X124291500Y-150269897D01*
X124291503Y-150269884D01*
X124329998Y-149977483D01*
X124330000Y-149977466D01*
X124330000Y-148330000D01*
X123054962Y-148330000D01*
X123085000Y-148178984D01*
X123085000Y-147981016D01*
X123054962Y-147830000D01*
X124330000Y-147830000D01*
X124330000Y-146182533D01*
X124329998Y-146182516D01*
X124291503Y-145890115D01*
X124291500Y-145890102D01*
X124215164Y-145605209D01*
X124215161Y-145605199D01*
X124102295Y-145332718D01*
X124102290Y-145332707D01*
X123954825Y-145077292D01*
X123954814Y-145077276D01*
X123775270Y-144843290D01*
X123775264Y-144843283D01*
X123566716Y-144634735D01*
X123566709Y-144634729D01*
X123332723Y-144455185D01*
X123332707Y-144455174D01*
X123077292Y-144307709D01*
X123077281Y-144307704D01*
X122804800Y-144194838D01*
X122804790Y-144194835D01*
X122519897Y-144118499D01*
X122519886Y-144118497D01*
X122330000Y-144093496D01*
X122330000Y-147105038D01*
X122178984Y-147075000D01*
X121981016Y-147075000D01*
X121830000Y-147105038D01*
X121830000Y-144093496D01*
X121829999Y-144093496D01*
X121640113Y-144118497D01*
X121640102Y-144118499D01*
X121355209Y-144194835D01*
X121355199Y-144194838D01*
X121082718Y-144307704D01*
X121082707Y-144307709D01*
X120827292Y-144455174D01*
X120827276Y-144455185D01*
X120593290Y-144634729D01*
X120593283Y-144634735D01*
X120384735Y-144843283D01*
X120384729Y-144843290D01*
X120205185Y-145077276D01*
X120205174Y-145077292D01*
X120057709Y-145332707D01*
X120057704Y-145332718D01*
X119944838Y-145605199D01*
X119944835Y-145605209D01*
X119868499Y-145890102D01*
X119868496Y-145890115D01*
X119830001Y-146182516D01*
X119830000Y-146182533D01*
X117750500Y-146182533D01*
X117750500Y-144575416D01*
X117770185Y-144508377D01*
X117801613Y-144475099D01*
X117847219Y-144441966D01*
X117991966Y-144297219D01*
X117991968Y-144297215D01*
X117991971Y-144297213D01*
X118112284Y-144131614D01*
X118112285Y-144131613D01*
X118112287Y-144131610D01*
X118159795Y-144038369D01*
X118207770Y-143987574D01*
X118275591Y-143970779D01*
X118341725Y-143993316D01*
X118380765Y-144038370D01*
X118428140Y-144131349D01*
X118548417Y-144296894D01*
X118548417Y-144296895D01*
X118693104Y-144441582D01*
X118858650Y-144561859D01*
X119040968Y-144654754D01*
X119235578Y-144717988D01*
X119290000Y-144726607D01*
X119290000Y-143369504D01*
X119368236Y-143414674D01*
X119481415Y-143445000D01*
X119598585Y-143445000D01*
X119711764Y-143414674D01*
X119790000Y-143369504D01*
X119790000Y-144726606D01*
X119844421Y-144717988D01*
X120039031Y-144654754D01*
X120221349Y-144561859D01*
X120386894Y-144441582D01*
X120386895Y-144441582D01*
X120531582Y-144296895D01*
X120531582Y-144296894D01*
X120651859Y-144131349D01*
X120744755Y-143949031D01*
X120807990Y-143754417D01*
X120840000Y-143552317D01*
X120840000Y-143250000D01*
X119909504Y-143250000D01*
X119954674Y-143171764D01*
X119985000Y-143058585D01*
X119985000Y-142941415D01*
X119954674Y-142828236D01*
X119909504Y-142750000D01*
X120840000Y-142750000D01*
X120840000Y-142447682D01*
X120807990Y-142245582D01*
X120744755Y-142050968D01*
X120651859Y-141868650D01*
X120531582Y-141703105D01*
X120531582Y-141703104D01*
X120386895Y-141558417D01*
X120221349Y-141438140D01*
X120039029Y-141345244D01*
X119844413Y-141282009D01*
X119790000Y-141273390D01*
X119790000Y-142630495D01*
X119711764Y-142585326D01*
X119598585Y-142555000D01*
X119481415Y-142555000D01*
X119368236Y-142585326D01*
X119290000Y-142630495D01*
X119290000Y-141273390D01*
X119235586Y-141282009D01*
X119040970Y-141345244D01*
X118858650Y-141438140D01*
X118693105Y-141558417D01*
X118693104Y-141558417D01*
X118548417Y-141703104D01*
X118548417Y-141703105D01*
X118428140Y-141868650D01*
X118380765Y-141961629D01*
X118332790Y-142012425D01*
X118264969Y-142029220D01*
X118198834Y-142006682D01*
X118159795Y-141961629D01*
X118148990Y-141940424D01*
X118112287Y-141868390D01*
X118093704Y-141842812D01*
X117991971Y-141702786D01*
X117847213Y-141558028D01*
X117681613Y-141437715D01*
X117681612Y-141437714D01*
X117681610Y-141437713D01*
X117624653Y-141408691D01*
X117499223Y-141344781D01*
X117304534Y-141281522D01*
X117109322Y-141250604D01*
X117102352Y-141249500D01*
X116897648Y-141249500D01*
X116890678Y-141250604D01*
X116695465Y-141281522D01*
X116500776Y-141344781D01*
X116318386Y-141437715D01*
X116152786Y-141558028D01*
X116008028Y-141702786D01*
X115887715Y-141868386D01*
X115794781Y-142050776D01*
X115731522Y-142245465D01*
X115699500Y-142447648D01*
X115699500Y-143552351D01*
X115731522Y-143754534D01*
X115794781Y-143949223D01*
X115887715Y-144131613D01*
X116008028Y-144297213D01*
X116008034Y-144297219D01*
X116152781Y-144441966D01*
X116198384Y-144475098D01*
X116241050Y-144530425D01*
X116249500Y-144575416D01*
X116249500Y-152573918D01*
X116249500Y-152573920D01*
X116249499Y-152573920D01*
X116278340Y-152718907D01*
X116278343Y-152718917D01*
X116334913Y-152855490D01*
X116334914Y-152855492D01*
X116360982Y-152894505D01*
X116360983Y-152894507D01*
X116417043Y-152978410D01*
X116417047Y-152978415D01*
X116976451Y-153537819D01*
X117009936Y-153599142D01*
X117004952Y-153668834D01*
X116963080Y-153724767D01*
X116897616Y-153749184D01*
X116888770Y-153749500D01*
X98862229Y-153749500D01*
X98795190Y-153729815D01*
X98774548Y-153713181D01*
X97786819Y-152725451D01*
X97753334Y-152664128D01*
X97750500Y-152637770D01*
X97750500Y-146182533D01*
X99830000Y-146182533D01*
X99830000Y-147830000D01*
X101105038Y-147830000D01*
X101075000Y-147981016D01*
X101075000Y-148178984D01*
X101105038Y-148330000D01*
X99830000Y-148330000D01*
X99830000Y-149977466D01*
X99830001Y-149977483D01*
X99868496Y-150269884D01*
X99868499Y-150269897D01*
X99944835Y-150554790D01*
X99944838Y-150554800D01*
X100057704Y-150827281D01*
X100057709Y-150827292D01*
X100205174Y-151082707D01*
X100205185Y-151082723D01*
X100384729Y-151316709D01*
X100384735Y-151316716D01*
X100593283Y-151525264D01*
X100593290Y-151525270D01*
X100827276Y-151704814D01*
X100827292Y-151704825D01*
X101082707Y-151852290D01*
X101082718Y-151852295D01*
X101355199Y-151965161D01*
X101355209Y-151965164D01*
X101640102Y-152041500D01*
X101640115Y-152041503D01*
X101830000Y-152066502D01*
X101830000Y-149054961D01*
X101981016Y-149085000D01*
X102178984Y-149085000D01*
X102330000Y-149054961D01*
X102330000Y-152066501D01*
X102519884Y-152041503D01*
X102519897Y-152041500D01*
X102804790Y-151965164D01*
X102804800Y-151965161D01*
X103077281Y-151852295D01*
X103077292Y-151852290D01*
X103332707Y-151704825D01*
X103332723Y-151704814D01*
X103566709Y-151525270D01*
X103566716Y-151525264D01*
X103775264Y-151316716D01*
X103775270Y-151316709D01*
X103954814Y-151082723D01*
X103954825Y-151082707D01*
X104102290Y-150827292D01*
X104102295Y-150827281D01*
X104215161Y-150554800D01*
X104215164Y-150554790D01*
X104291500Y-150269897D01*
X104291503Y-150269884D01*
X104329998Y-149977483D01*
X104330000Y-149977466D01*
X104330000Y-148330000D01*
X103054962Y-148330000D01*
X103085000Y-148178984D01*
X103085000Y-147981016D01*
X103054962Y-147830000D01*
X104330000Y-147830000D01*
X104330000Y-146182533D01*
X109670000Y-146182533D01*
X109670000Y-147830000D01*
X110945038Y-147830000D01*
X110915000Y-147981016D01*
X110915000Y-148178984D01*
X110945038Y-148330000D01*
X109670000Y-148330000D01*
X109670000Y-149977466D01*
X109670001Y-149977483D01*
X109708496Y-150269884D01*
X109708499Y-150269897D01*
X109784835Y-150554790D01*
X109784838Y-150554800D01*
X109897704Y-150827281D01*
X109897709Y-150827292D01*
X110045174Y-151082707D01*
X110045185Y-151082723D01*
X110224729Y-151316709D01*
X110224735Y-151316716D01*
X110433283Y-151525264D01*
X110433290Y-151525270D01*
X110667276Y-151704814D01*
X110667292Y-151704825D01*
X110922707Y-151852290D01*
X110922718Y-151852295D01*
X111195199Y-151965161D01*
X111195209Y-151965164D01*
X111480102Y-152041500D01*
X111480115Y-152041503D01*
X111670000Y-152066502D01*
X111670000Y-149054961D01*
X111821016Y-149085000D01*
X112018984Y-149085000D01*
X112170000Y-149054961D01*
X112170000Y-152066501D01*
X112359884Y-152041503D01*
X112359897Y-152041500D01*
X112644790Y-151965164D01*
X112644800Y-151965161D01*
X112917281Y-151852295D01*
X112917292Y-151852290D01*
X113172707Y-151704825D01*
X113172723Y-151704814D01*
X113406709Y-151525270D01*
X113406716Y-151525264D01*
X113615264Y-151316716D01*
X113615270Y-151316709D01*
X113794814Y-151082723D01*
X113794825Y-151082707D01*
X113942290Y-150827292D01*
X113942295Y-150827281D01*
X114055161Y-150554800D01*
X114055164Y-150554790D01*
X114131500Y-150269897D01*
X114131503Y-150269884D01*
X114169998Y-149977483D01*
X114170000Y-149977466D01*
X114170000Y-148330000D01*
X112894962Y-148330000D01*
X112925000Y-148178984D01*
X112925000Y-147981016D01*
X112894962Y-147830000D01*
X114170000Y-147830000D01*
X114170000Y-146182533D01*
X114169998Y-146182516D01*
X114131503Y-145890115D01*
X114131500Y-145890102D01*
X114055164Y-145605209D01*
X114055161Y-145605199D01*
X113942295Y-145332718D01*
X113942290Y-145332707D01*
X113794825Y-145077292D01*
X113794814Y-145077276D01*
X113615270Y-144843290D01*
X113615264Y-144843283D01*
X113406716Y-144634735D01*
X113406709Y-144634729D01*
X113172723Y-144455185D01*
X113172707Y-144455174D01*
X112917292Y-144307709D01*
X112917281Y-144307704D01*
X112644800Y-144194838D01*
X112644790Y-144194835D01*
X112359897Y-144118499D01*
X112359886Y-144118497D01*
X112170000Y-144093496D01*
X112170000Y-147105038D01*
X112018984Y-147075000D01*
X111821016Y-147075000D01*
X111670000Y-147105038D01*
X111670000Y-144093496D01*
X111669999Y-144093496D01*
X111480113Y-144118497D01*
X111480102Y-144118499D01*
X111195209Y-144194835D01*
X111195199Y-144194838D01*
X110922718Y-144307704D01*
X110922707Y-144307709D01*
X110667292Y-144455174D01*
X110667276Y-144455185D01*
X110433290Y-144634729D01*
X110433283Y-144634735D01*
X110224735Y-144843283D01*
X110224729Y-144843290D01*
X110045185Y-145077276D01*
X110045174Y-145077292D01*
X109897709Y-145332707D01*
X109897704Y-145332718D01*
X109784838Y-145605199D01*
X109784835Y-145605209D01*
X109708499Y-145890102D01*
X109708496Y-145890115D01*
X109670001Y-146182516D01*
X109670000Y-146182533D01*
X104330000Y-146182533D01*
X104329998Y-146182516D01*
X104291503Y-145890115D01*
X104291500Y-145890102D01*
X104215164Y-145605209D01*
X104215161Y-145605199D01*
X104102295Y-145332718D01*
X104102290Y-145332707D01*
X103954825Y-145077292D01*
X103954814Y-145077276D01*
X103775270Y-144843290D01*
X103775264Y-144843283D01*
X103566716Y-144634735D01*
X103566709Y-144634729D01*
X103332723Y-144455185D01*
X103332707Y-144455174D01*
X103077292Y-144307709D01*
X103077281Y-144307704D01*
X102804800Y-144194838D01*
X102804790Y-144194835D01*
X102519897Y-144118499D01*
X102519886Y-144118497D01*
X102330000Y-144093496D01*
X102330000Y-147105038D01*
X102178984Y-147075000D01*
X101981016Y-147075000D01*
X101830000Y-147105038D01*
X101830000Y-144093496D01*
X101829999Y-144093496D01*
X101640113Y-144118497D01*
X101640102Y-144118499D01*
X101355209Y-144194835D01*
X101355199Y-144194838D01*
X101082718Y-144307704D01*
X101082707Y-144307709D01*
X100827292Y-144455174D01*
X100827276Y-144455185D01*
X100593290Y-144634729D01*
X100593283Y-144634735D01*
X100384735Y-144843283D01*
X100384729Y-144843290D01*
X100205185Y-145077276D01*
X100205174Y-145077292D01*
X100057709Y-145332707D01*
X100057704Y-145332718D01*
X99944838Y-145605199D01*
X99944835Y-145605209D01*
X99868499Y-145890102D01*
X99868496Y-145890115D01*
X99830001Y-146182516D01*
X99830000Y-146182533D01*
X97750500Y-146182533D01*
X97750500Y-144575416D01*
X97770185Y-144508377D01*
X97801613Y-144475099D01*
X97847219Y-144441966D01*
X97991966Y-144297219D01*
X97991968Y-144297215D01*
X97991971Y-144297213D01*
X98112284Y-144131614D01*
X98112285Y-144131613D01*
X98112287Y-144131610D01*
X98159795Y-144038369D01*
X98207770Y-143987574D01*
X98275591Y-143970779D01*
X98341725Y-143993316D01*
X98380765Y-144038370D01*
X98428140Y-144131349D01*
X98548417Y-144296894D01*
X98548417Y-144296895D01*
X98693104Y-144441582D01*
X98858650Y-144561859D01*
X99040968Y-144654754D01*
X99235578Y-144717988D01*
X99290000Y-144726607D01*
X99290000Y-143369504D01*
X99368236Y-143414674D01*
X99481415Y-143445000D01*
X99598585Y-143445000D01*
X99711764Y-143414674D01*
X99790000Y-143369504D01*
X99790000Y-144726606D01*
X99844421Y-144717988D01*
X100039031Y-144654754D01*
X100221349Y-144561859D01*
X100386894Y-144441582D01*
X100386895Y-144441582D01*
X100531582Y-144296895D01*
X100531582Y-144296894D01*
X100651859Y-144131349D01*
X100744755Y-143949031D01*
X100807990Y-143754417D01*
X100840000Y-143552317D01*
X100840000Y-143250000D01*
X99909504Y-143250000D01*
X99954674Y-143171764D01*
X99985000Y-143058585D01*
X99985000Y-142941415D01*
X99954674Y-142828236D01*
X99909504Y-142750000D01*
X100840000Y-142750000D01*
X100840000Y-142447682D01*
X100807990Y-142245582D01*
X100744755Y-142050968D01*
X100651859Y-141868650D01*
X100531582Y-141703105D01*
X100531582Y-141703104D01*
X100386895Y-141558417D01*
X100221349Y-141438140D01*
X100039029Y-141345244D01*
X99844413Y-141282009D01*
X99790000Y-141273390D01*
X99790000Y-142630495D01*
X99711764Y-142585326D01*
X99598585Y-142555000D01*
X99481415Y-142555000D01*
X99368236Y-142585326D01*
X99290000Y-142630495D01*
X99290000Y-141273390D01*
X99235586Y-141282009D01*
X99040970Y-141345244D01*
X98858650Y-141438140D01*
X98693105Y-141558417D01*
X98693104Y-141558417D01*
X98548417Y-141703104D01*
X98548417Y-141703105D01*
X98428140Y-141868650D01*
X98380765Y-141961629D01*
X98332790Y-142012425D01*
X98264969Y-142029220D01*
X98198834Y-142006682D01*
X98159795Y-141961629D01*
X98148990Y-141940424D01*
X98112287Y-141868390D01*
X98093704Y-141842812D01*
X97991971Y-141702786D01*
X97847217Y-141558032D01*
X97847212Y-141558028D01*
X97801615Y-141524900D01*
X97758949Y-141469571D01*
X97750500Y-141424582D01*
X97750500Y-139379298D01*
X129049500Y-139379298D01*
X129049500Y-139810701D01*
X129052401Y-139847567D01*
X129052402Y-139847573D01*
X129098254Y-140005393D01*
X129098255Y-140005396D01*
X129181917Y-140146862D01*
X129186702Y-140153031D01*
X129184256Y-140154927D01*
X129210857Y-140203642D01*
X129205873Y-140273334D01*
X129185069Y-140305703D01*
X129186702Y-140306969D01*
X129181917Y-140313137D01*
X129098255Y-140454603D01*
X129098254Y-140454606D01*
X129052402Y-140612426D01*
X129052401Y-140612432D01*
X129049500Y-140649298D01*
X129049500Y-141080701D01*
X129052401Y-141117567D01*
X129052402Y-141117573D01*
X129098254Y-141275393D01*
X129098255Y-141275396D01*
X129181917Y-141416862D01*
X129186702Y-141423031D01*
X129184256Y-141424927D01*
X129210857Y-141473642D01*
X129205873Y-141543334D01*
X129185069Y-141575703D01*
X129186702Y-141576969D01*
X129181917Y-141583137D01*
X129098255Y-141724603D01*
X129098254Y-141724606D01*
X129052402Y-141882426D01*
X129052401Y-141882432D01*
X129049500Y-141919298D01*
X129049500Y-142350701D01*
X129052401Y-142387567D01*
X129052402Y-142387573D01*
X129098254Y-142545393D01*
X129098255Y-142545396D01*
X129181917Y-142686862D01*
X129186702Y-142693031D01*
X129184256Y-142694927D01*
X129210857Y-142743642D01*
X129205873Y-142813334D01*
X129185069Y-142845703D01*
X129186702Y-142846969D01*
X129181917Y-142853137D01*
X129098255Y-142994603D01*
X129098254Y-142994606D01*
X129052402Y-143152426D01*
X129052401Y-143152432D01*
X129049500Y-143189298D01*
X129049500Y-143620701D01*
X129052401Y-143657567D01*
X129052402Y-143657573D01*
X129098254Y-143815393D01*
X129098255Y-143815396D01*
X129098256Y-143815398D01*
X129133896Y-143875663D01*
X129177399Y-143949223D01*
X129181918Y-143956864D01*
X129181923Y-143956870D01*
X129298129Y-144073076D01*
X129298133Y-144073079D01*
X129298135Y-144073081D01*
X129439602Y-144156744D01*
X129481224Y-144168836D01*
X129597426Y-144202597D01*
X129597429Y-144202597D01*
X129597431Y-144202598D01*
X129634306Y-144205500D01*
X129634314Y-144205500D01*
X131415686Y-144205500D01*
X131415694Y-144205500D01*
X131452569Y-144202598D01*
X131452571Y-144202597D01*
X131452573Y-144202597D01*
X131510143Y-144185871D01*
X131610398Y-144156744D01*
X131751865Y-144073081D01*
X131868081Y-143956865D01*
X131951744Y-143815398D01*
X131997598Y-143657569D01*
X132000500Y-143620694D01*
X132000500Y-143189306D01*
X131997598Y-143152431D01*
X131951744Y-142994602D01*
X131868081Y-142853135D01*
X131868078Y-142853132D01*
X131863298Y-142846969D01*
X131865750Y-142845066D01*
X131839155Y-142796421D01*
X131844104Y-142726726D01*
X131864940Y-142694304D01*
X131863298Y-142693031D01*
X131868075Y-142686870D01*
X131868081Y-142686865D01*
X131951744Y-142545398D01*
X131990355Y-142412501D01*
X131997597Y-142387573D01*
X131997598Y-142387567D01*
X131999790Y-142359714D01*
X132000500Y-142350694D01*
X132000500Y-141919306D01*
X131997598Y-141882431D01*
X131993594Y-141868650D01*
X131951745Y-141724606D01*
X131951744Y-141724603D01*
X131951744Y-141724602D01*
X131868081Y-141583135D01*
X131868078Y-141583132D01*
X131863298Y-141576969D01*
X131865750Y-141575066D01*
X131839155Y-141526421D01*
X131844104Y-141456726D01*
X131864940Y-141424304D01*
X131863298Y-141423031D01*
X131868075Y-141416870D01*
X131868081Y-141416865D01*
X131951744Y-141275398D01*
X131997598Y-141117569D01*
X132000500Y-141080694D01*
X132000500Y-140649306D01*
X131997598Y-140612431D01*
X131951744Y-140454602D01*
X131868081Y-140313135D01*
X131868078Y-140313132D01*
X131863298Y-140306969D01*
X131865750Y-140305066D01*
X131839155Y-140256421D01*
X131844104Y-140186726D01*
X131864940Y-140154304D01*
X131863298Y-140153031D01*
X131868075Y-140146870D01*
X131868081Y-140146865D01*
X131951744Y-140005398D01*
X131997598Y-139847569D01*
X132000500Y-139810694D01*
X132000500Y-139379306D01*
X131997598Y-139342431D01*
X131951744Y-139184602D01*
X131868081Y-139043135D01*
X131868079Y-139043133D01*
X131868076Y-139043129D01*
X131751870Y-138926923D01*
X131751862Y-138926917D01*
X131610396Y-138843255D01*
X131610393Y-138843254D01*
X131452573Y-138797402D01*
X131452567Y-138797401D01*
X131415701Y-138794500D01*
X131415694Y-138794500D01*
X129634306Y-138794500D01*
X129634298Y-138794500D01*
X129597432Y-138797401D01*
X129597426Y-138797402D01*
X129439606Y-138843254D01*
X129439603Y-138843255D01*
X129298137Y-138926917D01*
X129298129Y-138926923D01*
X129181923Y-139043129D01*
X129181917Y-139043137D01*
X129098255Y-139184603D01*
X129098254Y-139184606D01*
X129052402Y-139342426D01*
X129052401Y-139342432D01*
X129049500Y-139379298D01*
X97750500Y-139379298D01*
X97750500Y-134807328D01*
X97755424Y-134772733D01*
X97797597Y-134627573D01*
X97797598Y-134627567D01*
X97800499Y-134590701D01*
X97800500Y-134590694D01*
X97800500Y-133424500D01*
X97820185Y-133357461D01*
X97872989Y-133311706D01*
X97924500Y-133300500D01*
X98165686Y-133300500D01*
X98165694Y-133300500D01*
X98202569Y-133297598D01*
X98202571Y-133297597D01*
X98202573Y-133297597D01*
X98244191Y-133285505D01*
X98360398Y-133251744D01*
X98501865Y-133168081D01*
X98618081Y-133051865D01*
X98701744Y-132910398D01*
X98733277Y-132801860D01*
X98770881Y-132742978D01*
X98788044Y-132731141D01*
X98787929Y-132730969D01*
X98792995Y-132727584D01*
X98853654Y-132687053D01*
X98915916Y-132645452D01*
X99549549Y-132011819D01*
X99610872Y-131978334D01*
X99637230Y-131975500D01*
X99756613Y-131975500D01*
X99756616Y-131975500D01*
X99827196Y-131969086D01*
X99989606Y-131918478D01*
X100135185Y-131830472D01*
X100237673Y-131727983D01*
X100298994Y-131694499D01*
X100368685Y-131699483D01*
X100413034Y-131727984D01*
X100515122Y-131830072D01*
X100660604Y-131918019D01*
X100660603Y-131918019D01*
X100822894Y-131968590D01*
X100822893Y-131968590D01*
X100893408Y-131974998D01*
X100893426Y-131974999D01*
X101400000Y-131974999D01*
X101406581Y-131974999D01*
X101477102Y-131968591D01*
X101477107Y-131968590D01*
X101639396Y-131918018D01*
X101784877Y-131830072D01*
X101905072Y-131709877D01*
X101993019Y-131564395D01*
X102043590Y-131402106D01*
X102050000Y-131331572D01*
X102050000Y-131250000D01*
X101400000Y-131250000D01*
X101400000Y-131974999D01*
X100893426Y-131974999D01*
X100899999Y-131974998D01*
X100900000Y-131974998D01*
X100900000Y-131124000D01*
X100919685Y-131056961D01*
X100972489Y-131011206D01*
X101024000Y-131000000D01*
X101150000Y-131000000D01*
X101150000Y-130874000D01*
X101169685Y-130806961D01*
X101222489Y-130761206D01*
X101274000Y-130750000D01*
X102049999Y-130750000D01*
X102049999Y-130668417D01*
X102043591Y-130597897D01*
X102043590Y-130597892D01*
X101993018Y-130435601D01*
X101989940Y-130428762D01*
X101992004Y-130427832D01*
X101977025Y-130371089D01*
X101998546Y-130304616D01*
X102052589Y-130260331D01*
X102100978Y-130250500D01*
X102137770Y-130250500D01*
X102204809Y-130270185D01*
X102225451Y-130286819D01*
X104839199Y-132900568D01*
X104839206Y-132900574D01*
X104910383Y-132948132D01*
X104910385Y-132948133D01*
X104910388Y-132948135D01*
X104962126Y-132982705D01*
X105098708Y-133039279D01*
X105098712Y-133039279D01*
X105098713Y-133039280D01*
X105243700Y-133068121D01*
X105243703Y-133068121D01*
X105243704Y-133068121D01*
X105391539Y-133068121D01*
X105926082Y-133068121D01*
X110373337Y-133068121D01*
X110440376Y-133087806D01*
X110474912Y-133120998D01*
X110499954Y-133156762D01*
X110660858Y-133317666D01*
X110660861Y-133317668D01*
X110847266Y-133448189D01*
X111053504Y-133544360D01*
X111273308Y-133603256D01*
X111435230Y-133617422D01*
X111499998Y-133623089D01*
X111500000Y-133623089D01*
X111500002Y-133623089D01*
X111556673Y-133618130D01*
X111726692Y-133603256D01*
X111946496Y-133544360D01*
X112152734Y-133448189D01*
X112339139Y-133317668D01*
X112500047Y-133156760D01*
X112520389Y-133127708D01*
X112525088Y-133120998D01*
X112579665Y-133077373D01*
X112626663Y-133068121D01*
X112637771Y-133068121D01*
X112704810Y-133087806D01*
X112725453Y-133104441D01*
X112771580Y-133150569D01*
X112771584Y-133150572D01*
X112894498Y-133232701D01*
X112894511Y-133232708D01*
X113031082Y-133289277D01*
X113031087Y-133289279D01*
X113031091Y-133289279D01*
X113031092Y-133289280D01*
X113176079Y-133318121D01*
X113176082Y-133318121D01*
X113323917Y-133318121D01*
X118375863Y-133318121D01*
X118442902Y-133337806D01*
X118488657Y-133390610D01*
X118498601Y-133459768D01*
X118495638Y-133474214D01*
X118464366Y-133590923D01*
X118464364Y-133590934D01*
X118444532Y-133817619D01*
X118444532Y-133817622D01*
X118464364Y-134044307D01*
X118464366Y-134044318D01*
X118523258Y-134264109D01*
X118523261Y-134264118D01*
X118619431Y-134470353D01*
X118619432Y-134470355D01*
X118749953Y-134656761D01*
X118910858Y-134817666D01*
X118910861Y-134817668D01*
X119097266Y-134948189D01*
X119303504Y-135044360D01*
X119523308Y-135103256D01*
X119685230Y-135117422D01*
X119749998Y-135123089D01*
X119750000Y-135123089D01*
X119750001Y-135123089D01*
X119770062Y-135121333D01*
X119916861Y-135108490D01*
X119985359Y-135122256D01*
X120015348Y-135144337D01*
X120783963Y-135912952D01*
X120783969Y-135912957D01*
X120816220Y-135934505D01*
X120816222Y-135934506D01*
X120906884Y-135995084D01*
X120906885Y-135995084D01*
X120906886Y-135995085D01*
X120979149Y-136025017D01*
X121043466Y-136051658D01*
X121043470Y-136051658D01*
X121043471Y-136051659D01*
X121188458Y-136080500D01*
X121188461Y-136080500D01*
X121188462Y-136080500D01*
X121336296Y-136080500D01*
X125638582Y-136080500D01*
X125705621Y-136100185D01*
X125738899Y-136131613D01*
X125844214Y-136276566D01*
X126005934Y-136438286D01*
X126190962Y-136572717D01*
X126246210Y-136600867D01*
X126394744Y-136676549D01*
X126612251Y-136747221D01*
X126612252Y-136747221D01*
X126612255Y-136747222D01*
X126838146Y-136783000D01*
X126838147Y-136783000D01*
X127161853Y-136783000D01*
X127161854Y-136783000D01*
X127387745Y-136747222D01*
X127387748Y-136747221D01*
X127387749Y-136747221D01*
X127605255Y-136676549D01*
X127605255Y-136676548D01*
X127605258Y-136676548D01*
X127809038Y-136572717D01*
X127994066Y-136438286D01*
X128155786Y-136276566D01*
X128290217Y-136091538D01*
X128394048Y-135887758D01*
X128418960Y-135811087D01*
X128464721Y-135670249D01*
X128464721Y-135670247D01*
X128464722Y-135670245D01*
X128500500Y-135444354D01*
X128500500Y-135215646D01*
X128464722Y-134989755D01*
X128464721Y-134989751D01*
X128464721Y-134989750D01*
X128394049Y-134772244D01*
X128394048Y-134772242D01*
X128290217Y-134568462D01*
X128155786Y-134383434D01*
X127994066Y-134221714D01*
X127909559Y-134160316D01*
X127866896Y-134104988D01*
X127860917Y-134035375D01*
X127893523Y-133973580D01*
X127909556Y-133959685D01*
X127994066Y-133898286D01*
X128155786Y-133736566D01*
X128290217Y-133551538D01*
X128394048Y-133347758D01*
X128403825Y-133317668D01*
X128464721Y-133130249D01*
X128464721Y-133130248D01*
X128464722Y-133130245D01*
X128500500Y-132904354D01*
X128500500Y-132675646D01*
X128464722Y-132449755D01*
X128464721Y-132449751D01*
X128464721Y-132449750D01*
X128394049Y-132232244D01*
X128394048Y-132232242D01*
X128290217Y-132028462D01*
X128157169Y-131845337D01*
X128133690Y-131779533D01*
X128149515Y-131711480D01*
X128199621Y-131662785D01*
X128214155Y-131656272D01*
X128242086Y-131645854D01*
X128242093Y-131645850D01*
X128357187Y-131559690D01*
X128357190Y-131559687D01*
X128443350Y-131444593D01*
X128443354Y-131444586D01*
X128493596Y-131309879D01*
X128493598Y-131309872D01*
X128499999Y-131250344D01*
X128500000Y-131250327D01*
X128500000Y-130500000D01*
X127490748Y-130500000D01*
X127512518Y-130462292D01*
X127550000Y-130322409D01*
X127550000Y-130177591D01*
X127512518Y-130037708D01*
X127490748Y-130000000D01*
X128500000Y-130000000D01*
X128500000Y-129249672D01*
X128499999Y-129249655D01*
X128493598Y-129190127D01*
X128493596Y-129190120D01*
X128443354Y-129055413D01*
X128443350Y-129055406D01*
X128438544Y-129048986D01*
X136305001Y-129048986D01*
X136315494Y-129151697D01*
X136370641Y-129318119D01*
X136370643Y-129318124D01*
X136462684Y-129467345D01*
X136586654Y-129591315D01*
X136735875Y-129683356D01*
X136735880Y-129683358D01*
X136902302Y-129738505D01*
X136902309Y-129738506D01*
X137005019Y-129748999D01*
X137142499Y-129748999D01*
X137142500Y-129748998D01*
X137142500Y-128774000D01*
X136305001Y-128774000D01*
X136305001Y-129048986D01*
X128438544Y-129048986D01*
X128357190Y-128940312D01*
X128357187Y-128940309D01*
X128242093Y-128854149D01*
X128242086Y-128854145D01*
X128107379Y-128803903D01*
X128107372Y-128803901D01*
X128047844Y-128797500D01*
X127250000Y-128797500D01*
X127250000Y-129759252D01*
X127212292Y-129737482D01*
X127072409Y-129700000D01*
X126927591Y-129700000D01*
X126787708Y-129737482D01*
X126750000Y-129759252D01*
X126750000Y-128797500D01*
X125952155Y-128797500D01*
X125892627Y-128803901D01*
X125892620Y-128803903D01*
X125757913Y-128854145D01*
X125757906Y-128854149D01*
X125642812Y-128940309D01*
X125642809Y-128940312D01*
X125556649Y-129055406D01*
X125556645Y-129055413D01*
X125506403Y-129190120D01*
X125506401Y-129190127D01*
X125500000Y-129249655D01*
X125500000Y-130000000D01*
X126509252Y-130000000D01*
X126487482Y-130037708D01*
X126450000Y-130177591D01*
X126450000Y-130322409D01*
X126487482Y-130462292D01*
X126509252Y-130500000D01*
X125500000Y-130500000D01*
X125500000Y-131250344D01*
X125506401Y-131309872D01*
X125506403Y-131309879D01*
X125556645Y-131444586D01*
X125556649Y-131444593D01*
X125642809Y-131559687D01*
X125642812Y-131559690D01*
X125688450Y-131593855D01*
X125730321Y-131649789D01*
X125735305Y-131719480D01*
X125701819Y-131780803D01*
X125640496Y-131814287D01*
X125614139Y-131817121D01*
X121174000Y-131817121D01*
X121106961Y-131797436D01*
X121061206Y-131744632D01*
X121050000Y-131693121D01*
X121050000Y-131567621D01*
X120065686Y-131567621D01*
X120070080Y-131563227D01*
X120122741Y-131472015D01*
X120150000Y-131370282D01*
X120150000Y-131264960D01*
X120122741Y-131163227D01*
X120070080Y-131072015D01*
X120065686Y-131067621D01*
X121050000Y-131067621D01*
X121050000Y-130469793D01*
X121049999Y-130469776D01*
X121043598Y-130410248D01*
X121043596Y-130410241D01*
X120993354Y-130275534D01*
X120993350Y-130275527D01*
X120907190Y-130160433D01*
X120907187Y-130160430D01*
X120792093Y-130074270D01*
X120792086Y-130074266D01*
X120657379Y-130024024D01*
X120657372Y-130024022D01*
X120597844Y-130017621D01*
X120000000Y-130017621D01*
X120000000Y-131001935D01*
X119995606Y-130997541D01*
X119904394Y-130944880D01*
X119802661Y-130917621D01*
X119697339Y-130917621D01*
X119595606Y-130944880D01*
X119504394Y-130997541D01*
X119500000Y-131001935D01*
X119500000Y-130017621D01*
X118902155Y-130017621D01*
X118842627Y-130024022D01*
X118842620Y-130024024D01*
X118707913Y-130074266D01*
X118707906Y-130074270D01*
X118592812Y-130160430D01*
X118592809Y-130160433D01*
X118506649Y-130275527D01*
X118506645Y-130275534D01*
X118456403Y-130410241D01*
X118456401Y-130410248D01*
X118450000Y-130469776D01*
X118450000Y-131067621D01*
X119434314Y-131067621D01*
X119429920Y-131072015D01*
X119377259Y-131163227D01*
X119350000Y-131264960D01*
X119350000Y-131370282D01*
X119377259Y-131472015D01*
X119429920Y-131563227D01*
X119434314Y-131567621D01*
X118450000Y-131567621D01*
X118450000Y-131693121D01*
X118430315Y-131760160D01*
X118377511Y-131805915D01*
X118326000Y-131817121D01*
X113612230Y-131817121D01*
X113545191Y-131797436D01*
X113524548Y-131780801D01*
X113478421Y-131734673D01*
X113478414Y-131734667D01*
X113404729Y-131685433D01*
X113404729Y-131685434D01*
X113355491Y-131652534D01*
X113218917Y-131595964D01*
X113218907Y-131595961D01*
X113073920Y-131567121D01*
X113073918Y-131567121D01*
X112626663Y-131567121D01*
X112559624Y-131547436D01*
X112525088Y-131514244D01*
X112500045Y-131478479D01*
X112342493Y-131320927D01*
X112309008Y-131259604D01*
X112313992Y-131189912D01*
X112355864Y-131133979D01*
X112401667Y-131112567D01*
X112407381Y-131111216D01*
X112542086Y-131060975D01*
X112542093Y-131060971D01*
X112657187Y-130974811D01*
X112657190Y-130974808D01*
X112743350Y-130859714D01*
X112743354Y-130859707D01*
X112793596Y-130725000D01*
X112793598Y-130724993D01*
X112799999Y-130665465D01*
X112800000Y-130665448D01*
X112800000Y-130067621D01*
X111815686Y-130067621D01*
X111820080Y-130063227D01*
X111872741Y-129972015D01*
X111900000Y-129870282D01*
X111900000Y-129764960D01*
X111872741Y-129663227D01*
X111820080Y-129572015D01*
X111815686Y-129567621D01*
X112800000Y-129567621D01*
X112800000Y-128969793D01*
X112799999Y-128969776D01*
X112793598Y-128910248D01*
X112793596Y-128910241D01*
X112743354Y-128775534D01*
X112743350Y-128775527D01*
X112657190Y-128660433D01*
X112657187Y-128660430D01*
X112542093Y-128574270D01*
X112542086Y-128574266D01*
X112407379Y-128524024D01*
X112407372Y-128524022D01*
X112347844Y-128517621D01*
X111750000Y-128517621D01*
X111750000Y-129501935D01*
X111745606Y-129497541D01*
X111654394Y-129444880D01*
X111552661Y-129417621D01*
X111447339Y-129417621D01*
X111345606Y-129444880D01*
X111254394Y-129497541D01*
X111250000Y-129501935D01*
X111250000Y-128517621D01*
X110652155Y-128517621D01*
X110592627Y-128524022D01*
X110592620Y-128524024D01*
X110457913Y-128574266D01*
X110457906Y-128574270D01*
X110342812Y-128660430D01*
X110342809Y-128660433D01*
X110256649Y-128775527D01*
X110256645Y-128775534D01*
X110206403Y-128910241D01*
X110206401Y-128910248D01*
X110200000Y-128969776D01*
X110200000Y-129567621D01*
X111184314Y-129567621D01*
X111179920Y-129572015D01*
X111127259Y-129663227D01*
X111100000Y-129764960D01*
X111100000Y-129870282D01*
X111127259Y-129972015D01*
X111179920Y-130063227D01*
X111184314Y-130067621D01*
X110200000Y-130067621D01*
X110200000Y-130665465D01*
X110206401Y-130724993D01*
X110206403Y-130725000D01*
X110256645Y-130859707D01*
X110256649Y-130859714D01*
X110342809Y-130974808D01*
X110342812Y-130974811D01*
X110457906Y-131060971D01*
X110457913Y-131060975D01*
X110592622Y-131111218D01*
X110598334Y-131112568D01*
X110659052Y-131147138D01*
X110691441Y-131209048D01*
X110685218Y-131278639D01*
X110657507Y-131320927D01*
X110499951Y-131478483D01*
X110474912Y-131514244D01*
X110420335Y-131557869D01*
X110373337Y-131567121D01*
X105679851Y-131567121D01*
X105612812Y-131547436D01*
X105592170Y-131530802D01*
X102978421Y-128917052D01*
X102978420Y-128917051D01*
X102968238Y-128910248D01*
X102883613Y-128853704D01*
X102855495Y-128834916D01*
X102855493Y-128834915D01*
X102855490Y-128834913D01*
X102718917Y-128778343D01*
X102718907Y-128778340D01*
X102573920Y-128749500D01*
X102573918Y-128749500D01*
X96926082Y-128749500D01*
X96926080Y-128749500D01*
X96781092Y-128778340D01*
X96781082Y-128778343D01*
X96644509Y-128834913D01*
X96616387Y-128853704D01*
X96521579Y-128917051D01*
X96521578Y-128917052D01*
X95467047Y-129971584D01*
X95467043Y-129971589D01*
X95427407Y-130030912D01*
X95427406Y-130030914D01*
X95384914Y-130094507D01*
X95328343Y-130231082D01*
X95328340Y-130231092D01*
X95299500Y-130376079D01*
X95299500Y-131192670D01*
X95294576Y-131227265D01*
X95252402Y-131372426D01*
X95252401Y-131372432D01*
X95249500Y-131409298D01*
X95249500Y-132715701D01*
X95252401Y-132752567D01*
X95252402Y-132752573D01*
X95298254Y-132910393D01*
X95298255Y-132910396D01*
X95381917Y-133051862D01*
X95381923Y-133051870D01*
X95498129Y-133168076D01*
X95498133Y-133168079D01*
X95498135Y-133168081D01*
X95639602Y-133251744D01*
X95681224Y-133263836D01*
X95797426Y-133297597D01*
X95797429Y-133297597D01*
X95797431Y-133297598D01*
X95834306Y-133300500D01*
X96075500Y-133300500D01*
X96142539Y-133320185D01*
X96188294Y-133372989D01*
X96199500Y-133424500D01*
X96199500Y-134590701D01*
X96202401Y-134627567D01*
X96202402Y-134627573D01*
X96244576Y-134772733D01*
X96249500Y-134807328D01*
X96249500Y-141424582D01*
X96229815Y-141491621D01*
X96198385Y-141524900D01*
X96152787Y-141558028D01*
X96152782Y-141558032D01*
X96008028Y-141702786D01*
X95887715Y-141868386D01*
X95794781Y-142050776D01*
X95731522Y-142245465D01*
X95699500Y-142447648D01*
X95699500Y-143552351D01*
X95731522Y-143754534D01*
X95794781Y-143949223D01*
X95887715Y-144131613D01*
X96008028Y-144297213D01*
X96008034Y-144297219D01*
X96152781Y-144441966D01*
X96198384Y-144475098D01*
X96241050Y-144530425D01*
X96249500Y-144575416D01*
X96249500Y-153073918D01*
X96249500Y-153073920D01*
X96249499Y-153073920D01*
X96278340Y-153218907D01*
X96278343Y-153218917D01*
X96334913Y-153355490D01*
X96334914Y-153355492D01*
X96360982Y-153394505D01*
X96360983Y-153394507D01*
X96417043Y-153478410D01*
X96417047Y-153478415D01*
X96526951Y-153588319D01*
X96560436Y-153649642D01*
X96555452Y-153719334D01*
X96513580Y-153775267D01*
X96448116Y-153799684D01*
X96439270Y-153800000D01*
X87124000Y-153800000D01*
X87056961Y-153780315D01*
X87011206Y-153727511D01*
X87000000Y-153676000D01*
X87000000Y-146182533D01*
X89670000Y-146182533D01*
X89670000Y-147830000D01*
X90945038Y-147830000D01*
X90915000Y-147981016D01*
X90915000Y-148178984D01*
X90945038Y-148330000D01*
X89670000Y-148330000D01*
X89670000Y-149977466D01*
X89670001Y-149977483D01*
X89708496Y-150269884D01*
X89708499Y-150269897D01*
X89784835Y-150554790D01*
X89784838Y-150554800D01*
X89897704Y-150827281D01*
X89897709Y-150827292D01*
X90045174Y-151082707D01*
X90045185Y-151082723D01*
X90224729Y-151316709D01*
X90224735Y-151316716D01*
X90433283Y-151525264D01*
X90433290Y-151525270D01*
X90667276Y-151704814D01*
X90667292Y-151704825D01*
X90922707Y-151852290D01*
X90922718Y-151852295D01*
X91195199Y-151965161D01*
X91195209Y-151965164D01*
X91480102Y-152041500D01*
X91480115Y-152041503D01*
X91670000Y-152066502D01*
X91670000Y-149054961D01*
X91821016Y-149085000D01*
X92018984Y-149085000D01*
X92170000Y-149054961D01*
X92170000Y-152066501D01*
X92359884Y-152041503D01*
X92359897Y-152041500D01*
X92644790Y-151965164D01*
X92644800Y-151965161D01*
X92917281Y-151852295D01*
X92917292Y-151852290D01*
X93172707Y-151704825D01*
X93172723Y-151704814D01*
X93406709Y-151525270D01*
X93406716Y-151525264D01*
X93615264Y-151316716D01*
X93615270Y-151316709D01*
X93794814Y-151082723D01*
X93794825Y-151082707D01*
X93942290Y-150827292D01*
X93942295Y-150827281D01*
X94055161Y-150554800D01*
X94055164Y-150554790D01*
X94131500Y-150269897D01*
X94131503Y-150269884D01*
X94169998Y-149977483D01*
X94170000Y-149977466D01*
X94170000Y-148330000D01*
X92894962Y-148330000D01*
X92925000Y-148178984D01*
X92925000Y-147981016D01*
X92894962Y-147830000D01*
X94170000Y-147830000D01*
X94170000Y-146182533D01*
X94169998Y-146182516D01*
X94131503Y-145890115D01*
X94131500Y-145890102D01*
X94055164Y-145605209D01*
X94055161Y-145605199D01*
X93942295Y-145332718D01*
X93942290Y-145332707D01*
X93794825Y-145077292D01*
X93794814Y-145077276D01*
X93615270Y-144843290D01*
X93615264Y-144843283D01*
X93406716Y-144634735D01*
X93406709Y-144634729D01*
X93172723Y-144455185D01*
X93172707Y-144455174D01*
X92917292Y-144307709D01*
X92917281Y-144307704D01*
X92644800Y-144194838D01*
X92644790Y-144194835D01*
X92359897Y-144118499D01*
X92359886Y-144118497D01*
X92170000Y-144093496D01*
X92170000Y-147105038D01*
X92018984Y-147075000D01*
X91821016Y-147075000D01*
X91670000Y-147105038D01*
X91670000Y-144093496D01*
X91669999Y-144093496D01*
X91480113Y-144118497D01*
X91480102Y-144118499D01*
X91195209Y-144194835D01*
X91195199Y-144194838D01*
X90922718Y-144307704D01*
X90922707Y-144307709D01*
X90667292Y-144455174D01*
X90667276Y-144455185D01*
X90433290Y-144634729D01*
X90433283Y-144634735D01*
X90224735Y-144843283D01*
X90224729Y-144843290D01*
X90045185Y-145077276D01*
X90045174Y-145077292D01*
X89897709Y-145332707D01*
X89897704Y-145332718D01*
X89784838Y-145605199D01*
X89784835Y-145605209D01*
X89708499Y-145890102D01*
X89708496Y-145890115D01*
X89670001Y-146182516D01*
X89670000Y-146182533D01*
X87000000Y-146182533D01*
X87000000Y-118324000D01*
X87019685Y-118256961D01*
X87072489Y-118211206D01*
X87124000Y-118200000D01*
X92134809Y-118200000D01*
X92201848Y-118219685D01*
G37*
G04 #@! TD.AperFunction*
G04 #@! TA.AperFunction,Conductor*
G36*
X155445785Y-135508095D02*
G01*
X155501718Y-135549967D01*
X155524924Y-135604878D01*
X155535278Y-135670247D01*
X155535278Y-135670249D01*
X155605950Y-135887755D01*
X155675889Y-136025017D01*
X155709783Y-136091538D01*
X155844214Y-136276566D01*
X156005934Y-136438286D01*
X156190962Y-136572717D01*
X156246210Y-136600867D01*
X156394744Y-136676549D01*
X156612251Y-136747221D01*
X156612252Y-136747221D01*
X156612255Y-136747222D01*
X156838146Y-136783000D01*
X156838147Y-136783000D01*
X157161852Y-136783000D01*
X157161854Y-136783000D01*
X157308496Y-136759773D01*
X157377790Y-136768727D01*
X157415576Y-136794565D01*
X164173282Y-143552271D01*
X164206767Y-143613594D01*
X164209129Y-143650758D01*
X164194532Y-143817617D01*
X164194532Y-143817622D01*
X164214364Y-144044307D01*
X164214366Y-144044318D01*
X164273258Y-144264109D01*
X164273261Y-144264118D01*
X164369431Y-144470353D01*
X164369432Y-144470355D01*
X164499954Y-144656762D01*
X164660858Y-144817666D01*
X164660861Y-144817668D01*
X164847266Y-144948189D01*
X165053504Y-145044360D01*
X165273308Y-145103256D01*
X165435230Y-145117422D01*
X165499998Y-145123089D01*
X165500000Y-145123089D01*
X165500001Y-145123089D01*
X165520062Y-145121333D01*
X165666861Y-145108490D01*
X165735359Y-145122256D01*
X165765348Y-145144337D01*
X168190620Y-147569608D01*
X168224105Y-147630931D01*
X168219121Y-147700623D01*
X168207636Y-147723731D01*
X168148366Y-147817126D01*
X168148362Y-147817132D01*
X168017080Y-148096120D01*
X168017078Y-148096125D01*
X167921795Y-148389376D01*
X167864015Y-148692267D01*
X167864014Y-148692274D01*
X167844655Y-148999994D01*
X167844655Y-149000005D01*
X167864014Y-149307725D01*
X167864015Y-149307732D01*
X167864016Y-149307736D01*
X167911714Y-149557780D01*
X167921795Y-149610623D01*
X168017078Y-149903874D01*
X168017080Y-149903879D01*
X168148362Y-150182867D01*
X168148366Y-150182873D01*
X168313577Y-150443206D01*
X168313579Y-150443209D01*
X168313584Y-150443216D01*
X168510131Y-150680799D01*
X168510132Y-150680800D01*
X168734902Y-150891874D01*
X168734912Y-150891882D01*
X168984348Y-151073108D01*
X168984353Y-151073110D01*
X168984360Y-151073116D01*
X169254565Y-151221663D01*
X169254570Y-151221665D01*
X169254572Y-151221666D01*
X169254573Y-151221667D01*
X169541253Y-151335171D01*
X169541256Y-151335172D01*
X169734592Y-151384812D01*
X169839914Y-151411854D01*
X169904091Y-151419961D01*
X170145816Y-151450499D01*
X170145825Y-151450499D01*
X170145828Y-151450500D01*
X170145830Y-151450500D01*
X170454170Y-151450500D01*
X170454172Y-151450500D01*
X170454175Y-151450499D01*
X170454183Y-151450499D01*
X170675648Y-151422521D01*
X170760086Y-151411854D01*
X171058743Y-151335172D01*
X171105358Y-151316716D01*
X171345426Y-151221667D01*
X171345427Y-151221666D01*
X171345425Y-151221666D01*
X171345435Y-151221663D01*
X171615640Y-151073116D01*
X171752616Y-150973597D01*
X171818421Y-150950118D01*
X171886474Y-150965943D01*
X171935169Y-151016049D01*
X171949500Y-151073916D01*
X171949500Y-151187770D01*
X171929815Y-151254809D01*
X171913181Y-151275451D01*
X170725451Y-152463181D01*
X170664128Y-152496666D01*
X170637770Y-152499500D01*
X157612229Y-152499500D01*
X157545190Y-152479815D01*
X157524548Y-152463181D01*
X156187135Y-151125767D01*
X156153650Y-151064444D01*
X156158634Y-150994752D01*
X156200506Y-150938819D01*
X156201879Y-150937805D01*
X156265096Y-150891876D01*
X156489869Y-150680799D01*
X156686416Y-150443216D01*
X156851635Y-150182871D01*
X156851748Y-150182632D01*
X156982919Y-149903879D01*
X156982922Y-149903873D01*
X157078206Y-149610619D01*
X157135984Y-149307736D01*
X157149923Y-149086180D01*
X157155345Y-149000005D01*
X157155345Y-148999994D01*
X160045156Y-148999994D01*
X160045156Y-149000005D01*
X160064511Y-149307663D01*
X160064512Y-149307670D01*
X160122280Y-149610499D01*
X160217544Y-149903689D01*
X160217546Y-149903694D01*
X160348802Y-150182626D01*
X160348805Y-150182632D01*
X160513987Y-150442919D01*
X160513990Y-150442923D01*
X160599799Y-150546647D01*
X161727546Y-149418899D01*
X161820343Y-149557780D01*
X161942220Y-149679657D01*
X162081099Y-149772453D01*
X160950767Y-150902783D01*
X160950768Y-150902785D01*
X161184617Y-151072685D01*
X161184635Y-151072697D01*
X161454778Y-151221209D01*
X161454786Y-151221213D01*
X161741406Y-151334693D01*
X162040008Y-151411361D01*
X162040017Y-151411363D01*
X162345847Y-151449999D01*
X162345861Y-151450000D01*
X162654139Y-151450000D01*
X162654152Y-151449999D01*
X162959982Y-151411363D01*
X162959991Y-151411361D01*
X163258593Y-151334693D01*
X163545213Y-151221213D01*
X163545221Y-151221209D01*
X163815364Y-151072697D01*
X163815382Y-151072685D01*
X164049230Y-150902785D01*
X164049231Y-150902783D01*
X162918900Y-149772453D01*
X163057780Y-149679657D01*
X163179657Y-149557780D01*
X163272453Y-149418900D01*
X164400199Y-150546647D01*
X164486014Y-150442916D01*
X164651194Y-150182632D01*
X164651197Y-150182626D01*
X164782453Y-149903694D01*
X164782455Y-149903689D01*
X164877719Y-149610499D01*
X164935487Y-149307670D01*
X164935488Y-149307663D01*
X164954844Y-149000005D01*
X164954844Y-148999994D01*
X164935488Y-148692336D01*
X164935487Y-148692329D01*
X164877719Y-148389500D01*
X164782455Y-148096310D01*
X164782453Y-148096305D01*
X164651197Y-147817373D01*
X164651194Y-147817367D01*
X164486017Y-147557088D01*
X164400198Y-147453351D01*
X163272452Y-148581098D01*
X163179657Y-148442220D01*
X163057780Y-148320343D01*
X162918899Y-148227545D01*
X164049231Y-147097215D01*
X164049230Y-147097214D01*
X163815382Y-146927314D01*
X163815364Y-146927302D01*
X163545221Y-146778790D01*
X163545213Y-146778786D01*
X163258593Y-146665306D01*
X162959991Y-146588638D01*
X162959982Y-146588636D01*
X162654152Y-146550000D01*
X162345847Y-146550000D01*
X162040017Y-146588636D01*
X162040008Y-146588638D01*
X161741406Y-146665306D01*
X161454786Y-146778786D01*
X161454778Y-146778790D01*
X161184632Y-146927304D01*
X161184627Y-146927307D01*
X160950768Y-147097214D01*
X160950768Y-147097216D01*
X162081099Y-148227546D01*
X161942220Y-148320343D01*
X161820343Y-148442220D01*
X161727546Y-148581099D01*
X160599799Y-147453351D01*
X160513985Y-147557083D01*
X160348805Y-147817367D01*
X160348802Y-147817373D01*
X160217546Y-148096305D01*
X160217544Y-148096310D01*
X160122280Y-148389500D01*
X160064512Y-148692329D01*
X160064511Y-148692336D01*
X160045156Y-148999994D01*
X157155345Y-148999994D01*
X157135985Y-148692274D01*
X157135984Y-148692267D01*
X157135984Y-148692264D01*
X157078206Y-148389381D01*
X156982922Y-148096127D01*
X156918373Y-147958954D01*
X156851637Y-147817132D01*
X156851633Y-147817126D01*
X156686422Y-147556793D01*
X156686420Y-147556791D01*
X156686416Y-147556784D01*
X156489869Y-147319201D01*
X156265096Y-147108124D01*
X156265093Y-147108122D01*
X156265087Y-147108117D01*
X156015651Y-146926891D01*
X156015644Y-146926886D01*
X156015640Y-146926884D01*
X155745435Y-146778337D01*
X155745432Y-146778335D01*
X155745427Y-146778333D01*
X155745426Y-146778332D01*
X155458746Y-146664828D01*
X155458743Y-146664827D01*
X155160089Y-146588146D01*
X155160076Y-146588144D01*
X154854183Y-146549500D01*
X154854172Y-146549500D01*
X154545828Y-146549500D01*
X154545816Y-146549500D01*
X154239923Y-146588144D01*
X154239910Y-146588146D01*
X153941256Y-146664827D01*
X153941253Y-146664828D01*
X153654573Y-146778332D01*
X153654572Y-146778333D01*
X153384360Y-146926884D01*
X153384348Y-146926891D01*
X153134912Y-147108117D01*
X153134902Y-147108125D01*
X152910132Y-147319199D01*
X152713577Y-147556793D01*
X152548366Y-147817126D01*
X152548362Y-147817132D01*
X152417080Y-148096120D01*
X152417078Y-148096125D01*
X152321795Y-148389376D01*
X152264015Y-148692267D01*
X152264014Y-148692274D01*
X152244655Y-148999994D01*
X152244655Y-149000005D01*
X152264014Y-149307725D01*
X152264015Y-149307732D01*
X152264016Y-149307736D01*
X152311714Y-149557780D01*
X152321795Y-149610623D01*
X152417078Y-149903874D01*
X152417080Y-149903879D01*
X152548362Y-150182867D01*
X152548366Y-150182873D01*
X152713577Y-150443206D01*
X152713579Y-150443209D01*
X152713584Y-150443216D01*
X152910131Y-150680799D01*
X152910132Y-150680800D01*
X153134902Y-150891874D01*
X153134912Y-150891882D01*
X153384348Y-151073108D01*
X153384353Y-151073110D01*
X153384360Y-151073116D01*
X153654565Y-151221663D01*
X153654570Y-151221665D01*
X153654572Y-151221666D01*
X153654573Y-151221667D01*
X153941253Y-151335171D01*
X153941256Y-151335172D01*
X154134592Y-151384812D01*
X154239914Y-151411854D01*
X154313745Y-151421180D01*
X154324353Y-151422521D01*
X154388397Y-151450452D01*
X154396494Y-151457862D01*
X155512552Y-152573920D01*
X156526952Y-153588319D01*
X156560437Y-153649642D01*
X156555453Y-153719334D01*
X156513581Y-153775267D01*
X156448117Y-153799684D01*
X156439271Y-153800000D01*
X135660729Y-153800000D01*
X135593690Y-153780315D01*
X135547935Y-153727511D01*
X135537991Y-153658353D01*
X135567016Y-153594797D01*
X135573048Y-153588319D01*
X136087449Y-153073918D01*
X137914835Y-151246530D01*
X137976156Y-151213047D01*
X138045848Y-151218031D01*
X138053100Y-151221084D01*
X138341253Y-151335171D01*
X138341256Y-151335172D01*
X138534592Y-151384812D01*
X138639914Y-151411854D01*
X138704091Y-151419961D01*
X138945816Y-151450499D01*
X138945825Y-151450499D01*
X138945828Y-151450500D01*
X138945830Y-151450500D01*
X139254170Y-151450500D01*
X139254172Y-151450500D01*
X139254175Y-151450499D01*
X139254183Y-151450499D01*
X139475648Y-151422521D01*
X139560086Y-151411854D01*
X139858743Y-151335172D01*
X139905358Y-151316716D01*
X140145426Y-151221667D01*
X140145427Y-151221666D01*
X140145425Y-151221666D01*
X140145435Y-151221663D01*
X140415640Y-151073116D01*
X140665096Y-150891876D01*
X140889869Y-150680799D01*
X141086416Y-150443216D01*
X141251635Y-150182871D01*
X141251748Y-150182632D01*
X141382919Y-149903879D01*
X141382922Y-149903873D01*
X141478206Y-149610619D01*
X141535984Y-149307736D01*
X141549923Y-149086180D01*
X141555345Y-149000005D01*
X141555345Y-148999994D01*
X141535985Y-148692274D01*
X141535984Y-148692267D01*
X141535984Y-148692264D01*
X141478206Y-148389381D01*
X141382922Y-148096127D01*
X141318372Y-147958953D01*
X141307639Y-147889914D01*
X141335936Y-147826031D01*
X141342878Y-147818488D01*
X143337048Y-145824319D01*
X143398371Y-145790834D01*
X143424729Y-145788000D01*
X143973920Y-145788000D01*
X144071462Y-145768596D01*
X144118913Y-145759158D01*
X144255495Y-145702584D01*
X144304729Y-145669686D01*
X144378416Y-145620452D01*
X145287049Y-144711819D01*
X145348372Y-144678334D01*
X145374730Y-144675500D01*
X145715686Y-144675500D01*
X145715694Y-144675500D01*
X145737572Y-144673778D01*
X145805949Y-144688142D01*
X145850402Y-144728503D01*
X145867048Y-144753416D01*
X145867049Y-144753417D01*
X145867052Y-144753421D01*
X146738181Y-145624548D01*
X146771666Y-145685871D01*
X146774500Y-145712229D01*
X146774500Y-145831613D01*
X146780913Y-145902192D01*
X146780913Y-145902194D01*
X146780914Y-145902196D01*
X146831522Y-146064606D01*
X146902801Y-146182516D01*
X146919530Y-146210188D01*
X147045118Y-146335776D01*
X147043389Y-146337504D01*
X147077148Y-146384723D01*
X147080605Y-146454507D01*
X147045784Y-146515081D01*
X146983742Y-146547215D01*
X146960045Y-146549500D01*
X145150000Y-146549500D01*
X145149983Y-146549501D01*
X145047204Y-146560000D01*
X145047201Y-146560001D01*
X144880669Y-146615185D01*
X144880664Y-146615187D01*
X144731343Y-146707290D01*
X144607290Y-146831343D01*
X144515187Y-146980664D01*
X144515186Y-146980667D01*
X144460001Y-147147204D01*
X144460001Y-147147205D01*
X144460000Y-147147205D01*
X144449500Y-147249985D01*
X144449500Y-150749999D01*
X144449501Y-150750016D01*
X144460000Y-150852795D01*
X144460001Y-150852798D01*
X144515185Y-151019330D01*
X144515187Y-151019335D01*
X144543011Y-151064444D01*
X144607289Y-151168655D01*
X144731345Y-151292711D01*
X144880667Y-151384814D01*
X145047204Y-151439999D01*
X145149993Y-151450500D01*
X148650006Y-151450499D01*
X148752796Y-151439999D01*
X148919333Y-151384814D01*
X149068655Y-151292711D01*
X149192711Y-151168655D01*
X149284814Y-151019333D01*
X149339999Y-150852796D01*
X149350500Y-150750007D01*
X149350499Y-147249994D01*
X149344103Y-147187385D01*
X149339999Y-147147204D01*
X149339998Y-147147201D01*
X149327047Y-147108117D01*
X149284814Y-146980667D01*
X149192711Y-146831345D01*
X149068655Y-146707289D01*
X149068652Y-146707286D01*
X149062382Y-146703419D01*
X149015659Y-146651469D01*
X149004440Y-146582506D01*
X149032286Y-146518425D01*
X149039796Y-146510208D01*
X149075000Y-146474999D01*
X149575000Y-146474999D01*
X149581581Y-146474999D01*
X149652102Y-146468591D01*
X149652107Y-146468590D01*
X149814396Y-146418018D01*
X149959877Y-146330072D01*
X150080072Y-146209877D01*
X150168019Y-146064395D01*
X150218590Y-145902106D01*
X150225000Y-145831572D01*
X150225000Y-145750000D01*
X149575000Y-145750000D01*
X149575000Y-146474999D01*
X149075000Y-146474999D01*
X149075000Y-145250000D01*
X149575000Y-145250000D01*
X150224999Y-145250000D01*
X150224999Y-145168417D01*
X150218591Y-145097897D01*
X150218590Y-145097892D01*
X150168018Y-144935603D01*
X150080072Y-144790122D01*
X149959877Y-144669927D01*
X149814395Y-144581980D01*
X149814396Y-144581980D01*
X149652105Y-144531409D01*
X149652106Y-144531409D01*
X149581572Y-144525000D01*
X149575000Y-144525000D01*
X149575000Y-145250000D01*
X149075000Y-145250000D01*
X149075000Y-144525000D01*
X149074999Y-144524999D01*
X149068436Y-144525000D01*
X149068417Y-144525001D01*
X148997897Y-144531408D01*
X148997892Y-144531409D01*
X148835603Y-144581981D01*
X148690122Y-144669927D01*
X148690121Y-144669928D01*
X148588035Y-144772015D01*
X148526712Y-144805500D01*
X148457020Y-144800516D01*
X148412673Y-144772015D01*
X148310188Y-144669530D01*
X148289067Y-144656762D01*
X148164606Y-144581522D01*
X148002196Y-144530914D01*
X148002194Y-144530913D01*
X148002192Y-144530913D01*
X147952778Y-144526423D01*
X147931616Y-144524500D01*
X147931613Y-144524500D01*
X147812229Y-144524500D01*
X147745190Y-144504815D01*
X147724548Y-144488181D01*
X147236819Y-144000451D01*
X147203334Y-143939128D01*
X147200500Y-143912770D01*
X147200500Y-142432328D01*
X147205424Y-142397733D01*
X147247597Y-142252573D01*
X147247598Y-142252567D01*
X147248157Y-142245465D01*
X147250500Y-142215694D01*
X147250500Y-140909306D01*
X147248526Y-140884228D01*
X147262890Y-140815853D01*
X147311940Y-140766096D01*
X147372144Y-140750500D01*
X152125595Y-140750500D01*
X152192634Y-140770185D01*
X152238389Y-140822989D01*
X152245370Y-140842406D01*
X152273259Y-140946491D01*
X152273261Y-140946497D01*
X152369431Y-141152732D01*
X152369432Y-141152734D01*
X152499954Y-141339141D01*
X152657506Y-141496693D01*
X152690991Y-141558016D01*
X152686007Y-141627708D01*
X152644135Y-141683641D01*
X152598343Y-141705050D01*
X152592626Y-141706401D01*
X152457913Y-141756645D01*
X152457906Y-141756649D01*
X152342812Y-141842809D01*
X152342809Y-141842812D01*
X152256649Y-141957906D01*
X152256645Y-141957913D01*
X152206403Y-142092620D01*
X152206401Y-142092627D01*
X152200000Y-142152155D01*
X152200000Y-142750000D01*
X153184314Y-142750000D01*
X153179920Y-142754394D01*
X153127259Y-142845606D01*
X153100000Y-142947339D01*
X153100000Y-143052661D01*
X153127259Y-143154394D01*
X153179920Y-143245606D01*
X153184314Y-143250000D01*
X152200000Y-143250000D01*
X152200000Y-143847844D01*
X152206401Y-143907372D01*
X152206403Y-143907379D01*
X152256645Y-144042086D01*
X152256649Y-144042093D01*
X152342809Y-144157187D01*
X152342812Y-144157190D01*
X152457906Y-144243350D01*
X152457913Y-144243354D01*
X152592620Y-144293596D01*
X152592627Y-144293598D01*
X152652155Y-144299999D01*
X152652172Y-144300000D01*
X153250000Y-144300000D01*
X153250000Y-143315686D01*
X153254394Y-143320080D01*
X153345606Y-143372741D01*
X153447339Y-143400000D01*
X153552661Y-143400000D01*
X153654394Y-143372741D01*
X153745606Y-143320080D01*
X153750000Y-143315686D01*
X153750000Y-144300000D01*
X154347828Y-144300000D01*
X154347844Y-144299999D01*
X154407372Y-144293598D01*
X154407379Y-144293596D01*
X154542086Y-144243354D01*
X154542093Y-144243350D01*
X154657187Y-144157190D01*
X154657190Y-144157187D01*
X154743350Y-144042093D01*
X154743354Y-144042086D01*
X154793596Y-143907379D01*
X154793598Y-143907372D01*
X154799999Y-143847844D01*
X154800000Y-143847827D01*
X154800000Y-143250000D01*
X153815686Y-143250000D01*
X153820080Y-143245606D01*
X153872741Y-143154394D01*
X153900000Y-143052661D01*
X153900000Y-142947339D01*
X153872741Y-142845606D01*
X153820080Y-142754394D01*
X153815686Y-142750000D01*
X154800000Y-142750000D01*
X154800000Y-142152172D01*
X154799999Y-142152155D01*
X154793598Y-142092627D01*
X154793596Y-142092620D01*
X154743354Y-141957913D01*
X154743350Y-141957906D01*
X154657190Y-141842812D01*
X154657187Y-141842809D01*
X154542093Y-141756649D01*
X154542086Y-141756645D01*
X154407378Y-141706402D01*
X154401658Y-141705051D01*
X154340942Y-141670477D01*
X154308557Y-141608566D01*
X154314784Y-141538974D01*
X154342491Y-141496694D01*
X154500047Y-141339139D01*
X154630568Y-141152734D01*
X154726739Y-140946496D01*
X154785635Y-140726692D01*
X154805468Y-140500000D01*
X154785635Y-140273308D01*
X154726739Y-140053504D01*
X154630568Y-139847266D01*
X154500047Y-139660861D01*
X154339139Y-139499953D01*
X154334373Y-139496615D01*
X154303375Y-139474910D01*
X154259751Y-139420332D01*
X154250500Y-139373336D01*
X154250500Y-136652229D01*
X154270185Y-136585190D01*
X154286819Y-136564548D01*
X154799711Y-136051656D01*
X155314772Y-135536594D01*
X155376093Y-135503111D01*
X155445785Y-135508095D01*
G37*
G04 #@! TD.AperFunction*
G04 #@! TA.AperFunction,Conductor*
G36*
X155419333Y-129244546D02*
G01*
X155475267Y-129286418D01*
X155499684Y-129351882D01*
X155500000Y-129360728D01*
X155500000Y-130000000D01*
X156509252Y-130000000D01*
X156487482Y-130037708D01*
X156450000Y-130177591D01*
X156450000Y-130322409D01*
X156487482Y-130462292D01*
X156509252Y-130500000D01*
X155500000Y-130500000D01*
X155500000Y-131250344D01*
X155506401Y-131309872D01*
X155506403Y-131309879D01*
X155556645Y-131444586D01*
X155556649Y-131444593D01*
X155642809Y-131559687D01*
X155642812Y-131559690D01*
X155757906Y-131645850D01*
X155757911Y-131645853D01*
X155785845Y-131656272D01*
X155841778Y-131698144D01*
X155866195Y-131763608D01*
X155851343Y-131831881D01*
X155842829Y-131845339D01*
X155709785Y-132028458D01*
X155605950Y-132232244D01*
X155535278Y-132449750D01*
X155535278Y-132449753D01*
X155499500Y-132675646D01*
X155499500Y-132904354D01*
X155499499Y-132904354D01*
X155534022Y-133122322D01*
X155525067Y-133191615D01*
X155499230Y-133229400D01*
X152917050Y-135811580D01*
X152917044Y-135811588D01*
X152867812Y-135885268D01*
X152867813Y-135885269D01*
X152834921Y-135934496D01*
X152834914Y-135934508D01*
X152778342Y-136071086D01*
X152778340Y-136071092D01*
X152749500Y-136216079D01*
X152749500Y-139125500D01*
X152729815Y-139192539D01*
X152677011Y-139238294D01*
X152625500Y-139249500D01*
X144926080Y-139249500D01*
X144781092Y-139278340D01*
X144781082Y-139278343D01*
X144644511Y-139334912D01*
X144644504Y-139334916D01*
X144614880Y-139354710D01*
X144585256Y-139374505D01*
X144569444Y-139385070D01*
X144521581Y-139417050D01*
X143967047Y-139971584D01*
X143955727Y-139988527D01*
X143944455Y-140005398D01*
X143936288Y-140017621D01*
X143884917Y-140094503D01*
X143884914Y-140094506D01*
X143828343Y-140231082D01*
X143828340Y-140231092D01*
X143799500Y-140376079D01*
X143799500Y-140692670D01*
X143794576Y-140727265D01*
X143752402Y-140872426D01*
X143752401Y-140872432D01*
X143749500Y-140909298D01*
X143749500Y-142215701D01*
X143752401Y-142252567D01*
X143752402Y-142252573D01*
X143798254Y-142410393D01*
X143798255Y-142410396D01*
X143798256Y-142410398D01*
X143820306Y-142447682D01*
X143881917Y-142551862D01*
X143881923Y-142551870D01*
X143998129Y-142668076D01*
X143998133Y-142668079D01*
X143998135Y-142668081D01*
X144139602Y-142751744D01*
X144166656Y-142759604D01*
X144297426Y-142797597D01*
X144297429Y-142797597D01*
X144297431Y-142797598D01*
X144334306Y-142800500D01*
X144575500Y-142800500D01*
X144642539Y-142820185D01*
X144688294Y-142872989D01*
X144699500Y-142924500D01*
X144699500Y-143125270D01*
X144679815Y-143192309D01*
X144663181Y-143212951D01*
X143625451Y-144250681D01*
X143564128Y-144284166D01*
X143537770Y-144287000D01*
X142988580Y-144287000D01*
X142843592Y-144315840D01*
X142843582Y-144315843D01*
X142707011Y-144372412D01*
X142706998Y-144372419D01*
X142584084Y-144454548D01*
X142584080Y-144454551D01*
X140285164Y-146753467D01*
X140223841Y-146786952D01*
X140154149Y-146781968D01*
X140146892Y-146778913D01*
X139858746Y-146664828D01*
X139858743Y-146664827D01*
X139560089Y-146588146D01*
X139560076Y-146588144D01*
X139254183Y-146549500D01*
X139254172Y-146549500D01*
X138945828Y-146549500D01*
X138945816Y-146549500D01*
X138639923Y-146588144D01*
X138639910Y-146588146D01*
X138341256Y-146664827D01*
X138341253Y-146664828D01*
X138054573Y-146778332D01*
X138054572Y-146778333D01*
X137784360Y-146926884D01*
X137784348Y-146926891D01*
X137534912Y-147108117D01*
X137534902Y-147108125D01*
X137310132Y-147319199D01*
X137113577Y-147556793D01*
X136948366Y-147817126D01*
X136948362Y-147817132D01*
X136817080Y-148096120D01*
X136817078Y-148096125D01*
X136721795Y-148389376D01*
X136664015Y-148692267D01*
X136664014Y-148692274D01*
X136644655Y-148999994D01*
X136644655Y-149000005D01*
X136664014Y-149307725D01*
X136664015Y-149307732D01*
X136664016Y-149307736D01*
X136721794Y-149610619D01*
X136817078Y-149903873D01*
X136881626Y-150041044D01*
X136892358Y-150110085D01*
X136864061Y-150173968D01*
X136857108Y-150181522D01*
X133325451Y-153713181D01*
X133264128Y-153746666D01*
X133237770Y-153749500D01*
X127911230Y-153749500D01*
X127844191Y-153729815D01*
X127798436Y-153677011D01*
X127788492Y-153607853D01*
X127817517Y-153544297D01*
X127823549Y-153537819D01*
X129874548Y-151486818D01*
X129935871Y-151453333D01*
X129962229Y-151450499D01*
X133050000Y-151450499D01*
X133050006Y-151450499D01*
X133152796Y-151439999D01*
X133319333Y-151384814D01*
X133468655Y-151292711D01*
X133592711Y-151168655D01*
X133684814Y-151019333D01*
X133739999Y-150852796D01*
X133750500Y-150750007D01*
X133750499Y-147249994D01*
X133744103Y-147187385D01*
X133739999Y-147147204D01*
X133739998Y-147147201D01*
X133727047Y-147108117D01*
X133684814Y-146980667D01*
X133592711Y-146831345D01*
X133468655Y-146707289D01*
X133457042Y-146700126D01*
X133410319Y-146648181D01*
X133399095Y-146579219D01*
X133426937Y-146515136D01*
X133434446Y-146506919D01*
X135699548Y-144241819D01*
X135760871Y-144208334D01*
X135787229Y-144205500D01*
X136365686Y-144205500D01*
X136365694Y-144205500D01*
X136402569Y-144202598D01*
X136402571Y-144202597D01*
X136402573Y-144202597D01*
X136460143Y-144185871D01*
X136560398Y-144156744D01*
X136701865Y-144073081D01*
X136818081Y-143956865D01*
X136830509Y-143935849D01*
X136881577Y-143888167D01*
X136950318Y-143875663D01*
X137014908Y-143902307D01*
X137024922Y-143911290D01*
X137238181Y-144124548D01*
X137271666Y-144185871D01*
X137274500Y-144212229D01*
X137274500Y-144331613D01*
X137280913Y-144402192D01*
X137280913Y-144402194D01*
X137280914Y-144402196D01*
X137331522Y-144564606D01*
X137413058Y-144699483D01*
X137419530Y-144710188D01*
X137539811Y-144830469D01*
X137539813Y-144830470D01*
X137539815Y-144830472D01*
X137685394Y-144918478D01*
X137847804Y-144969086D01*
X137918384Y-144975500D01*
X137918387Y-144975500D01*
X138431613Y-144975500D01*
X138431616Y-144975500D01*
X138502196Y-144969086D01*
X138664606Y-144918478D01*
X138810185Y-144830472D01*
X138912673Y-144727983D01*
X138973994Y-144694499D01*
X139043685Y-144699483D01*
X139088034Y-144727984D01*
X139190122Y-144830072D01*
X139335604Y-144918019D01*
X139335603Y-144918019D01*
X139497894Y-144968590D01*
X139497893Y-144968590D01*
X139568408Y-144974998D01*
X139568426Y-144974999D01*
X140075000Y-144974999D01*
X140081581Y-144974999D01*
X140152102Y-144968591D01*
X140152107Y-144968590D01*
X140314396Y-144918018D01*
X140459877Y-144830072D01*
X140580072Y-144709877D01*
X140668019Y-144564395D01*
X140718590Y-144402106D01*
X140725000Y-144331572D01*
X140725000Y-144250000D01*
X140075000Y-144250000D01*
X140075000Y-144974999D01*
X139568426Y-144974999D01*
X139574999Y-144974998D01*
X139575000Y-144974998D01*
X139575000Y-143750000D01*
X140075000Y-143750000D01*
X140724999Y-143750000D01*
X140724999Y-143668417D01*
X140718591Y-143597897D01*
X140718590Y-143597892D01*
X140668018Y-143435603D01*
X140580072Y-143290122D01*
X140459877Y-143169927D01*
X140314395Y-143081980D01*
X140314396Y-143081980D01*
X140152105Y-143031409D01*
X140152106Y-143031409D01*
X140081572Y-143025000D01*
X140075000Y-143025000D01*
X140075000Y-143750000D01*
X139575000Y-143750000D01*
X139575000Y-143025000D01*
X139574999Y-143024999D01*
X139568436Y-143025000D01*
X139568417Y-143025001D01*
X139497897Y-143031408D01*
X139497892Y-143031409D01*
X139335603Y-143081981D01*
X139190122Y-143169927D01*
X139190121Y-143169928D01*
X139088035Y-143272015D01*
X139026712Y-143305500D01*
X138957020Y-143300516D01*
X138912673Y-143272015D01*
X138810188Y-143169530D01*
X138802509Y-143164888D01*
X138664606Y-143081522D01*
X138502196Y-143030914D01*
X138502194Y-143030913D01*
X138502192Y-143030913D01*
X138452778Y-143026423D01*
X138431616Y-143024500D01*
X138431613Y-143024500D01*
X138312229Y-143024500D01*
X138245190Y-143004815D01*
X138224548Y-142988181D01*
X136823338Y-141586970D01*
X136789853Y-141525647D01*
X136794837Y-141455955D01*
X136815127Y-141424449D01*
X136813298Y-141423031D01*
X136818075Y-141416870D01*
X136818081Y-141416865D01*
X136901744Y-141275398D01*
X136947598Y-141117569D01*
X136950500Y-141080694D01*
X136950500Y-140649306D01*
X136947598Y-140612431D01*
X136901744Y-140454602D01*
X136818081Y-140313135D01*
X136818078Y-140313132D01*
X136813298Y-140306969D01*
X136815750Y-140305066D01*
X136789155Y-140256421D01*
X136794104Y-140186726D01*
X136814940Y-140154304D01*
X136813298Y-140153031D01*
X136818075Y-140146870D01*
X136818081Y-140146865D01*
X136901744Y-140005398D01*
X136947598Y-139847569D01*
X136950500Y-139810694D01*
X136950500Y-139379306D01*
X136947598Y-139342431D01*
X136901744Y-139184602D01*
X136818081Y-139043135D01*
X136818079Y-139043133D01*
X136818076Y-139043129D01*
X136701870Y-138926923D01*
X136701862Y-138926917D01*
X136560396Y-138843255D01*
X136560393Y-138843254D01*
X136402573Y-138797402D01*
X136402567Y-138797401D01*
X136365701Y-138794500D01*
X136365694Y-138794500D01*
X134584306Y-138794500D01*
X134584298Y-138794500D01*
X134547432Y-138797401D01*
X134547426Y-138797402D01*
X134389606Y-138843254D01*
X134389603Y-138843255D01*
X134302621Y-138894696D01*
X134234897Y-138911879D01*
X134168634Y-138889719D01*
X134124871Y-138835253D01*
X134115500Y-138787964D01*
X134115500Y-137684986D01*
X136305001Y-137684986D01*
X136315494Y-137787697D01*
X136370641Y-137954119D01*
X136370643Y-137954124D01*
X136462684Y-138103345D01*
X136586654Y-138227315D01*
X136735875Y-138319356D01*
X136735880Y-138319358D01*
X136902302Y-138374505D01*
X136902309Y-138374506D01*
X137005019Y-138384999D01*
X137142499Y-138384999D01*
X137142500Y-138384998D01*
X137142500Y-137410000D01*
X136305001Y-137410000D01*
X136305001Y-137684986D01*
X134115500Y-137684986D01*
X134115500Y-136635013D01*
X136305000Y-136635013D01*
X136305000Y-136910000D01*
X137142500Y-136910000D01*
X137142500Y-135935000D01*
X137005027Y-135935000D01*
X137005012Y-135935001D01*
X136902302Y-135945494D01*
X136735880Y-136000641D01*
X136735875Y-136000643D01*
X136586654Y-136092684D01*
X136462684Y-136216654D01*
X136370643Y-136365875D01*
X136370641Y-136365880D01*
X136315494Y-136532302D01*
X136315493Y-136532309D01*
X136305000Y-136635013D01*
X134115500Y-136635013D01*
X134115500Y-136497230D01*
X134135185Y-136430191D01*
X134151819Y-136409549D01*
X139524549Y-131036819D01*
X139585872Y-131003334D01*
X139612230Y-131000500D01*
X140375501Y-131000500D01*
X140442540Y-131020185D01*
X140488295Y-131072989D01*
X140499501Y-131124500D01*
X140499501Y-131250376D01*
X140505908Y-131309983D01*
X140556202Y-131444828D01*
X140556206Y-131444835D01*
X140642452Y-131560044D01*
X140642455Y-131560047D01*
X140757664Y-131646293D01*
X140757667Y-131646295D01*
X140757668Y-131646295D01*
X140757669Y-131646296D01*
X140786025Y-131656872D01*
X140841958Y-131698742D01*
X140866376Y-131764206D01*
X140851525Y-131832479D01*
X140843010Y-131845939D01*
X140710213Y-132028719D01*
X140606417Y-132232429D01*
X140535765Y-132449871D01*
X140521491Y-132540000D01*
X141509252Y-132540000D01*
X141487482Y-132577708D01*
X141450000Y-132717591D01*
X141450000Y-132862409D01*
X141487482Y-133002292D01*
X141509252Y-133040000D01*
X140521491Y-133040000D01*
X140535765Y-133130128D01*
X140606417Y-133347570D01*
X140710211Y-133551276D01*
X140844597Y-133736242D01*
X141006257Y-133897902D01*
X141006263Y-133897907D01*
X141090863Y-133959372D01*
X141133529Y-134014701D01*
X141139508Y-134084315D01*
X141106903Y-134146110D01*
X141090864Y-134160007D01*
X141005940Y-134221709D01*
X141005931Y-134221716D01*
X140844216Y-134383431D01*
X140844216Y-134383432D01*
X140844214Y-134383434D01*
X140786480Y-134462896D01*
X140709783Y-134568461D01*
X140605950Y-134772244D01*
X140535278Y-134989750D01*
X140535278Y-134989753D01*
X140499500Y-135215646D01*
X140499500Y-135444354D01*
X140499499Y-135444354D01*
X140534022Y-135662322D01*
X140525067Y-135731615D01*
X140499230Y-135769400D01*
X140282796Y-135985834D01*
X140221473Y-136019319D01*
X140151781Y-136014335D01*
X140130025Y-136003696D01*
X140128390Y-136002687D01*
X140124334Y-136000186D01*
X139957797Y-135945001D01*
X139957795Y-135945000D01*
X139855010Y-135934500D01*
X139079998Y-135934500D01*
X139079980Y-135934501D01*
X138977203Y-135945000D01*
X138977200Y-135945001D01*
X138810668Y-136000185D01*
X138810663Y-136000187D01*
X138661342Y-136092289D01*
X138537288Y-136216343D01*
X138537283Y-136216349D01*
X138535241Y-136219661D01*
X138533247Y-136221453D01*
X138532807Y-136222011D01*
X138532711Y-136221935D01*
X138483291Y-136266383D01*
X138414328Y-136277602D01*
X138350247Y-136249755D01*
X138324168Y-136219656D01*
X138322319Y-136216659D01*
X138322316Y-136216655D01*
X138198345Y-136092684D01*
X138049124Y-136000643D01*
X138049119Y-136000641D01*
X137882697Y-135945494D01*
X137882690Y-135945493D01*
X137779986Y-135935000D01*
X137642500Y-135935000D01*
X137642500Y-138384999D01*
X137779972Y-138384999D01*
X137779986Y-138384998D01*
X137882697Y-138374505D01*
X138049119Y-138319358D01*
X138049124Y-138319356D01*
X138198345Y-138227315D01*
X138322318Y-138103342D01*
X138324165Y-138100348D01*
X138325969Y-138098724D01*
X138326798Y-138097677D01*
X138326976Y-138097818D01*
X138376110Y-138053621D01*
X138445073Y-138042396D01*
X138509156Y-138070236D01*
X138535243Y-138100341D01*
X138537288Y-138103656D01*
X138661344Y-138227712D01*
X138810666Y-138319814D01*
X138977203Y-138374999D01*
X139079991Y-138385500D01*
X139855008Y-138385499D01*
X139855016Y-138385498D01*
X139855019Y-138385498D01*
X139911302Y-138379748D01*
X139957797Y-138374999D01*
X140124334Y-138319814D01*
X140273656Y-138227712D01*
X140397712Y-138103656D01*
X140489814Y-137954334D01*
X140521278Y-137859381D01*
X140561049Y-137801938D01*
X140570088Y-137795287D01*
X140581299Y-137787797D01*
X140648416Y-137742952D01*
X141595111Y-136796255D01*
X141656432Y-136762772D01*
X141702183Y-136761465D01*
X141838146Y-136783000D01*
X141838148Y-136783000D01*
X142161853Y-136783000D01*
X142161854Y-136783000D01*
X142387745Y-136747222D01*
X142387748Y-136747221D01*
X142387749Y-136747221D01*
X142605255Y-136676549D01*
X142605255Y-136676548D01*
X142605258Y-136676548D01*
X142809038Y-136572717D01*
X142994066Y-136438286D01*
X143155786Y-136276566D01*
X143290217Y-136091538D01*
X143394048Y-135887758D01*
X143418960Y-135811087D01*
X143464721Y-135670249D01*
X143464721Y-135670247D01*
X143464722Y-135670245D01*
X143500500Y-135444354D01*
X143500500Y-135215646D01*
X143464722Y-134989755D01*
X143464721Y-134989751D01*
X143464721Y-134989750D01*
X143394049Y-134772244D01*
X143394048Y-134772242D01*
X143290217Y-134568462D01*
X143155786Y-134383434D01*
X142994066Y-134221714D01*
X142909134Y-134160007D01*
X142866470Y-134104678D01*
X142860491Y-134035064D01*
X142893097Y-133973269D01*
X142909137Y-133959371D01*
X142993739Y-133897905D01*
X143155402Y-133736242D01*
X143289788Y-133551276D01*
X143393582Y-133347570D01*
X143464234Y-133130128D01*
X143478509Y-133040000D01*
X142490748Y-133040000D01*
X142512518Y-133002292D01*
X142550000Y-132862409D01*
X142550000Y-132717591D01*
X142512518Y-132577708D01*
X142490748Y-132540000D01*
X143478509Y-132540000D01*
X143464234Y-132449871D01*
X143393582Y-132232429D01*
X143289788Y-132028723D01*
X143156988Y-131845940D01*
X143133508Y-131780133D01*
X143149333Y-131712079D01*
X143199439Y-131663384D01*
X143213966Y-131656875D01*
X143242331Y-131646296D01*
X143357546Y-131560046D01*
X143443796Y-131444831D01*
X143494091Y-131309983D01*
X143500500Y-131250373D01*
X143500500Y-131124500D01*
X143520185Y-131057461D01*
X143572989Y-131011706D01*
X143624500Y-131000500D01*
X153323920Y-131000500D01*
X153453077Y-130974808D01*
X153468913Y-130971658D01*
X153605495Y-130915084D01*
X153668095Y-130873256D01*
X153728416Y-130832952D01*
X155288319Y-129273046D01*
X155349642Y-129239562D01*
X155419333Y-129244546D01*
G37*
G04 #@! TD.AperFunction*
G04 #@! TA.AperFunction,Conductor*
G36*
X167927702Y-126370185D02*
G01*
X167933548Y-126374182D01*
X167947265Y-126384148D01*
X167947270Y-126384151D01*
X168120192Y-126461142D01*
X168120197Y-126461144D01*
X168305354Y-126500500D01*
X168305355Y-126500500D01*
X168494644Y-126500500D01*
X168494646Y-126500500D01*
X168679803Y-126461144D01*
X168852730Y-126384151D01*
X168854776Y-126382664D01*
X168866452Y-126374182D01*
X168932258Y-126350702D01*
X168939337Y-126350500D01*
X172237770Y-126350500D01*
X172304809Y-126370185D01*
X172325451Y-126386819D01*
X172963181Y-127024548D01*
X172996666Y-127085871D01*
X172999500Y-127112229D01*
X172999500Y-128673000D01*
X172979815Y-128740039D01*
X172927011Y-128785794D01*
X172875500Y-128797000D01*
X171659730Y-128797000D01*
X171592691Y-128777315D01*
X171572049Y-128760681D01*
X170752421Y-127941052D01*
X170752414Y-127941046D01*
X170678729Y-127891812D01*
X170678729Y-127891813D01*
X170629495Y-127858916D01*
X170512268Y-127810359D01*
X170457865Y-127766518D01*
X170442015Y-127734801D01*
X170440314Y-127729666D01*
X170348212Y-127580344D01*
X170224156Y-127456288D01*
X170074834Y-127364186D01*
X169908297Y-127309001D01*
X169908295Y-127309000D01*
X169805510Y-127298500D01*
X169030498Y-127298500D01*
X169030480Y-127298501D01*
X168927703Y-127309000D01*
X168927700Y-127309001D01*
X168761168Y-127364185D01*
X168761163Y-127364187D01*
X168611842Y-127456289D01*
X168487788Y-127580343D01*
X168487783Y-127580349D01*
X168485741Y-127583661D01*
X168483747Y-127585453D01*
X168483307Y-127586011D01*
X168483211Y-127585935D01*
X168433791Y-127630383D01*
X168364828Y-127641602D01*
X168300747Y-127613755D01*
X168274668Y-127583656D01*
X168272819Y-127580659D01*
X168272816Y-127580655D01*
X168148845Y-127456684D01*
X167999624Y-127364643D01*
X167999619Y-127364641D01*
X167833197Y-127309494D01*
X167833190Y-127309493D01*
X167730486Y-127299000D01*
X167593000Y-127299000D01*
X167593000Y-129748999D01*
X167730472Y-129748999D01*
X167730486Y-129748998D01*
X167833197Y-129738505D01*
X167999619Y-129683358D01*
X167999624Y-129683356D01*
X168148845Y-129591315D01*
X168272818Y-129467342D01*
X168274665Y-129464348D01*
X168276469Y-129462724D01*
X168277298Y-129461677D01*
X168277476Y-129461818D01*
X168326610Y-129417621D01*
X168395573Y-129406396D01*
X168459656Y-129434236D01*
X168485743Y-129464341D01*
X168487788Y-129467656D01*
X168611844Y-129591712D01*
X168761166Y-129683814D01*
X168927703Y-129738999D01*
X169030491Y-129749500D01*
X169805508Y-129749499D01*
X169805516Y-129749498D01*
X169805519Y-129749498D01*
X169861802Y-129743748D01*
X169908297Y-129738999D01*
X170074834Y-129683814D01*
X170175462Y-129621746D01*
X170242853Y-129603307D01*
X170309516Y-129624230D01*
X170328238Y-129639605D01*
X170463181Y-129774548D01*
X170496666Y-129835871D01*
X170499500Y-129862229D01*
X170499500Y-131250370D01*
X170499501Y-131250376D01*
X170505908Y-131309983D01*
X170556202Y-131444828D01*
X170556206Y-131444835D01*
X170642452Y-131560044D01*
X170642455Y-131560047D01*
X170757664Y-131646293D01*
X170757667Y-131646295D01*
X170757668Y-131646295D01*
X170757669Y-131646296D01*
X170786025Y-131656872D01*
X170841958Y-131698742D01*
X170866376Y-131764206D01*
X170851525Y-131832479D01*
X170843010Y-131845939D01*
X170710213Y-132028719D01*
X170606417Y-132232429D01*
X170535765Y-132449871D01*
X170521491Y-132540000D01*
X171509252Y-132540000D01*
X171487482Y-132577708D01*
X171450000Y-132717591D01*
X171450000Y-132862409D01*
X171487482Y-133002292D01*
X171509252Y-133040000D01*
X170521491Y-133040000D01*
X170535765Y-133130128D01*
X170606417Y-133347570D01*
X170710211Y-133551276D01*
X170844597Y-133736242D01*
X171006257Y-133897902D01*
X171006263Y-133897907D01*
X171090863Y-133959372D01*
X171133529Y-134014701D01*
X171139508Y-134084315D01*
X171106903Y-134146110D01*
X171090864Y-134160007D01*
X171005940Y-134221709D01*
X171005931Y-134221716D01*
X170844216Y-134383431D01*
X170844216Y-134383432D01*
X170844214Y-134383434D01*
X170786480Y-134462896D01*
X170709783Y-134568461D01*
X170605950Y-134772244D01*
X170535278Y-134989750D01*
X170535278Y-134989753D01*
X170499500Y-135215646D01*
X170499500Y-135444354D01*
X170499499Y-135444354D01*
X170534022Y-135662322D01*
X170525067Y-135731615D01*
X170499230Y-135769400D01*
X170272114Y-135996516D01*
X170210791Y-136030001D01*
X170141099Y-136025017D01*
X170119338Y-136014375D01*
X170096334Y-136000186D01*
X169929797Y-135945001D01*
X169929795Y-135945000D01*
X169827010Y-135934500D01*
X169051998Y-135934500D01*
X169051980Y-135934501D01*
X168949203Y-135945000D01*
X168949200Y-135945001D01*
X168782668Y-136000185D01*
X168782663Y-136000187D01*
X168633342Y-136092289D01*
X168509288Y-136216343D01*
X168509283Y-136216349D01*
X168507241Y-136219661D01*
X168505247Y-136221453D01*
X168504807Y-136222011D01*
X168504711Y-136221935D01*
X168455291Y-136266383D01*
X168386328Y-136277602D01*
X168322247Y-136249755D01*
X168296168Y-136219656D01*
X168294319Y-136216659D01*
X168294316Y-136216655D01*
X168170345Y-136092684D01*
X168021124Y-136000643D01*
X168021119Y-136000641D01*
X167854697Y-135945494D01*
X167854690Y-135945493D01*
X167751986Y-135935000D01*
X167614500Y-135935000D01*
X167614500Y-138384999D01*
X167751972Y-138384999D01*
X167751986Y-138384998D01*
X167854697Y-138374505D01*
X168021119Y-138319358D01*
X168021124Y-138319356D01*
X168170345Y-138227315D01*
X168294318Y-138103342D01*
X168296165Y-138100348D01*
X168297969Y-138098724D01*
X168298798Y-138097677D01*
X168298976Y-138097818D01*
X168348110Y-138053621D01*
X168417073Y-138042396D01*
X168481156Y-138070236D01*
X168507243Y-138100341D01*
X168509288Y-138103656D01*
X168633344Y-138227712D01*
X168782666Y-138319814D01*
X168949203Y-138374999D01*
X169051991Y-138385500D01*
X169827008Y-138385499D01*
X169827016Y-138385498D01*
X169827019Y-138385498D01*
X169883302Y-138379748D01*
X169929797Y-138374999D01*
X170096334Y-138319814D01*
X170245656Y-138227712D01*
X170369712Y-138103656D01*
X170461814Y-137954334D01*
X170485314Y-137883411D01*
X170525085Y-137825969D01*
X170534121Y-137819319D01*
X170581299Y-137787797D01*
X170648416Y-137742952D01*
X171595111Y-136796255D01*
X171656432Y-136762772D01*
X171702183Y-136761465D01*
X171838146Y-136783000D01*
X171838148Y-136783000D01*
X171842959Y-136783762D01*
X171842665Y-136785613D01*
X171900483Y-136807627D01*
X171941973Y-136863843D01*
X171949500Y-136906387D01*
X171949500Y-146926083D01*
X171929815Y-146993122D01*
X171877011Y-147038877D01*
X171807853Y-147048821D01*
X171752615Y-147026401D01*
X171615651Y-146926891D01*
X171615644Y-146926886D01*
X171615640Y-146926884D01*
X171345435Y-146778337D01*
X171345432Y-146778335D01*
X171345427Y-146778333D01*
X171345426Y-146778332D01*
X171058746Y-146664828D01*
X171058743Y-146664827D01*
X170760089Y-146588146D01*
X170760076Y-146588144D01*
X170454183Y-146549500D01*
X170454172Y-146549500D01*
X170145828Y-146549500D01*
X170145816Y-146549500D01*
X169839923Y-146588144D01*
X169839910Y-146588146D01*
X169541263Y-146664826D01*
X169541258Y-146664827D01*
X169521933Y-146672478D01*
X169452355Y-146678851D01*
X169390376Y-146646595D01*
X169388611Y-146644864D01*
X166826716Y-144082969D01*
X166793231Y-144021646D01*
X166790869Y-143984484D01*
X166805468Y-143817621D01*
X166805273Y-143815396D01*
X166792411Y-143668384D01*
X166785635Y-143590929D01*
X166726739Y-143371125D01*
X166630568Y-143164887D01*
X166500047Y-142978482D01*
X166500045Y-142978479D01*
X166342493Y-142820927D01*
X166309008Y-142759604D01*
X166313992Y-142689912D01*
X166355864Y-142633979D01*
X166401667Y-142612567D01*
X166407381Y-142611216D01*
X166542086Y-142560975D01*
X166542093Y-142560971D01*
X166657187Y-142474811D01*
X166657190Y-142474808D01*
X166743350Y-142359714D01*
X166743354Y-142359707D01*
X166793596Y-142225000D01*
X166793598Y-142224993D01*
X166799999Y-142165465D01*
X166800000Y-142165448D01*
X166800000Y-141567621D01*
X165815686Y-141567621D01*
X165820080Y-141563227D01*
X165872741Y-141472015D01*
X165900000Y-141370282D01*
X165900000Y-141264960D01*
X165872741Y-141163227D01*
X165820080Y-141072015D01*
X165815686Y-141067621D01*
X166800000Y-141067621D01*
X166800000Y-140469793D01*
X166799999Y-140469776D01*
X166793598Y-140410248D01*
X166793596Y-140410241D01*
X166743354Y-140275534D01*
X166743350Y-140275527D01*
X166657190Y-140160433D01*
X166657187Y-140160430D01*
X166542093Y-140074270D01*
X166542086Y-140074266D01*
X166407379Y-140024024D01*
X166407372Y-140024022D01*
X166347844Y-140017621D01*
X165750000Y-140017621D01*
X165750000Y-141001935D01*
X165745606Y-140997541D01*
X165654394Y-140944880D01*
X165552661Y-140917621D01*
X165447339Y-140917621D01*
X165345606Y-140944880D01*
X165254394Y-140997541D01*
X165250000Y-141001935D01*
X165250000Y-140017621D01*
X164652155Y-140017621D01*
X164592627Y-140024022D01*
X164592620Y-140024024D01*
X164457913Y-140074266D01*
X164457906Y-140074270D01*
X164342812Y-140160430D01*
X164342809Y-140160433D01*
X164256649Y-140275527D01*
X164256645Y-140275534D01*
X164206403Y-140410241D01*
X164206401Y-140410248D01*
X164200000Y-140469776D01*
X164200000Y-141156891D01*
X164180315Y-141223930D01*
X164127511Y-141269685D01*
X164058353Y-141279629D01*
X163994797Y-141250604D01*
X163988319Y-141244572D01*
X160428733Y-137684986D01*
X166277001Y-137684986D01*
X166287494Y-137787697D01*
X166342641Y-137954119D01*
X166342643Y-137954124D01*
X166434684Y-138103345D01*
X166558654Y-138227315D01*
X166707875Y-138319356D01*
X166707880Y-138319358D01*
X166874302Y-138374505D01*
X166874309Y-138374506D01*
X166977019Y-138384999D01*
X167114499Y-138384999D01*
X167114500Y-138384998D01*
X167114500Y-137410000D01*
X166277001Y-137410000D01*
X166277001Y-137684986D01*
X160428733Y-137684986D01*
X159378760Y-136635013D01*
X166277000Y-136635013D01*
X166277000Y-136910000D01*
X167114500Y-136910000D01*
X167114500Y-135935000D01*
X166977027Y-135935000D01*
X166977012Y-135935001D01*
X166874302Y-135945494D01*
X166707880Y-136000641D01*
X166707875Y-136000643D01*
X166558654Y-136092684D01*
X166434684Y-136216654D01*
X166342643Y-136365875D01*
X166342641Y-136365880D01*
X166287494Y-136532302D01*
X166287493Y-136532309D01*
X166277000Y-136635013D01*
X159378760Y-136635013D01*
X158615238Y-135871491D01*
X158581753Y-135810168D01*
X158586737Y-135740476D01*
X158615238Y-135696129D01*
X159582949Y-134728418D01*
X159582952Y-134728415D01*
X159630830Y-134656760D01*
X159665084Y-134605495D01*
X159721061Y-134470355D01*
X159721659Y-134468912D01*
X159750500Y-134323917D01*
X159750500Y-134176082D01*
X159750500Y-129048986D01*
X166255501Y-129048986D01*
X166265994Y-129151697D01*
X166321141Y-129318119D01*
X166321143Y-129318124D01*
X166413184Y-129467345D01*
X166537154Y-129591315D01*
X166686375Y-129683356D01*
X166686380Y-129683358D01*
X166852802Y-129738505D01*
X166852809Y-129738506D01*
X166955519Y-129748999D01*
X167092999Y-129748999D01*
X167093000Y-129748998D01*
X167093000Y-128774000D01*
X166255501Y-128774000D01*
X166255501Y-129048986D01*
X159750500Y-129048986D01*
X159750500Y-127999013D01*
X166255500Y-127999013D01*
X166255500Y-128274000D01*
X167093000Y-128274000D01*
X167093000Y-127299000D01*
X166955527Y-127299000D01*
X166955512Y-127299001D01*
X166852802Y-127309494D01*
X166686380Y-127364641D01*
X166686375Y-127364643D01*
X166537154Y-127456684D01*
X166413184Y-127580654D01*
X166321143Y-127729875D01*
X166321141Y-127729880D01*
X166265994Y-127896302D01*
X166265993Y-127896309D01*
X166255500Y-127999013D01*
X159750500Y-127999013D01*
X159750500Y-127474500D01*
X159770185Y-127407461D01*
X159822989Y-127361706D01*
X159874500Y-127350500D01*
X160360663Y-127350500D01*
X160427702Y-127370185D01*
X160433548Y-127374182D01*
X160447265Y-127384148D01*
X160447270Y-127384151D01*
X160620192Y-127461142D01*
X160620197Y-127461144D01*
X160805354Y-127500500D01*
X160805355Y-127500500D01*
X160994644Y-127500500D01*
X160994646Y-127500500D01*
X161179803Y-127461144D01*
X161352730Y-127384151D01*
X161505871Y-127272888D01*
X161632533Y-127132216D01*
X161727179Y-126968284D01*
X161785674Y-126788256D01*
X161805460Y-126600000D01*
X161793631Y-126487458D01*
X161806200Y-126418732D01*
X161853932Y-126367708D01*
X161916952Y-126350500D01*
X167860663Y-126350500D01*
X167927702Y-126370185D01*
G37*
G04 #@! TD.AperFunction*
G04 #@! TA.AperFunction,Conductor*
G36*
X158192539Y-127370185D02*
G01*
X158238294Y-127422989D01*
X158249500Y-127474500D01*
X158249500Y-128681136D01*
X158229815Y-128748175D01*
X158177011Y-128793930D01*
X158112244Y-128804425D01*
X158047844Y-128797500D01*
X157250000Y-128797500D01*
X157250000Y-129759252D01*
X157212292Y-129737482D01*
X157072409Y-129700000D01*
X156927591Y-129700000D01*
X156787708Y-129737482D01*
X156750000Y-129759252D01*
X156750000Y-128797500D01*
X156188330Y-128797500D01*
X156121291Y-128777815D01*
X156075536Y-128725011D01*
X156065592Y-128655853D01*
X156075052Y-128623060D01*
X156077176Y-128618289D01*
X156077179Y-128618284D01*
X156135674Y-128438256D01*
X156155460Y-128250000D01*
X156135674Y-128061744D01*
X156077179Y-127881716D01*
X155982533Y-127717784D01*
X155855871Y-127577112D01*
X155855867Y-127577109D01*
X155852713Y-127574817D01*
X155851329Y-127573022D01*
X155851042Y-127572764D01*
X155851089Y-127572711D01*
X155810047Y-127519487D01*
X155804069Y-127449873D01*
X155836676Y-127388079D01*
X155897515Y-127353722D01*
X155925599Y-127350500D01*
X158125500Y-127350500D01*
X158192539Y-127370185D01*
G37*
G04 #@! TD.AperFunction*
G04 #@! TA.AperFunction,Conductor*
G36*
X96050000Y-120935154D02*
G01*
X96096063Y-120925993D01*
X96096070Y-120925991D01*
X96280776Y-120849484D01*
X96280789Y-120849477D01*
X96356609Y-120798816D01*
X96423286Y-120777938D01*
X96490667Y-120796422D01*
X96537357Y-120848401D01*
X96549500Y-120901918D01*
X96549500Y-122373918D01*
X96578340Y-122518907D01*
X96578343Y-122518917D01*
X96634914Y-122655492D01*
X96664318Y-122699498D01*
X96664319Y-122699501D01*
X96717046Y-122778414D01*
X96717052Y-122778421D01*
X99576451Y-125637819D01*
X99609936Y-125699142D01*
X99604952Y-125768834D01*
X99563080Y-125824767D01*
X99497616Y-125849184D01*
X99488770Y-125849500D01*
X98862230Y-125849500D01*
X98795191Y-125829815D01*
X98774549Y-125813181D01*
X95086819Y-122125451D01*
X95053334Y-122064128D01*
X95050500Y-122037770D01*
X95050500Y-120901918D01*
X95070185Y-120834879D01*
X95122989Y-120789124D01*
X95192147Y-120779180D01*
X95243391Y-120798816D01*
X95319210Y-120849477D01*
X95319223Y-120849484D01*
X95503929Y-120925991D01*
X95503936Y-120925993D01*
X95550000Y-120935155D01*
X95550000Y-119866189D01*
X95575884Y-119892073D01*
X95659115Y-119940126D01*
X95751947Y-119965000D01*
X95848053Y-119965000D01*
X95940885Y-119940126D01*
X96024116Y-119892073D01*
X96050000Y-119866189D01*
X96050000Y-120935154D01*
G37*
G04 #@! TD.AperFunction*
G04 #@! TA.AperFunction,Conductor*
G36*
X103550000Y-120935154D02*
G01*
X103596063Y-120925993D01*
X103596070Y-120925991D01*
X103780776Y-120849484D01*
X103780789Y-120849477D01*
X103947023Y-120738403D01*
X103961962Y-120723464D01*
X104023285Y-120689977D01*
X104092977Y-120694960D01*
X104137329Y-120723464D01*
X104152653Y-120738789D01*
X104152656Y-120738791D01*
X104318973Y-120849921D01*
X104318986Y-120849928D01*
X104502625Y-120925993D01*
X104503789Y-120926475D01*
X104647185Y-120954998D01*
X104699977Y-120965499D01*
X104699981Y-120965500D01*
X104699982Y-120965500D01*
X104900019Y-120965500D01*
X104900020Y-120965499D01*
X105096211Y-120926475D01*
X105281020Y-120849925D01*
X105356609Y-120799417D01*
X105423286Y-120778540D01*
X105490666Y-120797024D01*
X105537357Y-120849003D01*
X105549500Y-120902520D01*
X105549500Y-122073918D01*
X105549500Y-122073920D01*
X105549499Y-122073920D01*
X105578340Y-122218907D01*
X105578343Y-122218917D01*
X105634913Y-122355490D01*
X105634914Y-122355491D01*
X105634916Y-122355495D01*
X105647225Y-122373916D01*
X105647226Y-122373918D01*
X105717051Y-122478420D01*
X105717052Y-122478421D01*
X106876451Y-123637819D01*
X106909936Y-123699142D01*
X106904952Y-123768834D01*
X106863080Y-123824767D01*
X106797616Y-123849184D01*
X106788770Y-123849500D01*
X103062229Y-123849500D01*
X102995190Y-123829815D01*
X102974548Y-123813181D01*
X101086819Y-121925451D01*
X101053334Y-121864128D01*
X101050500Y-121837770D01*
X101050500Y-120902520D01*
X101070185Y-120835481D01*
X101122989Y-120789726D01*
X101192147Y-120779782D01*
X101243390Y-120799417D01*
X101318980Y-120849925D01*
X101318982Y-120849926D01*
X101318986Y-120849928D01*
X101502625Y-120925993D01*
X101503789Y-120926475D01*
X101647185Y-120954998D01*
X101699977Y-120965499D01*
X101699981Y-120965500D01*
X101699982Y-120965500D01*
X101900019Y-120965500D01*
X101900020Y-120965499D01*
X102096211Y-120926475D01*
X102281020Y-120849925D01*
X102447344Y-120738791D01*
X102462671Y-120723463D01*
X102523989Y-120689978D01*
X102593681Y-120694959D01*
X102638034Y-120723462D01*
X102652971Y-120738399D01*
X102652975Y-120738402D01*
X102819210Y-120849477D01*
X102819223Y-120849484D01*
X103003929Y-120925991D01*
X103003936Y-120925993D01*
X103050000Y-120935155D01*
X103050000Y-119866189D01*
X103075884Y-119892073D01*
X103159115Y-119940126D01*
X103251947Y-119965000D01*
X103348053Y-119965000D01*
X103440885Y-119940126D01*
X103524116Y-119892073D01*
X103550000Y-119866189D01*
X103550000Y-120935154D01*
G37*
G04 #@! TD.AperFunction*
G04 #@! TA.AperFunction,Conductor*
G36*
X114401848Y-118219685D02*
G01*
X114447603Y-118272489D01*
X114457547Y-118341647D01*
X114428522Y-118405203D01*
X114403700Y-118427102D01*
X114352656Y-118461208D01*
X114352652Y-118461211D01*
X114211211Y-118602652D01*
X114211208Y-118602656D01*
X114100078Y-118768973D01*
X114100071Y-118768986D01*
X114023526Y-118953784D01*
X114023523Y-118953796D01*
X113984500Y-119149977D01*
X113984500Y-120050022D01*
X114023523Y-120246203D01*
X114023526Y-120246215D01*
X114100071Y-120431013D01*
X114100078Y-120431026D01*
X114211208Y-120597343D01*
X114211211Y-120597347D01*
X114352652Y-120738788D01*
X114352656Y-120738791D01*
X114518973Y-120849921D01*
X114518986Y-120849928D01*
X114702625Y-120925993D01*
X114703789Y-120926475D01*
X114847185Y-120954998D01*
X114899977Y-120965499D01*
X114899981Y-120965500D01*
X114899982Y-120965500D01*
X115100019Y-120965500D01*
X115100020Y-120965499D01*
X115296211Y-120926475D01*
X115481020Y-120849925D01*
X115647344Y-120738791D01*
X115662318Y-120723816D01*
X115723639Y-120690331D01*
X115793331Y-120695314D01*
X115837681Y-120723816D01*
X115852264Y-120738399D01*
X115852657Y-120738792D01*
X116018973Y-120849921D01*
X116018986Y-120849928D01*
X116202625Y-120925993D01*
X116203789Y-120926475D01*
X116347185Y-120954998D01*
X116399977Y-120965499D01*
X116399981Y-120965500D01*
X116399982Y-120965500D01*
X116600019Y-120965500D01*
X116600020Y-120965499D01*
X116796211Y-120926475D01*
X116981020Y-120849925D01*
X117147344Y-120738791D01*
X117162671Y-120723463D01*
X117223989Y-120689978D01*
X117293681Y-120694959D01*
X117338034Y-120723462D01*
X117352971Y-120738399D01*
X117352975Y-120738402D01*
X117519210Y-120849477D01*
X117519223Y-120849484D01*
X117703929Y-120925991D01*
X117703936Y-120925993D01*
X117750000Y-120935155D01*
X117750000Y-119866189D01*
X117775884Y-119892073D01*
X117859115Y-119940126D01*
X117951947Y-119965000D01*
X118048053Y-119965000D01*
X118140885Y-119940126D01*
X118224116Y-119892073D01*
X118250000Y-119866189D01*
X118250000Y-120935154D01*
X118296063Y-120925993D01*
X118296070Y-120925991D01*
X118480776Y-120849484D01*
X118480789Y-120849477D01*
X118647023Y-120738403D01*
X118661962Y-120723464D01*
X118723285Y-120689977D01*
X118792977Y-120694960D01*
X118837329Y-120723464D01*
X118852653Y-120738789D01*
X118852656Y-120738791D01*
X119018973Y-120849921D01*
X119018986Y-120849928D01*
X119202625Y-120925993D01*
X119203789Y-120926475D01*
X119347185Y-120954998D01*
X119399977Y-120965499D01*
X119399981Y-120965500D01*
X119399982Y-120965500D01*
X119600019Y-120965500D01*
X119600020Y-120965499D01*
X119796211Y-120926475D01*
X119981020Y-120849925D01*
X120147344Y-120738791D01*
X120162318Y-120723816D01*
X120223639Y-120690331D01*
X120293331Y-120695314D01*
X120337681Y-120723816D01*
X120352264Y-120738399D01*
X120352657Y-120738792D01*
X120518973Y-120849921D01*
X120518986Y-120849928D01*
X120702625Y-120925993D01*
X120703789Y-120926475D01*
X120847185Y-120954998D01*
X120899977Y-120965499D01*
X120899981Y-120965500D01*
X120899982Y-120965500D01*
X121100019Y-120965500D01*
X121100020Y-120965499D01*
X121296211Y-120926475D01*
X121481020Y-120849925D01*
X121647344Y-120738791D01*
X121662318Y-120723816D01*
X121723639Y-120690331D01*
X121793331Y-120695314D01*
X121837681Y-120723816D01*
X121852264Y-120738399D01*
X121852657Y-120738792D01*
X122018973Y-120849921D01*
X122018986Y-120849928D01*
X122202625Y-120925993D01*
X122203789Y-120926475D01*
X122347185Y-120954998D01*
X122399977Y-120965499D01*
X122399981Y-120965500D01*
X122399982Y-120965500D01*
X122600019Y-120965500D01*
X122600020Y-120965499D01*
X122796211Y-120926475D01*
X122981020Y-120849925D01*
X123147344Y-120738791D01*
X123162318Y-120723816D01*
X123223639Y-120690331D01*
X123293331Y-120695314D01*
X123337681Y-120723816D01*
X123352264Y-120738399D01*
X123352657Y-120738792D01*
X123518973Y-120849921D01*
X123518986Y-120849928D01*
X123702625Y-120925993D01*
X123703789Y-120926475D01*
X123847185Y-120954998D01*
X123899977Y-120965499D01*
X123899981Y-120965500D01*
X123899982Y-120965500D01*
X124100019Y-120965500D01*
X124100020Y-120965499D01*
X124296211Y-120926475D01*
X124481020Y-120849925D01*
X124647344Y-120738791D01*
X124662671Y-120723463D01*
X124723989Y-120689978D01*
X124793681Y-120694959D01*
X124838034Y-120723462D01*
X124852971Y-120738399D01*
X124852975Y-120738402D01*
X125019210Y-120849477D01*
X125019223Y-120849484D01*
X125203929Y-120925991D01*
X125203936Y-120925993D01*
X125250000Y-120935155D01*
X125250000Y-119866189D01*
X125275884Y-119892073D01*
X125359115Y-119940126D01*
X125451947Y-119965000D01*
X125548053Y-119965000D01*
X125640885Y-119940126D01*
X125724116Y-119892073D01*
X125750000Y-119866189D01*
X125750000Y-120935154D01*
X125796063Y-120925993D01*
X125796070Y-120925991D01*
X125980776Y-120849484D01*
X125980789Y-120849477D01*
X126147023Y-120738403D01*
X126161962Y-120723464D01*
X126223285Y-120689977D01*
X126292977Y-120694960D01*
X126337329Y-120723464D01*
X126352653Y-120738789D01*
X126352656Y-120738791D01*
X126518973Y-120849921D01*
X126518986Y-120849928D01*
X126702625Y-120925993D01*
X126703789Y-120926475D01*
X126847185Y-120954998D01*
X126899977Y-120965499D01*
X126899981Y-120965500D01*
X126899982Y-120965500D01*
X127100019Y-120965500D01*
X127100020Y-120965499D01*
X127296211Y-120926475D01*
X127481020Y-120849925D01*
X127592751Y-120775268D01*
X127659427Y-120754391D01*
X127726807Y-120772875D01*
X127749322Y-120790690D01*
X127766344Y-120807712D01*
X127915666Y-120899814D01*
X128082203Y-120954999D01*
X128138103Y-120960709D01*
X128202793Y-120987104D01*
X128242945Y-121044284D01*
X128249500Y-121084067D01*
X128249500Y-122725500D01*
X128229815Y-122792539D01*
X128177011Y-122838294D01*
X128125500Y-122849500D01*
X108262230Y-122849500D01*
X108195191Y-122829815D01*
X108174549Y-122813181D01*
X107086819Y-121725451D01*
X107053334Y-121664128D01*
X107050500Y-121637770D01*
X107050500Y-120842230D01*
X107070185Y-120775191D01*
X107086819Y-120754549D01*
X107117906Y-120723462D01*
X107157712Y-120683656D01*
X107249814Y-120534334D01*
X107304999Y-120367797D01*
X107315500Y-120265009D01*
X107315499Y-118934992D01*
X107304999Y-118832203D01*
X107249814Y-118665666D01*
X107157712Y-118516344D01*
X107053049Y-118411681D01*
X107019564Y-118350358D01*
X107024548Y-118280666D01*
X107066420Y-118224733D01*
X107131884Y-118200316D01*
X107140730Y-118200000D01*
X114334809Y-118200000D01*
X114401848Y-118219685D01*
G37*
G04 #@! TD.AperFunction*
G04 #@! TA.AperFunction,Conductor*
G36*
X136601848Y-118219685D02*
G01*
X136647603Y-118272489D01*
X136657547Y-118341647D01*
X136628522Y-118405203D01*
X136603700Y-118427102D01*
X136552656Y-118461208D01*
X136552652Y-118461211D01*
X136411211Y-118602652D01*
X136411208Y-118602656D01*
X136300078Y-118768973D01*
X136300071Y-118768986D01*
X136223526Y-118953784D01*
X136223523Y-118953796D01*
X136184500Y-119149977D01*
X136184500Y-120050022D01*
X136223523Y-120246203D01*
X136223526Y-120246215D01*
X136300071Y-120431013D01*
X136300078Y-120431026D01*
X136411208Y-120597343D01*
X136411211Y-120597347D01*
X136552652Y-120738788D01*
X136552656Y-120738791D01*
X136718973Y-120849921D01*
X136718986Y-120849928D01*
X136902625Y-120925993D01*
X136903789Y-120926475D01*
X137047185Y-120954998D01*
X137099977Y-120965499D01*
X137099981Y-120965500D01*
X137099982Y-120965500D01*
X137300019Y-120965500D01*
X137300020Y-120965499D01*
X137496211Y-120926475D01*
X137681020Y-120849925D01*
X137847344Y-120738791D01*
X137862318Y-120723816D01*
X137923639Y-120690331D01*
X137993331Y-120695314D01*
X138037681Y-120723816D01*
X138052264Y-120738399D01*
X138052657Y-120738792D01*
X138218973Y-120849921D01*
X138218986Y-120849928D01*
X138402625Y-120925993D01*
X138403789Y-120926475D01*
X138547185Y-120954998D01*
X138599977Y-120965499D01*
X138599981Y-120965500D01*
X138599982Y-120965500D01*
X138800019Y-120965500D01*
X138800020Y-120965499D01*
X138996211Y-120926475D01*
X139181020Y-120849925D01*
X139347344Y-120738791D01*
X139362671Y-120723463D01*
X139423989Y-120689978D01*
X139493681Y-120694959D01*
X139538034Y-120723462D01*
X139552971Y-120738399D01*
X139552975Y-120738402D01*
X139719210Y-120849477D01*
X139719223Y-120849484D01*
X139903929Y-120925991D01*
X139903936Y-120925993D01*
X139950000Y-120935155D01*
X139950000Y-119866189D01*
X139975884Y-119892073D01*
X140059115Y-119940126D01*
X140151947Y-119965000D01*
X140248053Y-119965000D01*
X140340885Y-119940126D01*
X140424116Y-119892073D01*
X140450000Y-119866189D01*
X140450000Y-120935154D01*
X140496063Y-120925993D01*
X140496070Y-120925991D01*
X140680776Y-120849484D01*
X140680789Y-120849477D01*
X140847023Y-120738403D01*
X140861962Y-120723464D01*
X140923285Y-120689977D01*
X140992977Y-120694960D01*
X141037329Y-120723464D01*
X141052653Y-120738789D01*
X141052656Y-120738791D01*
X141218973Y-120849921D01*
X141218986Y-120849928D01*
X141402625Y-120925993D01*
X141403789Y-120926475D01*
X141547185Y-120954998D01*
X141599977Y-120965499D01*
X141599981Y-120965500D01*
X141599982Y-120965500D01*
X141800019Y-120965500D01*
X141800020Y-120965499D01*
X141996211Y-120926475D01*
X142181020Y-120849925D01*
X142347344Y-120738791D01*
X142362318Y-120723816D01*
X142423639Y-120690331D01*
X142493331Y-120695314D01*
X142537681Y-120723816D01*
X142552264Y-120738399D01*
X142552657Y-120738792D01*
X142718973Y-120849921D01*
X142718986Y-120849928D01*
X142902625Y-120925993D01*
X142903789Y-120926475D01*
X143047185Y-120954998D01*
X143099977Y-120965499D01*
X143099981Y-120965500D01*
X143099982Y-120965500D01*
X143300019Y-120965500D01*
X143300020Y-120965499D01*
X143496211Y-120926475D01*
X143681020Y-120849925D01*
X143847344Y-120738791D01*
X143862318Y-120723816D01*
X143923639Y-120690331D01*
X143993331Y-120695314D01*
X144037681Y-120723816D01*
X144052264Y-120738399D01*
X144052657Y-120738792D01*
X144218973Y-120849921D01*
X144218986Y-120849928D01*
X144402625Y-120925993D01*
X144403789Y-120926475D01*
X144547185Y-120954998D01*
X144599977Y-120965499D01*
X144599981Y-120965500D01*
X144599982Y-120965500D01*
X144800019Y-120965500D01*
X144800020Y-120965499D01*
X144996211Y-120926475D01*
X145181020Y-120849925D01*
X145347344Y-120738791D01*
X145362318Y-120723816D01*
X145423639Y-120690331D01*
X145493331Y-120695314D01*
X145537681Y-120723816D01*
X145552264Y-120738399D01*
X145552657Y-120738792D01*
X145718973Y-120849921D01*
X145718986Y-120849928D01*
X145902625Y-120925993D01*
X145903789Y-120926475D01*
X146047185Y-120954998D01*
X146099977Y-120965499D01*
X146099981Y-120965500D01*
X146099982Y-120965500D01*
X146300019Y-120965500D01*
X146300020Y-120965499D01*
X146496211Y-120926475D01*
X146681020Y-120849925D01*
X146847344Y-120738791D01*
X146862671Y-120723463D01*
X146923989Y-120689978D01*
X146993681Y-120694959D01*
X147038034Y-120723462D01*
X147052971Y-120738399D01*
X147052975Y-120738402D01*
X147219210Y-120849477D01*
X147219223Y-120849484D01*
X147403929Y-120925991D01*
X147403936Y-120925993D01*
X147450000Y-120935155D01*
X147450000Y-119866189D01*
X147475884Y-119892073D01*
X147559115Y-119940126D01*
X147651947Y-119965000D01*
X147748053Y-119965000D01*
X147840885Y-119940126D01*
X147924116Y-119892073D01*
X147950000Y-119866189D01*
X147950000Y-120935154D01*
X147996063Y-120925993D01*
X147996070Y-120925991D01*
X148180776Y-120849484D01*
X148180789Y-120849477D01*
X148347023Y-120738403D01*
X148361962Y-120723464D01*
X148423285Y-120689977D01*
X148492977Y-120694960D01*
X148537329Y-120723464D01*
X148552653Y-120738789D01*
X148552656Y-120738791D01*
X148718973Y-120849921D01*
X148718986Y-120849928D01*
X148902625Y-120925993D01*
X148903789Y-120926475D01*
X149047185Y-120954998D01*
X149099977Y-120965499D01*
X149099981Y-120965500D01*
X149099982Y-120965500D01*
X149300019Y-120965500D01*
X149300020Y-120965499D01*
X149496211Y-120926475D01*
X149681020Y-120849925D01*
X149792751Y-120775268D01*
X149859427Y-120754391D01*
X149926807Y-120772875D01*
X149949322Y-120790690D01*
X149966344Y-120807712D01*
X150090597Y-120884351D01*
X150137321Y-120936297D01*
X150149500Y-120989889D01*
X150149500Y-122725500D01*
X150129815Y-122792539D01*
X150077011Y-122838294D01*
X150025500Y-122849500D01*
X129874500Y-122849500D01*
X129807461Y-122829815D01*
X129761706Y-122777011D01*
X129750500Y-122725500D01*
X129750500Y-120026079D01*
X129721659Y-119881092D01*
X129721658Y-119881091D01*
X129721658Y-119881087D01*
X129698060Y-119824116D01*
X129665087Y-119744511D01*
X129665083Y-119744504D01*
X129651383Y-119724000D01*
X129625487Y-119685244D01*
X129582952Y-119621584D01*
X129551818Y-119590450D01*
X129518333Y-119529127D01*
X129515499Y-119502769D01*
X129515499Y-118934998D01*
X129515498Y-118934981D01*
X129504999Y-118832203D01*
X129504998Y-118832200D01*
X129484049Y-118768980D01*
X129449814Y-118665666D01*
X129357712Y-118516344D01*
X129253049Y-118411681D01*
X129219564Y-118350358D01*
X129224548Y-118280666D01*
X129266420Y-118224733D01*
X129331884Y-118200316D01*
X129340730Y-118200000D01*
X136534809Y-118200000D01*
X136601848Y-118219685D01*
G37*
G04 #@! TD.AperFunction*
G04 #@! TA.AperFunction,Conductor*
G36*
X158801848Y-118219685D02*
G01*
X158847603Y-118272489D01*
X158857547Y-118341647D01*
X158828522Y-118405203D01*
X158803700Y-118427102D01*
X158752656Y-118461208D01*
X158752652Y-118461211D01*
X158611211Y-118602652D01*
X158611208Y-118602656D01*
X158500078Y-118768973D01*
X158500071Y-118768986D01*
X158423526Y-118953784D01*
X158423523Y-118953796D01*
X158384500Y-119149977D01*
X158384500Y-120050022D01*
X158423523Y-120246203D01*
X158423526Y-120246215D01*
X158500071Y-120431013D01*
X158500078Y-120431026D01*
X158611208Y-120597343D01*
X158611211Y-120597347D01*
X158752652Y-120738788D01*
X158752656Y-120738791D01*
X158918973Y-120849921D01*
X158918986Y-120849928D01*
X159102625Y-120925993D01*
X159103789Y-120926475D01*
X159247185Y-120954998D01*
X159299977Y-120965499D01*
X159299981Y-120965500D01*
X159299982Y-120965500D01*
X159500019Y-120965500D01*
X159500020Y-120965499D01*
X159696211Y-120926475D01*
X159881020Y-120849925D01*
X160047344Y-120738791D01*
X160062318Y-120723816D01*
X160123639Y-120690331D01*
X160193331Y-120695314D01*
X160237681Y-120723816D01*
X160252264Y-120738399D01*
X160252657Y-120738792D01*
X160418973Y-120849921D01*
X160418986Y-120849928D01*
X160602625Y-120925993D01*
X160603789Y-120926475D01*
X160747185Y-120954998D01*
X160799977Y-120965499D01*
X160799981Y-120965500D01*
X160799982Y-120965500D01*
X161000019Y-120965500D01*
X161000020Y-120965499D01*
X161196211Y-120926475D01*
X161381020Y-120849925D01*
X161547344Y-120738791D01*
X161562671Y-120723463D01*
X161623989Y-120689978D01*
X161693681Y-120694959D01*
X161738034Y-120723462D01*
X161752971Y-120738399D01*
X161752975Y-120738402D01*
X161919210Y-120849477D01*
X161919223Y-120849484D01*
X162103929Y-120925991D01*
X162103936Y-120925993D01*
X162150000Y-120935155D01*
X162150000Y-119866189D01*
X162175884Y-119892073D01*
X162259115Y-119940126D01*
X162351947Y-119965000D01*
X162448053Y-119965000D01*
X162540885Y-119940126D01*
X162624116Y-119892073D01*
X162650000Y-119866189D01*
X162650000Y-120935154D01*
X162696063Y-120925993D01*
X162696070Y-120925991D01*
X162880776Y-120849484D01*
X162880789Y-120849477D01*
X163047023Y-120738403D01*
X163061962Y-120723464D01*
X163123285Y-120689977D01*
X163192977Y-120694960D01*
X163237329Y-120723464D01*
X163252653Y-120738789D01*
X163252656Y-120738791D01*
X163418973Y-120849921D01*
X163418986Y-120849928D01*
X163602625Y-120925993D01*
X163603789Y-120926475D01*
X163747185Y-120954998D01*
X163799977Y-120965499D01*
X163799981Y-120965500D01*
X163799982Y-120965500D01*
X164000019Y-120965500D01*
X164000020Y-120965499D01*
X164196211Y-120926475D01*
X164381020Y-120849925D01*
X164547344Y-120738791D01*
X164562318Y-120723816D01*
X164623639Y-120690331D01*
X164693331Y-120695314D01*
X164737681Y-120723816D01*
X164752264Y-120738399D01*
X164752657Y-120738792D01*
X164918973Y-120849921D01*
X164918986Y-120849928D01*
X165102625Y-120925993D01*
X165103789Y-120926475D01*
X165247185Y-120954998D01*
X165299977Y-120965499D01*
X165299981Y-120965500D01*
X165299982Y-120965500D01*
X165500019Y-120965500D01*
X165500020Y-120965499D01*
X165696211Y-120926475D01*
X165881020Y-120849925D01*
X166047344Y-120738791D01*
X166062318Y-120723816D01*
X166123639Y-120690331D01*
X166193331Y-120695314D01*
X166237681Y-120723816D01*
X166252264Y-120738399D01*
X166252657Y-120738792D01*
X166418973Y-120849921D01*
X166418986Y-120849928D01*
X166602625Y-120925993D01*
X166603789Y-120926475D01*
X166747185Y-120954998D01*
X166799977Y-120965499D01*
X166799981Y-120965500D01*
X166799982Y-120965500D01*
X167000019Y-120965500D01*
X167000020Y-120965499D01*
X167196211Y-120926475D01*
X167381020Y-120849925D01*
X167547344Y-120738791D01*
X167562318Y-120723816D01*
X167623639Y-120690331D01*
X167693331Y-120695314D01*
X167737681Y-120723816D01*
X167752264Y-120738399D01*
X167752657Y-120738792D01*
X167918973Y-120849921D01*
X167918986Y-120849928D01*
X168102625Y-120925993D01*
X168103789Y-120926475D01*
X168247185Y-120954998D01*
X168299977Y-120965499D01*
X168299981Y-120965500D01*
X168299982Y-120965500D01*
X168500019Y-120965500D01*
X168500020Y-120965499D01*
X168696211Y-120926475D01*
X168881020Y-120849925D01*
X169047344Y-120738791D01*
X169062671Y-120723463D01*
X169123989Y-120689978D01*
X169193681Y-120694959D01*
X169238034Y-120723462D01*
X169252971Y-120738399D01*
X169252975Y-120738402D01*
X169419210Y-120849477D01*
X169419223Y-120849484D01*
X169603929Y-120925991D01*
X169603936Y-120925993D01*
X169650000Y-120935155D01*
X169650000Y-119866189D01*
X169675884Y-119892073D01*
X169759115Y-119940126D01*
X169851947Y-119965000D01*
X169948053Y-119965000D01*
X170040885Y-119940126D01*
X170124116Y-119892073D01*
X170150000Y-119866189D01*
X170150000Y-120935154D01*
X170196063Y-120925993D01*
X170196070Y-120925991D01*
X170380776Y-120849484D01*
X170380789Y-120849477D01*
X170547023Y-120738403D01*
X170561962Y-120723464D01*
X170623285Y-120689977D01*
X170692977Y-120694960D01*
X170737329Y-120723464D01*
X170752653Y-120738789D01*
X170752656Y-120738791D01*
X170918973Y-120849921D01*
X170918986Y-120849928D01*
X171102625Y-120925993D01*
X171103789Y-120926475D01*
X171247185Y-120954998D01*
X171299977Y-120965499D01*
X171299981Y-120965500D01*
X171299982Y-120965500D01*
X171500019Y-120965500D01*
X171500020Y-120965499D01*
X171696211Y-120926475D01*
X171881020Y-120849925D01*
X171956609Y-120799417D01*
X172023286Y-120778540D01*
X172090666Y-120797024D01*
X172137357Y-120849003D01*
X172149500Y-120902520D01*
X172149500Y-122725500D01*
X172129815Y-122792539D01*
X172077011Y-122838294D01*
X172025500Y-122849500D01*
X151774500Y-122849500D01*
X151707461Y-122829815D01*
X151661706Y-122777011D01*
X151650500Y-122725500D01*
X151650500Y-120552272D01*
X151656794Y-120513268D01*
X151704999Y-120367797D01*
X151715500Y-120265009D01*
X151715499Y-118934992D01*
X151704999Y-118832203D01*
X151649814Y-118665666D01*
X151557712Y-118516344D01*
X151453049Y-118411681D01*
X151419564Y-118350358D01*
X151424548Y-118280666D01*
X151466420Y-118224733D01*
X151531884Y-118200316D01*
X151540730Y-118200000D01*
X158734809Y-118200000D01*
X158801848Y-118219685D01*
G37*
G04 #@! TD.AperFunction*
M02*
