M48
; DRILL file {KiCad 8.0.7} date 2025-05-28T10:17:55-0700
; FORMAT={-:-/ absolute / metric / decimal}
; #@! TF.CreationDate,2025-05-28T10:17:55-07:00
; #@! TF.GenerationSoftware,Kicad,Pcbnew,8.0.7
; #@! TF.FileFunction,Plated,1,2,PTH
FMAT,2
METRIC
; #@! TA.AperFunction,Plated,PTH,ViaDrill
T1C0.400
; #@! TA.AperFunction,Plated,PTH,ComponentDrill
T2C0.730
; #@! TA.AperFunction,Plated,PTH,ComponentDrill
T3C0.800
; #@! TA.AperFunction,Plated,PTH,ComponentDrill
T4C0.890
; #@! TA.AperFunction,Plated,PTH,ComponentDrill
T5C1.100
; #@! TA.AperFunction,Plated,PTH,ComponentDrill
T6C1.750
; #@! TA.AperFunction,Plated,PTH,ComponentDrill
T7C2.010
%
G90
G05
T1
X116.5Y-126.6
X121.0Y-124.6
X124.0Y-125.6
X129.0Y-123.6
X144.7Y-124.6
X146.2Y-125.6
X149.2Y-126.6
X155.25Y-128.25
X160.9Y-126.6
X165.4Y-124.6
X168.4Y-125.6
T2
X92.8Y-119.6
X94.3Y-119.6
X95.8Y-119.6
X97.3Y-119.6
X98.8Y-119.6
X100.3Y-119.6
X101.8Y-119.6
X103.3Y-119.6
X104.8Y-119.6
X106.3Y-119.6
X115.0Y-119.6
X116.5Y-119.6
X118.0Y-119.6
X119.5Y-119.6
X121.0Y-119.6
X122.5Y-119.6
X124.0Y-119.6
X125.5Y-119.6
X127.0Y-119.6
X128.5Y-119.6
X137.2Y-119.6
X138.7Y-119.6
X140.2Y-119.6
X141.7Y-119.6
X143.2Y-119.6
X144.7Y-119.6
X146.2Y-119.6
X147.7Y-119.6
X149.2Y-119.6
X150.7Y-119.6
X159.4Y-119.6
X160.9Y-119.6
X162.4Y-119.6
X163.9Y-119.6
X165.4Y-119.6
X166.9Y-119.6
X168.4Y-119.6
X169.9Y-119.6
X171.4Y-119.6
X172.9Y-119.6
T3
X111.5Y-129.818
X111.5Y-132.318
X119.75Y-131.318
X119.75Y-133.818
X153.5Y-140.5
X153.5Y-143.0
X165.5Y-141.318
X165.5Y-143.818
T4
X97.0Y-143.0
X99.54Y-143.0
X117.0Y-143.0
X119.54Y-143.0
T5
X127.0Y-130.25
X127.0Y-132.79
X127.0Y-135.33
X142.0Y-130.25
X142.0Y-132.79
X142.0Y-135.33
X157.0Y-130.25
X157.0Y-132.79
X157.0Y-135.33
X172.0Y-130.25
X172.0Y-132.79
X172.0Y-135.33
T6
X131.3Y-149.0
X139.1Y-149.0
X146.9Y-149.0
X154.7Y-149.0
X162.5Y-149.0
X170.3Y-149.0
X178.1Y-149.0
T7
X91.92Y-148.08
X102.08Y-148.08
X111.92Y-148.08
X122.08Y-148.08
M30
